<svg width="20" height="20" viewBox="0 0 10 10" fill="none" xmlns="http://www.w3.org/2000/svg">
<path d="M7.88895 0L1.05555 6.83342L0 10L3.16656 8.94445L10 2.11105L7.88895 0ZM5.77791 2.95545L6.20012 3.37766L2.1609 7.41689L1.73869 6.99469L5.77791 2.95545ZM1.39711 8.90492L1.0951 8.60291L1.44695 7.54738L2.45264 8.55307L1.39711 8.90492ZM3.00529 8.26131L2.58309 7.8391L6.62232 3.79986L7.04453 4.22207L3.00529 8.26131ZM7.46674 3.7999L6.2001 2.53326L6.6223 2.11105L7.88895 3.3777L7.46674 3.7999ZM7.04451 1.68883L7.88893 0.844395L9.15559 2.11105L8.31115 2.95547L7.04451 1.68883Z" fill="#8ED245"/>
</svg>
