<svg width="15" height="15" viewBox="0 0 15 10" fill="none" xmlns="http://www.w3.org/2000/svg">
<path d="M1.70215 0.907228C1.5 0.945314 1.33008 1.04492 1.18945 1.2002C0.975586 1.4375 0.952148 1.5459 0.952148 2.28125C0.952148 3.05176 0.975586 3.14258 1.22754 3.39746C1.53223 3.70215 0.873047 3.67285 7.5 3.67285C14.127 3.67285 13.4678 3.70215 13.7725 3.39746C14.0244 3.14258 14.0479 3.05176 14.0479 2.28125C14.0479 1.51074 14.0244 1.41992 13.7725 1.16504C13.4648 0.860353 14.1357 0.889649 7.57324 0.88672C4.41504 0.88379 1.77246 0.892579 1.70215 0.907228ZM2.62793 1.89453C2.82129 2.03223 2.87109 2.36914 2.73047 2.56543C2.59277 2.75879 2.25586 2.80859 2.05957 2.66797C1.79004 2.47754 1.8252 2.00879 2.11523 1.85938C2.25 1.79199 2.50781 1.80957 2.62793 1.89453Z" fill="#648a37"/>
<path d="M1.88086 7.50195L1.88965 10.8506L1.9541 10.9531C1.98926 11.0088 2.0625 11.082 2.11523 11.1143C2.20605 11.1699 2.27344 11.1729 3.2168 11.1816L4.21875 11.1904V10.7187V10.25H3.51562H2.8125V8.60937V6.96875H3.51562H4.21875V6.5V6.03125H3.51562H2.8125V5.09375V4.15625H2.34375H1.875L1.88086 7.50195Z" fill="#648a37"/>
<path d="M5.39355 5.14062C5.18848 5.19629 5.06836 5.26953 4.9248 5.43359C4.72559 5.65918 4.70215 5.77636 4.70215 6.5C4.70215 7.2705 4.72559 7.36132 4.97754 7.61621C5.2793 7.91504 4.88379 7.8916 9.375 7.8916C13.8662 7.8916 13.4707 7.91504 13.7725 7.61621C14.0244 7.36132 14.0479 7.2705 14.0479 6.5C14.0479 5.72949 14.0244 5.63867 13.7725 5.38379C13.4707 5.08203 13.8779 5.10839 9.43359 5.10254C6.10254 5.09668 5.52832 5.10254 5.39355 5.14062Z" fill="#648a37"/>
<path d="M5.39355 9.35937C5.18848 9.41504 5.06836 9.48828 4.9248 9.65234C4.72559 9.87793 4.70215 9.99511 4.70215 10.7187C4.70215 11.4893 4.72559 11.5801 4.97754 11.835C5.2793 12.1338 4.88379 12.1103 9.375 12.1103C13.8662 12.1103 13.4707 12.1338 13.7725 11.835C14.0244 11.5801 14.0479 11.4893 14.0479 10.7187C14.0479 9.94824 14.0244 9.85742 13.7725 9.60254C13.4707 9.30078 13.8779 9.32714 9.43359 9.32129C6.09961 9.31543 5.52832 9.32129 5.39355 9.35937Z" fill="#648a37"/>
</svg>
