<svg width="158" height="212" viewBox="0 0 158 212" fill="none" xmlns="http://www.w3.org/2000/svg">
<path d="M10.2299 196.728C10.7379 196.728 11.2764 196.85 11.8455 197.094C12.4348 197.318 12.9835 197.602 13.4916 197.948H13.4611C13.9894 198.334 14.3959 198.832 14.6804 199.441C14.9649 200.051 15.1072 200.783 15.1072 201.636V202.551C15.1072 204.217 14.5585 205.447 13.4611 206.239C12.9327 206.646 12.3942 206.94 11.8455 207.123C11.2968 207.306 10.7582 207.397 10.2299 207.397H5.04772C4.51934 207.397 3.98081 207.306 3.43211 207.123C2.88341 206.94 2.34488 206.646 1.8165 206.239C0.719107 205.467 0.17041 204.237 0.17041 202.551V202.185C0.17041 201.311 0.729268 200.884 1.84698 200.905C2.98502 200.905 3.55404 201.331 3.55404 202.185V202.52C3.55404 203.008 3.70646 203.465 4.01129 203.892C4.31612 204.319 4.85466 204.532 5.6269 204.532H9.65067C10.4229 204.532 10.9614 204.319 11.2663 203.892C11.5711 203.465 11.7235 203.008 11.7235 202.52V201.667C11.7235 201.402 11.6829 201.148 11.6016 200.905C11.5406 200.661 11.4289 200.447 11.2663 200.264C11.1037 200.061 10.8903 199.899 10.6261 199.777C10.3619 199.655 10.0368 199.594 9.65067 199.594H5.20013C4.1637 199.594 3.07647 199.228 1.93843 198.496C0.861362 197.805 0.322826 196.617 0.322826 194.93V193.893C0.322826 193.081 0.465081 192.369 0.74959 191.76C1.0341 191.13 1.44054 190.622 1.96892 190.235H1.93843C2.44649 189.89 2.98502 189.605 3.55404 189.382C4.12306 189.158 4.67176 189.047 5.20013 189.047H10.0774C10.6058 189.047 11.1443 189.158 11.693 189.382C12.2621 189.605 12.8108 189.89 13.3391 190.235H13.3087C13.837 190.622 14.2435 191.13 14.528 191.76C14.8125 192.369 14.9547 193.081 14.9547 193.893V194.168C14.9547 194.595 14.8125 194.91 14.528 195.113C14.2435 195.296 13.8269 195.397 13.2782 195.418C12.1605 195.438 11.6016 195.021 11.6016 194.168V193.924C11.6016 193.416 11.439 192.959 11.1139 192.552C10.809 192.125 10.2807 191.912 9.52874 191.912H5.74883C4.99691 191.912 4.45837 192.125 4.13322 192.552C3.82839 192.959 3.67597 193.416 3.67597 193.924V194.656C3.67597 195.184 3.82839 195.661 4.13322 196.088C4.45837 196.515 4.99691 196.728 5.74883 196.728H10.2299Z" fill="white"/>
<path d="M23.0704 191.912V203.008C23.0704 203.536 23.1822 203.943 23.4057 204.227C23.6293 204.512 24.1068 204.654 24.8384 204.654H25.631C26.4236 204.654 26.7995 205.121 26.7589 206.056C26.7589 207.011 26.3829 207.489 25.631 207.489H24.625C23.9747 207.489 23.3651 207.408 22.7961 207.245C22.227 207.062 21.6783 206.808 21.15 206.483V206.513C20.1542 205.863 19.6563 204.705 19.6563 203.038V191.912H18.4674C17.7359 191.912 17.3497 191.434 17.3091 190.479C17.3091 189.524 17.6952 189.047 18.4674 189.047H19.6563V185.785C19.6563 184.809 20.2355 184.322 21.3938 184.322C22.5115 184.322 23.0704 184.809 23.0704 185.785V189.047H25.6005C26.3931 189.047 26.769 189.524 26.7284 190.479C26.7284 191.434 26.3524 191.912 25.6005 191.912H23.0704Z" fill="white"/>
<path d="M34.0098 207.397C33.3798 207.397 32.7803 207.316 32.2113 207.154C31.6423 206.971 31.0936 206.717 30.5652 206.392V206.422C29.5694 205.792 29.0715 204.634 29.0715 202.947V201.453C29.0715 200.62 29.2138 199.899 29.4983 199.289C29.8031 198.659 30.2197 198.161 30.7481 197.795H30.7176C31.2257 197.45 31.7642 197.196 32.3332 197.033C32.9023 196.85 33.451 196.759 33.9793 196.759H40.7161V193.924C40.7161 193.416 40.5535 192.959 40.2284 192.552C39.9235 192.125 39.3952 191.912 38.6433 191.912H35.0767C34.3045 191.912 33.7659 192.105 33.4611 192.491C33.1766 192.857 33.0344 193.294 33.0344 193.802V194.046C33.0344 195.103 32.4653 195.631 31.3273 195.631C30.1893 195.631 29.6202 195.103 29.6202 194.046V193.771C29.6202 192.938 29.7625 192.237 30.047 191.668C30.3518 191.099 30.7583 190.622 31.2663 190.235H31.2358C31.7642 189.89 32.3129 189.605 32.8819 189.382C33.4713 189.158 34.0301 189.047 34.5585 189.047H39.192C39.7 189.047 40.2385 189.158 40.8076 189.382C41.3969 189.605 41.9456 189.89 42.4536 190.235H42.4232C42.9515 190.622 43.358 191.13 43.6425 191.76C43.927 192.369 44.0693 193.081 44.0693 193.893V206.117C44.0693 207.093 43.5104 207.58 42.3927 207.58C42.1691 207.58 41.9558 207.57 41.7525 207.55C41.5696 207.53 41.3969 207.479 41.2343 207.397C41.0921 207.296 40.9701 207.164 40.8685 207.001C40.7872 206.818 40.7466 206.585 40.7466 206.3L40.7161 199.624H34.5585C34.1114 199.624 33.7659 199.675 33.5221 199.777C33.2782 199.878 33.0852 200.041 32.9429 200.264C32.7803 200.61 32.6584 200.884 32.5771 201.087C32.5161 201.27 32.4857 201.484 32.4857 201.728V202.916C32.4857 203.445 32.6381 203.851 32.9429 204.136C33.2681 204.4 33.8168 204.532 34.589 204.532H38.0031C38.755 204.532 39.131 205.01 39.131 205.965C39.131 206.371 39.0395 206.717 38.8566 207.001C38.6737 207.265 38.3892 207.397 38.0031 207.397H34.0098Z" fill="white"/>
<path d="M51.3045 206.117C51.3045 207.093 50.7456 207.58 49.6279 207.58C48.4695 207.58 47.8904 207.093 47.8904 206.117V193.497C47.8904 191.831 48.3883 190.672 49.384 190.022C50.3798 189.372 51.528 189.047 52.8286 189.047H56.3037C57.0556 189.047 57.4316 189.524 57.4316 190.479C57.4722 191.434 57.0963 191.912 56.3037 191.912H53.0725C52.3409 191.912 51.8633 192.054 51.6398 192.339C51.4163 192.623 51.3045 193.02 51.3045 193.528V206.117Z" fill="white"/>
<path d="M64.0024 191.912V203.008C64.0024 203.536 64.1142 203.943 64.3377 204.227C64.5612 204.512 65.0388 204.654 65.7704 204.654H66.563C67.3555 204.654 67.7315 205.121 67.6908 206.056C67.6908 207.011 67.3149 207.489 66.563 207.489H65.557C64.9067 207.489 64.2971 207.408 63.728 207.245C63.159 207.062 62.6103 206.808 62.0819 206.483V206.513C61.0862 205.863 60.5883 204.705 60.5883 203.038V191.912H59.3994C58.6678 191.912 58.2817 191.434 58.2411 190.479C58.2411 189.524 58.6272 189.047 59.3994 189.047H60.5883V185.785C60.5883 184.809 61.1674 184.322 62.3258 184.322C63.4435 184.322 64.0024 184.809 64.0024 185.785V189.047H66.5325C67.325 189.047 67.701 189.524 67.6604 190.479C67.6604 191.434 67.2844 191.912 66.5325 191.912H64.0024Z" fill="white"/>
<path d="M84.3856 205.264C83.8572 205.264 83.3085 205.172 82.7395 204.989C82.1908 204.806 81.6523 204.542 81.1239 204.197C80.0265 203.485 79.4778 202.286 79.4778 200.6V193.711C79.4778 192.857 79.6201 192.125 79.9046 191.516C80.2094 190.906 80.6159 190.428 81.1239 190.083C81.6523 189.758 82.1908 189.504 82.7395 189.321C83.2882 189.138 83.8268 189.047 84.3551 189.047H89.4763C89.9844 189.047 90.5127 189.158 91.0614 189.382C91.6101 189.605 92.1182 189.89 92.5856 190.235C93.053 190.622 93.429 191.13 93.7135 191.76C93.998 192.39 94.1402 193.101 94.1402 193.893V206.818C94.1402 207.672 93.998 208.393 93.7135 208.983C93.4493 209.592 93.0733 210.1 92.5856 210.507C92.1182 210.893 91.6101 211.188 91.0614 211.391C90.533 211.614 90.0047 211.726 89.4763 211.726H84.3551C83.2781 211.726 82.1908 211.411 81.0934 210.781C80.5244 210.456 80.1078 210.039 79.8436 209.531C79.5998 209.023 79.4778 208.434 79.4778 207.763V207.397C79.4778 206.991 79.6099 206.666 79.8741 206.422C80.1383 206.178 80.5549 206.056 81.1239 206.056C82.262 206.178 82.831 206.625 82.831 207.397V207.733C82.831 207.956 82.9834 208.2 83.2882 208.464C83.6134 208.729 84.1519 208.861 84.9038 208.861H88.7142C89.4661 208.861 89.9945 208.647 90.2993 208.221C90.6245 207.794 90.7871 207.316 90.7871 206.788V193.924C90.7871 193.416 90.6245 192.959 90.2993 192.552C89.9945 192.125 89.4661 191.912 88.7142 191.912H84.9038C84.1519 191.912 83.6134 192.125 83.2882 192.552C82.9834 192.959 82.831 193.416 82.831 193.924V200.356C82.831 200.864 82.9834 201.341 83.2882 201.789C83.6134 202.215 84.1519 202.429 84.9038 202.429H88.0741C88.8057 202.429 89.1715 202.896 89.1715 203.831C89.1715 204.258 89.08 204.603 88.8971 204.867C88.7345 205.132 88.4602 205.264 88.0741 205.264H84.3856Z" fill="white"/>
<path d="M102.835 207.397C102.205 207.397 101.606 207.316 101.037 207.154C100.468 206.971 99.9188 206.717 99.3905 206.392V206.422C98.3947 205.792 97.8968 204.634 97.8968 202.947V201.453C97.8968 200.62 98.0391 199.899 98.3236 199.289C98.6284 198.659 99.045 198.161 99.5734 197.795H99.5429C100.051 197.45 100.589 197.196 101.158 197.033C101.728 196.85 102.276 196.759 102.805 196.759H109.541V193.924C109.541 193.416 109.379 192.959 109.054 192.552C108.749 192.125 108.22 191.912 107.469 191.912H103.902C103.13 191.912 102.591 192.105 102.286 192.491C102.002 192.857 101.86 193.294 101.86 193.802V194.046C101.86 195.103 101.291 195.631 100.153 195.631C99.0145 195.631 98.4455 195.103 98.4455 194.046V193.771C98.4455 192.938 98.5878 192.237 98.8723 191.668C99.1771 191.099 99.5835 190.622 100.092 190.235H100.061C100.589 189.89 101.138 189.605 101.707 189.382C102.297 189.158 102.855 189.047 103.384 189.047H108.017C108.525 189.047 109.064 189.158 109.633 189.382C110.222 189.605 110.771 189.89 111.279 190.235H111.248C111.777 190.622 112.183 191.13 112.468 191.76C112.752 192.369 112.895 193.081 112.895 193.893V206.117C112.895 207.093 112.336 207.58 111.218 207.58C110.994 207.58 110.781 207.57 110.578 207.55C110.395 207.53 110.222 207.479 110.06 207.397C109.917 207.296 109.795 207.164 109.694 207.001C109.612 206.818 109.572 206.585 109.572 206.3L109.541 199.624H103.384C102.937 199.624 102.591 199.675 102.347 199.777C102.103 199.878 101.91 200.041 101.768 200.264C101.606 200.61 101.484 200.884 101.402 201.087C101.341 201.27 101.311 201.484 101.311 201.728V202.916C101.311 203.445 101.463 203.851 101.768 204.136C102.093 204.4 102.642 204.532 103.414 204.532H106.828C107.58 204.532 107.956 205.01 107.956 205.965C107.956 206.371 107.865 206.717 107.682 207.001C107.499 207.265 107.214 207.397 106.828 207.397H102.835Z" fill="white"/>
<path d="M126.287 194.137C126.287 193.873 126.247 193.619 126.165 193.375C126.084 193.111 125.982 192.867 125.861 192.644C125.596 192.156 125.048 191.912 124.214 191.912H122.264C121.43 191.912 120.871 192.156 120.587 192.644C120.343 193.111 120.221 193.609 120.221 194.137V206.209C120.221 207.164 119.662 207.641 118.545 207.641C117.386 207.641 116.807 207.164 116.807 206.209V193.863C116.807 192.197 117.356 190.977 118.453 190.205C119.571 189.433 120.658 189.047 121.715 189.047H124.794C125.261 189.047 125.779 189.138 126.348 189.321C126.917 189.504 127.466 189.788 127.994 190.174C128.502 189.788 129.031 189.504 129.58 189.321C130.149 189.138 130.687 189.047 131.195 189.047H134.243C135.321 189.047 136.398 189.433 137.475 190.205C138.592 190.957 139.151 192.176 139.151 193.863V206.209C139.151 207.164 138.582 207.641 137.444 207.641C136.306 207.641 135.737 207.164 135.737 206.209V194.137C135.737 193.873 135.707 193.609 135.646 193.345C135.585 193.081 135.473 192.837 135.31 192.613L135.341 192.644C135.178 192.379 134.975 192.197 134.731 192.095C134.487 191.973 134.132 191.912 133.664 191.912H131.744C130.89 191.912 130.331 192.156 130.067 192.644C129.803 193.091 129.671 193.589 129.671 194.137V206.209C129.671 207.164 129.112 207.641 127.994 207.641C126.856 207.641 126.287 207.164 126.287 206.209V194.137Z" fill="white"/>
<path d="M146.209 202.52C146.209 203.008 146.361 203.465 146.666 203.892C146.991 204.319 147.529 204.532 148.281 204.532H152.092C152.844 204.532 153.372 204.349 153.677 203.983C154.002 203.597 154.165 203.16 154.165 202.673V202.337C154.165 201.382 154.724 200.905 155.841 200.905C156.959 200.905 157.518 201.382 157.518 202.337V202.703C157.518 203.557 157.376 204.258 157.091 204.806C156.827 205.355 156.42 205.833 155.872 206.239C154.795 207.011 153.718 207.397 152.641 207.397H147.519C146.442 207.397 145.396 207.011 144.38 206.239C143.892 205.833 143.516 205.325 143.252 204.715C142.988 204.085 142.855 203.364 142.855 202.551V193.863C142.855 192.217 143.363 190.998 144.38 190.205C144.888 189.839 145.406 189.555 145.934 189.351C146.483 189.128 147.011 189.016 147.519 189.016H152.641C153.128 189.016 153.667 189.118 154.256 189.321C154.845 189.504 155.394 189.758 155.902 190.083C156.39 190.428 156.776 190.906 157.061 191.516C157.365 192.125 157.518 192.847 157.518 193.68V197.795C157.518 198.263 157.376 198.679 157.091 199.045C156.827 199.411 156.329 199.594 155.597 199.594H149.013C148.281 199.594 147.895 199.116 147.855 198.161C147.855 197.206 148.241 196.728 149.013 196.728H154.195L154.165 193.893C154.165 193.385 154.002 192.928 153.677 192.522C153.372 192.095 152.844 191.882 152.092 191.882H148.281C147.529 191.882 146.991 192.095 146.666 192.522C146.361 192.928 146.209 193.385 146.209 193.893V202.52Z" fill="white"/>
<path d="M79.6887 0C65.9056 0 52.432 4.07725 40.9717 11.7161C29.5115 19.355 20.5793 30.2125 15.3047 42.9155C10.0301 55.6186 8.65007 69.5966 11.339 83.0821C14.028 96.5675 20.6652 108.955 30.4113 118.677C40.1575 128.4 52.5748 135.021 66.0931 137.703C79.6114 140.386 93.6235 139.009 106.357 133.747C119.091 128.485 129.975 119.575 137.633 108.142C145.29 96.7101 149.377 83.2692 149.377 69.5195C149.357 51.0879 142.009 33.4169 128.944 20.3838C115.879 7.35069 98.1652 0.0199352 79.6887 0ZM79.6887 127.452C68.2028 127.452 56.9748 124.055 47.4246 117.689C37.8743 111.323 30.4309 102.275 26.0354 91.6895C21.6399 81.1036 20.4898 69.4552 22.7306 58.2174C24.9714 46.9795 30.5024 36.6568 38.6242 28.5547C46.746 20.4527 57.0938 14.9351 68.3591 12.6997C79.6243 10.4644 91.301 11.6117 101.913 15.9965C112.524 20.3813 121.594 27.8067 127.975 37.3337C134.357 46.8607 137.763 58.0615 137.763 69.5195C137.746 84.8791 131.622 99.6048 120.735 110.466C109.847 121.327 95.0857 127.436 79.6887 127.452Z" fill="white"/>
<path d="M103.923 59.6708L74.2296 41.1323C72.4698 40.0351 70.4474 39.4282 68.3728 39.3749C66.2982 39.3216 64.2472 39.8238 62.4331 40.8292C60.619 41.8346 59.108 43.3065 58.0574 45.0918C57.0067 46.8771 56.4548 48.9107 56.459 50.9809V88.058C56.4548 90.1282 57.0067 92.1617 58.0574 93.947C59.108 95.7324 60.619 97.2043 62.4331 98.2097C64.2472 99.2151 66.2982 99.7172 68.3728 99.6639C70.4474 99.6106 72.4698 99.0038 74.2296 97.9065L103.923 79.368C105.593 78.3265 106.971 76.8782 107.926 75.1594C108.881 73.4406 109.382 71.5077 109.382 69.5426C109.382 67.5774 108.881 65.6446 107.926 63.9258C106.971 62.207 105.593 60.7587 103.923 59.7172V59.6708ZM68.0737 88.058V50.9809L97.767 69.5194L68.0737 88.058Z" fill="white"/>
</svg>
