<svg width="76" height="94" viewBox="0 0 76 94" fill="none" xmlns="http://www.w3.org/2000/svg">
<path d="M22.3643 92.6031C22.3643 93.2194 21.9791 93.5275 21.2087 93.5275C20.4512 93.5275 20.0724 93.2194 20.0724 92.6031V80.0268H16.702C16.2398 80.0268 15.9959 79.6994 15.9702 79.0446C15.9702 78.4026 16.2141 78.0816 16.702 78.0816H25.7346C26.2225 78.0816 26.4536 78.4026 26.428 79.0446C26.428 79.6994 26.1969 80.0268 25.7346 80.0268H22.3643V92.6031Z" fill="white"/>
<path d="M30.1524 92.5646C30.1524 93.1809 29.7993 93.489 29.0931 93.489C28.3741 93.489 28.0146 93.1809 28.0146 92.5646V82.6268C28.0146 82.0105 28.3741 81.7023 29.0931 81.7023C29.7993 81.7023 30.1524 82.0105 30.1524 82.6268V92.5646ZM30.5568 79.2757C30.5568 79.6865 30.4156 80.0332 30.1331 80.3157C29.8506 80.5982 29.504 80.7394 29.0931 80.7394C28.6823 80.7394 28.3292 80.5982 28.0339 80.3157C27.7514 80.0332 27.6102 79.6865 27.6102 79.2757C27.6102 78.852 27.7514 78.4989 28.0339 78.2164C28.3292 77.934 28.6823 77.7927 29.0931 77.7927C29.504 77.7927 29.8506 77.934 30.1331 78.2164C30.4156 78.4989 30.5568 78.852 30.5568 79.2757Z" fill="white"/>
<path d="M38.7989 84.9957C38.7989 84.8288 38.7732 84.6683 38.7218 84.5142C38.6705 84.3473 38.6063 84.1932 38.5292 84.052C38.3623 83.7438 38.0157 83.5898 37.4893 83.5898H36.2567C35.7302 83.5898 35.3771 83.7438 35.1974 84.052C35.0433 84.3473 34.9663 84.6619 34.9663 84.9957V92.6224C34.9663 93.2258 34.6132 93.5275 33.907 93.5275C33.1752 93.5275 32.8092 93.2258 32.8092 92.6224V84.8223C32.8092 83.7695 33.1559 82.9991 33.8492 82.5112C34.5554 82.0233 35.2423 81.7794 35.91 81.7794H37.8552C38.1505 81.7794 38.4779 81.8372 38.8374 81.9527C39.1969 82.0683 39.5436 82.248 39.8774 82.492C40.1984 82.248 40.5322 82.0683 40.8789 81.9527C41.2384 81.8372 41.5786 81.7794 41.8996 81.7794H43.8255C44.506 81.7794 45.1865 82.0233 45.867 82.5112C46.5732 82.9863 46.9263 83.7567 46.9263 84.8223V92.6224C46.9263 93.2258 46.5668 93.5275 45.8478 93.5275C45.1288 93.5275 44.7692 93.2258 44.7692 92.6224V84.9957C44.7692 84.8288 44.75 84.6619 44.7115 84.4949C44.673 84.328 44.6023 84.174 44.4996 84.0327L44.5189 84.052C44.4162 83.8851 44.2878 83.7695 44.1337 83.7053C43.9796 83.6283 43.7549 83.5898 43.4596 83.5898H42.2463C41.707 83.5898 41.3539 83.7438 41.187 84.052C41.0201 84.3344 40.9367 84.649 40.9367 84.9957V92.6224C40.9367 93.2258 40.5836 93.5275 39.8774 93.5275C39.1584 93.5275 38.7989 93.2258 38.7989 92.6224V84.9957Z" fill="white"/>
<path d="M51.3851 90.292C51.3851 90.6001 51.4814 90.889 51.674 91.1586C51.8794 91.4283 52.2197 91.5631 52.6947 91.5631H55.1021C55.5772 91.5631 55.911 91.4475 56.1036 91.2164C56.3091 90.9725 56.4118 90.6964 56.4118 90.3883V90.1764C56.4118 89.573 56.7649 89.2712 57.471 89.2712C58.1772 89.2712 58.5303 89.573 58.5303 90.1764V90.4075C58.5303 90.9468 58.4404 91.3898 58.2607 91.7364C58.0937 92.0831 57.837 92.3848 57.4903 92.6416C56.8098 93.1295 56.1293 93.3735 55.4488 93.3735H52.2133C51.5328 93.3735 50.8715 93.1295 50.2295 92.6416C49.9214 92.3848 49.6839 92.0638 49.517 91.6786C49.35 91.2806 49.2666 90.8248 49.2666 90.3112V84.8223C49.2666 83.7823 49.5876 83.012 50.2295 82.5112C50.5505 82.2801 50.8779 82.1004 51.2118 81.972C51.5584 81.8307 51.8923 81.7601 52.2133 81.7601H55.4488C55.757 81.7601 56.0972 81.8243 56.4695 81.9527C56.8419 82.0683 57.1886 82.2288 57.5095 82.4342C57.8177 82.6525 58.0616 82.9542 58.2414 83.3394C58.434 83.7246 58.5303 84.1804 58.5303 84.7068V87.3068C58.5303 87.6021 58.4404 87.8653 58.2607 88.0964C58.0937 88.3275 57.7792 88.4431 57.317 88.4431H53.157C52.6947 88.4431 52.4508 88.1414 52.4251 87.5379C52.4251 86.9344 52.6691 86.6327 53.157 86.6327H56.431L56.4118 84.8416C56.4118 84.5206 56.3091 84.2317 56.1036 83.9749C55.911 83.7053 55.5772 83.5705 55.1021 83.5705H52.6947C52.2197 83.5705 51.8794 83.7053 51.674 83.9749C51.4814 84.2317 51.3851 84.5206 51.3851 84.8416V90.292Z" fill="white"/>
<path d="M32.1991 0.566705C31.7388 0.662798 31.321 0.888406 31.1015 1.16415C30.9669 1.32291 30.9598 1.46078 30.9598 3.9759C30.9598 6.90046 30.9386 6.75423 31.4343 7.07593C31.9159 7.39345 32.1283 7.42688 33.7784 7.44359L35.2089 7.4603V9.61611L34.699 9.64536C27.2773 10.0464 20.2806 11.6967 14.5798 14.3957C14.2045 14.5753 13.8646 14.7215 13.8362 14.7215C13.8079 14.7215 13.5813 14.6046 13.3405 14.4583L12.9015 14.1993L13.5459 13.8233C14.3532 13.347 14.4736 13.2384 14.4736 12.9501C14.4736 12.7788 14.4311 12.6785 14.2965 12.5407C14.0345 12.2775 10.0192 9.93364 9.70051 9.85426C9.35351 9.7707 8.96401 9.77487 8.61701 9.87097C8.27 9.96706 2.95871 13.0963 2.85249 13.2718C2.73918 13.4389 2.76042 13.698 2.88081 13.8776C3.02245 14.0698 6.98113 16.4303 7.43436 16.5891C7.77428 16.7102 8.36207 16.7311 8.66658 16.6392C8.75156 16.6142 9.14814 16.4053 9.53763 16.1796L10.2529 15.766L10.6707 16.0167L11.0885 16.2632L10.4866 16.6309C7.07319 18.7324 4.21218 21.5358 2.4205 24.5481C0.756297 27.3222 0.0693698 30.6228 0.508437 33.6685C1.42906 39.9688 6.81825 45.7093 15.4155 49.5321C21.0738 52.0514 27.681 53.5346 34.9256 53.9189C36.2499 53.9858 39.8332 53.9858 41.1575 53.9189C47.6302 53.5764 53.4443 52.3898 58.7202 50.3385C66.8288 47.1841 72.565 42.3377 74.7249 36.8228C76.1625 33.1588 76.0138 29.3819 74.2858 25.7179C73.3227 23.6623 71.5806 21.423 69.5198 19.5721C67.0766 17.3787 63.7482 15.3232 60.1365 13.7815C56.0504 12.0351 51.4756 10.8068 46.575 10.1342C44.8967 9.90021 42.7226 9.69967 41.2496 9.64118L40.5202 9.61194V7.4603L41.9578 7.44359C43.6007 7.42688 43.8132 7.39345 44.2947 7.07593C44.7904 6.75423 44.7692 6.90046 44.7692 3.9759C44.7692 1.00957 44.7904 1.15579 44.2452 0.838271C43.6786 0.51657 44.1106 0.53746 37.9353 0.529104C34.2033 0.524926 32.3408 0.53746 32.1991 0.566705ZM40.6406 12.9459C47.5169 13.2927 53.7701 14.8344 58.9681 17.4748C64.1519 20.1069 67.8485 23.7375 69.3003 27.6314C69.8739 29.1689 70.0155 29.9794 70.0155 31.7675C70.0155 33.3551 69.9589 33.8105 69.5836 35.0681C68.2309 39.6596 63.9394 43.8376 57.6225 46.7245C53.5718 48.5754 48.6287 49.8663 43.6361 50.3761C41.4337 50.6017 40.8034 50.6309 38.0416 50.6309C35.2797 50.6309 34.6494 50.6017 32.447 50.3761C24.5296 49.5655 17.2709 46.9293 12.3986 43.0897C8.95693 40.3824 6.91739 37.3492 6.19506 33.8565C6.01093 32.9875 6.01802 30.5434 6.19506 29.6786C6.82533 26.683 8.34082 24.1386 10.9398 21.6987C14.7852 18.0973 20.7268 15.3148 27.5252 13.9277C31.7034 13.0754 36.3278 12.7287 40.6406 12.9459Z" fill="white"/>
<path d="M37.6875 15.8923H38.3952V13.8862H37.6875V15.8923Z" fill="white"/>
<path d="M22.8864 16.2748C22.7518 16.325 22.6315 16.3709 22.6173 16.3751C22.6031 16.3793 24.154 17.9926 24.2744 18.097C24.3098 18.1263 24.8693 17.9341 24.8693 17.8923C24.8693 17.8337 23.2405 16.1829 23.1838 16.1829C23.1555 16.1829 23.0209 16.2247 22.8864 16.2748Z" fill="white"/>
<path d="M52.0355 17.0432C51.5752 17.5155 51.2069 17.9042 51.2211 17.9125C51.3627 17.9752 51.7947 18.109 51.8089 18.1006C51.8868 18.0463 53.4872 16.3829 53.466 16.3745C53.381 16.3369 52.9278 16.1822 52.9065 16.1822C52.8853 16.1822 52.4958 16.5709 52.0355 17.0432Z" fill="white"/>
<path d="M37.5239 17.2789L36.9928 17.8763L36.9149 19.7146C36.8724 20.7257 36.8016 22.1921 36.7662 22.9734C36.6387 25.5261 36.5608 27.2975 36.5113 28.4172L36.4617 29.516L36.0793 29.6247C34.847 29.984 33.9264 30.8697 33.9193 31.722C33.9052 32.3988 34.2734 32.9586 35.0241 33.4308C35.8597 33.953 36.8512 34.2079 38.0409 34.2079C39.2306 34.2079 40.2221 33.953 41.0577 33.4308C42.0987 32.779 42.4457 31.8473 41.9571 31.0076C41.8438 30.8154 41.6313 30.548 41.4826 30.4185C41.1356 30.1135 40.4912 29.7667 39.9884 29.6205L39.5989 29.5077V29.2695C39.5989 29.14 39.4856 26.5163 39.351 23.4455L39.1032 17.8596L38.6074 17.2705C38.3313 16.9488 38.0976 16.6856 38.0834 16.6856C38.0621 16.6856 37.8143 16.953 37.5239 17.2789ZM38.6641 31.0869C39.1669 31.2248 39.4714 31.6384 39.3227 31.9643C39.1669 32.2985 38.6074 32.5617 38.0409 32.5617C37.701 32.5617 37.2619 32.4322 37.0282 32.2735C36.8087 32.1147 36.6671 31.8431 36.7237 31.6718C36.9149 31.112 37.793 30.8446 38.6641 31.0869Z" fill="white"/>
<path d="M11.846 22.8012C11.761 22.8764 11.6973 22.9558 11.6973 22.9767C11.6973 23.0185 14.4521 23.9672 14.5583 23.9631C14.5937 23.9631 14.6928 23.8878 14.7849 23.8001L14.9478 23.6371L13.5102 23.1481C12.717 22.8806 12.0514 22.6591 12.0301 22.6591C12.0089 22.6591 11.9239 22.7218 11.846 22.8012Z" fill="white"/>
<path d="M62.6148 23.1355C61.8571 23.3946 61.2339 23.6245 61.2197 23.6454C61.2056 23.6663 61.2693 23.7541 61.3614 23.8376L61.5172 23.9923L62.4732 23.6663C62.9973 23.4908 63.6559 23.2651 63.9391 23.1689L64.4419 22.9934L64.2932 22.8262C64.2082 22.7343 64.1091 22.659 64.0666 22.6632C64.0312 22.6632 63.3726 22.8764 62.6148 23.1355Z" fill="white"/>
<path d="M7.79574 31.5466C7.76741 31.6093 7.79574 31.9353 7.83115 31.9353C7.8524 31.9353 8.61014 31.9353 9.50244 31.9353H11.1312V31.5382H9.46703C8.55349 31.5382 7.80282 31.5424 7.79574 31.5466Z" fill="white"/>
<path d="M64.9521 31.9353H68.3585L68.3372 31.7472L68.316 31.555L64.9521 31.5382V31.9353Z" fill="white"/>
<path d="M13.1497 39.9857C12.3707 40.249 11.7192 40.4705 11.7121 40.4789C11.6696 40.5039 11.7688 40.6419 11.9033 40.7463L12.0308 40.8466L14.9484 39.8519L14.7997 39.7057C14.7148 39.6262 14.6298 39.5468 14.6085 39.5301C14.5873 39.5134 13.9287 39.7182 13.1497 39.9857Z" fill="white"/>
<path d="M61.3483 39.6678C61.2562 39.7598 61.2137 39.8517 61.2421 39.8726C61.3412 39.9269 64.0252 40.8339 64.0818 40.8339C64.1173 40.8339 64.2093 40.7586 64.2943 40.6667L64.443 40.4995L63.7632 40.2613C63.3878 40.1317 62.7292 39.906 62.3114 39.7598C61.8865 39.6176 61.5324 39.4964 61.5253 39.4964C61.5183 39.4964 61.4333 39.5717 61.3483 39.6678Z" fill="white"/>
<path d="M23.4379 46.2479L22.6094 47.1047L22.8997 47.2092C23.0555 47.2677 23.2113 47.3011 23.2396 47.2802C23.3246 47.2259 24.8684 45.6293 24.8684 45.5959C24.8684 45.5708 24.3515 45.3828 24.2948 45.3869C24.2807 45.3911 23.8912 45.7756 23.4379 46.2479Z" fill="white"/>
<path d="M51.497 45.4789C51.3624 45.529 51.235 45.575 51.2208 45.5792C51.2066 45.5875 52.8071 47.2509 52.885 47.3053C52.8992 47.3136 53.3241 47.1799 53.4728 47.1172C53.5011 47.1005 51.8298 45.3869 51.7803 45.3869C51.759 45.3869 51.6315 45.4287 51.497 45.4789Z" fill="white"/>
<path d="M37.6875 49.6074H38.3952V47.6013H37.6875V49.6074Z" fill="white"/>
</svg>
