<svg width="290" height="313" viewBox="0 0 290 313" fill="none" xmlns="http://www.w3.org/2000/svg">
<g clip-path="url(#clip0_800_53)">
<path d="M199.567 132.027C197.839 130.305 195.247 130.099 193.316 131.324L175.009 149.637L155.3 169.338V169.323C155.3 169.034 155.26 168.759 155.223 168.481C159.071 163.591 161.396 157.464 161.396 150.772C161.396 134.913 148.488 122 132.625 122C116.758 122 103.854 134.913 103.854 150.772C103.854 157.454 106.175 163.576 110.002 168.468C109.985 168.673 109.949 168.874 109.949 169.084V169.5V169.588L89.9952 149.637L71.6869 131.324C69.7546 130.101 67.1578 130.307 65.4362 132.027C63.4439 134.025 63.4011 137.206 65.3372 139.145L67.0637 140.87L73.1958 146.997L98.7595 172.564L109.949 183.758V236.224V246.273V250.35V298.477C109.949 306.759 114.31 313 120.099 313H145.152C150.936 313 155.298 306.759 155.298 298.477V254.026V246.27V236.221V183.507L166.235 172.563L191.802 146.997L197.935 140.87L199.66 139.145C201.598 137.206 201.557 134.025 199.567 132.027Z" fill="black"/>
</g>
<rect x="2.5" y="2.5" width="285" height="120" rx="27.5" fill="#D9D9D9" fill-opacity="0.5" stroke="black" stroke-width="5"/>
<path d="M48.2381 54L46.4569 40.1818H50.6401L51.1259 48.6832H51.2339L54.8774 40.1818H58.17L59.0066 48.7102H59.1146L62.4072 40.1818H66.5904L60.2211 54H56.6316L55.5791 46.2812H55.4711L51.8276 54H48.2381ZM70.2879 48.1705L69.3163 54H65.5918L67.8859 40.1818H71.4754L70.5847 45.6065H70.6927C71.0301 44.9453 71.5024 44.4303 72.1096 44.0614C72.7168 43.6881 73.4051 43.5014 74.1742 43.5014C74.9029 43.5014 75.5102 43.6679 75.996 44.0007C76.4818 44.3336 76.8259 44.7924 77.0283 45.3771C77.2307 45.9619 77.2689 46.6321 77.143 47.3878L76.0364 54H72.312L73.2836 48.1705C73.3646 47.6577 73.2993 47.2551 73.0879 46.9627C72.881 46.6703 72.5414 46.5241 72.0691 46.5241C71.7632 46.5241 71.4844 46.5916 71.2325 46.7266C70.9851 46.857 70.7782 47.0459 70.6117 47.2933C70.4498 47.5362 70.3418 47.8286 70.2879 48.1705ZM80.7089 54.1619C80.0521 54.1619 79.4876 54.054 79.0153 53.8381C78.5475 53.6177 78.2057 53.2848 77.9897 52.8395C77.7783 52.3897 77.7311 51.8229 77.8481 51.1392C77.9425 50.5724 78.1202 50.0889 78.3811 49.6886C78.642 49.2882 78.9658 48.9599 79.3527 48.7035C79.7395 48.4471 80.1736 48.2514 80.6549 48.1165C81.1407 47.977 81.6535 47.8871 82.1932 47.8466C82.778 47.8016 83.2525 47.7454 83.6169 47.6779C83.9812 47.6104 84.2534 47.5182 84.4333 47.4013C84.6132 47.2843 84.7212 47.1269 84.7571 46.929V46.902C84.7976 46.6321 84.7257 46.4252 84.5412 46.2812C84.3613 46.1373 84.1094 46.0653 83.7856 46.0653C83.4347 46.0653 83.1311 46.1418 82.8747 46.2947C82.6228 46.4477 82.4496 46.6861 82.3552 47.0099H78.9276C79.0715 46.3802 79.3662 45.8 79.8115 45.2692C80.2613 44.7339 80.8573 44.3066 81.5995 43.9872C82.3462 43.6634 83.2368 43.5014 84.2714 43.5014C85.009 43.5014 85.6568 43.5891 86.2145 43.7646C86.7723 43.9355 87.2334 44.1761 87.5977 44.4865C87.9665 44.7924 88.2252 45.1522 88.3736 45.5661C88.5266 45.9754 88.5625 46.4207 88.4816 46.902L87.2941 54H83.8125L84.0554 52.5426H83.9745C83.7046 52.9295 83.401 53.2421 83.0636 53.4805C82.7308 53.7189 82.3664 53.892 81.9706 54C81.5792 54.108 81.1587 54.1619 80.7089 54.1619ZM82.3282 51.8139C82.6071 51.8139 82.8814 51.7554 83.1513 51.6385C83.4212 51.5215 83.6529 51.3529 83.8463 51.1325C84.0397 50.9121 84.1634 50.6444 84.2174 50.3295L84.3523 49.4659C84.2534 49.5064 84.1432 49.5446 84.0217 49.5806C83.9048 49.6121 83.7811 49.6436 83.6506 49.6751C83.5247 49.7066 83.3897 49.7358 83.2458 49.7628C83.1063 49.7898 82.9624 49.8168 82.814 49.8438C82.5171 49.8887 82.2674 49.9629 82.065 50.0664C81.8626 50.1654 81.7052 50.2891 81.5927 50.4375C81.4803 50.5814 81.4106 50.7434 81.3836 50.9233C81.3431 51.2067 81.4083 51.4271 81.5792 51.5845C81.7547 51.7375 82.0043 51.8139 82.3282 51.8139ZM96.9813 43.6364L96.5225 46.3352H89.6944L90.1532 43.6364H96.9813ZM91.8805 41.1534H95.6049L94.0261 50.6669C94.0036 50.8108 94.0081 50.9323 94.0396 51.0312C94.071 51.1257 94.134 51.1977 94.2285 51.2472C94.3274 51.2921 94.4579 51.3146 94.6198 51.3146C94.7278 51.3146 94.8605 51.3011 95.0179 51.2741C95.1753 51.2427 95.2945 51.2202 95.3755 51.2067L95.4834 53.8246C95.2945 53.8786 95.0404 53.9393 94.721 54.0067C94.4061 54.0787 94.0396 54.1259 93.6212 54.1484C92.7486 54.1889 92.0379 54.0967 91.4891 53.8718C90.9449 53.6469 90.567 53.296 90.3556 52.8192C90.1487 52.3379 90.1127 51.7375 90.2476 51.0178L91.8805 41.1534ZM103.42 54.1619C102.763 54.1619 102.199 54.054 101.726 53.8381C101.258 53.6177 100.917 53.2848 100.701 52.8395C100.489 52.3897 100.442 51.8229 100.559 51.1392C100.653 50.5724 100.831 50.0889 101.092 49.6886C101.353 49.2882 101.677 48.9599 102.064 48.7035C102.45 48.4471 102.885 48.2514 103.366 48.1165C103.852 47.977 104.364 47.8871 104.904 47.8466C105.489 47.8016 105.963 47.7454 106.328 47.6779C106.692 47.6104 106.964 47.5182 107.144 47.4013C107.324 47.2843 107.432 47.1269 107.468 46.929V46.902C107.509 46.6321 107.437 46.4252 107.252 46.2812C107.072 46.1373 106.82 46.0653 106.496 46.0653C106.146 46.0653 105.842 46.1418 105.586 46.2947C105.334 46.4477 105.161 46.6861 105.066 47.0099H101.639C101.782 46.3802 102.077 45.8 102.522 45.2692C102.972 44.7339 103.568 44.3066 104.31 43.9872C105.057 43.6634 105.948 43.5014 106.982 43.5014C107.72 43.5014 108.368 43.5891 108.925 43.7646C109.483 43.9355 109.944 44.1761 110.309 44.4865C110.677 44.7924 110.936 45.1522 111.085 45.5661C111.237 45.9754 111.273 46.4207 111.193 46.902L110.005 54H106.523L106.766 52.5426H106.685C106.416 52.9295 106.112 53.2421 105.775 53.4805C105.442 53.7189 105.077 53.892 104.682 54C104.29 54.108 103.87 54.1619 103.42 54.1619ZM105.039 51.8139C105.318 51.8139 105.592 51.7554 105.862 51.6385C106.132 51.5215 106.364 51.3529 106.557 51.1325C106.751 50.9121 106.874 50.6444 106.928 50.3295L107.063 49.4659C106.964 49.5064 106.854 49.5446 106.733 49.5806C106.616 49.6121 106.492 49.6436 106.362 49.6751C106.236 49.7066 106.101 49.7358 105.957 49.7628C105.817 49.7898 105.673 49.8168 105.525 49.8438C105.228 49.8887 104.978 49.9629 104.776 50.0664C104.574 50.1654 104.416 50.2891 104.304 50.4375C104.191 50.5814 104.121 50.7434 104.095 50.9233C104.054 51.2067 104.119 51.4271 104.29 51.5845C104.466 51.7375 104.715 51.8139 105.039 51.8139ZM111.785 54L113.512 43.6364H117.128L116.804 45.6065H116.912C117.223 44.8778 117.612 44.3448 118.08 44.0075C118.547 43.6701 119.058 43.5014 119.611 43.5014C119.773 43.5014 119.928 43.5149 120.077 43.5419C120.23 43.5644 120.38 43.5959 120.529 43.6364L119.989 46.821C119.814 46.7536 119.596 46.7063 119.335 46.6793C119.074 46.6478 118.842 46.6321 118.64 46.6321C118.28 46.6321 117.942 46.7153 117.628 46.8817C117.317 47.0437 117.052 47.2731 116.831 47.57C116.616 47.8623 116.472 48.2064 116.4 48.6023L115.509 54H111.785ZM124.368 54.1889C123.261 54.1889 122.344 53.9775 121.615 53.5547C120.886 53.1274 120.374 52.5156 120.077 51.7195C119.78 50.9188 119.726 49.9607 119.915 48.8452C120.095 47.7746 120.466 46.839 121.028 46.0384C121.595 45.2377 122.308 44.6147 123.167 44.1694C124.031 43.7241 124.998 43.5014 126.068 43.5014C126.851 43.5014 127.537 43.6229 128.126 43.8658C128.72 44.1087 129.203 44.4618 129.577 44.9251C129.95 45.3884 130.202 45.9484 130.333 46.6051C130.467 47.2573 130.467 47.995 130.333 48.8182L130.198 49.6818H120.94L121.264 47.6307H127.094C127.139 47.3338 127.11 47.0729 127.006 46.848C126.907 46.6186 126.748 46.4409 126.527 46.315C126.311 46.1845 126.05 46.1193 125.744 46.1193C125.439 46.1193 125.151 46.1845 124.881 46.315C124.615 46.4454 124.388 46.6276 124.199 46.8615C124.015 47.0954 123.891 47.3698 123.828 47.6847L123.423 49.8438C123.369 50.1766 123.39 50.4735 123.484 50.7344C123.579 50.9953 123.743 51.1999 123.977 51.3484C124.211 51.4968 124.512 51.571 124.881 51.571C125.133 51.571 125.371 51.5373 125.596 51.4698C125.825 51.3978 126.028 51.2944 126.203 51.1594C126.383 51.02 126.527 50.8513 126.635 50.6534H130.036C129.793 51.3731 129.408 51.9983 128.882 52.5291C128.36 53.0554 127.717 53.4647 126.952 53.7571C126.192 54.045 125.331 54.1889 124.368 54.1889ZM136.407 57.8864C135.975 57.8864 135.572 57.8526 135.199 57.7852C134.826 57.7222 134.499 57.6345 134.221 57.522L135.476 54.8771C135.763 54.9851 136.029 55.0548 136.272 55.0863C136.519 55.1178 136.737 55.0998 136.926 55.0323C137.115 54.9648 137.27 54.8366 137.392 54.6477L137.513 54.4588L135.664 43.6364H139.416L139.888 50.8153H139.996L142.897 43.6364H146.946L141.305 54.8636C141.017 55.4349 140.657 55.9477 140.226 56.402C139.798 56.8608 139.272 57.2229 138.647 57.4883C138.021 57.7537 137.275 57.8864 136.407 57.8864ZM150.928 54.1889C149.804 54.1889 148.877 53.9663 148.148 53.521C147.424 53.0711 146.916 52.4459 146.624 51.6452C146.331 50.8401 146.273 49.9067 146.448 48.8452C146.624 47.7836 146.99 46.8525 147.548 46.0518C148.106 45.2467 148.823 44.6214 149.7 44.1761C150.577 43.7263 151.58 43.5014 152.709 43.5014C153.83 43.5014 154.752 43.7263 155.476 44.1761C156.205 44.6214 156.715 45.2467 157.007 46.0518C157.304 46.8525 157.365 47.7836 157.19 48.8452C157.014 49.9067 156.645 50.8401 156.083 51.6452C155.521 52.4459 154.801 53.0711 153.924 53.521C153.051 53.9663 152.053 54.1889 150.928 54.1889ZM151.387 51.4361C151.711 51.4361 152.006 51.3304 152.271 51.119C152.541 50.9076 152.77 50.6062 152.959 50.2148C153.153 49.8235 153.294 49.358 153.384 48.8182C153.474 48.2739 153.488 47.8084 153.425 47.4215C153.362 47.0302 153.231 46.7288 153.033 46.5174C152.835 46.306 152.575 46.2003 152.251 46.2003C151.927 46.2003 151.63 46.306 151.36 46.5174C151.09 46.7288 150.861 47.0302 150.672 47.4215C150.483 47.8084 150.343 48.2739 150.254 48.8182C150.164 49.358 150.148 49.8235 150.206 50.2148C150.269 50.6062 150.4 50.9076 150.598 51.119C150.8 51.3304 151.063 51.4361 151.387 51.4361ZM165.313 49.4659L166.285 43.6364H170.009L168.282 54H164.746L165.07 52.0298H164.962C164.643 52.6911 164.166 53.2083 163.532 53.5817C162.902 53.9505 162.2 54.1349 161.427 54.1349C160.703 54.1349 160.098 53.9685 159.612 53.6357C159.126 53.3028 158.782 52.844 158.58 52.2592C158.377 51.6745 158.337 51.0043 158.458 50.2486L159.565 43.6364H163.289L162.317 49.4659C162.241 49.9787 162.306 50.3813 162.513 50.6737C162.725 50.966 163.064 51.1122 163.532 51.1122C163.842 51.1122 164.121 51.047 164.369 50.9165C164.62 50.7816 164.827 50.5927 164.989 50.3498C165.156 50.1024 165.264 49.8078 165.313 49.4659ZM175.797 54L174.933 43.6364H178.657L178.792 49.9517H178.873L181.248 43.6364H184.865L185.189 49.8977H185.27L187.456 43.6364H191.18L186.862 54H182.841L182.301 48.4403H182.193L179.818 54H175.797ZM193.447 54.1619C192.79 54.1619 192.226 54.054 191.754 53.8381C191.286 53.6177 190.944 53.2848 190.728 52.8395C190.517 52.3897 190.469 51.8229 190.586 51.1392C190.681 50.5724 190.858 50.0889 191.119 49.6886C191.38 49.2882 191.704 48.9599 192.091 48.7035C192.478 48.4471 192.912 48.2514 193.393 48.1165C193.879 47.977 194.392 47.8871 194.932 47.8466C195.516 47.8016 195.991 47.7454 196.355 47.6779C196.72 47.6104 196.992 47.5182 197.172 47.4013C197.351 47.2843 197.459 47.1269 197.495 46.929V46.902C197.536 46.6321 197.464 46.4252 197.28 46.2812C197.1 46.1373 196.848 46.0653 196.524 46.0653C196.173 46.0653 195.869 46.1418 195.613 46.2947C195.361 46.4477 195.188 46.6861 195.093 47.0099H191.666C191.81 46.3802 192.104 45.8 192.55 45.2692C193 44.7339 193.596 44.3066 194.338 43.9872C195.084 43.6634 195.975 43.5014 197.01 43.5014C197.747 43.5014 198.395 43.5891 198.953 43.7646C199.511 43.9355 199.972 44.1761 200.336 44.4865C200.705 44.7924 200.963 45.1522 201.112 45.5661C201.265 45.9754 201.301 46.4207 201.22 46.902L200.032 54H196.551L196.794 52.5426H196.713C196.443 52.9295 196.139 53.2421 195.802 53.4805C195.469 53.7189 195.105 53.892 194.709 54C194.318 54.108 193.897 54.1619 193.447 54.1619ZM195.066 51.8139C195.345 51.8139 195.62 51.7554 195.89 51.6385C196.159 51.5215 196.391 51.3529 196.585 51.1325C196.778 50.9121 196.902 50.6444 196.956 50.3295L197.091 49.4659C196.992 49.5064 196.881 49.5446 196.76 49.5806C196.643 49.6121 196.519 49.6436 196.389 49.6751C196.263 49.7066 196.128 49.7358 195.984 49.7628C195.845 49.7898 195.701 49.8168 195.552 49.8438C195.255 49.8887 195.006 49.9629 194.803 50.0664C194.601 50.1654 194.443 50.2891 194.331 50.4375C194.219 50.5814 194.149 50.7434 194.122 50.9233C194.081 51.2067 194.147 51.4271 194.318 51.5845C194.493 51.7375 194.743 51.8139 195.066 51.8139ZM201.812 54L203.539 43.6364H207.264L205.536 54H201.812ZM205.563 42.5568C205.06 42.5568 204.652 42.3904 204.342 42.0575C204.032 41.7202 203.917 41.3198 203.998 40.8565C204.079 40.3842 204.326 39.9839 204.74 39.6555C205.154 39.3227 205.613 39.1562 206.117 39.1562C206.625 39.1562 207.03 39.3227 207.331 39.6555C207.632 39.9839 207.745 40.3842 207.668 40.8565C207.596 41.3198 207.354 41.7202 206.94 42.0575C206.53 42.3904 206.072 42.5568 205.563 42.5568ZM215.342 43.6364L214.883 46.3352H208.055L208.514 43.6364H215.342ZM210.241 41.1534H213.965L212.386 50.6669C212.364 50.8108 212.368 50.9323 212.4 51.0312C212.431 51.1257 212.494 51.1977 212.589 51.2472C212.688 51.2921 212.818 51.3146 212.98 51.3146C213.088 51.3146 213.221 51.3011 213.378 51.2741C213.536 51.2427 213.655 51.2202 213.736 51.2067L213.844 53.8246C213.655 53.8786 213.401 53.9393 213.081 54.0067C212.766 54.0787 212.4 54.1259 211.982 54.1484C211.109 54.1889 210.398 54.0967 209.849 53.8718C209.305 53.6469 208.927 53.296 208.716 52.8192C208.509 52.3379 208.473 51.7375 208.608 51.0178L210.241 41.1534ZM215.134 54L216.861 43.6364H220.586L218.859 54H215.134ZM218.886 42.5568C218.382 42.5568 217.975 42.3904 217.664 42.0575C217.354 41.7202 217.239 41.3198 217.32 40.8565C217.401 40.3842 217.649 39.9839 218.062 39.6555C218.476 39.3227 218.935 39.1562 219.439 39.1562C219.947 39.1562 220.352 39.3227 220.653 39.6555C220.955 39.9839 221.067 40.3842 220.991 40.8565C220.919 41.3198 220.676 41.7202 220.262 42.0575C219.853 42.3904 219.394 42.5568 218.886 42.5568ZM225.479 48.1705L224.508 54H220.783L222.511 43.6364H226.046L225.722 45.6065H225.83C226.158 44.9453 226.638 44.4303 227.267 44.0614C227.902 43.6881 228.601 43.5014 229.366 43.5014C230.099 43.5014 230.708 43.6679 231.194 44.0007C231.68 44.3336 232.024 44.7924 232.226 45.3771C232.429 45.9619 232.465 46.6321 232.334 47.3878L231.228 54H227.503L228.475 48.1705C228.56 47.6577 228.497 47.2551 228.286 46.9627C228.079 46.6703 227.737 46.5241 227.261 46.5241C226.959 46.5241 226.683 46.5916 226.431 46.7266C226.183 46.857 225.976 47.0459 225.81 47.2933C225.648 47.5362 225.538 47.8286 225.479 48.1705ZM237.385 58.1023C236.341 58.1023 235.473 57.9538 234.78 57.657C234.092 57.3646 233.584 56.9598 233.255 56.4425C232.932 55.9297 232.797 55.3404 232.851 54.6747H236.44C236.449 54.8996 236.514 55.0795 236.636 55.2145C236.757 55.3494 236.926 55.4461 237.142 55.5046C237.358 55.5631 237.61 55.5923 237.897 55.5923C238.383 55.5923 238.804 55.4731 239.159 55.2347C239.514 55.0008 239.733 54.5803 239.814 53.973L240.11 52.2188H240.003C239.814 52.5696 239.559 52.8687 239.24 53.1161C238.921 53.359 238.554 53.5457 238.14 53.6761C237.726 53.8021 237.286 53.8651 236.818 53.8651C236.08 53.8651 235.43 53.6941 234.868 53.3523C234.31 53.0104 233.905 52.4684 233.653 51.7262C233.406 50.984 233.381 50.0147 233.579 48.8182C233.786 47.5677 234.15 46.5511 234.672 45.7685C235.194 44.9858 235.795 44.4123 236.474 44.0479C237.153 43.6836 237.834 43.5014 238.518 43.5014C239.031 43.5014 239.465 43.5914 239.82 43.7713C240.176 43.9467 240.459 44.1829 240.67 44.4798C240.882 44.7721 241.028 45.0937 241.109 45.4446H241.19L241.487 43.6364H245.211L243.484 53.973C243.349 54.8546 243.005 55.6013 242.452 56.2131C241.903 56.8293 241.192 57.2971 240.32 57.6165C239.452 57.9403 238.473 58.1023 237.385 58.1023ZM238.626 51.2202C238.968 51.2202 239.278 51.1257 239.557 50.9368C239.836 50.7434 240.072 50.469 240.266 50.1136C240.459 49.7538 240.596 49.322 240.677 48.8182C240.758 48.3054 240.763 47.8668 240.691 47.5025C240.619 47.1336 240.477 46.8525 240.266 46.6591C240.054 46.4612 239.778 46.3622 239.436 46.3622C239.094 46.3622 238.786 46.4612 238.511 46.6591C238.237 46.8525 238.005 47.1336 237.816 47.5025C237.628 47.8668 237.493 48.3054 237.412 48.8182C237.331 49.331 237.324 49.7673 237.391 50.1271C237.459 50.4825 237.596 50.7546 237.803 50.9435C238.01 51.128 238.284 51.2202 238.626 51.2202ZM133.612 66.6364L133.153 69.3352H126.217L126.676 66.6364H133.612ZM126.257 77L128.038 66.3395C128.178 65.4848 128.446 64.7764 128.841 64.2141C129.242 63.6519 129.743 63.2313 130.346 62.9524C130.953 62.6735 131.632 62.5341 132.384 62.5341C132.86 62.5341 133.317 62.5701 133.753 62.642C134.19 62.714 134.507 62.777 134.705 62.831L133.733 65.5028C133.603 65.4624 133.452 65.4309 133.281 65.4084C133.11 65.3814 132.955 65.3679 132.815 65.3679C132.469 65.3679 132.222 65.4421 132.073 65.5906C131.929 65.739 131.835 65.9347 131.79 66.1776L129.982 77H126.257ZM137.958 77.1889C136.834 77.1889 135.907 76.9663 135.179 76.521C134.454 76.0711 133.946 75.4459 133.654 74.6452C133.361 73.8401 133.303 72.9067 133.478 71.8452C133.654 70.7836 134.02 69.8525 134.578 69.0518C135.136 68.2467 135.853 67.6214 136.731 67.1761C137.608 66.7263 138.611 66.5014 139.74 66.5014C140.86 66.5014 141.782 66.7263 142.506 67.1761C143.235 67.6214 143.745 68.2467 144.038 69.0518C144.335 69.8525 144.395 70.7836 144.22 71.8452C144.044 72.9067 143.676 73.8401 143.113 74.6452C142.551 75.4459 141.831 76.0711 140.954 76.521C140.082 76.9663 139.083 77.1889 137.958 77.1889ZM138.417 74.4361C138.741 74.4361 139.036 74.3304 139.301 74.119C139.571 73.9076 139.8 73.6062 139.989 73.2148C140.183 72.8235 140.324 72.358 140.414 71.8182C140.504 71.2739 140.518 70.8084 140.455 70.4215C140.392 70.0302 140.262 69.7288 140.064 69.5174C139.866 69.306 139.605 69.2003 139.281 69.2003C138.957 69.2003 138.66 69.306 138.39 69.5174C138.12 69.7288 137.891 70.0302 137.702 70.4215C137.513 70.8084 137.374 71.2739 137.284 71.8182C137.194 72.358 137.178 72.8235 137.237 73.2148C137.3 73.6062 137.43 73.9076 137.628 74.119C137.83 74.3304 138.093 74.4361 138.417 74.4361ZM144.868 77L146.595 66.6364H150.211L149.887 68.6065H149.995C150.306 67.8778 150.695 67.3448 151.163 67.0075C151.63 66.6701 152.141 66.5014 152.694 66.5014C152.856 66.5014 153.011 66.5149 153.16 66.5419C153.313 66.5644 153.463 66.5959 153.612 66.6364L153.072 69.821C152.897 69.7536 152.679 69.7063 152.418 69.6793C152.157 69.6478 151.925 69.6321 151.723 69.6321C151.363 69.6321 151.025 69.7153 150.711 69.8817C150.4 70.0437 150.135 70.2731 149.914 70.57C149.699 70.8623 149.555 71.2064 149.483 71.6023L148.592 77H144.868ZM156.56 72.6818L156.614 72.358C156.74 71.6203 156.898 71.031 157.087 70.5902C157.28 70.1494 157.514 69.7963 157.788 69.5309C158.063 69.261 158.382 69.0159 158.746 68.7955C159.061 68.6065 159.347 68.4244 159.603 68.2489C159.864 68.0735 160.078 67.8868 160.244 67.6889C160.411 67.491 160.514 67.2661 160.555 67.0142C160.591 66.7893 160.568 66.5914 160.487 66.4205C160.406 66.2495 160.283 66.1168 160.116 66.0224C159.95 65.9279 159.754 65.8807 159.529 65.8807C159.286 65.8807 159.052 65.9369 158.827 66.0494C158.603 66.1618 158.411 66.317 158.254 66.5149C158.097 66.7128 158 66.9422 157.964 67.2031H154.509C154.68 66.2135 155.036 65.4106 155.575 64.7944C156.115 64.1737 156.774 63.7193 157.552 63.4315C158.33 63.1391 159.16 62.9929 160.042 62.9929C160.996 62.9929 161.825 63.1346 162.532 63.418C163.242 63.6969 163.769 64.1197 164.11 64.6864C164.452 65.2487 164.554 65.9527 164.414 66.7983C164.324 67.3471 164.153 67.8284 163.901 68.2422C163.654 68.6515 163.339 69.0136 162.957 69.3285C162.574 69.6388 162.143 69.92 161.661 70.1719C161.301 70.3608 160.993 70.5542 160.737 70.7521C160.485 70.95 160.28 71.1772 160.123 71.4336C159.97 71.69 159.862 71.9981 159.799 72.358L159.745 72.6818H156.56ZM157.532 77.2159C157.006 77.2159 156.576 77.0337 156.243 76.6694C155.915 76.3005 155.778 75.853 155.832 75.3267C155.886 74.8139 156.117 74.3754 156.527 74.011C156.941 73.6467 157.411 73.4645 157.937 73.4645C158.436 73.4645 158.852 73.6467 159.185 74.011C159.522 74.3754 159.664 74.8139 159.61 75.3267C159.574 75.6776 159.45 75.9969 159.239 76.2848C159.032 76.5682 158.776 76.7953 158.47 76.9663C158.168 77.1327 157.856 77.2159 157.532 77.2159Z" fill="black"/>
<defs>
<clipPath id="clip0_800_53">
<rect width="191" height="191" fill="white" transform="translate(37 122)"/>
</clipPath>
</defs>
</svg>
