<svg width="95" height="95" viewBox="0 0 95 95" fill="none" xmlns="http://www.w3.org/2000/svg">
<path d="M9.99126 89.2672C9.99126 90.2533 9.66258 90.9897 9.00522 91.4767C8.68871 91.708 8.36003 91.8906 8.01918 92.0245C7.6905 92.1462 7.36791 92.2071 7.0514 92.2071H3.07072C2.75421 92.2071 2.42553 92.1462 2.08468 92.0245C1.756 91.8906 1.43341 91.708 1.1169 91.4767C0.800393 91.2332 0.556926 90.935 0.386499 90.5819C0.216073 90.2167 0.130859 89.7785 0.130859 89.2672V80.5937C0.130859 80.1068 0.216073 79.6807 0.386499 79.3155C0.556926 78.9381 0.800393 78.6338 1.1169 78.4025H1.09864C1.41515 78.1956 1.74383 78.0251 2.08468 77.8912C2.42553 77.7573 2.75421 77.6904 3.07072 77.6904H7.0514C7.36791 77.6904 7.69659 77.7573 8.03744 77.8912C8.37829 78.0251 8.70697 78.1956 9.02348 78.4025H9.00522C9.32173 78.6338 9.56519 78.9381 9.73562 79.3155C9.90605 79.6807 9.99126 80.1068 9.99126 80.5937V81.8537C9.99126 82.438 9.62606 82.7301 8.89566 82.7301C8.17743 82.7301 7.81832 82.438 7.81832 81.8537V80.7581C7.81832 80.4537 7.72702 80.1737 7.54442 79.9181C7.36182 79.6625 7.04531 79.5346 6.5949 79.5346H3.52722C3.07681 79.5346 2.7603 79.6625 2.5777 79.9181C2.3951 80.1737 2.3038 80.4537 2.3038 80.7581V89.1211C2.3038 89.4376 2.3951 89.7237 2.5777 89.9794C2.7603 90.235 3.07681 90.3628 3.52722 90.3628H6.5949C7.04531 90.3628 7.36182 90.235 7.54442 89.9794C7.72702 89.7237 7.81832 89.4376 7.81832 89.1211V88.0621C7.81832 87.4899 8.17743 87.2038 8.89566 87.2038C9.62606 87.2038 9.99126 87.4899 9.99126 88.0621V89.2672Z" fill="white"/>
<path d="M15.2245 92.1888C14.8471 92.1888 14.488 92.1401 14.1471 92.0427C13.8063 91.9332 13.4776 91.781 13.1611 91.5862V91.6045C12.5646 91.2271 12.2663 90.5332 12.2663 89.5229V88.6281C12.2663 88.129 12.3516 87.6969 12.522 87.3317C12.7046 86.9543 12.9541 86.656 13.2706 86.4369H13.2524C13.5567 86.23 13.8793 86.0778 14.2202 85.9804C14.561 85.8709 14.8897 85.8161 15.2062 85.8161H19.2417V84.1179C19.2417 83.8136 19.1443 83.5397 18.9495 83.2962C18.7669 83.0406 18.4504 82.9127 18 82.9127H15.8636C15.401 82.9127 15.0784 83.0284 14.8958 83.2597C14.7254 83.4788 14.6401 83.7405 14.6401 84.0449V84.1909C14.6401 84.824 14.2993 85.1405 13.6176 85.1405C12.9359 85.1405 12.595 84.824 12.595 84.1909V84.0266C12.595 83.5275 12.6802 83.1075 12.8507 82.7667C13.0333 82.4258 13.2767 82.1397 13.5811 81.9084H13.5628C13.8793 81.7015 14.208 81.5311 14.5488 81.3972C14.9019 81.2632 15.2366 81.1963 15.5531 81.1963H18.3287C18.633 81.1963 18.9556 81.2632 19.2964 81.3972C19.6495 81.5311 19.9781 81.7015 20.2825 81.9084H20.2642C20.5807 82.1397 20.8242 82.4441 20.9946 82.8214C21.165 83.1866 21.2503 83.6127 21.2503 84.0996V91.4219C21.2503 92.0062 20.9155 92.2984 20.246 92.2984C20.1121 92.2984 19.9842 92.2923 19.8625 92.2801C19.7529 92.2679 19.6495 92.2375 19.5521 92.1888C19.4669 92.128 19.3938 92.0488 19.333 91.9514C19.2843 91.8419 19.2599 91.7019 19.2599 91.5315L19.2417 87.5325H15.5531C15.2853 87.5325 15.0784 87.563 14.9323 87.6238C14.7862 87.6847 14.6706 87.7821 14.5854 87.916C14.488 88.1229 14.4149 88.2873 14.3662 88.409C14.3297 88.5186 14.3115 88.6464 14.3115 88.7925V89.5046C14.3115 89.8211 14.4028 90.0646 14.5854 90.235C14.7801 90.3933 15.1088 90.4724 15.5714 90.4724H17.6165C18.0669 90.4724 18.2921 90.7585 18.2921 91.3306C18.2921 91.5741 18.2374 91.781 18.1278 91.9514C18.0182 92.1097 17.8478 92.1888 17.6165 92.1888H15.2245Z" fill="white"/>
<path d="M26.0043 82.9127V89.5594C26.0043 89.8759 26.0712 90.1194 26.2051 90.2898C26.339 90.4602 26.6251 90.5454 27.0634 90.5454H27.5381C28.0129 90.5454 28.2381 90.8254 28.2137 91.3854C28.2137 91.9575 27.9885 92.2436 27.5381 92.2436H26.9355C26.546 92.2436 26.1808 92.1949 25.8399 92.0975C25.4991 91.988 25.1704 91.8358 24.8539 91.641V91.6593C24.2574 91.2697 23.9592 90.5759 23.9592 89.5776V82.9127H23.247C22.8088 82.9127 22.5775 82.6267 22.5531 82.0545C22.5531 81.4824 22.7844 81.1963 23.247 81.1963H23.9592V79.2425C23.9592 78.6582 24.3061 78.366 25 78.366C25.6695 78.366 26.0043 78.6582 26.0043 79.2425V81.1963H27.5199C27.9946 81.1963 28.2198 81.4824 28.1955 82.0545C28.1955 82.6267 27.9703 82.9127 27.5199 82.9127H26.0043Z" fill="white"/>
<path d="M31.8085 89.2672C31.8085 89.5594 31.8998 89.8333 32.0824 90.0889C32.2772 90.3446 32.5998 90.4724 33.0502 90.4724H35.3327C35.7831 90.4724 36.0996 90.3628 36.2822 90.1437C36.477 89.9124 36.5744 89.6507 36.5744 89.3585V89.1577C36.5744 88.5855 36.9092 88.2994 37.5787 88.2994C38.2482 88.2994 38.583 88.5855 38.583 89.1577V89.3768C38.583 89.8881 38.4978 90.308 38.3274 90.6367C38.1691 90.9654 37.9256 91.2515 37.597 91.4949C36.9518 91.9575 36.3066 92.1888 35.6614 92.1888H32.5937C31.9485 92.1888 31.3216 91.9575 30.7129 91.4949C30.4208 91.2515 30.1956 90.9471 30.0373 90.5819C29.8791 90.2046 29.7999 89.7724 29.7999 89.2855V84.0814C29.7999 83.0953 30.1043 82.3649 30.7129 81.8902C31.0173 81.6711 31.3277 81.5006 31.6442 81.3789C31.9729 81.245 32.2894 81.178 32.5937 81.178H35.6614C35.9536 81.178 36.2762 81.2389 36.6292 81.3606C36.9822 81.4702 37.3109 81.6224 37.6152 81.8171C37.9074 82.0241 38.1387 82.3102 38.3091 82.6754C38.4917 83.0406 38.583 83.4727 38.583 83.9718V86.4369C38.583 86.7169 38.4978 86.9665 38.3274 87.1856C38.1691 87.4047 37.8709 87.5143 37.4326 87.5143H33.4885C33.0502 87.5143 32.8189 87.2282 32.7946 86.656C32.7946 86.0839 33.0259 85.7978 33.4885 85.7978H36.5927L36.5744 84.0996C36.5744 83.7953 36.477 83.5214 36.2822 83.2779C36.0996 83.0223 35.7831 82.8945 35.3327 82.8945H33.0502C32.5998 82.8945 32.2772 83.0223 32.0824 83.2779C31.8998 83.5214 31.8085 83.7953 31.8085 84.0996V89.2672Z" fill="white"/>
<path d="M43.8492 90.9106C43.5326 90.9106 43.204 90.8558 42.8631 90.7463C42.5344 90.6367 42.2118 90.4785 41.8953 90.2715C41.238 89.8455 40.9093 89.1272 40.9093 88.1168V83.9901C40.9093 83.4788 40.9945 83.0406 41.1649 82.6754C41.3475 82.3102 41.591 82.0241 41.8953 81.8171C42.2118 81.6224 42.5344 81.4702 42.8631 81.3606C43.1918 81.2511 43.5144 81.1963 43.8309 81.1963H46.8986C47.2029 81.1963 47.5194 81.2632 47.8481 81.3972C48.1768 81.5311 48.4811 81.7015 48.7611 81.9084C49.0411 82.1397 49.2663 82.4441 49.4367 82.8214C49.6071 83.1988 49.6924 83.6249 49.6924 84.0996V91.8419C49.6924 92.3532 49.6071 92.7853 49.4367 93.1383C49.2785 93.5035 49.0532 93.8079 48.7611 94.0513C48.4811 94.2826 48.1768 94.4591 47.8481 94.5809C47.5316 94.7148 47.2151 94.7817 46.8986 94.7817H43.8309C43.1857 94.7817 42.5344 94.5931 41.8771 94.2157C41.5362 94.0209 41.2867 93.7714 41.1284 93.467C40.9823 93.1627 40.9093 92.8097 40.9093 92.4079V92.1888C40.9093 91.9454 40.9884 91.7506 41.1467 91.6045C41.3049 91.4584 41.5545 91.3854 41.8953 91.3854C42.577 91.4584 42.9179 91.7262 42.9179 92.1888V92.3897C42.9179 92.5236 43.0092 92.6697 43.1918 92.8279C43.3866 92.9862 43.7092 93.0653 44.1596 93.0653H46.4421C46.8925 93.0653 47.209 92.9375 47.3916 92.6818C47.5864 92.4262 47.6838 92.1401 47.6838 91.8236V84.1179C47.6838 83.8136 47.5864 83.5397 47.3916 83.2962C47.209 83.0406 46.8925 82.9127 46.4421 82.9127H44.1596C43.7092 82.9127 43.3866 83.0406 43.1918 83.2962C43.0092 83.5397 42.9179 83.8136 42.9179 84.1179V87.9708C42.9179 88.2751 43.0092 88.5612 43.1918 88.829C43.3866 89.0846 43.7092 89.2124 44.1596 89.2124H46.0586C46.4968 89.2124 46.716 89.4924 46.716 90.0524C46.716 90.308 46.6612 90.515 46.5516 90.6732C46.4542 90.8315 46.2899 90.9106 46.0586 90.9106H43.8492Z" fill="white"/>
<path d="M57.9867 81.1963C58.3032 81.1963 58.6258 81.2632 58.9545 81.3972C59.2953 81.5311 59.624 81.7015 59.9405 81.9084H59.9222C60.2387 82.1397 60.4822 82.4441 60.6526 82.8214C60.8231 83.1866 60.9083 83.6127 60.9083 84.0996V89.2855C60.9083 90.2837 60.5796 91.0202 59.9222 91.4949C59.277 91.9575 58.6319 92.1888 57.9867 92.1888H55.0651C54.7486 92.1888 54.426 92.134 54.0973 92.0245C53.7686 91.9149 53.446 91.7384 53.1295 91.4949C52.4721 91.0324 52.1435 90.2959 52.1435 89.2855V84.0996C52.1435 83.6127 52.2287 83.1866 52.3991 82.8214C52.5695 82.4441 52.813 82.1397 53.1295 81.9084H53.1113C53.4156 81.7015 53.7382 81.5311 54.079 81.3972C54.4199 81.2632 54.7486 81.1963 55.0651 81.1963H57.9867ZM57.658 90.4724C58.1084 90.4724 58.4249 90.3446 58.6075 90.0889C58.8023 89.8333 58.8997 89.5594 58.8997 89.2672V84.1179C58.8997 83.8136 58.8023 83.5397 58.6075 83.2962C58.4249 83.0406 58.1084 82.9127 57.658 82.9127H55.3937C54.9433 82.9127 54.6207 83.0406 54.426 83.2962C54.2434 83.5397 54.1521 83.8136 54.1521 84.1179V89.2672C54.1521 89.5594 54.2434 89.8333 54.426 90.0889C54.6207 90.3446 54.9433 90.4724 55.3937 90.4724H57.658Z" fill="white"/>
<path d="M65.1892 91.4219C65.1892 92.0062 64.8545 92.2984 64.1849 92.2984C63.4911 92.2984 63.1441 92.0062 63.1441 91.4219V83.8623C63.1441 82.864 63.4424 82.1702 64.0389 81.7806C64.6354 81.3911 65.3231 81.1963 66.1022 81.1963H68.1839C68.6343 81.1963 68.8595 81.4824 68.8595 82.0545C68.8838 82.6267 68.6586 82.9127 68.1839 82.9127H66.2483C65.8101 82.9127 65.524 82.998 65.3901 83.1684C65.2562 83.3388 65.1892 83.5762 65.1892 83.8805V91.4219Z" fill="white"/>
<path d="M72.4669 91.4219C72.4669 92.0062 72.1321 92.2984 71.4625 92.2984C70.7808 92.2984 70.44 92.0062 70.44 91.4219V81.9997C70.44 81.4154 70.7808 81.1233 71.4625 81.1233C72.1321 81.1233 72.4669 81.4154 72.4669 81.9997V91.4219ZM72.8503 78.8225C72.8503 79.212 72.7164 79.5407 72.4486 79.8085C72.1808 80.0764 71.8521 80.2103 71.4625 80.2103C71.073 80.2103 70.7382 80.0764 70.4583 79.8085C70.1904 79.5407 70.0565 79.212 70.0565 78.8225C70.0565 78.4208 70.1904 78.086 70.4583 77.8182C70.7382 77.5504 71.073 77.4165 71.4625 77.4165C71.8521 77.4165 72.1808 77.5504 72.4486 77.8182C72.7164 78.086 72.8503 78.4208 72.8503 78.8225Z" fill="white"/>
<path d="M77.0127 89.2672C77.0127 89.5594 77.104 89.8333 77.2866 90.0889C77.4814 90.3446 77.804 90.4724 78.2544 90.4724H80.5369C80.9873 90.4724 81.3038 90.3628 81.4864 90.1437C81.6812 89.9124 81.7786 89.6507 81.7786 89.3585V89.1577C81.7786 88.5855 82.1134 88.2994 82.7829 88.2994C83.4524 88.2994 83.7872 88.5855 83.7872 89.1577V89.3768C83.7872 89.8881 83.702 90.308 83.5316 90.6367C83.3733 90.9654 83.1298 91.2515 82.8012 91.4949C82.156 91.9575 81.5108 92.1888 80.8656 92.1888H77.7979C77.1527 92.1888 76.5258 91.9575 75.9171 91.4949C75.625 91.2515 75.3998 90.9471 75.2415 90.5819C75.0833 90.2046 75.0041 89.7724 75.0041 89.2855V84.0814C75.0041 83.0953 75.3085 82.3649 75.9171 81.8902C76.2215 81.6711 76.5319 81.5006 76.8484 81.3789C77.1771 81.245 77.4936 81.178 77.7979 81.178H80.8656C81.1578 81.178 81.4803 81.2389 81.8334 81.3606C82.1864 81.4702 82.5151 81.6224 82.8194 81.8171C83.1116 82.0241 83.3429 82.3102 83.5133 82.6754C83.6959 83.0406 83.7872 83.4727 83.7872 83.9718V86.4369C83.7872 86.7169 83.702 86.9665 83.5316 87.1856C83.3733 87.4047 83.0751 87.5143 82.6368 87.5143H78.6926C78.2544 87.5143 78.0231 87.2282 77.9988 86.656C77.9988 86.0839 78.2301 85.7978 78.6926 85.7978H81.7969L81.7786 84.0996C81.7786 83.7953 81.6812 83.5214 81.4864 83.2779C81.3038 83.0223 80.9873 82.8945 80.5369 82.8945H78.2544C77.804 82.8945 77.4814 83.0223 77.2866 83.2779C77.104 83.5214 77.0127 83.7953 77.0127 84.0996V89.2672Z" fill="white"/>
<path d="M92.048 85.7978C92.3523 85.7978 92.6749 85.8709 93.0158 86.0169C93.3688 86.1508 93.6975 86.3213 94.0018 86.5282H93.9836C94.3001 86.7595 94.5435 87.0578 94.714 87.423C94.8844 87.7882 94.9696 88.2264 94.9696 88.7377V89.2855C94.9696 90.2837 94.6409 91.0202 93.9836 91.4949C93.667 91.7384 93.3444 91.9149 93.0158 92.0245C92.6871 92.134 92.3645 92.1888 92.048 92.1888H88.9438C88.6273 92.1888 88.3047 92.134 87.976 92.0245C87.6473 91.9149 87.3247 91.7384 87.0082 91.4949C86.3509 91.0324 86.0222 90.2959 86.0222 89.2855V89.0664C86.0222 88.5429 86.357 88.2873 87.0265 88.2994C87.7082 88.2994 88.049 88.5551 88.049 89.0664V89.2672C88.049 89.5594 88.1404 89.8333 88.323 90.0889C88.5056 90.3446 88.8281 90.4724 89.2907 90.4724H91.701C92.1636 90.4724 92.4862 90.3446 92.6688 90.0889C92.8514 89.8333 92.9427 89.5594 92.9427 89.2672V88.7559C92.9427 88.5977 92.9184 88.4455 92.8697 88.2994C92.8332 88.1534 92.7662 88.0255 92.6688 87.916C92.5714 87.7942 92.4436 87.6969 92.2854 87.6238C92.1271 87.5508 91.9323 87.5143 91.701 87.5143H89.0351C88.4142 87.5143 87.763 87.2951 87.0813 86.8569C86.4361 86.443 86.1135 85.7309 86.1135 84.7205V84.0996C86.1135 83.6127 86.1987 83.1866 86.3691 82.8214C86.5396 82.4441 86.783 82.1397 87.0995 81.9084H87.0813C87.3856 81.7015 87.7082 81.5311 88.049 81.3972C88.3899 81.2632 88.7186 81.1963 89.0351 81.1963H91.9567C92.2732 81.1963 92.5958 81.2632 92.9245 81.3972C93.2653 81.5311 93.594 81.7015 93.9105 81.9084H93.8923C94.2088 82.1397 94.4522 82.4441 94.6227 82.8214C94.7931 83.1866 94.8783 83.6127 94.8783 84.0996V84.264C94.8783 84.5196 94.7931 84.7083 94.6227 84.83C94.4522 84.9396 94.2027 85.0005 93.874 85.0126C93.2045 85.0248 92.8697 84.7753 92.8697 84.264V84.1179C92.8697 83.8136 92.7723 83.5397 92.5775 83.2962C92.3949 83.0406 92.0784 82.9127 91.628 82.9127H89.3638C88.9134 82.9127 88.5908 83.0406 88.396 83.2962C88.2134 83.5397 88.1221 83.8136 88.1221 84.1179V84.5561C88.1221 84.8726 88.2134 85.1587 88.396 85.4144C88.5908 85.67 88.9134 85.7978 89.3638 85.7978H92.048Z" fill="white"/>
<path d="M18.5037 25.4268H36.7777C40.3793 25.4268 43.3096 23.1157 43.3096 20.2752V5.86284C43.3096 3.02218 40.3793 0.711214 36.7777 0.711214H18.5037C14.902 0.711214 11.9718 3.02218 11.9718 5.86284V20.2752C11.9718 23.1157 14.902 25.4268 18.5037 25.4268ZM16.7848 5.86284C16.7848 5.11411 17.5544 4.50715 18.5037 4.50715H36.7777C37.727 4.50715 38.4966 5.11411 38.4966 5.86284V20.2752C38.4966 21.0239 37.727 21.6309 36.7777 21.6309H18.5037C17.5544 21.6309 16.7848 21.0239 16.7848 20.2752V5.86284Z" fill="white"/>
<path d="M36.778 25.4712H18.5041C14.8714 25.4712 11.9159 23.1403 11.9159 20.2753V5.86293C11.9159 2.99781 14.8714 0.666992 18.5041 0.666992H36.778C40.4107 0.666992 43.3661 2.9979 43.3661 5.86293V20.2753C43.3661 23.1403 40.4107 25.4712 36.778 25.4712ZM18.5041 0.755599C14.9333 0.755599 12.0283 3.04672 12.0283 5.86293V20.2753C12.0283 23.0915 14.9333 25.3826 18.5041 25.3826H36.778C40.3488 25.3826 43.2538 23.0915 43.2538 20.2753V5.86293C43.2538 3.04672 40.3488 0.755599 36.778 0.755599H18.5041ZM36.778 21.6752H18.5041C17.5253 21.6752 16.7289 21.0471 16.7289 20.2752V5.86293C16.7289 5.09098 17.5253 4.46293 18.5041 4.46293H36.778C37.7568 4.46293 38.5531 5.09098 38.5531 5.86293V20.2753C38.5531 21.0472 37.7568 21.6752 36.778 21.6752ZM18.5041 4.55154C17.5872 4.55154 16.8413 5.1398 16.8413 5.86293V20.2753C16.8413 20.9984 17.5872 21.5866 18.5041 21.5866H36.778C37.6949 21.5866 38.4408 20.9984 38.4408 20.2753V5.86293C38.4408 5.1398 37.6949 4.55154 36.778 4.55154H18.5041Z" fill="white"/>
<path d="M73.5095 0.711214H55.2355C51.6337 0.711214 48.7034 3.02227 48.7034 5.86284V20.2752C48.7034 23.1157 51.6337 25.4268 55.2355 25.4268H73.5095C77.1112 25.4268 80.0413 23.1157 80.0413 20.2752V5.86284C80.0413 3.02218 77.1112 0.711214 73.5095 0.711214ZM75.2283 20.2752C75.2283 21.0239 74.4587 21.6309 73.5095 21.6309H55.2355C54.2863 21.6309 53.5165 21.0239 53.5165 20.2752V5.86284C53.5165 5.11411 54.2863 4.50715 55.2355 4.50715H73.5095C74.4587 4.50715 75.2283 5.11411 75.2283 5.86284V20.2752Z" fill="white"/>
<path d="M73.5097 25.4712H55.2357C51.6029 25.4712 48.6475 23.1403 48.6475 20.2753V5.86296C48.6475 2.99793 51.6029 0.667028 55.2357 0.667028H73.5097C77.1422 0.667028 80.0977 2.99793 80.0977 5.86296V20.2753C80.0977 23.1403 77.1422 25.4712 73.5097 25.4712ZM55.2357 0.755636C51.6649 0.755636 48.7598 3.04675 48.7598 5.86296V20.2753C48.7598 23.0915 51.6648 25.3826 55.2357 25.3826H73.5097C77.0803 25.3826 79.9853 23.0915 79.9853 20.2753V5.86296C79.9853 3.04675 77.0805 0.755636 73.5097 0.755636H55.2357ZM73.5097 21.6752H55.2357C54.2568 21.6752 53.4605 21.0472 53.4605 20.2752V5.86296C53.4605 5.09101 54.2568 4.46297 55.2357 4.46297H73.5097C74.4885 4.46297 75.2847 5.09101 75.2847 5.86296V20.2753C75.2847 21.0472 74.4885 21.6752 73.5097 21.6752ZM55.2357 4.55157C54.3188 4.55157 53.5728 5.13984 53.5728 5.86296V20.2753C53.5728 20.9984 54.3188 21.5867 55.2357 21.5867H73.5097C74.4264 21.5867 75.1723 20.9984 75.1723 20.2753V5.86296C75.1723 5.13984 74.4264 4.55157 73.5097 4.55157H55.2357Z" fill="white"/>
<path d="M18.5037 54.2691H36.7777C40.3793 54.2691 43.3096 51.9583 43.3096 49.1176V34.7053C43.3096 31.8646 40.3793 29.5536 36.7777 29.5536H18.5037C14.902 29.5536 11.9718 31.8646 11.9718 34.7053V49.1176C11.9718 51.9583 14.902 54.2691 18.5037 54.2691ZM16.7848 34.7053C16.7848 33.9566 17.5544 33.3495 18.5037 33.3495H36.7777C37.727 33.3495 38.4966 33.9566 38.4966 34.7053V49.1176C38.4966 49.8663 37.727 50.4732 36.7777 50.4732H18.5037C17.5544 50.4732 16.7848 49.8663 16.7848 49.1176V34.7053Z" fill="white"/>
<path d="M36.778 54.3135H18.5041C14.8714 54.3135 11.9159 51.9827 11.9159 49.1178V34.7054C11.9159 31.8402 14.8714 29.5093 18.5041 29.5093H36.778C40.4107 29.5093 43.3661 31.8402 43.3661 34.7054V49.1177C43.3661 51.9827 40.4107 54.3135 36.778 54.3135ZM18.5041 29.598C14.9333 29.598 12.0283 31.8892 12.0283 34.7054V49.1177C12.0283 51.9338 14.9333 54.2249 18.5041 54.2249H36.778C40.3488 54.2249 43.2538 51.9339 43.2538 49.1177V34.7054C43.2538 31.8892 40.3488 29.5979 36.778 29.5979L18.5041 29.598ZM36.778 50.5176H18.5041C17.5253 50.5176 16.7289 49.8896 16.7289 49.1177V34.7054C16.7289 33.9333 17.5253 33.3053 18.5041 33.3053H36.778C37.7568 33.3053 38.5531 33.9333 38.5531 34.7054V49.1177C38.5531 49.8896 37.7568 50.5176 36.778 50.5176ZM18.5041 33.3939C17.5872 33.3939 16.8413 33.9822 16.8413 34.7054V49.1177C16.8413 49.8407 17.5872 50.429 18.5041 50.429H36.778C37.6949 50.429 38.4408 49.8407 38.4408 49.1177V34.7054C38.4408 33.9822 37.6949 33.3939 36.778 33.3939H18.5041Z" fill="white"/>
<path d="M73.5095 29.5536H55.2355C51.6337 29.5536 48.7034 31.8646 48.7034 34.7053V49.1176C48.7034 51.9583 51.6337 54.2691 55.2355 54.2691H73.5095C77.1112 54.2691 80.0413 51.9583 80.0413 49.1176V34.7052C80.0413 31.8646 77.1112 29.5536 73.5095 29.5536ZM75.2283 49.1176C75.2283 49.8662 74.4587 50.4732 73.5095 50.4732H55.2355C54.2863 50.4732 53.5165 49.8662 53.5165 49.1176V34.7052C53.5165 33.9565 54.2863 33.3494 55.2355 33.3494H73.5095C74.4587 33.3494 75.2283 33.9565 75.2283 34.7052V49.1176Z" fill="white"/>
<path d="M73.5097 54.3135H55.2358C51.603 54.3135 48.6475 51.9826 48.6475 49.1177V34.7054C48.6475 31.8402 51.603 29.5093 55.2358 29.5093H73.5097C77.1423 29.5093 80.0977 31.8402 80.0977 34.7054V49.1177C80.0977 51.9827 77.1423 54.3135 73.5097 54.3135ZM55.2358 29.598C51.665 29.598 48.7599 31.8891 48.7599 34.7054V49.1178C48.7599 51.9339 51.6649 54.225 55.2358 54.225H73.5097C77.0804 54.225 79.9854 51.934 79.9854 49.1178V34.7054C79.9854 31.8892 77.0805 29.5979 73.5097 29.5979L55.2358 29.598ZM73.5097 50.5176H55.2358C54.2569 50.5176 53.4605 49.8896 53.4605 49.1177V34.7054C53.4605 33.9333 54.2569 33.3053 55.2358 33.3053H73.5097C74.4885 33.3053 75.2847 33.9333 75.2847 34.7054V49.1177C75.2847 49.8896 74.4885 50.5176 73.5097 50.5176ZM55.2358 33.3939C54.3189 33.3939 53.5729 33.9822 53.5729 34.7054V49.1177C53.5729 49.8407 54.3189 50.429 55.2358 50.429H73.5097C74.4265 50.429 75.1724 49.8407 75.1724 49.1177V34.7054C75.1724 33.9822 74.4265 33.3939 73.5097 33.3939H55.2358Z" fill="white"/>
</svg>