<svg width="123" height="166" viewBox="0 0 123 166" fill="none" xmlns="http://www.w3.org/2000/svg">
<path d="M11.9801 158.213C11.9801 159.517 11.5506 160.479 10.6916 161.1C9.84859 161.704 9.00553 162.006 8.16248 162.006H4.154C3.31094 162.006 2.49175 161.704 1.69642 161.1C1.31466 160.782 1.02038 160.384 0.813598 159.907C0.606811 159.414 0.503418 158.849 0.503418 158.213V151.413C0.503418 150.124 0.901085 149.17 1.69642 148.549C2.09408 148.263 2.4997 148.04 2.91328 147.881C3.34276 147.706 3.75633 147.619 4.154 147.619H8.16248C8.54424 147.619 8.96576 147.698 9.42706 147.857C9.88835 148.001 10.3178 148.2 10.7155 148.454C11.0973 148.724 11.3995 149.098 11.6222 149.575C11.8608 150.053 11.9801 150.617 11.9801 151.269V152.462C11.9801 153.226 11.5426 153.608 10.6678 153.608C9.79291 153.608 9.35548 153.226 9.35548 152.462V151.437C9.35548 151.039 9.22823 150.681 8.97372 150.363C8.73512 150.029 8.32155 149.862 7.733 149.862H4.7505C4.16195 149.862 3.74042 150.029 3.48592 150.363C3.24732 150.681 3.12802 151.039 3.12802 151.437V158.189C3.12802 158.571 3.24732 158.929 3.48592 159.263C3.74042 159.597 4.16195 159.764 4.7505 159.764H7.733C8.32155 159.764 8.73512 159.597 8.97372 159.263C9.22823 158.929 9.35548 158.571 9.35548 158.189V157.091C9.35548 156.344 9.79291 155.97 10.6678 155.97C11.5426 155.97 11.9801 156.344 11.9801 157.091V158.213Z" fill="white"/>
<path d="M18.5761 162.006C18.083 162.006 17.6137 161.943 17.1683 161.816C16.7229 161.672 16.2935 161.474 15.8799 161.219V161.243C15.1005 160.75 14.7107 159.843 14.7107 158.523V157.354C14.7107 156.702 14.8221 156.137 15.0448 155.66C15.2834 155.167 15.6095 154.777 16.023 154.491H15.9992C16.3969 154.22 16.8184 154.021 17.2638 153.894C17.7092 153.751 18.1386 153.679 18.5522 153.679H23.8253V151.46C23.8253 151.063 23.698 150.705 23.4435 150.387C23.2049 150.053 22.7913 149.886 22.2028 149.886H19.4112C18.8067 149.886 18.3852 150.037 18.1466 150.339C17.9239 150.625 17.8125 150.967 17.8125 151.365V151.556C17.8125 152.383 17.3672 152.797 16.4764 152.797C15.5856 152.797 15.1402 152.383 15.1402 151.556V151.341C15.1402 150.689 15.2516 150.14 15.4743 149.695C15.7129 149.249 16.031 148.876 16.4287 148.573H16.4048C16.8184 148.303 17.2479 148.08 17.6932 147.905C18.1545 147.73 18.592 147.643 19.0055 147.643H22.6323C23.0299 147.643 23.4515 147.73 23.8968 147.905C24.3581 148.08 24.7876 148.303 25.1853 148.573H25.1614C25.575 148.876 25.8931 149.273 26.1158 149.766C26.3385 150.243 26.4499 150.8 26.4499 151.437V161.004C26.4499 161.768 26.0124 162.15 25.1376 162.15C24.9626 162.15 24.7956 162.142 24.6365 162.126C24.4933 162.11 24.3581 162.07 24.2309 162.006C24.1195 161.927 24.0241 161.824 23.9446 161.696C23.8809 161.553 23.8491 161.37 23.8491 161.148L23.8253 155.922H19.0055C18.6556 155.922 18.3852 155.962 18.1943 156.041C18.0034 156.121 17.8523 156.248 17.741 156.423C17.6137 156.694 17.5183 156.908 17.4546 157.067C17.4069 157.211 17.3831 157.378 17.3831 157.569V158.499C17.3831 158.913 17.5024 159.231 17.741 159.453C17.9955 159.66 18.425 159.764 19.0294 159.764H21.7017C22.2903 159.764 22.5845 160.137 22.5845 160.885C22.5845 161.203 22.513 161.474 22.3698 161.696C22.2266 161.903 22.004 162.006 21.7017 162.006H18.5761Z" fill="white"/>
<path d="M32.6618 149.886V158.571C32.6618 158.984 32.7493 159.302 32.9243 159.525C33.0993 159.748 33.4731 159.859 34.0457 159.859H34.6661C35.2865 159.859 35.5807 160.225 35.5489 160.957C35.5489 161.704 35.2546 162.078 34.6661 162.078H33.8787C33.3697 162.078 32.8925 162.014 32.4471 161.887C32.0017 161.744 31.5722 161.545 31.1587 161.291V161.315C30.3792 160.806 29.9895 159.899 29.9895 158.594V149.886H29.059C28.4864 149.886 28.1841 149.512 28.1523 148.764C28.1523 148.017 28.4545 147.643 29.059 147.643H29.9895V145.09C29.9895 144.326 30.4429 143.944 31.3496 143.944C32.2244 143.944 32.6618 144.326 32.6618 145.09V147.643H34.6422C35.2626 147.643 35.5569 148.017 35.5251 148.764C35.5251 149.512 35.2308 149.886 34.6422 149.886H32.6618Z" fill="white"/>
<path d="M40.2462 158.189C40.2462 158.571 40.3655 158.929 40.6041 159.263C40.8586 159.597 41.2801 159.764 41.8686 159.764H44.8511C45.4397 159.764 45.8533 159.62 46.0919 159.334C46.3464 159.032 46.4736 158.69 46.4736 158.308V158.046C46.4736 157.298 46.9111 156.924 47.7859 156.924C48.6608 156.924 49.0982 157.298 49.0982 158.046V158.332C49.0982 159 48.9869 159.549 48.7642 159.978C48.5574 160.408 48.2393 160.782 47.8098 161.1C46.9667 161.704 46.1237 162.006 45.2806 162.006H41.2721C40.4291 162.006 39.6099 161.704 38.8146 161.1C38.4328 160.782 38.1385 160.384 37.9317 159.907C37.725 159.414 37.6216 158.849 37.6216 158.213V151.413C37.6216 150.124 38.0192 149.17 38.8146 148.549C39.2122 148.263 39.6178 148.04 40.0314 147.881C40.4609 147.706 40.8745 147.619 41.2721 147.619H45.2806C45.6624 147.619 46.0839 147.698 46.5452 147.857C47.0065 148.001 47.436 148.2 47.8336 148.454C48.2154 148.724 48.5176 149.098 48.7403 149.575C48.9789 150.053 49.0982 150.617 49.0982 151.269V154.491C49.0982 154.856 48.9869 155.183 48.7642 155.469C48.5574 155.755 48.1677 155.898 47.595 155.898H42.4413C41.8686 155.898 41.5664 155.525 41.5346 154.777C41.5346 154.029 41.8368 153.655 42.4413 153.655H46.4975L46.4736 151.437C46.4736 151.039 46.3464 150.681 46.0919 150.363C45.8533 150.029 45.4397 149.862 44.8511 149.862H41.8686C41.2801 149.862 40.8586 150.029 40.6041 150.363C40.3655 150.681 40.2462 151.039 40.2462 151.437V158.189Z" fill="white"/>
<path d="M55.9794 160.336C55.5658 160.336 55.1364 160.265 54.691 160.122C54.2615 159.978 53.84 159.772 53.4264 159.501C52.5674 158.944 52.138 158.006 52.138 156.686V151.293C52.138 150.625 52.2493 150.053 52.472 149.575C52.7106 149.098 53.0287 148.724 53.4264 148.454C53.84 148.2 54.2615 148.001 54.691 147.857C55.1205 147.714 55.542 147.643 55.9556 147.643H59.964C60.3617 147.643 60.7753 147.73 61.2048 147.905C61.6342 148.08 62.0319 148.303 62.3978 148.573C62.7636 148.876 63.0579 149.273 63.2806 149.766C63.5033 150.259 63.6146 150.816 63.6146 151.437V161.553C63.6146 162.221 63.5033 162.786 63.2806 163.247C63.0738 163.724 62.7795 164.122 62.3978 164.44C62.0319 164.742 61.6342 164.973 61.2048 165.132C60.7912 165.307 60.3776 165.395 59.964 165.395H55.9556C55.1125 165.395 54.2615 165.148 53.4025 164.655C52.9571 164.4 52.6311 164.074 52.4243 163.677C52.2334 163.279 52.138 162.818 52.138 162.293V162.006C52.138 161.688 52.2413 161.434 52.4481 161.243C52.6549 161.052 52.981 160.957 53.4264 160.957C54.3172 161.052 54.7626 161.402 54.7626 162.006V162.269C54.7626 162.444 54.8819 162.635 55.1205 162.842C55.375 163.048 55.7965 163.152 56.385 163.152H59.3675C59.9561 163.152 60.3697 162.985 60.6083 162.651C60.8628 162.317 60.99 161.943 60.99 161.529V151.46C60.99 151.063 60.8628 150.705 60.6083 150.387C60.3697 150.053 59.9561 149.886 59.3675 149.886H56.385C55.7965 149.886 55.375 150.053 55.1205 150.387C54.8819 150.705 54.7626 151.063 54.7626 151.46V156.495C54.7626 156.892 54.8819 157.266 55.1205 157.616C55.375 157.95 55.7965 158.117 56.385 158.117H58.8665C59.4391 158.117 59.7254 158.483 59.7254 159.215C59.7254 159.549 59.6539 159.819 59.5107 160.026C59.3834 160.233 59.1687 160.336 58.8665 160.336H55.9794Z" fill="white"/>
<path d="M74.4527 147.643C74.8662 147.643 75.2878 147.73 75.7172 147.905C76.1626 148.08 76.5921 148.303 77.0057 148.573H76.9818C77.3954 148.876 77.7135 149.273 77.9362 149.766C78.1589 150.243 78.2702 150.8 78.2702 151.437V158.213C78.2702 159.517 77.8408 160.479 76.9818 161.1C76.1388 161.704 75.2957 162.006 74.4527 162.006H70.635C70.2215 162.006 69.7999 161.935 69.3705 161.792C68.941 161.649 68.5195 161.418 68.1059 161.1C67.2469 160.495 66.8174 159.533 66.8174 158.213V151.437C66.8174 150.8 66.9288 150.243 67.1515 149.766C67.3742 149.273 67.6923 148.876 68.1059 148.573H68.082C68.4797 148.303 68.9012 148.08 69.3466 147.905C69.792 147.73 70.2215 147.643 70.635 147.643H74.4527ZM74.0232 159.764C74.6117 159.764 75.0253 159.597 75.2639 159.263C75.5184 158.929 75.6456 158.571 75.6456 158.189V151.46C75.6456 151.063 75.5184 150.705 75.2639 150.387C75.0253 150.053 74.6117 149.886 74.0232 149.886H71.0645C70.476 149.886 70.0545 150.053 69.7999 150.387C69.5613 150.705 69.442 151.063 69.442 151.46V158.189C69.442 158.571 69.5613 158.929 69.7999 159.263C70.0545 159.597 70.476 159.764 71.0645 159.764H74.0232Z" fill="white"/>
<path d="M83.8641 161.004C83.8641 161.768 83.4267 162.15 82.5518 162.15C81.6451 162.15 81.1918 161.768 81.1918 161.004V151.126C81.1918 149.822 81.5815 148.915 82.3609 148.406C83.1404 147.897 84.0391 147.643 85.0571 147.643H87.7772C88.3657 147.643 88.66 148.017 88.66 148.764C88.6918 149.512 88.3975 149.886 87.7772 149.886H85.248C84.6754 149.886 84.3016 149.997 84.1266 150.22C83.9516 150.442 83.8641 150.753 83.8641 151.15V161.004Z" fill="white"/>
<path d="M93.3736 161.004C93.3736 161.768 92.9362 162.15 92.0613 162.15C91.1706 162.15 90.7252 161.768 90.7252 161.004V148.693C90.7252 147.929 91.1706 147.547 92.0613 147.547C92.9362 147.547 93.3736 147.929 93.3736 148.693V161.004ZM93.8747 144.541C93.8747 145.05 93.6997 145.479 93.3498 145.829C92.9998 146.179 92.5703 146.354 92.0613 146.354C91.5523 146.354 91.1149 146.179 90.749 145.829C90.3991 145.479 90.2241 145.05 90.2241 144.541C90.2241 144.016 90.3991 143.579 90.749 143.229C91.1149 142.879 91.5523 142.704 92.0613 142.704C92.5703 142.704 92.9998 142.879 93.3498 143.229C93.6997 143.579 93.8747 144.016 93.8747 144.541Z" fill="white"/>
<path d="M99.3136 158.189C99.3136 158.571 99.4329 158.929 99.6715 159.263C99.9261 159.597 100.348 159.764 100.936 159.764H103.919C104.507 159.764 104.921 159.62 105.159 159.334C105.414 159.032 105.541 158.69 105.541 158.308V158.046C105.541 157.298 105.979 156.924 106.853 156.924C107.728 156.924 108.166 157.298 108.166 158.046V158.332C108.166 159 108.054 159.549 107.832 159.978C107.625 160.408 107.307 160.782 106.877 161.1C106.034 161.704 105.191 162.006 104.348 162.006H100.34C99.4966 162.006 98.6774 161.704 97.882 161.1C97.5003 160.782 97.206 160.384 96.9992 159.907C96.7924 159.414 96.689 158.849 96.689 158.213V151.413C96.689 150.124 97.0867 149.17 97.882 148.549C98.2797 148.263 98.6853 148.04 99.0989 147.881C99.5284 147.706 99.942 147.619 100.34 147.619H104.348C104.73 147.619 105.151 147.698 105.613 147.857C106.074 148.001 106.503 148.2 106.901 148.454C107.283 148.724 107.585 149.098 107.808 149.575C108.046 150.053 108.166 150.617 108.166 151.269V154.491C108.166 154.856 108.054 155.183 107.832 155.469C107.625 155.755 107.235 155.898 106.663 155.898H101.509C100.936 155.898 100.634 155.525 100.602 154.777C100.602 154.029 100.904 153.655 101.509 153.655H105.565L105.541 151.437C105.541 151.039 105.414 150.681 105.159 150.363C104.921 150.029 104.507 149.862 103.919 149.862H100.936C100.348 149.862 99.9261 150.029 99.6715 150.363C99.4329 150.681 99.3136 151.039 99.3136 151.437V158.189Z" fill="white"/>
<path d="M118.96 153.655C119.358 153.655 119.779 153.751 120.225 153.942C120.686 154.117 121.115 154.339 121.513 154.61H121.489C121.903 154.912 122.221 155.302 122.443 155.779C122.666 156.256 122.778 156.829 122.778 157.497V158.213C122.778 159.517 122.348 160.479 121.489 161.1C121.076 161.418 120.654 161.649 120.225 161.792C119.795 161.935 119.374 162.006 118.96 162.006H114.904C114.49 162.006 114.069 161.935 113.639 161.792C113.21 161.649 112.788 161.418 112.375 161.1C111.516 160.495 111.086 159.533 111.086 158.213V157.926C111.086 157.242 111.524 156.908 112.398 156.924C113.289 156.924 113.735 157.258 113.735 157.926V158.189C113.735 158.571 113.854 158.929 114.092 159.263C114.331 159.597 114.753 159.764 115.357 159.764H118.507C119.111 159.764 119.533 159.597 119.771 159.263C120.01 158.929 120.129 158.571 120.129 158.189V157.521C120.129 157.314 120.097 157.115 120.034 156.924C119.986 156.733 119.898 156.566 119.771 156.423C119.644 156.264 119.477 156.137 119.27 156.041C119.063 155.946 118.809 155.898 118.507 155.898H115.023C114.212 155.898 113.361 155.612 112.47 155.039C111.627 154.499 111.205 153.568 111.205 152.248V151.437C111.205 150.8 111.317 150.243 111.539 149.766C111.762 149.273 112.08 148.876 112.494 148.573H112.47C112.868 148.303 113.289 148.08 113.735 147.905C114.18 147.73 114.609 147.643 115.023 147.643H118.841C119.254 147.643 119.676 147.73 120.105 147.905C120.551 148.08 120.98 148.303 121.394 148.573H121.37C121.783 148.876 122.102 149.273 122.324 149.766C122.547 150.243 122.658 150.8 122.658 151.437V151.651C122.658 151.985 122.547 152.232 122.324 152.391C122.102 152.534 121.775 152.614 121.346 152.63C120.471 152.645 120.034 152.319 120.034 151.651V151.46C120.034 151.063 119.906 150.705 119.652 150.387C119.413 150.053 119 149.886 118.411 149.886H115.453C114.864 149.886 114.442 150.053 114.188 150.387C113.949 150.705 113.83 151.063 113.83 151.46V152.033C113.83 152.447 113.949 152.82 114.188 153.154C114.442 153.488 114.864 153.655 115.453 153.655H118.96Z" fill="white"/>
<path d="M60.9107 105.54C36.0156 105.54 15.8308 82.0791 15.8308 53.1438C15.8308 24.2085 36.0156 0.748047 60.9107 0.748047C85.8059 0.748047 105.991 24.2085 105.991 53.1438C105.991 82.0791 85.8059 105.54 60.9107 105.54ZM60.9107 3.02566C37 3.02566 17.7904 25.3527 17.7904 53.1438C17.7904 80.7104 37 103.262 60.9107 103.262C84.8215 103.262 104.031 80.7104 104.031 53.1438C104.031 25.3527 84.8215 3.02566 60.9107 3.02566ZM82.4663 82.7634H66.7896C64.6368 82.7634 62.8703 80.7104 62.8703 78.2082V59.9766C62.8703 57.4745 64.6368 55.4214 66.7896 55.4214H82.4663C84.6191 55.4214 86.3855 57.4745 86.3855 59.9766V78.1975C86.3947 80.7104 84.6283 82.7634 82.4663 82.7634ZM82.4663 59.9766H66.7896V78.1975H82.4663V59.9766ZM82.4663 50.8662H66.7896C64.6368 50.8662 62.8703 48.8131 62.8703 46.311V28.0901C62.8703 25.5879 64.6368 23.5349 66.7896 23.5349H82.4663C84.6191 23.5349 86.3855 25.5879 86.3855 28.0901V46.311C86.3947 48.8131 84.6283 50.8662 82.4663 50.8662ZM82.4663 28.0901H66.7896V46.311H82.4663V28.0901ZM55.0319 82.7634H39.3552C37.2024 82.7634 35.436 80.7104 35.436 78.2082V59.9766C35.436 57.4745 37.2024 55.4214 39.3552 55.4214H55.0319C57.1847 55.4214 58.9511 57.4745 58.9511 59.9766V78.1975C58.9511 80.7104 57.1847 82.7634 55.0319 82.7634ZM55.0319 59.9766H39.3552V78.1975H55.0319V59.9766ZM55.0319 50.8662H39.3552C37.2024 50.8662 35.436 48.8131 35.436 46.311V28.0901C35.436 25.5879 37.2024 23.5349 39.3552 23.5349H55.0319C57.1847 23.5349 58.9511 25.5879 58.9511 28.0901V46.311C58.9511 48.8131 57.1847 50.8662 55.0319 50.8662ZM55.0319 28.0901H39.3552V46.311H55.0319V28.0901Z" fill="white"/>
<path d="M60.9107 105.54C36.0156 105.54 15.8308 82.0791 15.8308 53.1438C15.8308 24.2085 36.0156 0.748047 60.9107 0.748047C85.8059 0.748047 105.991 24.2085 105.991 53.1438C105.991 82.0791 85.8059 105.54 60.9107 105.54ZM60.9107 3.02566C37 3.02566 17.7904 25.3527 17.7904 53.1438C17.7904 80.7104 37 103.262 60.9107 103.262C84.8215 103.262 104.031 80.7104 104.031 53.1438C104.031 25.3527 84.8215 3.02566 60.9107 3.02566ZM82.4663 82.7634H66.7896C64.6368 82.7634 62.8703 80.7104 62.8703 78.2082V59.9766C62.8703 57.4745 64.6368 55.4214 66.7896 55.4214H82.4663C84.6191 55.4214 86.3855 57.4745 86.3855 59.9766V78.1975C86.3947 80.7104 84.6283 82.7634 82.4663 82.7634ZM82.4663 59.9766H66.7896V78.1975H82.4663V59.9766ZM82.4663 50.8662H66.7896C64.6368 50.8662 62.8703 48.8131 62.8703 46.311V28.0901C62.8703 25.5879 64.6368 23.5349 66.7896 23.5349H82.4663C84.6191 23.5349 86.3855 25.5879 86.3855 28.0901V46.311C86.3947 48.8131 84.6283 50.8662 82.4663 50.8662ZM82.4663 28.0901H66.7896V46.311H82.4663V28.0901ZM55.0319 82.7634H39.3552C37.2024 82.7634 35.436 80.7104 35.436 78.2082V59.9766C35.436 57.4745 37.2024 55.4214 39.3552 55.4214H55.0319C57.1847 55.4214 58.9511 57.4745 58.9511 59.9766V78.1975C58.9511 80.7104 57.1847 82.7634 55.0319 82.7634ZM55.0319 59.9766H39.3552V78.1975H55.0319V59.9766ZM55.0319 50.8662H39.3552C37.2024 50.8662 35.436 48.8131 35.436 46.311V28.0901C35.436 25.5879 37.2024 23.5349 39.3552 23.5349H55.0319C57.1847 23.5349 58.9511 25.5879 58.9511 28.0901V46.311C58.9511 48.8131 57.1847 50.8662 55.0319 50.8662ZM55.0319 28.0901H39.3552V46.311H55.0319V28.0901Z" fill="black" fill-opacity="0.2"/>
</svg>
