<svg width="22" height="22" viewBox="0 0 22 22" fill="x|" xmlns="http://www.w3.org/2000/svg">
<path d="M9.99359 0.78931C7.75074 1.01973 6.06965 1.65234 4.39694 2.89242C3.7723 3.35745 2.7997 4.32941 2.33436 4.95364C1.25276 6.40738 0.598767 7.96168 0.322079 9.75058C0.192119 10.5843 0.192119 11.9752 0.322079 12.8089C0.682612 15.1131 1.66779 17.0612 3.30276 18.6993C4.94193 20.3332 6.89133 21.3177 9.19706 21.678C10.0313 21.8079 11.4231 21.8079 12.2574 21.678C14.5589 21.3177 16.5167 20.3332 18.1517 18.6993C19.7867 17.0654 20.7718 15.1089 21.1324 12.8089C21.2036 12.3355 21.2246 12.038 21.2246 11.2797C21.2246 10.5214 21.2036 10.224 21.1324 9.75058C20.7718 7.44637 19.7867 5.49827 18.1517 3.86019C16.5167 2.23049 14.5338 1.22501 12.27 0.885667C11.7376 0.806068 10.3877 0.747415 9.99359 0.78931ZM12.0184 7.36258C12.0939 7.3961 12.1652 7.44637 12.1777 7.47989C12.2113 7.57205 10.0145 15.1382 9.9307 15.2346C9.86363 15.3058 9.83428 15.3058 9.64144 15.2597C9.52406 15.2304 9.38571 15.1759 9.3354 15.134L9.24317 15.0628L10.3499 11.2336C10.9578 9.12635 11.4818 7.37096 11.5196 7.32907C11.5908 7.24528 11.7585 7.25784 12.0184 7.36258ZM8.54726 8.53982C8.69399 8.67807 8.75687 8.77024 8.75687 8.84146C8.75687 8.92944 8.51372 9.19338 7.59562 10.1151C6.9584 10.7519 6.44276 11.2881 6.45533 11.2965C6.46372 11.3091 6.98775 11.8327 7.61658 12.4654C8.50953 13.3619 8.75687 13.6342 8.75687 13.718C8.75687 13.7892 8.69399 13.8856 8.54726 14.0196C8.43407 14.1244 8.31669 14.2124 8.28734 14.2124C8.21188 14.2124 5.36116 11.3551 5.36116 11.2797C5.36116 11.2043 8.21188 8.34711 8.28734 8.34711C8.31669 8.34711 8.43407 8.43508 8.54726 8.53982ZM14.6554 9.7799C15.4477 10.5717 16.0933 11.2462 16.0933 11.2797C16.0933 11.3551 13.2426 14.2124 13.1671 14.2124C13.1378 14.2124 13.0204 14.1244 12.9072 14.0196C12.7605 13.8814 12.6976 13.7892 12.6976 13.718C12.6976 13.63 12.9407 13.3661 13.8588 12.4444C14.4961 11.8076 15.0117 11.2714 14.9991 11.263C14.9907 11.2504 14.4667 10.7267 13.8421 10.0941C12.9449 9.19757 12.6976 8.92525 12.6976 8.84146C12.6976 8.77024 12.7605 8.67388 12.9072 8.53982C13.0204 8.43508 13.1378 8.34711 13.1671 8.34711C13.1965 8.34711 13.8672 8.99228 14.6554 9.7799Z" fill="white"/>
</svg>