<svg width="21" height="21" viewBox="0 0 23 23" fill="none" xmlns="http://www.w3.org/2000/svg">
<path d="M7.3602 6.78053L3.17434 12.1138L7.3602 17.4448C7.82776 18.0412 7.82776 19.0087 7.3602 19.6043C7.12522 19.9037 6.82011 20.0518 6.5126 20.0518C6.20509 20.0518 5.89997 19.9037 5.665 19.6043L0.631542 13.1928C0.406754 12.9072 0.280273 12.5185 0.280273 12.1138C0.280273 11.7098 0.406754 11.3204 0.631542 11.034L5.665 4.62096C6.13315 4.02532 6.89204 4.02532 7.3602 4.62096C7.82776 5.21736 7.82776 6.1826 7.3602 6.78053ZM20.929 11.0332L15.8961 4.6202C15.428 4.02456 14.6691 4.02456 14.2009 4.6202C13.7328 5.2166 13.7328 6.18337 14.2009 6.77977L18.3862 12.113L14.2009 17.4448C13.7328 18.0412 13.7328 19.0087 14.2009 19.6043C14.4359 19.9037 14.7416 20.0518 15.0485 20.0518C15.3555 20.0518 15.6618 19.9037 15.8961 19.6043L20.929 13.1928C21.1538 12.9064 21.2803 12.5178 21.2803 12.113C21.2803 11.7098 21.1538 11.3196 20.929 11.0332ZM12.8756 1.66109C12.2306 1.44957 11.5802 1.94593 11.416 2.7615L7.81936 20.7055C7.65632 21.5226 8.04295 22.355 8.68375 22.5642C8.78386 22.597 8.88396 22.6123 8.98167 22.6123C9.51756 22.6123 10.0043 22.1518 10.1428 21.463L13.7394 3.51903C13.9036 2.70117 13.5164 1.86957 12.8756 1.66109Z" fill="white"/>
</svg>
