<svg width="66" height="66" viewBox="0 0 66 66" fill="none" xmlns="http://www.w3.org/2000/svg">
<path d="M54.1326 9.02776C51.8885 9.19886 50.2226 9.82505 49.0489 10.9371C48.426 11.5257 46.0579 14.3281 44.1821 16.6926C40.4304 21.4216 36.2382 27.3344 32.1114 33.7161C31.7707 34.2431 31.423 34.7563 31.3404 34.8556C31.0479 35.1943 30.7071 35.3586 30.504 35.2559C30.1598 35.078 29.6229 33.9556 28.8347 31.7486C28.4148 30.5749 28.1773 30.1301 27.7815 29.7879C27.2377 29.3157 26.5665 29.2746 25.4445 29.6476C24.2949 30.0274 22.8975 30.9308 22.3812 31.6288C21.8752 32.3097 21.8511 32.8025 22.2401 34.3663C22.5877 35.7521 23.6306 38.9241 24.2949 40.5939C24.5978 41.3536 25.1898 42.5649 25.4445 42.9481C25.651 43.2595 25.9917 43.6325 26.1673 43.742C26.4495 43.9165 26.7593 43.9576 28.0947 43.9952C29.9361 44.0465 30.7725 43.9336 31.4815 43.5401C31.929 43.2903 32.0047 43.1979 33.3436 41.1928C40.2033 30.9376 47.2006 21.6577 55.0344 12.429C56.0325 11.2519 56.4283 10.7592 56.6521 10.4033C56.8414 10.1022 56.9687 9.80109 56.9722 9.65738C56.9722 9.41101 56.6796 9.17148 56.2666 9.07909C55.9775 9.01408 54.7108 8.98328 54.1326 9.02776Z" fill="#1EFF00"/>
<path d="M32.2602 8.65968C29.2694 8.80372 26.7361 9.35188 24.105 10.4122C21.6537 11.4045 19.3549 12.8169 17.3102 14.5854C16.6535 15.1535 15.0779 16.766 14.5345 17.4302C11.3639 21.2913 9.54596 25.7125 9.069 30.718C8.9869 31.5942 8.97517 33.8669 9.04945 34.6991C9.34658 38.0081 10.1598 40.9089 11.5828 43.7177C13.7526 47.9989 17.1851 51.5719 21.4035 53.9406C23.9642 55.381 27.0176 56.4013 29.9106 56.7854C33.3236 57.2376 36.7952 56.9735 40.048 56.0092C43.3241 55.0409 46.4283 53.3244 49.0828 51.0238C49.7826 50.4156 51.2878 48.8592 51.886 48.123C56.507 42.4453 58.3054 35.2073 56.8862 27.9972C56.1786 24.4002 54.5483 20.8592 52.2104 17.8303C52.1049 17.6943 52.101 17.6943 52.0306 17.7743C51.972 17.8343 50.2283 19.9069 49.8843 20.319C49.8374 20.379 49.8804 20.451 50.2479 20.9392C52.4098 23.816 53.524 26.9809 53.7821 31.0141C53.8368 31.8463 53.8368 33.6708 53.7821 34.359C53.4654 38.4802 51.9641 42.3493 49.4269 45.5822C47.1515 48.4791 44.0865 50.7517 40.6578 52.0801C35.8218 53.9526 30.4071 53.9366 25.5867 52.0401C24.0229 51.4239 22.635 50.6757 21.2354 49.6874C19.3745 48.379 17.6308 46.6345 16.2781 44.73C15.2304 43.2616 14.2765 41.409 13.6705 39.6765C11.3365 33.0186 12.5524 25.6405 16.8919 20.0949C18.5261 18.0063 20.6411 16.1778 22.9165 14.8815C26.9003 12.6168 31.3884 11.7606 36.3066 12.3367C38.32 12.5688 40.0597 13.0969 41.8776 14.0172C42.1982 14.1773 42.4719 14.2973 42.4875 14.2813C42.6321 14.1132 44.5947 11.5045 44.5947 11.4805C44.5947 11.4445 43.3554 10.8203 42.855 10.6002C40.9471 9.75999 38.9181 9.18783 36.8148 8.89174C35.3878 8.69169 33.5269 8.59566 32.2602 8.65968Z" fill="#1EFF00"/>
</svg>
