<svg width="25" height="24" viewBox="0 0 25 24" fill="none" xmlns="http://www.w3.org/2000/svg">
<g clip-path="url(#clip0_526_69)">
<path d="M13.0106 23.6362C6.94927 23.6362 2.03564 18.7539 2.03564 12.7312C2.03564 6.7085 6.94927 1.82617 13.0106 1.82617C19.0718 1.82617 23.9855 6.7085 23.9855 12.7312C23.9855 18.7539 19.0718 23.6362 13.0106 23.6362ZM13.0106 22.0783C18.2056 22.0783 22.4176 17.8931 22.4176 12.7312C22.4176 7.56921 18.2056 3.38403 13.0106 3.38403C7.8155 3.38403 3.60349 7.56921 3.60349 12.7312C3.60349 17.8931 7.8155 22.0783 13.0106 22.0783ZM15.5348 11.6524V11.8284C15.7911 11.4911 16.0726 11.2434 16.3783 11.0853C16.684 10.9272 17.0344 10.8485 17.4311 10.8485C17.8168 10.8485 18.1617 10.9318 18.4659 11.0985C18.7692 11.2652 18.9958 11.502 19.1463 11.8074C19.2427 11.9842 19.3054 12.1758 19.3337 12.3822C19.3619 12.5879 19.3768 12.8504 19.3768 13.1697V15.8749C19.3768 16.1663 19.3094 16.3859 19.1753 16.5355C19.1102 16.6086 19.0297 16.6665 18.9394 16.7052C18.8492 16.7438 18.7514 16.7622 18.6532 16.759C18.5532 16.7624 18.4537 16.7436 18.3619 16.704C18.2701 16.6644 18.1883 16.6049 18.1225 16.53C17.9869 16.3773 17.9187 16.1592 17.9187 15.8757V13.4525C17.9187 12.9734 17.8521 12.6065 17.718 12.3526C17.584 12.0987 17.3166 11.9717 16.9168 11.9717C16.6558 11.9717 16.4183 12.0496 16.2035 12.2038C15.9895 12.3581 15.8327 12.5699 15.7331 12.8402C15.661 13.0568 15.6257 13.461 15.6257 14.0538V15.8749C15.6257 16.1694 15.5567 16.3906 15.4188 16.5378C15.3511 16.6105 15.2685 16.6679 15.1765 16.7061C15.0845 16.7443 14.9853 16.7623 14.8857 16.759C14.7874 16.7616 14.6897 16.7423 14.5998 16.7027C14.5099 16.6631 14.43 16.6041 14.366 16.53C14.2303 16.3773 14.1621 16.1592 14.1621 15.8757V11.6742C14.1621 11.3969 14.2233 11.1905 14.3448 11.0534C14.4663 10.917 14.6325 10.8485 14.8426 10.8485C14.9719 10.8485 15.0879 10.8789 15.1914 10.9389C15.2992 11.0037 15.3858 11.0981 15.4407 11.2107C15.5034 11.3314 15.5348 11.4787 15.5348 11.6524ZM12.773 10.0392H9.18815V11.9554H12.4892C12.7323 11.9554 12.9133 12.0099 13.0333 12.1189C13.0927 12.1731 13.1395 12.2395 13.1705 12.3135C13.2015 12.3875 13.216 12.4673 13.2128 12.5473C13.2157 12.628 13.2014 12.7083 13.1708 12.7831C13.1403 12.8578 13.0942 12.9254 13.0356 12.9812C12.9181 13.0926 12.7354 13.1487 12.4892 13.1487H9.18815V15.3686H12.8961C13.147 15.3686 13.3351 15.427 13.4621 15.5423C13.5253 15.6009 13.575 15.6724 13.6078 15.7518C13.6405 15.8313 13.6555 15.9169 13.6518 16.0027C13.6518 16.1873 13.5891 16.3376 13.4621 16.4529C13.3351 16.5682 13.147 16.6258 12.8961 16.6258H8.57199C8.22549 16.6258 7.97621 16.5495 7.82413 16.3968C7.67283 16.2441 7.59679 15.9972 7.59679 15.6568V9.78916C7.59679 9.56171 7.6305 9.37633 7.6987 9.23223C7.76259 9.09244 7.87582 8.98077 8.01697 8.91832C8.162 8.85289 8.34622 8.82017 8.57199 8.82017H12.7738C13.027 8.82017 13.2152 8.87548 13.3382 8.98764C13.3993 9.04316 13.4475 9.11121 13.4794 9.18707C13.5113 9.26293 13.5263 9.34478 13.5232 9.42696C13.5266 9.50986 13.5118 9.59249 13.4798 9.66914C13.4479 9.7458 13.3996 9.81465 13.3382 9.87095C13.2152 9.98311 13.027 10.0392 12.7738 10.0392H12.773Z" fill="white"/>
</g>
<defs>
<clipPath id="clip0_526_69">
<rect width="23.5358" height="23.3859" fill="white" transform="translate(0.564941 0.365234)"/>
</clipPath>
</defs>
</svg>
