<svg width="76" height="97" viewBox="0 0 76 97" fill="none" xmlns="http://www.w3.org/2000/svg">
<path d="M19.85 86.6027C19.85 85.9735 20.2352 85.659 21.0056 85.659C21.7631 85.659 22.1419 85.9607 22.1419 86.5641V90.4738C22.1419 91.5138 21.7952 92.2906 21.1019 92.8041C20.7681 93.0481 20.4214 93.2407 20.0619 93.3819C19.7152 93.5103 19.375 93.5745 19.0411 93.5745H15.0352C14.7014 93.5745 14.3547 93.5103 13.9952 93.3819C13.6485 93.2407 13.3083 93.0481 12.9745 92.8041C12.6406 92.5473 12.3839 92.2328 12.2041 91.8604C12.0243 91.4752 11.9345 91.013 11.9345 90.4738V81.3256C11.9345 80.7992 12.0243 80.3434 12.2041 79.9582C12.3967 79.573 12.6535 79.2585 12.9745 79.0145H12.9552C13.289 78.7962 13.6357 78.6165 13.9952 78.4752C14.3547 78.334 14.7014 78.2634 15.0352 78.2634H18.8485C19.1824 78.2634 19.529 78.334 19.8885 78.4752C20.2481 78.6165 20.5947 78.7962 20.9285 79.0145H20.9093C21.5898 79.5152 21.93 80.2856 21.93 81.3256V82.6545C21.93 83.2708 21.5513 83.5789 20.7937 83.5789C20.0362 83.5789 19.6574 83.2708 19.6574 82.6545V81.4989C19.6574 81.178 19.5611 80.8827 19.3685 80.613C19.176 80.3434 18.8421 80.2086 18.3671 80.2086H15.536C15.0481 80.2086 14.7078 80.3434 14.5152 80.613C14.3226 80.8827 14.2263 81.178 14.2263 81.4989V90.3197C14.2263 90.4866 14.2456 90.6471 14.2841 90.8012C14.3355 90.9552 14.4125 91.0965 14.5152 91.2249C14.6179 91.3404 14.7527 91.4367 14.9197 91.5138C15.0866 91.5908 15.292 91.6293 15.536 91.6293H18.5597C19.0347 91.6293 19.3685 91.4945 19.5611 91.2249C19.7537 90.9552 19.85 90.6535 19.85 90.3197V86.6027ZM18.9448 86.3908C18.9448 86.6091 18.8999 86.8209 18.81 87.0264C18.733 87.2189 18.6174 87.3859 18.4634 87.5271C18.3221 87.6683 18.1552 87.7839 17.9626 87.8738C17.77 87.9508 17.5582 87.9893 17.3271 87.9893C16.8905 87.9893 16.5182 87.8352 16.21 87.5271C15.9019 87.2189 15.7478 86.8402 15.7478 86.3908C15.7478 85.9543 15.9019 85.5819 16.21 85.2738C16.5182 84.9656 16.8905 84.8115 17.3271 84.8115C17.5582 84.8115 17.77 84.8565 17.9626 84.9464C18.1552 85.0234 18.3221 85.1325 18.4634 85.2738C18.6174 85.415 18.733 85.5819 18.81 85.7745C18.8999 85.9671 18.9448 86.1725 18.9448 86.3908Z" fill="white"/>
<path d="M27.0066 92.7464C27.0066 93.3626 26.6536 93.6708 25.9474 93.6708C25.2155 93.6708 24.8496 93.3626 24.8496 92.7464V84.773C24.8496 83.7202 25.1642 82.9883 25.7933 82.5775C26.4224 82.1666 27.1479 81.9612 27.9696 81.9612H30.1652C30.6402 81.9612 30.8778 82.2629 30.8778 82.8664C30.9034 83.4698 30.6659 83.7715 30.1652 83.7715H28.1237C27.6615 83.7715 27.3597 83.8614 27.2185 84.0412C27.0773 84.2209 27.0066 84.4713 27.0066 84.7923V92.7464Z" fill="white"/>
<path d="M41.7699 90.493C41.7699 91.0066 41.68 91.4624 41.5003 91.8604C41.3205 92.2585 41.0637 92.5794 40.7299 92.8234H40.7492C40.4282 93.0417 40.0879 93.2214 39.7284 93.3626C39.3689 93.491 39.0223 93.5552 38.6884 93.5552H35.5877C35.2667 93.5552 34.92 93.491 34.5477 93.3626C34.1882 93.2214 33.8479 93.0417 33.527 92.8234H33.5462C33.2124 92.5794 32.9556 92.2585 32.7758 91.8604C32.5961 91.4624 32.5062 91.0066 32.5062 90.493V82.7701C32.5062 82.1538 32.8593 81.8456 33.5655 81.8456C34.2716 81.8456 34.6247 82.1538 34.6247 82.7701V90.339C34.6247 90.6985 34.7146 91.013 34.8944 91.2827C35.0613 91.5908 35.4079 91.7449 35.9344 91.7449H38.3418C38.8554 91.7449 39.1956 91.5908 39.3625 91.2827L39.3433 91.3019C39.5487 90.9938 39.6514 90.6728 39.6514 90.339V82.7701C39.6514 82.1538 40.0045 81.8456 40.7107 81.8456C41.4168 81.8456 41.7699 82.1538 41.7699 82.7701V90.493Z" fill="white"/>
<path d="M48.0763 93.5552C47.614 93.5552 47.3701 93.2535 47.3444 92.6501C47.3444 92.0466 47.5884 91.7449 48.0763 91.7449H50.0215C50.4965 91.7449 50.8303 91.6101 51.0229 91.3404C51.2284 91.0708 51.3311 90.7819 51.3311 90.4738V85.0426C51.3311 84.7217 51.2284 84.4264 51.0229 84.1567C50.8303 83.8743 50.4901 83.7459 50.0022 83.7715H46.3044V95.3464C46.3044 95.9498 45.9513 96.2515 45.2452 96.2515C44.539 96.2515 44.1859 95.9434 44.1859 95.3271V83.0975C44.1859 82.6481 44.3015 82.3464 44.5326 82.1923C44.7637 82.0382 45.0462 81.9612 45.38 81.9612H50.3681C50.702 81.9612 51.0358 82.019 51.3696 82.1345C51.7163 82.2501 52.0694 82.4105 52.4289 82.616C52.737 82.8343 52.981 83.1424 53.1607 83.5404C53.3533 83.9256 53.4496 84.3814 53.4496 84.9078V90.6086C53.4496 91.6614 53.1094 92.4125 52.4289 92.8619C51.7099 93.3241 51.0229 93.5552 50.3681 93.5552H48.0763Z" fill="white"/>
<path d="M62.1249 86.8145C62.4458 86.8145 62.7861 86.8915 63.1456 87.0456C63.5179 87.1869 63.8646 87.3666 64.1856 87.5849H64.1663C64.5002 87.8288 64.7569 88.1434 64.9367 88.5286C65.1165 88.9138 65.2063 89.376 65.2063 89.9152V90.493C65.2063 91.5459 64.8597 92.3227 64.1663 92.8234C63.8325 93.0802 63.4923 93.2664 63.1456 93.3819C62.7989 93.4975 62.4587 93.5552 62.1249 93.5552H58.8508C58.5169 93.5552 58.1767 93.4975 57.83 93.3819C57.4834 93.2664 57.1431 93.0802 56.8093 92.8234C56.116 92.3355 55.7693 91.5587 55.7693 90.493V90.2619C55.7693 89.7098 56.1224 89.4402 56.8286 89.453C57.5476 89.453 57.9071 89.7227 57.9071 90.2619V90.4738C57.9071 90.7819 58.0034 91.0708 58.196 91.3404C58.3886 91.6101 58.7288 91.7449 59.2167 91.7449H61.7589C62.2468 91.7449 62.5871 91.6101 62.7797 91.3404C62.9723 91.0708 63.0686 90.7819 63.0686 90.4738V89.9345C63.0686 89.7676 63.0429 89.6071 62.9915 89.453C62.953 89.2989 62.8824 89.1641 62.7797 89.0486C62.6769 88.9202 62.5421 88.8175 62.3752 88.7404C62.2083 88.6634 62.0029 88.6249 61.7589 88.6249H58.9471C58.2923 88.6249 57.6053 88.3938 56.8863 87.9315C56.2058 87.495 55.8656 86.7439 55.8656 85.6782V85.0234C55.8656 84.5098 55.9555 84.0604 56.1352 83.6752C56.315 83.2772 56.5718 82.9562 56.9056 82.7123H56.8863C57.2073 82.494 57.5476 82.3143 57.9071 82.173C58.2666 82.0318 58.6132 81.9612 58.9471 81.9612H62.0286C62.3624 81.9612 62.7026 82.0318 63.0493 82.173C63.4088 82.3143 63.7555 82.494 64.0893 82.7123H64.07C64.4039 82.9562 64.6606 83.2772 64.8404 83.6752C65.0202 84.0604 65.11 84.5098 65.11 85.0234V85.1967C65.11 85.4664 65.0202 85.6654 64.8404 85.7938C64.6606 85.9093 64.3974 85.9735 64.0508 85.9864C63.3446 85.9992 62.9915 85.736 62.9915 85.1967V85.0426C62.9915 84.7217 62.8888 84.4328 62.6834 84.176C62.4908 83.9064 62.1569 83.7715 61.6819 83.7715H59.2937C58.8187 83.7715 58.4784 83.9064 58.273 84.176C58.0804 84.4328 57.9841 84.7217 57.9841 85.0426V85.5049C57.9841 85.8387 58.0804 86.1404 58.273 86.4101C58.4784 86.6797 58.8187 86.8145 59.2937 86.8145H62.1249Z" fill="white"/>
<path d="M37.9367 28.6723C44.0467 28.6723 48.9962 22.4095 48.9962 14.676C48.9962 6.95222 44.0467 0.679688 37.9367 0.679688C31.8267 0.679688 26.8772 6.94248 26.8772 14.676C26.8772 22.4095 31.8344 28.6723 37.9367 28.6723ZM47.7127 30.8638L46.8212 30.8541C46.5137 30.8541 46.0449 31.0001 45.7683 31.1852C45.7683 31.1852 45.0612 31.7014 44.4156 32.0521C42.4865 33.104 40.2885 33.7079 37.9597 33.7079C35.6387 33.7079 33.4483 33.1137 31.5269 32.0715C30.8737 31.7112 30.1512 31.1852 30.1512 31.1852C29.8822 31.0001 29.4134 30.8443 29.0983 30.8443L28.2221 30.8541C24.6945 31.4384 20.9901 35.4026 19.9294 39.6979C19.9294 39.6979 18.7997 42.5907 18.6383 48.2788C18.6306 49.0191 19.0994 49.9638 19.7066 50.3632C19.7066 50.3632 25.709 55.2429 37.929 55.2429C50.149 55.2429 56.1514 50.3534 56.1514 50.3534C56.7509 49.9444 57.2274 48.9119 57.212 48.2593C57.0583 42.6004 55.9593 39.8245 55.9593 39.8245C54.9909 35.5097 51.225 31.5164 47.7127 30.8638Z" fill="white"/>
<path d="M48.399 27.5107C49.5826 26.3224 50.9737 25.4751 52.3263 25.251L52.9335 25.2413C53.2409 25.2413 53.7174 25.3874 53.9864 25.5822C53.9864 25.5822 54.486 25.9426 55.0163 26.2348C56.5841 27.0821 58.3672 27.5691 60.2578 27.5691C62.1561 27.5691 63.9469 27.0821 65.5224 26.225C66.045 25.9328 66.5292 25.5822 66.5292 25.5822C66.7982 25.3971 67.267 25.2413 67.5821 25.251L68.2047 25.2608C71.0714 25.7965 74.1379 29.0399 74.9372 32.5657C74.9372 32.5657 75.8287 34.8254 75.9594 39.4324C75.9671 39.8317 75.4906 40.8544 74.8911 41.2635C74.8911 41.2635 70.2029 45.1108 60.2501 45.1108C60.0887 45.1108 59.9273 45.1108 59.7736 45.1108C59.8121 44.6043 59.8274 44.0881 59.8274 43.5719C59.8197 35.215 54.8165 28.3483 48.399 27.5107ZM60.2424 23.4784C65.2227 23.4784 69.2576 18.3746 69.2576 12.0826C69.2576 5.79065 65.2227 0.686921 60.2424 0.686921C55.2622 0.686921 51.2273 5.79065 51.2273 12.0826C51.2273 18.3746 55.2622 23.4784 60.2424 23.4784Z" fill="white"/>
<path d="M28.2021 27.5107C27.0185 26.3224 25.6274 25.4751 24.2747 25.251L23.6676 25.2413C23.3602 25.2413 22.8837 25.3874 22.6147 25.5822C22.6147 25.5822 22.1151 25.9426 21.5848 26.2348C20.017 27.0821 18.2339 27.5691 16.3433 27.5691C14.4449 27.5691 12.6542 27.0821 11.0787 26.225C10.556 25.9328 10.0719 25.5822 10.0719 25.5822C9.80286 25.3971 9.33405 25.2413 9.01894 25.251L8.39641 25.2608C5.5297 25.7965 2.46317 29.0399 1.66387 32.5657C1.66387 32.5657 0.772348 34.8254 0.641693 39.4324C0.634008 39.8317 1.11051 40.8544 1.70998 41.2635C1.70998 41.2635 6.39817 45.1108 16.3509 45.1108C16.5123 45.1108 16.6737 45.1108 16.8275 45.1108C16.789 44.6043 16.7737 44.0881 16.7737 43.5719C16.7813 35.215 21.7846 28.3483 28.2021 27.5107ZM16.3586 23.4784C11.3784 23.4784 7.34349 18.3746 7.34349 12.0826C7.34349 5.79065 11.3784 0.686921 16.3586 0.686921C21.3389 0.686921 25.3738 5.79065 25.3738 12.0826C25.3738 18.3746 21.3389 23.4784 16.3586 23.4784Z" fill="white"/>
</svg>