<svg width="90" height="98" viewBox="0 0 90 98" fill="none" xmlns="http://www.w3.org/2000/svg">
<path d="M19.9198 94.8079C19.4575 94.8079 19.2136 94.5062 19.1879 93.9028C19.1879 93.2993 19.4319 92.9976 19.9198 92.9976H21.865C22.34 92.9976 22.6738 92.8628 22.8664 92.5931C23.0719 92.3235 23.1746 92.0346 23.1746 91.7265V86.2953C23.1746 85.9744 23.0719 85.6791 22.8664 85.4094C22.6738 85.127 22.3336 84.9986 21.8457 85.0242H18.1479V96.5991C18.1479 97.2025 17.7948 97.5042 17.0887 97.5042C16.3825 97.5042 16.0294 97.1961 16.0294 96.5798V84.3502C16.0294 83.9008 16.145 83.5991 16.3761 83.445C16.6072 83.2909 16.8896 83.2139 17.2235 83.2139H22.2116C22.5454 83.2139 22.8793 83.2716 23.2131 83.3872C23.5598 83.5028 23.9129 83.6633 24.2724 83.8687C24.5805 84.087 24.8245 84.3951 25.0042 84.7931C25.1968 85.1783 25.2931 85.6341 25.2931 86.1605V91.8613C25.2931 92.9141 24.9529 93.6652 24.2724 94.1146C23.5533 94.5768 22.8664 94.8079 22.2116 94.8079H19.9198Z" fill="white"/>
<path d="M33.872 83.2139C34.2059 83.2139 34.5461 83.2845 34.8928 83.4257C35.2523 83.567 35.599 83.7467 35.9328 83.965H35.9135C36.2474 84.2089 36.5041 84.5299 36.6839 84.9279C36.8637 85.3131 36.9535 85.7625 36.9535 86.2761V91.7457C36.9535 92.7986 36.6069 93.5753 35.9135 94.0761C35.233 94.564 34.5525 94.8079 33.872 94.8079H30.7906C30.4567 94.8079 30.1165 94.7502 29.7698 94.6346C29.4232 94.519 29.0829 94.3329 28.7491 94.0761C28.0558 93.5882 27.7091 92.8114 27.7091 91.7457V86.2761C27.7091 85.7625 27.799 85.3131 27.9787 84.9279C28.1585 84.5299 28.4153 84.2089 28.7491 83.965H28.7298C29.0508 83.7467 29.3911 83.567 29.7506 83.4257C30.1101 83.2845 30.4567 83.2139 30.7906 83.2139H33.872ZM33.5254 92.9976C34.0004 92.9976 34.3343 92.8628 34.5269 92.5931C34.7323 92.3235 34.835 92.0346 34.835 91.7265V86.2953C34.835 85.9744 34.7323 85.6855 34.5269 85.4287C34.3343 85.1591 34.0004 85.0242 33.5254 85.0242H31.1372C30.6622 85.0242 30.3219 85.1591 30.1165 85.4287C29.9239 85.6855 29.8276 85.9744 29.8276 86.2953V91.7265C29.8276 92.0346 29.9239 92.3235 30.1165 92.5931C30.3219 92.8628 30.6622 92.9976 31.1372 92.9976H33.5254Z" fill="white"/>
<path d="M41.5651 93.9991C41.5651 94.6154 41.212 94.9235 40.5058 94.9235C39.7868 94.9235 39.4273 94.6154 39.4273 93.9991V84.0613C39.4273 83.445 39.7868 83.1368 40.5058 83.1368C41.212 83.1368 41.5651 83.445 41.5651 84.0613V93.9991ZM41.9695 80.7102C41.9695 81.121 41.8283 81.4677 41.5458 81.7502C41.2633 82.0326 40.9167 82.1739 40.5058 82.1739C40.0949 82.1739 39.7419 82.0326 39.4465 81.7502C39.1641 81.4677 39.0228 81.121 39.0228 80.7102C39.0228 80.2865 39.1641 79.9334 39.4465 79.6509C39.7419 79.3684 40.0949 79.2272 40.5058 79.2272C40.9167 79.2272 41.2633 79.3684 41.5458 79.6509C41.8283 79.9334 41.9695 80.2865 41.9695 80.7102Z" fill="white"/>
<path d="M46.3597 93.9991C46.3597 94.6154 46.0066 94.9235 45.3005 94.9235C44.5943 94.9235 44.2412 94.6154 44.2412 93.9991V86.2568C44.2412 85.7304 44.3247 85.2746 44.4916 84.8894C44.6585 84.5042 44.9217 84.1897 45.2812 83.9457C45.9617 83.4578 46.6422 83.2139 47.3227 83.2139H50.4234C51.0782 83.2139 51.7587 83.4578 52.4649 83.9457C53.1582 84.4336 53.5049 85.204 53.5049 86.2568V93.9991C53.5049 94.6154 53.1518 94.9235 52.4456 94.9235C51.7395 94.9235 51.3864 94.6154 51.3864 93.9991V86.4302C51.3864 86.0963 51.2837 85.7753 51.0782 85.4672L51.0975 85.4865C50.9306 85.1783 50.5903 85.0242 50.0768 85.0242H47.6693C47.1429 85.0242 46.7963 85.1783 46.6293 85.4865C46.4496 85.7561 46.3597 86.0707 46.3597 86.4302V93.9991Z" fill="white"/>
<path d="M58.5191 85.0242V92.0346C58.5191 92.3684 58.5897 92.6252 58.7309 92.805C58.8722 92.9847 59.1739 93.0746 59.6361 93.0746H60.1369C60.6376 93.0746 60.8751 93.3699 60.8495 93.9605C60.8495 94.564 60.6119 94.8657 60.1369 94.8657H59.5013C59.0904 94.8657 58.7053 94.8144 58.3457 94.7116C57.9862 94.5961 57.6396 94.4356 57.3057 94.2302V94.2494C56.6766 93.8386 56.362 93.1067 56.362 92.0539V85.0242H55.6109C55.1487 85.0242 54.9048 84.7225 54.8791 84.119C54.8791 83.5156 55.123 83.2139 55.6109 83.2139H56.362V81.1531C56.362 80.5368 56.728 80.2287 57.4598 80.2287C58.166 80.2287 58.5191 80.5368 58.5191 81.1531V83.2139H60.1176C60.6183 83.2139 60.8559 83.5156 60.8302 84.119C60.8302 84.7225 60.5927 85.0242 60.1176 85.0242H58.5191Z" fill="white"/>
<path d="M68.7817 88.0672C69.1027 88.0672 69.4429 88.1442 69.8025 88.2983C70.1748 88.4395 70.5215 88.6193 70.8425 88.8376H70.8232C71.157 89.0815 71.4138 89.3961 71.5936 89.7813C71.7733 90.1665 71.8632 90.6287 71.8632 91.1679V91.7457C71.8632 92.7986 71.5165 93.5753 70.8232 94.0761C70.4894 94.3329 70.1491 94.519 69.8025 94.6346C69.4558 94.7502 69.1155 94.8079 68.7817 94.8079H65.5076C65.1738 94.8079 64.8336 94.7502 64.4869 94.6346C64.1402 94.519 63.8 94.3329 63.4662 94.0761C62.7728 93.5882 62.4262 92.8114 62.4262 91.7457V91.5146C62.4262 90.9625 62.7792 90.6929 63.4854 90.7057C64.2044 90.7057 64.5639 90.9754 64.5639 91.5146V91.7265C64.5639 92.0346 64.6602 92.3235 64.8528 92.5931C65.0454 92.8628 65.3857 92.9976 65.8736 92.9976H68.4158C68.9037 92.9976 69.2439 92.8628 69.4365 92.5931C69.6291 92.3235 69.7254 92.0346 69.7254 91.7265V91.1872C69.7254 91.0203 69.6997 90.8598 69.6484 90.7057C69.6099 90.5516 69.5392 90.4168 69.4365 90.3013C69.3338 90.1729 69.199 90.0702 69.0321 89.9931C68.8652 89.9161 68.6597 89.8776 68.4158 89.8776H65.6039C64.9491 89.8776 64.2622 89.6465 63.5432 89.1842C62.8627 88.7477 62.5224 87.9966 62.5224 86.9309V86.2761C62.5224 85.7625 62.6123 85.3131 62.7921 84.9279C62.9718 84.5299 63.2286 84.2089 63.5625 83.965H63.5432C63.8642 83.7467 64.2044 83.567 64.5639 83.4257C64.9234 83.2845 65.2701 83.2139 65.6039 83.2139H68.6854C69.0192 83.2139 69.3595 83.2845 69.7062 83.4257C70.0657 83.567 70.4123 83.7467 70.7462 83.965H70.7269C71.0607 84.2089 71.3175 84.5299 71.4973 84.9279C71.677 85.3131 71.7669 85.7625 71.7669 86.2761V86.4494C71.7669 86.7191 71.677 86.9181 71.4973 87.0465C71.3175 87.162 71.0543 87.2262 70.7076 87.2391C70.0015 87.2519 69.6484 86.9887 69.6484 86.4494V86.2953C69.6484 85.9744 69.5457 85.6855 69.3402 85.4287C69.1476 85.1591 68.8138 85.0242 68.3387 85.0242H65.9506C65.4755 85.0242 65.1353 85.1591 64.9299 85.4287C64.7373 85.6855 64.641 85.9744 64.641 86.2953V86.7576C64.641 87.0914 64.7373 87.3931 64.9299 87.6628C65.1353 87.9324 65.4755 88.0672 65.9506 88.0672H68.7817Z" fill="white"/>
<path d="M38.3136 19.3922H8.59796C7.77632 19.3922 7.11218 19.8672 7.11218 20.4549V43.8351C7.11218 44.4228 7.77632 44.8978 8.59796 44.8978H38.3136C39.1353 44.8978 39.7994 44.4228 39.7994 43.8351V20.4549C39.7994 19.8672 39.1353 19.3922 38.3136 19.3922ZM36.8278 42.7724H10.0837V21.5177H36.8278V42.7724Z" fill="white"/>
<path d="M79.9156 19.3922H50.2C49.3783 19.3922 48.7142 19.8672 48.7142 20.4549V43.8351C48.7142 44.4228 49.3783 44.8978 50.2 44.8978H79.9156C80.7373 44.8978 81.4014 44.4228 81.4014 43.8351V20.4549C81.4014 19.8672 80.7373 19.3922 79.9156 19.3922ZM78.4298 42.7724H51.6858V21.5177H78.4298V42.7724Z" fill="white"/>
<path d="M71.0011 23.6418H59.1148C58.2932 23.6418 57.629 24.1168 57.629 24.7045V39.5828C57.629 40.1705 58.2932 40.6455 59.1148 40.6455H71.0011C71.8227 40.6455 72.4868 40.1705 72.4868 39.5828V24.7045C72.4868 24.1168 71.8227 23.6418 71.0011 23.6418ZM69.5153 38.5201H60.6006V25.7672H69.5153V38.5201Z" fill="white"/>
<path d="M29.399 33.2064C30.2207 33.2064 30.8848 32.7313 30.8848 32.1436V24.7045C30.8848 24.1168 30.2207 23.6418 29.399 23.6418H17.5128C16.6911 23.6418 16.027 24.1168 16.027 24.7045V25.7672H27.9133V31.0809H17.5128C16.6911 31.0809 16.027 31.556 16.027 32.1436V39.5828C16.027 40.1705 16.6911 40.6455 17.5128 40.6455H29.399C30.2207 40.6455 30.8848 40.1705 30.8848 39.5828V38.5201H18.9986V33.2064H29.399Z" fill="white"/>
<path d="M81.7766 7.61199H65.2785C64.0379 3.36424 55.4144 0.172852 44.6321 0.172852C33.8498 0.172852 25.2263 3.36424 23.9856 7.61199H7.48751C3.3912 7.61199 0.0585938 9.99571 0.0585938 12.9257V51.1841C0.0585938 54.1141 3.3912 56.4978 7.48751 56.4978H29.7743V61.8115H26.8027V63.9369H62.4615V61.8115H59.4899V56.4978H81.7766C85.873 56.4978 89.2056 54.1141 89.2056 51.1841V12.9257C89.2056 9.99571 85.873 7.61199 81.7766 7.61199ZM56.5183 61.8115H32.7458V56.4978H56.5183V61.8115ZM86.234 51.1841C86.234 52.9419 84.2341 54.3723 81.7766 54.3723H7.48751C5.03002 54.3723 3.03016 52.9419 3.03016 51.1841V12.9257C3.03016 11.1679 5.03002 9.73746 7.48751 9.73746H25.3169C26.1385 9.73746 26.8027 9.26242 26.8027 8.67473C26.8027 5.21872 34.9671 2.29832 44.6321 2.29832C54.2971 2.29832 62.4615 5.21872 62.4615 8.67473C62.4615 9.26242 63.1256 9.73746 63.9473 9.73746H81.7766C84.2341 9.73746 86.234 11.1679 86.234 12.9257V51.1841Z" fill="white"/>
<path d="M48.8155 6.54824C48.2004 5.31441 46.566 4.42277 44.6315 4.42277C42.697 4.42277 41.0627 5.31441 40.4475 6.54824H34.231V8.67371H40.4475C41.0627 9.90755 42.697 10.7992 44.6315 10.7992C46.566 10.7992 48.2004 9.90755 48.8155 8.67371H55.032V6.54824H48.8155ZM44.6315 8.67371C43.8113 8.67371 43.1457 8.19761 43.1457 7.61098C43.1457 7.02435 43.8113 6.54824 44.6315 6.54824C45.4517 6.54824 46.1173 7.02435 46.1173 7.61098C46.1173 8.19761 45.4517 8.67371 44.6315 8.67371Z" fill="white"/>
</svg>