<?xml version="1.0" encoding="UTF-8" ?>
<!DOCTYPE svg PUBLIC "-//W3C//DTD SVG 1.1//EN" "http://www.w3.org/Graphics/SVG/1.1/DTD/svg11.dtd">
<svg width="227pt" height="322pt" viewBox="0 0 227 322" version="1.1" xmlns="http://www.w3.org/2000/svg">
<g id="#000000ff">
</g>
<g id="#ffffffff">
<path fill="#ffffff" opacity="1.00" d=" M 226.28 0.00 L 227.00 0.00 L 227.00 322.00 L 224.75 322.00 L 226.35 321.87 C 226.04 319.58 225.76 317.29 225.61 314.99 C 225.72 312.34 225.75 309.68 225.70 307.03 C 225.70 305.15 225.69 303.28 225.66 301.41 L 226.58 301.49 C 226.19 299.83 225.80 298.18 225.41 296.52 L 226.31 296.60 C 226.32 295.56 226.32 293.48 226.32 292.44 L 225.66 292.57 C 225.74 288.55 225.74 284.52 225.66 280.50 L 226.33 280.48 C 226.11 274.32 226.65 268.12 225.83 261.99 C 225.43 257.82 225.91 253.64 226.49 249.52 L 225.50 249.48 C 225.83 246.83 226.21 244.18 226.51 241.52 L 225.64 241.53 C 225.69 239.36 225.72 237.20 225.72 235.03 C 225.72 233.01 225.71 230.98 225.69 228.96 C 225.74 225.97 225.70 222.99 225.70 220.00 C 225.87 209.29 225.28 198.56 226.29 187.89 C 225.93 182.06 225.50 176.23 225.67 170.38 L 226.32 170.62 C 226.32 169.57 226.32 167.49 226.32 166.45 L 225.66 166.56 C 225.78 151.70 225.69 136.84 225.71 121.97 C 225.63 117.47 225.64 112.95 226.47 108.51 L 225.48 108.48 C 225.66 107.02 225.86 105.56 226.06 104.11 C 225.77 101.72 225.71 99.33 225.78 96.93 C 225.73 95.12 225.66 93.31 225.59 91.50 L 226.47 91.49 C 226.09 87.33 225.58 83.17 225.67 78.98 C 225.74 74.99 225.72 71.00 225.70 67.00 C 225.71 59.45 225.76 51.90 225.66 44.35 L 226.49 44.60 C 225.31 38.62 225.57 32.49 226.49 26.49 L 225.65 26.54 C 225.65 25.78 225.66 24.26 225.66 23.50 L 226.39 23.48 C 226.37 19.47 226.06 15.47 225.51 11.50 L 226.33 11.51 C 226.26 7.67 226.28 3.84 226.28 0.00 Z" />
<path fill="#ffffff" opacity="1.00" d=" M 44.10 2.10 C 91.37 2.20 138.63 2.20 185.90 2.10 C 185.81 5.68 185.87 9.26 185.77 12.83 C 138.59 12.94 91.41 12.94 44.23 12.83 C 44.12 9.26 44.19 5.68 44.10 2.10 Z" />
<path fill="#ffffff" opacity="1.00" d=" M 23.10 13.10 C 30.01 13.26 36.92 13.05 43.83 13.23 C 43.92 16.47 43.89 19.70 43.94 22.94 C 40.28 22.88 36.62 22.86 32.97 22.97 C 32.86 26.96 32.88 30.95 32.94 34.95 C 29.69 35.02 26.37 34.53 23.18 35.18 C 22.68 36.74 22.94 38.40 22.87 40.01 C 22.96 67.45 22.80 94.90 23.00 122.35 C 26.65 122.41 30.29 122.16 33.93 121.93 C 34.12 125.61 33.93 129.31 34.00 133.00 C 66.33 133.21 98.67 133.05 131.00 133.10 C 131.02 136.68 131.02 140.26 131.01 143.84 C 98.37 143.88 65.73 143.76 33.10 143.90 C 33.19 140.21 33.16 136.53 33.16 132.84 C 29.47 132.84 25.79 132.81 22.10 132.90 C 22.19 129.25 22.16 125.60 22.16 121.95 C 18.48 121.79 14.79 121.81 11.10 121.90 C 11.24 92.93 11.12 63.96 11.16 34.99 C 14.90 34.68 18.94 35.69 22.50 34.50 C 22.62 34.23 22.87 33.69 22.99 33.42 C 22.93 26.65 23.32 19.88 23.10 13.10 Z" />
<path fill="#ffffff" opacity="1.00" d=" M 186.17 13.23 C 193.41 13.05 200.66 13.27 207.90 13.10 C 207.77 20.07 207.87 27.03 207.84 34.00 C 204.26 34.00 200.68 34.00 197.10 34.00 C 197.10 30.33 197.13 26.67 197.03 23.00 C 193.39 23.00 189.74 23.00 186.10 23.00 C 186.10 19.74 186.08 16.49 186.17 13.23 Z" />
<path fill="#ffffff" opacity="1.00" d=" M 208.00 34.05 C 211.63 34.21 215.27 34.19 218.90 34.10 C 218.80 63.37 218.80 92.63 218.90 121.90 C 215.21 121.81 211.53 121.84 207.84 121.84 C 207.84 125.53 207.81 129.21 207.90 132.90 C 204.27 132.81 200.63 132.84 197.00 132.84 C 196.91 125.58 197.22 118.32 197.06 111.06 C 200.74 111.12 204.42 111.10 208.10 111.10 C 208.08 85.42 208.17 59.73 208.00 34.05 Z" />
<path fill="#ffffff" opacity="1.00" d=" M 55.06 35.06 C 98.69 35.13 142.31 35.13 185.94 35.06 C 185.88 38.69 185.88 42.31 185.94 45.94 C 142.31 45.87 98.69 45.87 55.06 45.94 C 55.12 42.31 55.12 38.69 55.06 35.06 Z" />
<path fill="#ffffff" opacity="1.00" d=" M 55.06 67.06 C 98.69 67.13 142.31 67.13 185.94 67.06 C 185.88 70.69 185.88 74.31 185.94 77.94 C 142.31 77.87 98.69 77.87 55.06 77.94 C 55.12 74.31 55.12 70.69 55.06 67.06 Z" />
<path fill="#ffffff" opacity="1.00" d=" M 55.06 100.06 C 84.02 100.13 112.98 100.13 141.94 100.06 C 141.88 103.69 141.88 107.31 141.94 110.94 C 112.98 110.87 84.02 110.87 55.06 110.94 C 55.12 107.31 55.12 103.69 55.06 100.06 Z" />
<path fill="#ffffff" opacity="1.00" d=" M 153.06 100.06 C 160.69 100.13 168.31 100.13 175.94 100.06 C 175.88 103.69 175.88 107.31 175.94 110.94 C 168.31 110.87 160.69 110.87 153.06 110.94 C 153.12 107.31 153.12 103.69 153.06 100.06 Z" />
<path fill="#ffffff" opacity="1.00" d=" M 153.00 133.10 C 167.61 133.13 182.23 133.09 196.84 133.00 C 196.84 136.63 196.81 140.27 196.90 143.90 C 182.27 143.76 167.63 143.87 153.00 143.84 C 153.00 140.26 153.00 136.68 153.00 133.10 Z" />
<path fill="#ffffff" opacity="1.00" d=" M 131.16 144.00 C 138.39 144.00 145.61 144.00 152.84 144.00 C 152.87 150.97 152.77 157.93 152.90 164.90 C 149.30 164.81 145.70 164.81 142.10 164.90 C 142.18 161.55 142.16 158.19 142.16 154.84 C 138.47 154.84 134.78 154.81 131.10 154.90 C 131.19 151.27 131.16 147.63 131.16 144.00 Z" />
<path fill="#ffffff" opacity="1.00" d=" M 131.11 177.09 C 142.04 177.05 152.97 177.11 163.90 177.10 C 163.81 180.45 163.83 183.80 163.84 187.16 C 167.53 187.16 171.21 187.19 174.90 187.10 C 174.80 191.12 174.84 195.14 174.84 199.16 C 178.53 199.16 182.21 199.19 185.90 199.10 C 185.83 213.42 185.73 227.74 185.95 242.05 C 193.26 242.26 200.58 242.17 207.90 242.10 C 207.81 245.78 207.84 249.47 207.84 253.16 C 211.53 253.16 215.21 253.19 218.90 253.10 C 218.80 274.70 218.80 296.30 218.90 317.89 C 171.32 318.11 123.74 317.93 76.16 318.00 C 75.98 296.34 76.26 274.67 76.16 253.00 C 79.83 252.99 83.49 252.95 87.16 253.11 C 87.16 249.44 87.19 245.77 87.10 242.10 C 94.42 242.35 101.73 241.89 109.05 241.99 C 109.26 227.37 109.17 212.73 109.10 198.10 C 112.78 198.19 116.47 198.16 120.16 198.16 C 120.16 194.47 120.19 190.78 120.10 187.10 C 123.78 187.19 127.47 187.16 131.16 187.16 C 131.16 183.80 131.18 180.44 131.11 177.09 M 131.11 199.04 C 131.10 209.68 131.14 220.32 131.12 230.95 C 142.05 230.99 152.99 230.85 163.92 230.92 C 163.86 220.30 163.90 209.69 163.92 199.08 C 152.99 199.14 142.05 199.01 131.11 199.04 M 131.96 275.96 C 131.96 282.65 131.96 289.35 131.96 296.04 C 142.65 296.04 153.35 296.04 164.04 296.04 C 164.04 289.35 164.04 282.65 164.04 275.96 C 153.35 275.96 142.65 275.96 131.96 275.96 Z" />
</g>
</svg>
