<svg width="24" height="24" viewBox="0 0 24 24" fill="none" xmlns="http://www.w3.org/2000/svg">
<g clip-path="url(#clip0_241_140)">
<path d="M12.014 0.0140533C5.39621 0.0140533 0.0327148 5.38278 0.0327148 12.007C0.0327148 18.6313 5.39621 24 12.014 24C18.6318 24 23.9953 18.6313 23.9953 12.007C23.9953 5.38278 18.6318 0.0140533 12.014 0.0140533ZM17.2956 9.38591L10.8042 15.8813C10.5748 16.1109 10.2051 16.1109 9.97577 15.8813L6.73474 12.6348C6.50541 12.4052 6.50541 12.0351 6.73474 11.8056C6.96407 11.576 7.3338 11.576 7.56313 11.8056L10.3923 14.6399L16.4695 8.5567C16.6989 8.32715 17.0686 8.32715 17.2979 8.5567C17.5249 8.78626 17.5249 9.15635 17.2956 9.38591V9.38591Z" fill="#64f98e"/>
</g>
<defs>
<clipPath id="clip0_241_140">
<rect width="24" height="24" fill="white"/>
</clipPath>
</defs>
</svg>
