<?xml version="1.0" encoding="UTF-8"?>
<svg xmlns="http://www.w3.org/2000/svg" xmlns:xlink="http://www.w3.org/1999/xlink" viewBox="0 0 60 60" width="28px" height="28px">
<g id="surface100557964">
<path style=" stroke:none;fill-rule:nonzero;fill:rgb(9.411765%,77.64706%,8.235294%);fill-opacity:1;" d="M 30 6 C 16.746094 6 6 16.746094 6 30 C 6 43.253906 16.746094 54 30 54 C 43.253906 54 54 43.253906 54 30 C 54 16.746094 43.253906 6 30 6 Z M 43.414062 25.414062 L 28.292969 40.535156 C 27.917969 40.910156 27.410156 41.121094 26.878906 41.121094 C 26.351562 41.121094 25.839844 40.910156 25.464844 40.535156 L 18.558594 33.628906 C 17.777344 32.847656 17.777344 31.582031 18.558594 30.800781 C 19.34375 30.019531 20.605469 30.019531 21.386719 30.800781 L 26.878906 36.292969 L 40.585938 22.585938 C 41.367188 21.804688 42.632812 21.804688 43.414062 22.585938 C 44.195312 23.367188 44.195312 24.632812 43.414062 25.414062 Z M 43.414062 25.414062 "/>
</g>
</svg>
