<svg width="524" height="452" viewBox="0 0 524 452" fill="none" xmlns="http://www.w3.org/2000/svg">
<path d="M193.23 324.728C193.738 324.728 194.276 324.85 194.846 325.094C195.435 325.318 195.984 325.602 196.492 325.948H196.461C196.989 326.334 197.396 326.832 197.68 327.441C197.965 328.051 198.107 328.783 198.107 329.636V330.551C198.107 332.217 197.559 333.447 196.461 334.239C195.933 334.646 195.394 334.94 194.846 335.123C194.297 335.306 193.758 335.397 193.23 335.397H188.048C187.519 335.397 186.981 335.306 186.432 335.123C185.883 334.94 185.345 334.646 184.817 334.239C183.719 333.467 183.17 332.237 183.17 330.551V330.185C183.17 329.311 183.729 328.884 184.847 328.905C185.985 328.905 186.554 329.331 186.554 330.185V330.52C186.554 331.008 186.707 331.465 187.011 331.892C187.316 332.319 187.855 332.532 188.627 332.532H192.651C193.423 332.532 193.962 332.319 194.266 331.892C194.571 331.465 194.724 331.008 194.724 330.52V329.667C194.724 329.402 194.683 329.148 194.602 328.905C194.541 328.661 194.429 328.447 194.266 328.264C194.104 328.061 193.89 327.899 193.626 327.777C193.362 327.655 193.037 327.594 192.651 327.594H188.2C187.164 327.594 186.077 327.228 184.938 326.496C183.861 325.805 183.323 324.617 183.323 322.93V321.893C183.323 321.081 183.465 320.369 183.75 319.76C184.034 319.13 184.441 318.622 184.969 318.235H184.938C185.447 317.89 185.985 317.605 186.554 317.382C187.123 317.158 187.672 317.047 188.2 317.047H193.077C193.606 317.047 194.144 317.158 194.693 317.382C195.262 317.605 195.811 317.89 196.339 318.235H196.309C196.837 318.622 197.244 319.13 197.528 319.76C197.813 320.369 197.955 321.081 197.955 321.893V322.168C197.955 322.595 197.813 322.91 197.528 323.113C197.244 323.296 196.827 323.397 196.278 323.418C195.161 323.438 194.602 323.021 194.602 322.168V321.924C194.602 321.416 194.439 320.959 194.114 320.552C193.809 320.125 193.281 319.912 192.529 319.912H188.749C187.997 319.912 187.458 320.125 187.133 320.552C186.828 320.959 186.676 321.416 186.676 321.924V322.656C186.676 323.184 186.828 323.661 187.133 324.088C187.458 324.515 187.997 324.728 188.749 324.728H193.23ZM206.07 319.912V331.008C206.07 331.536 206.182 331.943 206.406 332.227C206.629 332.512 207.107 332.654 207.838 332.654H208.631C209.424 332.654 209.8 333.121 209.759 334.056C209.759 335.011 209.383 335.489 208.631 335.489H207.625C206.975 335.489 206.365 335.408 205.796 335.245C205.227 335.062 204.678 334.808 204.15 334.483V334.513C203.154 333.863 202.656 332.705 202.656 331.038V319.912H201.468C200.736 319.912 200.35 319.434 200.309 318.479C200.309 317.524 200.695 317.047 201.468 317.047H202.656V313.785C202.656 312.809 203.236 312.322 204.394 312.322C205.512 312.322 206.07 312.809 206.07 313.785V317.047H208.601C209.393 317.047 209.769 317.524 209.728 318.479C209.728 319.434 209.352 319.912 208.601 319.912H206.07ZM217.01 335.397C216.38 335.397 215.78 335.316 215.211 335.154C214.642 334.971 214.094 334.717 213.565 334.392V334.422C212.569 333.792 212.072 332.634 212.072 330.947V329.453C212.072 328.62 212.214 327.899 212.498 327.289C212.803 326.659 213.22 326.161 213.748 325.795H213.718C214.226 325.45 214.764 325.196 215.333 325.033C215.902 324.85 216.451 324.759 216.979 324.759H223.716V321.924C223.716 321.416 223.554 320.959 223.228 320.552C222.924 320.125 222.395 319.912 221.643 319.912H218.077C217.305 319.912 216.766 320.105 216.461 320.491C216.177 320.857 216.034 321.294 216.034 321.802V322.046C216.034 323.103 215.465 323.631 214.327 323.631C213.189 323.631 212.62 323.103 212.62 322.046V321.771C212.62 320.938 212.763 320.237 213.047 319.668C213.352 319.099 213.758 318.622 214.266 318.235H214.236C214.764 317.89 215.313 317.605 215.882 317.382C216.471 317.158 217.03 317.047 217.559 317.047H222.192C222.7 317.047 223.239 317.158 223.808 317.382C224.397 317.605 224.946 317.89 225.454 318.235H225.423C225.952 318.622 226.358 319.13 226.643 319.76C226.927 320.369 227.069 321.081 227.069 321.893V334.117C227.069 335.093 226.51 335.58 225.393 335.58C225.169 335.58 224.956 335.57 224.753 335.55C224.57 335.53 224.397 335.479 224.234 335.397C224.092 335.296 223.97 335.164 223.869 335.001C223.787 334.818 223.747 334.585 223.747 334.3L223.716 327.624H217.559C217.111 327.624 216.766 327.675 216.522 327.777C216.278 327.878 216.085 328.041 215.943 328.264C215.78 328.61 215.658 328.884 215.577 329.087C215.516 329.27 215.486 329.484 215.486 329.728V330.916C215.486 331.445 215.638 331.851 215.943 332.136C216.268 332.4 216.817 332.532 217.589 332.532H221.003C221.755 332.532 222.131 333.01 222.131 333.965C222.131 334.371 222.04 334.717 221.857 335.001C221.674 335.265 221.389 335.397 221.003 335.397H217.01ZM234.305 334.117C234.305 335.093 233.746 335.58 232.628 335.58C231.47 335.58 230.89 335.093 230.89 334.117V321.497C230.89 319.831 231.388 318.672 232.384 318.022C233.38 317.372 234.528 317.047 235.829 317.047H239.304C240.056 317.047 240.432 317.524 240.432 318.479C240.472 319.434 240.096 319.912 239.304 319.912H236.073C235.341 319.912 234.863 320.054 234.64 320.339C234.416 320.623 234.305 321.02 234.305 321.528V334.117ZM247.002 319.912V331.008C247.002 331.536 247.114 331.943 247.338 332.227C247.561 332.512 248.039 332.654 248.77 332.654H249.563C250.356 332.654 250.732 333.121 250.691 334.056C250.691 335.011 250.315 335.489 249.563 335.489H248.557C247.907 335.489 247.297 335.408 246.728 335.245C246.159 335.062 245.61 334.808 245.082 334.483V334.513C244.086 333.863 243.588 332.705 243.588 331.038V319.912H242.399C241.668 319.912 241.282 319.434 241.241 318.479C241.241 317.524 241.627 317.047 242.399 317.047H243.588V313.785C243.588 312.809 244.168 312.322 245.326 312.322C246.444 312.322 247.002 312.809 247.002 313.785V317.047H249.533C250.325 317.047 250.701 317.524 250.66 318.479C250.66 319.434 250.284 319.912 249.533 319.912H247.002ZM267.386 333.264C266.857 333.264 266.309 333.172 265.74 332.989C265.191 332.806 264.652 332.542 264.124 332.197C263.027 331.485 262.478 330.286 262.478 328.6V321.711C262.478 320.857 262.62 320.125 262.905 319.516C263.209 318.906 263.616 318.429 264.124 318.083C264.652 317.758 265.191 317.504 265.74 317.321C266.288 317.138 266.827 317.047 267.355 317.047H272.476C272.984 317.047 273.513 317.158 274.061 317.382C274.61 317.605 275.118 317.89 275.586 318.235C276.053 318.622 276.429 319.13 276.714 319.76C276.998 320.39 277.14 321.101 277.14 321.893V334.818C277.14 335.672 276.998 336.393 276.714 336.983C276.449 337.592 276.073 338.1 275.586 338.507C275.118 338.893 274.61 339.188 274.061 339.391C273.533 339.614 273.005 339.726 272.476 339.726H267.355C266.278 339.726 265.191 339.411 264.093 338.781C263.524 338.456 263.108 338.039 262.844 337.531C262.6 337.023 262.478 336.434 262.478 335.763V335.397C262.478 334.991 262.61 334.666 262.874 334.422C263.138 334.178 263.555 334.056 264.124 334.056C265.262 334.178 265.831 334.625 265.831 335.397V335.733C265.831 335.956 265.983 336.2 266.288 336.464C266.613 336.729 267.152 336.861 267.904 336.861H271.714C272.466 336.861 272.995 336.647 273.299 336.221C273.625 335.794 273.787 335.316 273.787 334.788V321.924C273.787 321.416 273.625 320.959 273.299 320.552C272.995 320.125 272.466 319.912 271.714 319.912H267.904C267.152 319.912 266.613 320.125 266.288 320.552C265.983 320.959 265.831 321.416 265.831 321.924V328.356C265.831 328.864 265.983 329.341 266.288 329.789C266.613 330.215 267.152 330.429 267.904 330.429H271.074C271.806 330.429 272.172 330.896 272.172 331.831C272.172 332.258 272.08 332.603 271.897 332.867C271.735 333.132 271.46 333.264 271.074 333.264H267.386ZM285.835 335.397C285.205 335.397 284.606 335.316 284.037 335.154C283.468 334.971 282.919 334.717 282.391 334.392V334.422C281.395 333.792 280.897 332.634 280.897 330.947V329.453C280.897 328.62 281.039 327.899 281.324 327.289C281.628 326.659 282.045 326.161 282.573 325.795H282.543C283.051 325.45 283.59 325.196 284.159 325.033C284.728 324.85 285.276 324.759 285.805 324.759H292.541V321.924C292.541 321.416 292.379 320.959 292.054 320.552C291.749 320.125 291.22 319.912 290.469 319.912H286.902C286.13 319.912 285.591 320.105 285.286 320.491C285.002 320.857 284.86 321.294 284.86 321.802V322.046C284.86 323.103 284.291 323.631 283.153 323.631C282.015 323.631 281.446 323.103 281.446 322.046V321.771C281.446 320.938 281.588 320.237 281.872 319.668C282.177 319.099 282.584 318.622 283.092 318.235H283.061C283.59 317.89 284.138 317.605 284.707 317.382C285.297 317.158 285.855 317.047 286.384 317.047H291.017C291.525 317.047 292.064 317.158 292.633 317.382C293.222 317.605 293.771 317.89 294.279 318.235H294.248C294.777 318.622 295.183 319.13 295.468 319.76C295.752 320.369 295.895 321.081 295.895 321.893V334.117C295.895 335.093 295.336 335.58 294.218 335.58C293.994 335.58 293.781 335.57 293.578 335.55C293.395 335.53 293.222 335.479 293.06 335.397C292.917 335.296 292.795 335.164 292.694 335.001C292.613 334.818 292.572 334.585 292.572 334.3L292.541 327.624H286.384C285.937 327.624 285.591 327.675 285.347 327.777C285.104 327.878 284.91 328.041 284.768 328.264C284.606 328.61 284.484 328.884 284.402 329.087C284.341 329.27 284.311 329.484 284.311 329.728V330.916C284.311 331.445 284.463 331.851 284.768 332.136C285.093 332.4 285.642 332.532 286.414 332.532H289.828C290.58 332.532 290.956 333.01 290.956 333.965C290.956 334.371 290.865 334.717 290.682 335.001C290.499 335.265 290.215 335.397 289.828 335.397H285.835ZM309.287 322.137C309.287 321.873 309.247 321.619 309.165 321.375C309.084 321.111 308.983 320.867 308.861 320.644C308.596 320.156 308.048 319.912 307.215 319.912H305.264C304.43 319.912 303.872 320.156 303.587 320.644C303.343 321.111 303.221 321.609 303.221 322.137V334.209C303.221 335.164 302.662 335.641 301.545 335.641C300.386 335.641 299.807 335.164 299.807 334.209V321.863C299.807 320.197 300.356 318.977 301.453 318.205C302.571 317.433 303.658 317.047 304.715 317.047H307.794C308.261 317.047 308.779 317.138 309.348 317.321C309.917 317.504 310.466 317.788 310.994 318.174C311.502 317.788 312.031 317.504 312.58 317.321C313.149 317.138 313.687 317.047 314.195 317.047H317.243C318.321 317.047 319.398 317.433 320.475 318.205C321.592 318.957 322.151 320.176 322.151 321.863V334.209C322.151 335.164 321.582 335.641 320.444 335.641C319.306 335.641 318.737 335.164 318.737 334.209V322.137C318.737 321.873 318.707 321.609 318.646 321.345C318.585 321.081 318.473 320.837 318.31 320.613L318.341 320.644C318.178 320.379 317.975 320.197 317.731 320.095C317.487 319.973 317.132 319.912 316.664 319.912H314.744C313.89 319.912 313.331 320.156 313.067 320.644C312.803 321.091 312.671 321.589 312.671 322.137V334.209C312.671 335.164 312.112 335.641 310.994 335.641C309.856 335.641 309.287 335.164 309.287 334.209V322.137ZM329.209 330.52C329.209 331.008 329.361 331.465 329.666 331.892C329.991 332.319 330.53 332.532 331.281 332.532H335.092C335.844 332.532 336.372 332.349 336.677 331.983C337.002 331.597 337.165 331.16 337.165 330.673V330.337C337.165 329.382 337.724 328.905 338.841 328.905C339.959 328.905 340.518 329.382 340.518 330.337V330.703C340.518 331.557 340.376 332.258 340.091 332.806C339.827 333.355 339.42 333.833 338.872 334.239C337.795 335.011 336.718 335.397 335.641 335.397H330.519C329.442 335.397 328.396 335.011 327.38 334.239C326.892 333.833 326.516 333.325 326.252 332.715C325.988 332.085 325.855 331.364 325.855 330.551V321.863C325.855 320.217 326.364 318.998 327.38 318.205C327.888 317.839 328.406 317.555 328.934 317.351C329.483 317.128 330.011 317.016 330.519 317.016H335.641C336.128 317.016 336.667 317.118 337.256 317.321C337.846 317.504 338.394 317.758 338.902 318.083C339.39 318.429 339.776 318.906 340.061 319.516C340.365 320.125 340.518 320.847 340.518 321.68V325.795C340.518 326.263 340.376 326.679 340.091 327.045C339.827 327.411 339.329 327.594 338.597 327.594H332.013C331.281 327.594 330.895 327.116 330.855 326.161C330.855 325.206 331.241 324.728 332.013 324.728H337.195L337.165 321.893C337.165 321.385 337.002 320.928 336.677 320.522C336.372 320.095 335.844 319.882 335.092 319.882H331.281C330.53 319.882 329.991 320.095 329.666 320.522C329.361 320.928 329.209 321.385 329.209 321.893V330.52Z" fill="white"/>
<g clip-path="url(#clip0_422_28)">
<path d="M258.832 128.444C245.049 128.444 231.575 132.522 220.115 140.16C208.655 147.799 199.722 158.657 194.448 171.36C189.173 184.063 187.793 198.041 190.482 211.526C193.171 225.012 199.808 237.399 209.554 247.122C219.301 256.844 231.718 263.465 245.236 266.148C258.755 268.83 272.767 267.453 285.501 262.191C298.235 256.93 309.118 248.019 316.776 236.587C324.433 225.154 328.521 211.713 328.521 197.964C328.501 179.532 321.152 161.861 308.087 148.828C295.022 135.795 277.308 128.464 258.832 128.444ZM258.832 255.897C247.346 255.897 236.118 252.499 226.568 246.133C217.017 239.768 209.574 230.72 205.179 220.134C200.783 209.548 199.633 197.9 201.874 186.662C204.115 175.424 209.646 165.101 217.767 156.999C225.889 148.897 236.237 143.379 247.502 141.144C258.767 138.909 270.444 140.056 281.056 144.441C291.667 148.826 300.737 156.251 307.119 165.778C313.5 175.305 316.906 186.506 316.906 197.964C316.889 213.323 310.765 228.049 299.878 238.91C288.99 249.771 274.229 255.88 258.832 255.897Z" fill="white"/>
<path d="M283.066 188.115L253.373 169.577C251.613 168.479 249.59 167.873 247.516 167.819C245.441 167.766 243.39 168.268 241.576 169.274C239.762 170.279 238.251 171.751 237.2 173.536C236.15 175.321 235.598 177.355 235.602 179.425V216.502C235.598 218.573 236.15 220.606 237.2 222.391C238.251 224.177 239.762 225.649 241.576 226.654C243.39 227.659 245.441 228.162 247.516 228.108C249.59 228.055 251.613 227.448 253.373 226.351L283.066 207.812C284.736 206.771 286.114 205.323 287.069 203.604C288.024 201.885 288.525 199.952 288.525 197.987C288.525 196.022 288.024 194.089 287.069 192.37C286.114 190.651 284.736 189.203 283.066 188.162V188.115ZM247.217 216.502V179.425L276.91 197.964L247.217 216.502Z" fill="white"/>
</g>
<defs>
<clipPath id="clip0_422_28">
<rect x="191.124" y="128.318" width="140.837" height="138.904" rx="20" fill="white"/>
</clipPath>
</defs>
</svg>
