<svg width="13" height="15" viewBox="0 0 15 10" fill="none" xmlns="http://www.w3.org/2000/svg">
<path d="M18.8889 1.6H1.11111C0.444444 1.6 0 1.28 0 0.8C0 0.32 0.444444 0 1.11111 0H18.8889C19.5556 0 20 0.32 20 0.8C20 1.28 19.5556 1.6 18.8889 1.6Z" fill="#00264F"/>
<path d="M18.8889 6.04458H1.11111C0.444444 6.04458 0 5.72458 0 5.24458C0 4.76458 0.444444 4.44458 1.11111 4.44458H18.8889C19.5556 4.44458 20 4.76458 20 5.24458C20 5.72458 19.5556 6.04458 18.8889 6.04458Z" fill="#00264F"/>
<path d="M18.8889 10.4889H1.11111C0.444444 10.4889 0 10.1689 0 9.68892C0 9.20892 0.444444 8.88892 1.11111 8.88892H18.8889C19.5556 8.88892 20 9.20892 20 9.68892C20 10.1689 19.5556 10.4889 18.8889 10.4889Z" fill="#00264F"/>
</svg>
