<svg width="15" height="11" viewBox="0 0 10 11" fill="none" xmlns="http://www.w3.org/2000/svg">
<path d="M9.87396 9.48725L7.00482 6.6137C7.57045 5.93479 7.91065 5.06719 7.91065 4.11959C7.91065 1.95777 6.13792 0.199997 3.95737 0.199997C1.77682 0.199997 0 1.95982 0 4.12165C0 6.28348 1.77272 8.04124 3.95327 8.04124C4.8796 8.04124 5.73215 7.72333 6.40844 7.1921L9.28784 10.0739C9.45589 10.242 9.70591 10.242 9.87396 10.0739C10.042 9.90567 10.042 9.65544 9.87396 9.48725ZM0.84025 4.12165C0.84025 2.42336 2.23793 1.04299 3.95327 1.04299C5.66861 1.04299 7.0663 2.42336 7.0663 4.12165C7.0663 5.81993 5.66861 7.2003 3.95327 7.2003C2.23793 7.2003 0.84025 5.81788 0.84025 4.12165Z" fill="#90949f"/>
</svg>
