<svg width="1519" height="861" viewBox="0 0 1519 861" fill="none" xmlns="http://www.w3.org/2000/svg">
<path d="M50.5 606.5C50.5 621.448 39.2722 633.5 25.5 633.5C11.7278 633.5 0.5 621.448 0.5 606.5C0.5 591.552 11.7278 579.5 25.5 579.5C39.2722 579.5 50.5 591.552 50.5 606.5Z" stroke="#A7A7A7"/>
<path d="M576.5 27.5C576.5 42.4479 565.272 54.5 551.5 54.5C537.728 54.5 526.5 42.4479 526.5 27.5C526.5 12.5521 537.728 0.5 551.5 0.5C565.272 0.5 576.5 12.5521 576.5 27.5Z" stroke="#A7A7A7"/>
<path d="M980.5 606.5C980.5 621.448 969.272 633.5 955.5 633.5C941.728 633.5 930.5 621.448 930.5 606.5C930.5 591.552 941.728 579.5 955.5 579.5C969.272 579.5 980.5 591.552 980.5 606.5Z" stroke="#A7A7A7"/>
<path d="M576.5 822.5C576.5 837.448 565.272 849.5 551.5 849.5C537.728 849.5 526.5 837.448 526.5 822.5C526.5 807.552 537.728 795.5 551.5 795.5C565.272 795.5 576.5 807.552 576.5 822.5Z" stroke="#A7A7A7"/>
<path d="M290.5 466.5C290.5 481.448 279.272 493.5 265.5 493.5C251.728 493.5 240.5 481.448 240.5 466.5C240.5 451.552 251.728 439.5 265.5 439.5C279.272 439.5 290.5 451.552 290.5 466.5Z" stroke="#A7A7A7"/>
<path d="M290.5 794.5C290.5 809.448 279.272 821.5 265.5 821.5C251.728 821.5 240.5 809.448 240.5 794.5C240.5 779.552 251.728 767.5 265.5 767.5C279.272 767.5 290.5 779.552 290.5 794.5Z" stroke="#A7A7A7"/>
<path d="M1094.5 407.5C1094.5 422.448 1083.27 434.5 1069.5 434.5C1055.73 434.5 1044.5 422.448 1044.5 407.5C1044.5 392.552 1055.73 380.5 1069.5 380.5C1083.27 380.5 1094.5 392.552 1094.5 407.5Z" stroke="#A7A7A7"/>
<path d="M50.5 352.5C50.5 367.448 39.2722 379.5 25.5 379.5C11.7278 379.5 0.5 367.448 0.5 352.5C0.5 337.552 11.7278 325.5 25.5 325.5C39.2722 325.5 50.5 337.552 50.5 352.5Z" stroke="#A7A7A7"/>
<path d="M66.5 833.5C66.5 848.448 55.2722 860.5 41.5 860.5C27.7278 860.5 16.5 848.448 16.5 833.5C16.5 818.552 27.7278 806.5 41.5 806.5C55.2722 806.5 66.5 818.552 66.5 833.5Z" stroke="#A7A7A7"/>
<path d="M656.5 568.5C656.5 583.448 645.272 595.5 631.5 595.5C617.728 595.5 606.5 583.448 606.5 568.5C606.5 553.552 617.728 541.5 631.5 541.5C645.272 541.5 656.5 553.552 656.5 568.5Z" stroke="#A7A7A7"/>
<path d="M323.5 137.5C323.5 152.448 312.272 164.5 298.5 164.5C284.728 164.5 273.5 152.448 273.5 137.5C273.5 122.552 284.728 110.5 298.5 110.5C312.272 110.5 323.5 122.552 323.5 137.5Z" stroke="#A7A7A7"/>
<path d="M849.5 380.5C849.5 395.448 838.272 407.5 824.5 407.5C810.728 407.5 799.5 395.448 799.5 380.5C799.5 365.552 810.728 353.5 824.5 353.5C838.272 353.5 849.5 365.552 849.5 380.5Z" stroke="#A7A7A7"/>
<path d="M117.5 57.5C117.5 72.4479 106.272 84.5 92.5 84.5C78.7278 84.5 67.5 72.4479 67.5 57.5C67.5 42.5521 78.7278 30.5 92.5 30.5C106.272 30.5 117.5 42.5521 117.5 57.5Z" stroke="#A7A7A7"/>
<path d="M563.5 325.5C563.5 340.448 552.272 352.5 538.5 352.5C524.728 352.5 513.5 340.448 513.5 325.5C513.5 310.552 524.728 298.5 538.5 298.5C552.272 298.5 563.5 310.552 563.5 325.5Z" stroke="#A7A7A7"/>
<path d="M1069.5 82.5C1069.5 97.4479 1058.27 109.5 1044.5 109.5C1030.73 109.5 1019.5 97.4479 1019.5 82.5C1019.5 67.5521 1030.73 55.5 1044.5 55.5C1058.27 55.5 1069.5 67.5521 1069.5 82.5Z" stroke="#A7A7A7"/>
<path d="M218.5 283.5C218.5 298.448 207.272 310.5 193.5 310.5C179.728 310.5 168.5 298.448 168.5 283.5C168.5 268.552 179.728 256.5 193.5 256.5C207.272 256.5 218.5 268.552 218.5 283.5Z" stroke="#A7A7A7"/>
<path d="M753.5 164.5C753.5 179.448 742.272 191.5 728.5 191.5C714.728 191.5 703.5 179.448 703.5 164.5C703.5 149.552 714.728 137.5 728.5 137.5C742.272 137.5 753.5 149.552 753.5 164.5Z" stroke="#A7A7A7"/>
<path d="M1325.5 488.5C1325.5 503.448 1314.27 515.5 1300.5 515.5C1286.73 515.5 1275.5 503.448 1275.5 488.5C1275.5 473.552 1286.73 461.5 1300.5 461.5C1314.27 461.5 1325.5 473.552 1325.5 488.5Z" stroke="#A7A7A7"/>
<path d="M1232.5 685.5C1232.5 700.448 1221.27 712.5 1207.5 712.5C1193.73 712.5 1182.5 700.448 1182.5 685.5C1182.5 670.552 1193.73 658.5 1207.5 658.5C1221.27 658.5 1232.5 670.552 1232.5 685.5Z" stroke="#A7A7A7"/>
<path d="M1518.5 300.5C1518.5 315.448 1507.27 327.5 1493.5 327.5C1479.73 327.5 1468.5 315.448 1468.5 300.5C1468.5 285.552 1479.73 273.5 1493.5 273.5C1507.27 273.5 1518.5 285.552 1518.5 300.5Z" stroke="#A7A7A7"/>
<path d="M1232.5 245.5C1232.5 260.448 1221.27 272.5 1207.5 272.5C1193.73 272.5 1182.5 260.448 1182.5 245.5C1182.5 230.552 1193.73 218.5 1207.5 218.5C1221.27 218.5 1232.5 230.552 1232.5 245.5Z" stroke="#A7A7A7"/>
<path d="M1422.5 84.5C1422.5 99.4479 1411.27 111.5 1397.5 111.5C1383.73 111.5 1372.5 99.4479 1372.5 84.5C1372.5 69.5521 1383.73 57.5 1397.5 57.5C1411.27 57.5 1422.5 69.5521 1422.5 84.5Z" stroke="#A7A7A7"/>
<path d="M955.5 806.5C955.5 821.448 944.272 833.5 930.5 833.5C916.728 833.5 905.5 821.448 905.5 806.5C905.5 791.552 916.728 779.5 930.5 779.5C944.272 779.5 955.5 791.552 955.5 806.5Z" stroke="#A7A7A7"/>
<path d="M1479.5 833.5C1479.5 848.448 1468.27 860.5 1454.5 860.5C1440.73 860.5 1429.5 848.448 1429.5 833.5C1429.5 818.552 1440.73 806.5 1454.5 806.5C1468.27 806.5 1479.5 818.552 1479.5 833.5Z" stroke="#A7A7A7"/>
</svg>
