<svg width="20" height="20" viewBox="0 0 20 20" fill="none" xmlns="http://www.w3.org/2000/svg">
<path d="M10 0C8.02219 0 6.08879 0.58649 4.4443 1.6853C2.79981 2.78412 1.51809 4.3459 0.761209 6.17317C0.00433284 8.00043 -0.193701 10.0111 0.192152 11.9509C0.578004 13.8907 1.53041 15.6725 2.92894 17.0711C4.32746 18.4696 6.10929 19.422 8.0491 19.8079C9.98891 20.1937 11.9996 19.9957 13.8268 19.2388C15.6541 18.4819 17.2159 17.2002 18.3147 15.5557C19.4135 13.9112 20 11.9778 20 10C20 8.68678 19.7413 7.38642 19.2388 6.17317C18.7363 4.95991 17.9997 3.85752 17.0711 2.92893C16.1425 2.00035 15.0401 1.26375 13.8268 0.761205C12.6136 0.258658 11.3132 0 10 0V0ZM15.91 9C15.766 8.11212 15.4243 7.26797 14.91 6.53L16.31 5.1C17.1896 6.23143 17.7491 7.57836 17.93 9H15.91ZM10 14C9.20888 14 8.43552 13.7654 7.77772 13.3259C7.11993 12.8864 6.60724 12.2616 6.30449 11.5307C6.00174 10.7998 5.92252 9.99556 6.07686 9.21964C6.2312 8.44371 6.61217 7.73098 7.17158 7.17157C7.73099 6.61216 8.44372 6.2312 9.21964 6.07686C9.99557 5.92252 10.7998 6.00173 11.5307 6.30448C12.2616 6.60723 12.8864 7.11992 13.3259 7.77772C13.7654 8.43552 14 9.20887 14 10C14 11.0609 13.5786 12.0783 12.8284 12.8284C12.0783 13.5786 11.0609 14 10 14ZM2 10C2.00258 8.50479 2.42412 7.04023 3.21683 5.77244C4.00954 4.50466 5.14168 3.48441 6.48481 2.82741C7.82795 2.17042 9.32833 1.90299 10.8157 2.05546C12.3032 2.20792 13.7181 2.77418 14.9 3.69L13.47 5.11C12.7352 4.58453 11.8912 4.23179 11.0009 4.07807C10.1107 3.92436 9.19731 3.97365 8.3288 4.22226C7.4603 4.47088 6.65915 4.9124 5.98512 5.51389C5.3111 6.11537 4.78159 6.8613 4.43611 7.69601C4.09063 8.53073 3.9381 9.43268 3.98989 10.3346C4.04169 11.2365 4.29647 12.115 4.73523 12.9047C5.174 13.6944 5.78542 14.3748 6.52387 14.8952C7.26232 15.4155 8.10875 15.7624 9 15.91V17.91C7.07139 17.667 5.29722 16.7302 4.009 15.2745C2.72077 13.8188 2.00663 11.9438 2 10V10ZM11 17.93V15.93C12.2292 15.7204 13.3626 15.1329 14.2426 14.2494C15.1226 13.3659 15.7054 12.2301 15.91 11H17.91C17.6878 12.7571 16.8888 14.3907 15.6383 15.6448C14.3877 16.899 12.7564 17.7027 11 17.93V17.93Z" fill="#8AA084"/>
</svg>
