<svg width="75" height="55" viewBox="0 0 75 55" fill="none" xmlns="http://www.w3.org/2000/svg">
<path d="M0 0H55L69 14.5L55 29H18V55H0V0Z" fill="#F14C60"/>
<path d="M14.7443 13.1818C14.6676 12.5341 14.3565 12.0312 13.8111 11.6733C13.2656 11.3153 12.5966 11.1364 11.804 11.1364C11.2244 11.1364 10.7173 11.2301 10.2827 11.4176C9.85227 11.6051 9.51563 11.8629 9.27273 12.1911C9.03409 12.5192 8.91477 12.892 8.91477 13.3097C8.91477 13.6591 8.99787 13.9595 9.16406 14.2109C9.33452 14.4581 9.55185 14.6648 9.81605 14.831C10.0803 14.9929 10.3572 15.1271 10.647 15.2337C10.9368 15.3359 11.2031 15.419 11.446 15.483L12.7756 15.8409C13.1165 15.9304 13.4957 16.054 13.9134 16.2116C14.3352 16.3693 14.7379 16.5845 15.1214 16.8572C15.5092 17.1257 15.8288 17.4709 16.0803 17.8928C16.3317 18.3146 16.4574 18.8324 16.4574 19.446C16.4574 20.1534 16.272 20.7926 15.9013 21.3636C15.5348 21.9347 14.9979 22.3885 14.2905 22.7251C13.5874 23.0618 12.733 23.2301 11.7273 23.2301C10.7898 23.2301 9.97798 23.0788 9.2919 22.7763C8.61009 22.4737 8.07315 22.0518 7.68111 21.5107C7.29332 20.9695 7.07386 20.3409 7.02273 19.625H8.65909C8.7017 20.1193 8.8679 20.5284 9.15767 20.8523C9.4517 21.1719 9.82244 21.4105 10.2699 21.5682C10.7216 21.7216 11.2074 21.7983 11.7273 21.7983C12.3324 21.7983 12.8757 21.7003 13.3572 21.5043C13.8388 21.304 14.2202 21.027 14.5014 20.6733C14.7827 20.3153 14.9233 19.8977 14.9233 19.4205C14.9233 18.9858 14.8018 18.6321 14.5589 18.3594C14.3161 18.0866 13.9964 17.8651 13.6001 17.6946C13.2038 17.5241 12.7756 17.375 12.3153 17.2472L10.7045 16.7869C9.68182 16.4929 8.87216 16.0732 8.27557 15.5277C7.67898 14.9822 7.38068 14.2685 7.38068 13.3864C7.38068 12.6534 7.57884 12.0142 7.97514 11.4688C8.37571 10.919 8.91264 10.4929 9.58594 10.1903C10.2635 9.88352 11.0199 9.73011 11.8551 9.73011C12.6989 9.73011 13.4489 9.88139 14.1051 10.1839C14.7614 10.4822 15.2813 10.8913 15.6648 11.4112C16.0526 11.9311 16.2571 12.5213 16.2784 13.1818H14.7443ZM19.0637 23V9.90909H26.9643V11.3153H20.649V15.7386H26.5552V17.1449H20.649V21.5938H27.0666V23H19.0637ZM38.7704 14C38.6298 13.5696 38.4444 13.1839 38.2143 12.843C37.9885 12.4979 37.7179 12.2038 37.4025 11.9609C37.0914 11.718 36.7377 11.5327 36.3414 11.4048C35.9451 11.277 35.5105 11.2131 35.0375 11.2131C34.2619 11.2131 33.5566 11.4134 32.9217 11.8139C32.2868 12.2145 31.7818 12.8047 31.4068 13.5845C31.0318 14.3643 30.8443 15.321 30.8443 16.4545C30.8443 17.5881 31.0339 18.5447 31.4132 19.3246C31.7924 20.1044 32.3059 20.6946 32.9537 21.0952C33.6014 21.4957 34.3301 21.696 35.1397 21.696C35.8897 21.696 36.5502 21.5362 37.1213 21.2166C37.6966 20.8928 38.144 20.4368 38.4636 19.8487C38.7875 19.2564 38.9494 18.5597 38.9494 17.7585L39.4352 17.8608H35.4977V16.4545H40.4835V17.8608C40.4835 18.9389 40.2534 19.8764 39.7931 20.6733C39.3372 21.4702 38.7065 22.0881 37.9011 22.527C37.1 22.9616 36.1795 23.179 35.1397 23.179C33.9806 23.179 32.9622 22.9062 32.0843 22.3608C31.2108 21.8153 30.5289 21.0398 30.0389 20.0341C29.5531 19.0284 29.3102 17.8352 29.3102 16.4545C29.3102 15.419 29.4487 14.4879 29.7257 13.6612C30.0069 12.8303 30.4032 12.1229 30.9146 11.5391C31.426 10.9553 32.0311 10.5078 32.7299 10.1967C33.4288 9.88565 34.198 9.73011 35.0375 9.73011C35.7278 9.73011 36.3713 9.83452 36.9679 10.0433C37.5687 10.2479 38.1035 10.5398 38.5723 10.919C39.0453 11.294 39.4395 11.7436 39.7548 12.2678C40.0701 12.7876 40.2875 13.3651 40.4068 14H38.7704ZM42.9684 23V21.8494L47.2894 17.1193C47.7965 16.5653 48.2141 16.0838 48.5423 15.6747C48.8704 15.2614 49.1133 14.8736 49.271 14.5114C49.4329 14.1449 49.5138 13.7614 49.5138 13.3608C49.5138 12.9006 49.4031 12.5021 49.1815 12.1655C48.9641 11.8288 48.6658 11.5689 48.2866 11.3857C47.9073 11.2024 47.4812 11.1108 47.0082 11.1108C46.5053 11.1108 46.0664 11.2152 45.6914 11.424C45.3207 11.6286 45.033 11.9162 44.8285 12.2869C44.6282 12.6577 44.5281 13.0923 44.5281 13.5909H43.0195C43.0195 12.8239 43.1964 12.1506 43.5501 11.571C43.9038 10.9915 44.3853 10.5398 44.9947 10.2159C45.6083 9.89204 46.2965 9.73011 47.0593 9.73011C47.8263 9.73011 48.506 9.89204 49.0984 10.2159C49.6907 10.5398 50.1552 10.9766 50.4918 11.5263C50.8285 12.076 50.9968 12.6875 50.9968 13.3608C50.9968 13.8423 50.9094 14.3132 50.7347 14.7734C50.5643 15.2294 50.266 15.7386 49.8398 16.3011C49.418 16.8594 48.832 17.5412 48.082 18.3466L45.1417 21.4915V21.5938H51.2269V23H42.9684Z" fill="white"/>
<path d="M25.0387 47V37.5455H28.4087C29.1443 37.5455 29.7537 37.6793 30.2369 37.9471C30.7201 38.2148 31.0817 38.5811 31.3217 39.0458C31.5618 39.5075 31.6818 40.0276 31.6818 40.6062C31.6818 41.1879 31.5603 41.7111 31.3171 42.1758C31.0771 42.6374 30.7139 43.0037 30.2276 43.2745C29.7444 43.5423 29.1366 43.6761 28.4041 43.6761H26.0866V42.4666H28.2749C28.7396 42.4666 29.1166 42.3866 29.4059 42.2266C29.6952 42.0634 29.9076 41.8419 30.043 41.5618C30.1784 41.2817 30.2461 40.9632 30.2461 40.6062C30.2461 40.2492 30.1784 39.9322 30.043 39.6552C29.9076 39.3782 29.6937 39.1612 29.4013 39.0043C29.112 38.8473 28.7304 38.7688 28.2564 38.7688H26.4652V47H25.0387ZM36.2106 47.1431C35.512 47.1431 34.9103 46.9938 34.4055 46.6953C33.9039 46.3937 33.5161 45.9705 33.2422 45.4258C32.9714 44.878 32.8359 44.2363 32.8359 43.5007C32.8359 42.7744 32.9714 42.1342 33.2422 41.5803C33.5161 41.0263 33.8977 40.5939 34.3871 40.283C34.8795 39.9722 35.455 39.8168 36.1136 39.8168C36.5137 39.8168 36.9015 39.8829 37.277 40.0153C37.6525 40.1476 37.9895 40.3554 38.288 40.6385C38.5865 40.9216 38.822 41.2894 38.9943 41.7418C39.1667 42.1912 39.2528 42.7375 39.2528 43.3807V43.87H33.6161V42.8359H37.9002C37.9002 42.4728 37.8263 42.1512 37.6786 41.8711C37.5309 41.5879 37.3232 41.3648 37.0554 41.2017C36.7907 41.0386 36.4799 40.957 36.1229 40.957C35.7351 40.957 35.3965 41.0524 35.1072 41.2433C34.821 41.431 34.5994 41.6772 34.4425 41.9819C34.2886 42.2835 34.2116 42.6113 34.2116 42.9652V43.7731C34.2116 44.247 34.2947 44.6502 34.4609 44.9826C34.6302 45.315 34.8656 45.5689 35.1673 45.7443C35.4689 45.9167 35.8213 46.0028 36.2244 46.0028C36.486 46.0028 36.7246 45.9659 36.94 45.892C37.1554 45.8151 37.3416 45.7012 37.4986 45.5504C37.6555 45.3996 37.7756 45.2134 37.8587 44.9918L39.1651 45.2273C39.0605 45.612 38.8728 45.949 38.6019 46.2383C38.3342 46.5245 37.9972 46.7476 37.5909 46.9077C37.1877 47.0646 36.7276 47.1431 36.2106 47.1431ZM42.1647 42.7898V47H40.7844V39.9091H42.1093V41.0632H42.197C42.3601 40.6877 42.6156 40.3861 42.9633 40.1584C43.3142 39.9306 43.7558 39.8168 44.2883 39.8168C44.7715 39.8168 45.1946 39.9183 45.5578 40.1214C45.921 40.3215 46.2026 40.62 46.4026 41.017C46.6027 41.4141 46.7027 41.9049 46.7027 42.4897V47H45.3224V42.6559C45.3224 42.1419 45.1885 41.7403 44.9207 41.451C44.653 41.1586 44.2852 41.0124 43.8174 41.0124C43.4973 41.0124 43.2126 41.0817 42.9633 41.2202C42.7171 41.3587 42.5217 41.5618 42.377 41.8295C42.2355 42.0942 42.1647 42.4143 42.1647 42.7898ZM53.8675 41.6403L52.6164 41.8619C52.5641 41.7018 52.481 41.5495 52.3671 41.4048C52.2563 41.2602 52.1055 41.1417 51.9147 41.0494C51.7239 40.957 51.4854 40.9109 51.1991 40.9109C50.8083 40.9109 50.482 40.9986 50.2204 41.174C49.9588 41.3464 49.828 41.5695 49.828 41.8434C49.828 42.0804 49.9157 42.2712 50.0912 42.4158C50.2666 42.5605 50.5497 42.679 50.9406 42.7713L52.067 43.0298C52.7195 43.1806 53.2058 43.413 53.5258 43.7269C53.8459 44.0408 54.0059 44.4486 54.0059 44.9503C54.0059 45.375 53.8828 45.7536 53.6366 46.0859C53.3935 46.4152 53.0534 46.6738 52.6164 46.8615C52.1824 47.0492 51.6792 47.1431 51.1068 47.1431C50.3128 47.1431 49.6649 46.9738 49.1633 46.6353C48.6616 46.2937 48.3538 45.8089 48.24 45.1811L49.5741 44.978C49.6572 45.3258 49.828 45.5889 50.0866 45.7674C50.3451 45.9428 50.6821 46.0305 51.0976 46.0305C51.55 46.0305 51.9116 45.9367 52.1824 45.7489C52.4533 45.5581 52.5887 45.3258 52.5887 45.0518C52.5887 44.8303 52.5056 44.6441 52.3394 44.4933C52.1763 44.3424 51.9255 44.2286 51.5869 44.1516L50.3866 43.8885C49.7249 43.7377 49.2356 43.4976 48.9186 43.1683C48.6047 42.839 48.4477 42.422 48.4477 41.9173C48.4477 41.4987 48.5647 41.1325 48.7986 40.8185C49.0325 40.5046 49.3556 40.2599 49.768 40.0845C50.1804 39.906 50.6528 39.8168 51.1853 39.8168C51.9516 39.8168 52.5548 39.983 52.9949 40.3153C53.435 40.6446 53.7259 41.0863 53.8675 41.6403ZM55.5236 47V39.9091H56.9039V47H55.5236ZM56.2207 38.815C55.9806 38.815 55.7744 38.735 55.6021 38.5749C55.4328 38.4118 55.3482 38.2179 55.3482 37.9933C55.3482 37.7655 55.4328 37.5716 55.6021 37.4116C55.7744 37.2485 55.9806 37.1669 56.2207 37.1669C56.4608 37.1669 56.6654 37.2485 56.8347 37.4116C57.007 37.5716 57.0932 37.7655 57.0932 37.9933C57.0932 38.2179 57.007 38.4118 56.8347 38.5749C56.6654 38.735 56.4608 38.815 56.2207 38.815ZM61.7478 47.1431C61.083 47.1431 60.5029 46.9908 60.0074 46.6861C59.5119 46.3814 59.1272 45.9551 58.8532 45.4073C58.5793 44.8595 58.4424 44.2193 58.4424 43.4869C58.4424 42.7513 58.5793 42.1081 58.8532 41.5572C59.1272 41.0063 59.5119 40.5785 60.0074 40.2738C60.5029 39.9691 61.083 39.8168 61.7478 39.8168C62.4126 39.8168 62.9927 39.9691 63.4882 40.2738C63.9837 40.5785 64.3684 41.0063 64.6423 41.5572C64.9162 42.1081 65.0532 42.7513 65.0532 43.4869C65.0532 44.2193 64.9162 44.8595 64.6423 45.4073C64.3684 45.9551 63.9837 46.3814 63.4882 46.6861C62.9927 46.9908 62.4126 47.1431 61.7478 47.1431ZM61.7524 45.9844C62.1833 45.9844 62.5403 45.8705 62.8234 45.6428C63.1066 45.415 63.3158 45.1119 63.4513 44.7333C63.5898 44.3548 63.659 43.9377 63.659 43.4822C63.659 43.0298 63.5898 42.6143 63.4513 42.2358C63.3158 41.8542 63.1066 41.5479 62.8234 41.3171C62.5403 41.0863 62.1833 40.9709 61.7524 40.9709C61.3184 40.9709 60.9584 41.0863 60.6721 41.3171C60.389 41.5479 60.1782 41.8542 60.0397 42.2358C59.9043 42.6143 59.8366 43.0298 59.8366 43.4822C59.8366 43.9377 59.9043 44.3548 60.0397 44.7333C60.1782 45.1119 60.389 45.415 60.6721 45.6428C60.9584 45.8705 61.3184 45.9844 61.7524 45.9844ZM67.9743 42.7898V47H66.5939V39.9091H67.9189V41.0632H68.0066C68.1697 40.6877 68.4251 40.3861 68.7729 40.1584C69.1238 39.9306 69.5654 39.8168 70.0978 39.8168C70.581 39.8168 71.0042 39.9183 71.3674 40.1214C71.7305 40.3215 72.0121 40.62 72.2122 41.017C72.4122 41.4141 72.5123 41.9049 72.5123 42.4897V47H71.1319V42.6559C71.1319 42.1419 70.998 41.7403 70.7303 41.451C70.4625 41.1586 70.0948 41.0124 69.627 41.0124C69.3069 41.0124 69.0222 41.0817 68.7729 41.2202C68.5267 41.3587 68.3313 41.5618 68.1866 41.8295C68.045 42.0942 67.9743 42.4143 67.9743 42.7898Z" fill="#5C5C5C"/>
</svg>
