<svg width="129" height="36" viewBox="0 0 129 36" fill="none" xmlns="http://www.w3.org/2000/svg">
<path d="M17.3123 24.3474L19.1639 29.7656H19.2386L21.0901 24.3474H22.1751L19.7811 31H18.6214L16.2274 24.3474H17.3123ZM24.0185 31.1104C23.7023 31.1104 23.4165 31.052 23.1609 30.935C22.9054 30.8159 22.7029 30.6438 22.5535 30.4185C22.4062 30.1933 22.3326 29.9172 22.3326 29.5902C22.3326 29.3087 22.3868 29.077 22.495 28.8951C22.6033 28.7132 22.7495 28.5692 22.9336 28.4631C23.1176 28.3569 23.3234 28.2768 23.5507 28.2227C23.7781 28.1685 24.0098 28.1274 24.2459 28.0992C24.5447 28.0646 24.7873 28.0364 24.9735 28.0148C25.1597 27.991 25.2951 27.9531 25.3795 27.9011C25.464 27.8491 25.5062 27.7647 25.5062 27.6477V27.625C25.5062 27.3413 25.4261 27.1215 25.2659 26.9656C25.1078 26.8097 24.8717 26.7317 24.5577 26.7317C24.2307 26.7317 23.973 26.8042 23.7846 26.9493C23.5984 27.0923 23.4695 27.2514 23.3981 27.4268L22.4853 27.2189C22.5936 26.9158 22.7516 26.6711 22.9595 26.4848C23.1696 26.2964 23.4111 26.16 23.6839 26.0755C23.9568 25.9889 24.2437 25.9456 24.5447 25.9456C24.744 25.9456 24.9551 25.9694 25.1781 26.0171C25.4034 26.0625 25.6134 26.147 25.8083 26.2704C26.0054 26.3939 26.1667 26.5704 26.2923 26.7999C26.4179 27.0273 26.4807 27.3229 26.4807 27.6867V31H25.5322V30.3179H25.4932C25.4304 30.4435 25.3362 30.5669 25.2106 30.6882C25.085 30.8094 24.9237 30.9101 24.7266 30.9903C24.5296 31.0704 24.2935 31.1104 24.0185 31.1104ZM24.2296 30.3308C24.4982 30.3308 24.7277 30.2778 24.9183 30.1717C25.111 30.0656 25.2572 29.927 25.3568 29.7559C25.4586 29.5826 25.5095 29.3975 25.5095 29.2004V28.5573C25.4748 28.5919 25.4077 28.6244 25.3081 28.6547C25.2106 28.6829 25.0991 28.7078 24.9735 28.7294C24.8479 28.7489 24.7255 28.7673 24.6064 28.7846C24.4873 28.7998 24.3877 28.8128 24.3076 28.8236C24.1192 28.8474 23.947 28.8875 23.7911 28.9438C23.6374 29.0001 23.5139 29.0813 23.4208 29.1874C23.3299 29.2914 23.2844 29.43 23.2844 29.6032C23.2844 29.8436 23.3732 30.0255 23.5507 30.1489C23.7283 30.2702 23.9546 30.3308 24.2296 30.3308ZM29.876 31.1007C29.3931 31.1007 28.9773 30.9913 28.6287 30.7726C28.2822 30.5517 28.0158 30.2475 27.8296 29.8598C27.6434 29.4722 27.5502 29.0283 27.5502 28.528C27.5502 28.0213 27.6455 27.5741 27.8361 27.1865C28.0267 26.7967 28.2952 26.4924 28.6417 26.2737C28.9882 26.055 29.3964 25.9456 29.8663 25.9456C30.2453 25.9456 30.5831 26.016 30.8798 26.1567C31.1765 26.2953 31.4157 26.4902 31.5977 26.7414C31.7817 26.9926 31.8911 27.2861 31.9257 27.6217H30.9805C30.9285 27.3879 30.8094 27.1865 30.6232 27.0176C30.4391 26.8486 30.1922 26.7642 29.8825 26.7642C29.6118 26.7642 29.3747 26.8356 29.1712 26.9786C28.9698 27.1193 28.8128 27.3207 28.7001 27.5828C28.5875 27.8426 28.5312 28.1501 28.5312 28.5053C28.5312 28.8691 28.5865 29.1831 28.6969 29.4473C28.8073 29.7115 28.9633 29.9161 29.1647 30.0612C29.3682 30.2063 29.6075 30.2789 29.8825 30.2789C30.0666 30.2789 30.2334 30.2453 30.3828 30.1782C30.5344 30.1089 30.6611 30.0103 30.7628 29.8826C30.8668 29.7548 30.9393 29.6011 30.9805 29.4213H31.9257C31.8911 29.744 31.7861 30.032 31.6106 30.2854C31.4352 30.5387 31.2003 30.738 30.9058 30.8831C30.6134 31.0282 30.2702 31.1007 29.876 31.1007ZM34.4164 31.1104C34.1002 31.1104 33.8144 31.052 33.5588 30.935C33.3033 30.8159 33.1008 30.6438 32.9514 30.4185C32.8041 30.1933 32.7305 29.9172 32.7305 29.5902C32.7305 29.3087 32.7846 29.077 32.8929 28.8951C33.0012 28.7132 33.1474 28.5692 33.3314 28.4631C33.5155 28.3569 33.7212 28.2768 33.9486 28.2227C34.176 28.1685 34.4077 28.1274 34.6438 28.0992C34.9426 28.0646 35.1852 28.0364 35.3714 28.0148C35.5576 27.991 35.693 27.9531 35.7774 27.9011C35.8619 27.8491 35.9041 27.7647 35.9041 27.6477V27.625C35.9041 27.3413 35.824 27.1215 35.6637 26.9656C35.5057 26.8097 35.2696 26.7317 34.9556 26.7317C34.6286 26.7317 34.3709 26.8042 34.1825 26.9493C33.9963 27.0923 33.8674 27.2514 33.796 27.4268L32.8832 27.2189C32.9915 26.9158 33.1495 26.6711 33.3574 26.4848C33.5675 26.2964 33.809 26.16 34.0818 26.0755C34.3547 25.9889 34.6416 25.9456 34.9426 25.9456C35.1418 25.9456 35.353 25.9694 35.576 26.0171C35.8013 26.0625 36.0113 26.147 36.2062 26.2704C36.4033 26.3939 36.5646 26.5704 36.6902 26.7999C36.8158 27.0273 36.8786 27.3229 36.8786 27.6867V31H35.9301V30.3179H35.8911C35.8283 30.4435 35.7341 30.5669 35.6085 30.6882C35.4829 30.8094 35.3216 30.9101 35.1245 30.9903C34.9275 31.0704 34.6914 31.1104 34.4164 31.1104ZM34.6275 30.3308C34.8961 30.3308 35.1256 30.2778 35.3162 30.1717C35.5089 30.0656 35.6551 29.927 35.7547 29.7559C35.8565 29.5826 35.9074 29.3975 35.9074 29.2004V28.5573C35.8727 28.5919 35.8056 28.6244 35.706 28.6547C35.6085 28.6829 35.497 28.7078 35.3714 28.7294C35.2458 28.7489 35.1234 28.7673 35.0043 28.7846C34.8852 28.7998 34.7856 28.8128 34.7055 28.8236C34.5171 28.8474 34.3449 28.8875 34.189 28.9438C34.0353 29.0001 33.9118 29.0813 33.8187 29.1874C33.7277 29.2914 33.6823 29.43 33.6823 29.6032C33.6823 29.8436 33.7711 30.0255 33.9486 30.1489C34.1262 30.2702 34.3525 30.3308 34.6275 30.3308ZM40.2739 31.1007C39.791 31.1007 39.3752 30.9913 39.0266 30.7726C38.6801 30.5517 38.4137 30.2475 38.2275 29.8598C38.0413 29.4722 37.9481 29.0283 37.9481 28.528C37.9481 28.0213 38.0434 27.5741 38.234 27.1865C38.4246 26.7967 38.6931 26.4924 39.0396 26.2737C39.3861 26.055 39.7943 25.9456 40.2642 25.9456C40.6432 25.9456 40.981 26.016 41.2777 26.1567C41.5744 26.2953 41.8136 26.4902 41.9956 26.7414C42.1796 26.9926 42.289 27.2861 42.3236 27.6217H41.3784C41.3264 27.3879 41.2073 27.1865 41.0211 27.0176C40.837 26.8486 40.5901 26.7642 40.2804 26.7642C40.0097 26.7642 39.7726 26.8356 39.5691 26.9786C39.3677 27.1193 39.2107 27.3207 39.098 27.5828C38.9854 27.8426 38.9291 28.1501 38.9291 28.5053C38.9291 28.8691 38.9844 29.1831 39.0948 29.4473C39.2052 29.7115 39.3612 29.9161 39.5626 30.0612C39.7661 30.2063 40.0054 30.2789 40.2804 30.2789C40.4645 30.2789 40.6313 30.2453 40.7807 30.1782C40.9323 30.1089 41.0589 30.0103 41.1607 29.8826C41.2647 29.7548 41.3372 29.6011 41.3784 29.4213H42.3236C42.289 29.744 42.184 30.032 42.0085 30.2854C41.8331 30.5387 41.5982 30.738 41.3037 30.8831C41.0113 31.0282 40.6681 31.1007 40.2739 31.1007ZM43.3623 31V26.0106H44.3335V31H43.3623ZM43.8528 25.2407C43.6839 25.2407 43.5388 25.1844 43.4175 25.0718C43.2984 24.957 43.2388 24.8206 43.2388 24.6625C43.2388 24.5023 43.2984 24.3658 43.4175 24.2532C43.5388 24.1385 43.6839 24.0811 43.8528 24.0811C44.0217 24.0811 44.1657 24.1385 44.2848 24.2532C44.4061 24.3658 44.4667 24.5023 44.4667 24.6625C44.4667 24.8206 44.4061 24.957 44.2848 25.0718C44.1657 25.1844 44.0217 25.2407 43.8528 25.2407ZM47.7418 31.1007C47.2741 31.1007 46.8659 30.9935 46.5172 30.7791C46.1686 30.5647 45.8979 30.2648 45.7051 29.8793C45.5124 29.4939 45.416 29.0434 45.416 28.528C45.416 28.0105 45.5124 27.5579 45.7051 27.1702C45.8979 26.7826 46.1686 26.4816 46.5172 26.2672C46.8659 26.0528 47.2741 25.9456 47.7418 25.9456C48.2096 25.9456 48.6178 26.0528 48.9665 26.2672C49.3151 26.4816 49.5858 26.7826 49.7785 27.1702C49.9713 27.5579 50.0676 28.0105 50.0676 28.528C50.0676 29.0434 49.9713 29.4939 49.7785 29.8793C49.5858 30.2648 49.3151 30.5647 48.9665 30.7791C48.6178 30.9935 48.2096 31.1007 47.7418 31.1007ZM47.7451 30.2854C48.0483 30.2854 48.2995 30.2052 48.4987 30.045C48.6979 29.8847 48.8452 29.6714 48.9405 29.4051C49.0379 29.1387 49.0866 28.8453 49.0866 28.5248C49.0866 28.2064 49.0379 27.9141 48.9405 27.6477C48.8452 27.3792 48.6979 27.1637 48.4987 27.0013C48.2995 26.8389 48.0483 26.7577 47.7451 26.7577C47.4397 26.7577 47.1864 26.8389 46.985 27.0013C46.7857 27.1637 46.6374 27.3792 46.54 27.6477C46.4447 27.9141 46.397 28.2064 46.397 28.5248C46.397 28.8453 46.4447 29.1387 46.54 29.4051C46.6374 29.6714 46.7857 29.8847 46.985 30.045C47.1864 30.2052 47.4397 30.2854 47.7451 30.2854ZM52.123 28.0375V31H51.1518V26.0106H52.084V26.8227H52.1458C52.2605 26.5585 52.4403 26.3462 52.685 26.186C52.9319 26.0257 53.2426 25.9456 53.6173 25.9456C53.9572 25.9456 54.255 26.0171 54.5105 26.16C54.7661 26.3008 54.9642 26.5108 55.105 26.7902C55.2457 27.0695 55.3161 27.4149 55.3161 27.8264V31H54.3449V27.9433C54.3449 27.5817 54.2507 27.2991 54.0623 27.0955C53.8739 26.8898 53.6151 26.7869 53.2859 26.7869C53.0607 26.7869 52.8604 26.8356 52.685 26.9331C52.5117 27.0305 52.3742 27.1735 52.2724 27.3619C52.1728 27.5481 52.123 27.7733 52.123 28.0375ZM58.7691 31.1007C58.2775 31.1007 57.8542 30.9957 57.499 30.7856C57.146 30.5734 56.8732 30.2756 56.6804 29.8923C56.4899 29.5069 56.3946 29.0553 56.3946 28.5378C56.3946 28.0267 56.4899 27.5763 56.6804 27.1865C56.8732 26.7967 57.1417 26.4924 57.486 26.2737C57.8325 26.055 58.2375 25.9456 58.7009 25.9456C58.9824 25.9456 59.2553 25.9922 59.5195 26.0853C59.7837 26.1784 60.0208 26.3246 60.2308 26.5238C60.4409 26.723 60.6066 26.9818 60.7278 27.3002C60.8491 27.6163 60.9097 28.0007 60.9097 28.4533V28.7976H56.9435V28.07H59.958C59.958 27.8145 59.906 27.5882 59.8021 27.3911C59.6981 27.1919 59.5519 27.0349 59.3635 26.9201C59.1773 26.8053 58.9586 26.7479 58.7074 26.7479C58.4345 26.7479 58.1963 26.8151 57.9927 26.9493C57.7914 27.0814 57.6354 27.2547 57.525 27.4691C57.4167 27.6813 57.3626 27.9119 57.3626 28.161V28.7294C57.3626 29.0629 57.421 29.3466 57.538 29.5805C57.6571 29.8144 57.8228 29.993 58.035 30.1165C58.2472 30.2377 58.4952 30.2984 58.7788 30.2984C58.9629 30.2984 59.1307 30.2724 59.2823 30.2204C59.4339 30.1663 59.5649 30.0861 59.6754 29.98C59.7858 29.8739 59.8703 29.7429 59.9288 29.587L60.848 29.7526C60.7744 30.0233 60.6423 30.2605 60.4517 30.464C60.2633 30.6654 60.0262 30.8224 59.7403 30.935C59.4567 31.0455 59.1329 31.1007 58.7691 31.1007ZM65.7262 27.2287L64.8459 27.3846C64.8091 27.272 64.7506 27.1648 64.6705 27.063C64.5925 26.9612 64.4864 26.8779 64.3522 26.8129C64.2179 26.7479 64.0501 26.7155 63.8487 26.7155C63.5736 26.7155 63.3441 26.7772 63.16 26.9006C62.976 27.0219 62.8839 27.1789 62.8839 27.3716C62.8839 27.5384 62.9456 27.6726 63.0691 27.7744C63.1925 27.8762 63.3917 27.9596 63.6668 28.0245L64.4594 28.2064C64.9185 28.3126 65.2606 28.476 65.4858 28.6969C65.711 28.9178 65.8237 29.2048 65.8237 29.5577C65.8237 29.8566 65.737 30.123 65.5638 30.3568C65.3927 30.5885 65.1534 30.7705 64.8459 30.9026C64.5406 31.0346 64.1865 31.1007 63.7837 31.1007C63.225 31.1007 62.7691 30.9816 62.4162 30.7434C62.0632 30.503 61.8466 30.1619 61.7665 29.7202L62.7053 29.5772C62.7637 29.8219 62.8839 30.0071 63.0658 30.1327C63.2477 30.2561 63.4849 30.3179 63.7772 30.3179C64.0955 30.3179 64.35 30.2518 64.5406 30.1197C64.7311 29.9854 64.8264 29.8219 64.8264 29.6292C64.8264 29.4733 64.7679 29.3423 64.651 29.2362C64.5362 29.13 64.3597 29.0499 64.1215 28.9958L63.277 28.8106C62.8114 28.7045 62.467 28.5356 62.244 28.3039C62.0231 28.0722 61.9127 27.7787 61.9127 27.4236C61.9127 27.1291 61.995 26.8714 62.1595 26.6505C62.3241 26.4296 62.5515 26.2574 62.8417 26.134C63.1319 26.0084 63.4643 25.9456 63.8389 25.9456C64.3781 25.9456 64.8026 26.0625 65.1123 26.2964C65.4219 26.5281 65.6266 26.8389 65.7262 27.2287ZM71.544 31H69.3903V24.3474H71.6122C72.264 24.3474 72.8238 24.4806 73.2916 24.747C73.7593 25.0112 74.1177 25.3912 74.3668 25.8871C74.618 26.3809 74.7436 26.9732 74.7436 27.664C74.7436 28.3569 74.6169 28.9525 74.3635 29.4505C74.1123 29.9486 73.7485 30.3319 73.2721 30.6005C72.7956 30.8668 72.2196 31 71.544 31ZM70.394 30.123H71.4887C71.9955 30.123 72.4167 30.0277 72.7523 29.8371C73.088 29.6444 73.3392 29.3661 73.5059 29.0023C73.6727 28.6363 73.7561 28.1902 73.7561 27.664C73.7561 27.1421 73.6727 26.6992 73.5059 26.3354C73.3414 25.9716 73.0956 25.6955 72.7686 25.5071C72.4416 25.3187 72.0355 25.2245 71.5505 25.2245H70.394V30.123ZM75.9138 31V26.0106H76.885V31H75.9138ZM76.4043 25.2407C76.2354 25.2407 76.0903 25.1844 75.969 25.0718C75.8499 24.957 75.7903 24.8206 75.7903 24.6625C75.7903 24.5023 75.8499 24.3658 75.969 24.2532C76.0903 24.1385 76.2354 24.0811 76.4043 24.0811C76.5732 24.0811 76.7172 24.1385 76.8363 24.2532C76.9576 24.3658 77.0182 24.5023 77.0182 24.6625C77.0182 24.8206 76.9576 24.957 76.8363 25.0718C76.7172 25.1844 76.5732 25.2407 76.4043 25.2407ZM79.6437 31.1104C79.3275 31.1104 79.0416 31.052 78.7861 30.935C78.5306 30.8159 78.3281 30.6438 78.1787 30.4185C78.0314 30.1933 77.9578 29.9172 77.9578 29.5902C77.9578 29.3087 78.0119 29.077 78.1202 28.8951C78.2285 28.7132 78.3746 28.5692 78.5587 28.4631C78.7428 28.3569 78.9485 28.2768 79.1759 28.2227C79.4033 28.1685 79.635 28.1274 79.871 28.0992C80.1699 28.0646 80.4124 28.0364 80.5987 28.0148C80.7849 27.991 80.9203 27.9531 81.0047 27.9011C81.0892 27.8491 81.1314 27.7647 81.1314 27.6477V27.625C81.1314 27.3413 81.0513 27.1215 80.891 26.9656C80.7329 26.8097 80.4969 26.7317 80.1829 26.7317C79.8559 26.7317 79.5982 26.8042 79.4098 26.9493C79.2235 27.0923 79.0947 27.2514 79.0232 27.4268L78.1105 27.2189C78.2187 26.9158 78.3768 26.6711 78.5847 26.4848C78.7948 26.2964 79.0362 26.16 79.3091 26.0755C79.5819 25.9889 79.8689 25.9456 80.1699 25.9456C80.3691 25.9456 80.5803 25.9694 80.8033 26.0171C81.0285 26.0625 81.2386 26.147 81.4335 26.2704C81.6306 26.3939 81.7919 26.5704 81.9175 26.7999C82.0431 27.0273 82.1059 27.3229 82.1059 27.6867V31H81.1574V30.3179H81.1184C81.0556 30.4435 80.9614 30.5669 80.8358 30.6882C80.7102 30.8094 80.5489 30.9101 80.3518 30.9903C80.1547 31.0704 79.9187 31.1104 79.6437 31.1104ZM79.8548 30.3308C80.1233 30.3308 80.3529 30.2778 80.5434 30.1717C80.7362 30.0656 80.8824 29.927 80.982 29.7559C81.0838 29.5826 81.1346 29.3975 81.1346 29.2004V28.5573C81.1 28.5919 81.0329 28.6244 80.9332 28.6547C80.8358 28.6829 80.7243 28.7078 80.5987 28.7294C80.4731 28.7489 80.3507 28.7673 80.2316 28.7846C80.1125 28.7998 80.0129 28.8128 79.9328 28.8236C79.7444 28.8474 79.5722 28.8875 79.4163 28.9438C79.2625 29.0001 79.1391 29.0813 79.046 29.1874C78.955 29.2914 78.9095 29.43 78.9095 29.6032C78.9095 29.8436 78.9983 30.0255 79.1759 30.1489C79.3535 30.2702 79.5798 30.3308 79.8548 30.3308ZM87.1384 27.2287L86.2581 27.3846C86.2213 27.272 86.1628 27.1648 86.0827 27.063C86.0047 26.9612 85.8986 26.8779 85.7643 26.8129C85.6301 26.7479 85.4622 26.7155 85.2608 26.7155C84.9858 26.7155 84.7563 26.7772 84.5722 26.9006C84.3881 27.0219 84.2961 27.1789 84.2961 27.3716C84.2961 27.5384 84.3578 27.6726 84.4812 27.7744C84.6047 27.8762 84.8039 27.9596 85.0789 28.0245L85.8715 28.2064C86.3306 28.3126 86.6728 28.476 86.898 28.6969C87.1232 28.9178 87.2358 29.2048 87.2358 29.5577C87.2358 29.8566 87.1492 30.123 86.9759 30.3568C86.8049 30.5885 86.5656 30.7705 86.2581 30.9026C85.9527 31.0346 85.5987 31.1007 85.1959 31.1007C84.6372 31.1007 84.1813 30.9816 83.8283 30.7434C83.4753 30.503 83.2588 30.1619 83.1787 29.7202L84.1174 29.5772C84.1759 29.8219 84.2961 30.0071 84.478 30.1327C84.6599 30.2561 84.897 30.3179 85.1894 30.3179C85.5077 30.3179 85.7622 30.2518 85.9527 30.1197C86.1433 29.9854 86.2386 29.8219 86.2386 29.6292C86.2386 29.4733 86.1801 29.3423 86.0632 29.2362C85.9484 29.13 85.7719 29.0499 85.5337 28.9958L84.6891 28.8106C84.2235 28.7045 83.8792 28.5356 83.6562 28.3039C83.4353 28.0722 83.3248 27.7787 83.3248 27.4236C83.3248 27.1291 83.4071 26.8714 83.5717 26.6505C83.7363 26.4296 83.9637 26.2574 84.2539 26.134C84.544 26.0084 84.8764 25.9456 85.2511 25.9456C85.7903 25.9456 86.2148 26.0625 86.5244 26.2964C86.8341 26.5281 87.0388 26.8389 87.1384 27.2287ZM90.8025 31V24.3474H94.9279V25.2115H91.8062V27.2384H94.6323V28.0992H91.8062V31H90.8025ZM97.8684 31.1007C97.3768 31.1007 96.9535 30.9957 96.5983 30.7856C96.2453 30.5734 95.9725 30.2756 95.7797 29.8923C95.5892 29.5069 95.4939 29.0553 95.4939 28.5378C95.4939 28.0267 95.5892 27.5763 95.7797 27.1865C95.9725 26.7967 96.241 26.4924 96.5853 26.2737C96.9318 26.055 97.3368 25.9456 97.8002 25.9456C98.0817 25.9456 98.3546 25.9922 98.6188 26.0853C98.883 26.1784 99.1201 26.3246 99.3301 26.5238C99.5402 26.723 99.7059 26.9818 99.8271 27.3002C99.9484 27.6163 100.009 28.0007 100.009 28.4533V28.7976H96.0428V28.07H99.0573C99.0573 27.8145 99.0053 27.5882 98.9014 27.3911C98.7974 27.1919 98.6512 27.0349 98.4628 26.9201C98.2766 26.8053 98.0579 26.7479 97.8067 26.7479C97.5338 26.7479 97.2956 26.8151 97.0921 26.9493C96.8907 27.0814 96.7347 27.2547 96.6243 27.4691C96.516 27.6813 96.4619 27.9119 96.4619 28.161V28.7294C96.4619 29.0629 96.5203 29.3466 96.6373 29.5805C96.7564 29.8144 96.9221 29.993 97.1343 30.1165C97.3465 30.2377 97.5945 30.2984 97.8781 30.2984C98.0622 30.2984 98.23 30.2724 98.3816 30.2204C98.5332 30.1663 98.6642 30.0861 98.7747 29.98C98.8851 29.8739 98.9696 29.7429 99.0281 29.587L99.9473 29.7526C99.8737 30.0233 99.7416 30.2605 99.551 30.464C99.3626 30.6654 99.1255 30.8224 98.8397 30.935C98.556 31.0455 98.2322 31.1007 97.8684 31.1007ZM104.826 27.2287L103.945 27.3846C103.908 27.272 103.85 27.1648 103.77 27.063C103.692 26.9612 103.586 26.8779 103.451 26.8129C103.317 26.7479 103.149 26.7155 102.948 26.7155C102.673 26.7155 102.443 26.7772 102.259 26.9006C102.075 27.0219 101.983 27.1789 101.983 27.3716C101.983 27.5384 102.045 27.6726 102.168 27.7744C102.292 27.8762 102.491 27.9596 102.766 28.0245L103.559 28.2064C104.018 28.3126 104.36 28.476 104.585 28.6969C104.81 28.9178 104.923 29.2048 104.923 29.5577C104.923 29.8566 104.836 30.123 104.663 30.3568C104.492 30.5885 104.253 30.7705 103.945 30.9026C103.64 31.0346 103.286 31.1007 102.883 31.1007C102.324 31.1007 101.868 30.9816 101.515 30.7434C101.162 30.503 100.946 30.1619 100.866 29.7202L101.805 29.5772C101.863 29.8219 101.983 30.0071 102.165 30.1327C102.347 30.2561 102.584 30.3179 102.877 30.3179C103.195 30.3179 103.449 30.2518 103.64 30.1197C103.83 29.9854 103.926 29.8219 103.926 29.6292C103.926 29.4733 103.867 29.3423 103.75 29.2362C103.636 29.13 103.459 29.0499 103.221 28.9958L102.376 28.8106C101.911 28.7045 101.566 28.5356 101.343 28.3039C101.122 28.0722 101.012 27.7787 101.012 27.4236C101.012 27.1291 101.094 26.8714 101.259 26.6505C101.423 26.4296 101.651 26.2574 101.941 26.134C102.231 26.0084 102.564 25.9456 102.938 25.9456C103.477 25.9456 103.902 26.0625 104.212 26.2964C104.521 26.5281 104.726 26.8389 104.826 27.2287ZM108.32 26.0106V26.7902H105.595V26.0106H108.32ZM106.325 24.8152H107.297V29.535C107.297 29.7234 107.325 29.8653 107.381 29.9605C107.437 30.0537 107.51 30.1175 107.599 30.1522C107.69 30.1847 107.788 30.2009 107.894 30.2009C107.972 30.2009 108.041 30.1955 108.099 30.1847C108.157 30.1738 108.203 30.1652 108.235 30.1587L108.411 30.961C108.355 30.9827 108.274 31.0043 108.17 31.026C108.067 31.0498 107.937 31.0628 107.781 31.065C107.525 31.0693 107.287 31.0238 107.066 30.9285C106.845 30.8333 106.666 30.686 106.53 30.4868C106.394 30.2875 106.325 30.0374 106.325 29.7364V24.8152ZM109.394 31V26.0106H110.366V31H109.394ZM109.885 25.2407C109.716 25.2407 109.571 25.1844 109.449 25.0718C109.33 24.957 109.271 24.8206 109.271 24.6625C109.271 24.5023 109.33 24.3658 109.449 24.2532C109.571 24.1385 109.716 24.0811 109.885 24.0811C110.054 24.0811 110.198 24.1385 110.317 24.2532C110.438 24.3658 110.499 24.5023 110.499 24.6625C110.499 24.8206 110.438 24.957 110.317 25.0718C110.198 25.1844 110.054 25.2407 109.885 25.2407ZM115.94 26.0106L114.131 31H113.092L111.279 26.0106H112.322L113.585 29.8501H113.637L114.898 26.0106H115.94ZM118.785 31.1007C118.317 31.1007 117.909 30.9935 117.561 30.7791C117.212 30.5647 116.941 30.2648 116.748 29.8793C116.556 29.4939 116.459 29.0434 116.459 28.528C116.459 28.0105 116.556 27.5579 116.748 27.1702C116.941 26.7826 117.212 26.4816 117.561 26.2672C117.909 26.0528 118.317 25.9456 118.785 25.9456C119.253 25.9456 119.661 26.0528 120.01 26.2672C120.358 26.4816 120.629 26.7826 120.822 27.1702C121.015 27.5579 121.111 28.0105 121.111 28.528C121.111 29.0434 121.015 29.4939 120.822 29.8793C120.629 30.2648 120.358 30.5647 120.01 30.7791C119.661 30.9935 119.253 31.1007 118.785 31.1007ZM118.788 30.2854C119.092 30.2854 119.343 30.2052 119.542 30.045C119.741 29.8847 119.889 29.6714 119.984 29.4051C120.081 29.1387 120.13 28.8453 120.13 28.5248C120.13 28.2064 120.081 27.9141 119.984 27.6477C119.889 27.3792 119.741 27.1637 119.542 27.0013C119.343 26.8389 119.092 26.7577 118.788 26.7577C118.483 26.7577 118.23 26.8389 118.028 27.0013C117.829 27.1637 117.681 27.3792 117.583 27.6477C117.488 27.9141 117.44 28.2064 117.44 28.5248C117.44 28.8453 117.488 29.1387 117.583 29.4051C117.681 29.6714 117.829 29.8847 118.028 30.045C118.23 30.2052 118.483 30.2854 118.788 30.2854ZM125.934 27.2287L125.054 27.3846C125.017 27.272 124.958 27.1648 124.878 27.063C124.8 26.9612 124.694 26.8779 124.56 26.8129C124.426 26.7479 124.258 26.7155 124.056 26.7155C123.781 26.7155 123.552 26.7772 123.368 26.9006C123.184 27.0219 123.092 27.1789 123.092 27.3716C123.092 27.5384 123.153 27.6726 123.277 27.7744C123.4 27.8762 123.599 27.9596 123.875 28.0245L124.667 28.2064C125.126 28.3126 125.468 28.476 125.694 28.6969C125.919 28.9178 126.031 29.2048 126.031 29.5577C126.031 29.8566 125.945 30.123 125.772 30.3568C125.6 30.5885 125.361 30.7705 125.054 30.9026C124.748 31.0346 124.394 31.1007 123.991 31.1007C123.433 31.1007 122.977 30.9816 122.624 30.7434C122.271 30.503 122.054 30.1619 121.974 29.7202L122.913 29.5772C122.971 29.8219 123.092 30.0071 123.274 30.1327C123.455 30.2561 123.693 30.3179 123.985 30.3179C124.303 30.3179 124.558 30.2518 124.748 30.1197C124.939 29.9854 125.034 29.8219 125.034 29.6292C125.034 29.4733 124.976 29.3423 124.859 29.2362C124.744 29.13 124.567 29.0499 124.329 28.9958L123.485 28.8106C123.019 28.7045 122.675 28.5356 122.452 28.3039C122.231 28.0722 122.12 27.7787 122.12 27.4236C122.12 27.1291 122.203 26.8714 122.367 26.6505C122.532 26.4296 122.759 26.2574 123.049 26.134C123.34 26.0084 123.672 25.9456 124.047 25.9456C124.586 25.9456 125.01 26.0625 125.32 26.2964C125.63 26.5281 125.834 26.8389 125.934 27.2287Z" fill="#5C5C5C"/>
<path d="M0 0.728333H41.0373L58.5 10.4958L41.0373 20.2632H12.2239V35.7283H0V0.728333Z" fill="#F3B754"/>
<path d="M8.62901 6.43762L11.4504 14.4378H11.5618L14.3832 6.43762H15.5897L12.1001 15.9413H10.9121L7.42249 6.43762H8.62901ZM16.6431 15.9413H15.4366L18.9262 6.43762H20.1142L23.6038 15.9413H22.3973L19.5573 7.94113H19.4831L16.6431 15.9413ZM17.0886 12.2289H21.9518V13.2498H17.0886V12.2289ZM32.285 9.40752H31.1341C31.0661 9.0765 30.947 8.7857 30.7768 8.53511C30.6097 8.28453 30.4056 8.07416 30.1643 7.90401C29.9261 7.73077 29.6615 7.60083 29.3707 7.51421C29.0799 7.42759 28.7768 7.38428 28.4612 7.38428C27.8858 7.38428 27.3645 7.52968 26.8974 7.82048C26.4333 8.11128 26.0636 8.53975 25.7883 9.10589C25.5161 9.67203 25.3799 10.3666 25.3799 11.1895C25.3799 12.0124 25.5161 12.7069 25.7883 13.273C26.0636 13.8392 26.4333 14.2676 26.8974 14.5584C27.3645 14.8492 27.8858 14.9946 28.4612 14.9946C28.7768 14.9946 29.0799 14.9513 29.3707 14.8647C29.6615 14.7781 29.9261 14.6497 30.1643 14.4796C30.4056 14.3063 30.6097 14.0944 30.7768 13.8438C30.947 13.5901 31.0661 13.2993 31.1341 12.9714H32.285C32.1983 13.4571 32.0406 13.8918 31.8116 14.2754C31.5827 14.659 31.2981 14.9854 30.9578 15.2545C30.6175 15.5206 30.2354 15.7232 29.8116 15.8624C29.3909 16.0016 28.9407 16.0712 28.4612 16.0712C27.6507 16.0712 26.9299 15.8732 26.2988 15.4773C25.6677 15.0813 25.1711 14.5182 24.8092 13.7881C24.4472 13.058 24.2662 12.1918 24.2662 11.1895C24.2662 10.1871 24.4472 9.3209 24.8092 8.5908C25.1711 7.8607 25.6677 7.29766 26.2988 6.90167C26.9299 6.50568 27.6507 6.30769 28.4612 6.30769C28.9407 6.30769 29.3909 6.3773 29.8116 6.51651C30.2354 6.65572 30.6175 6.8599 30.9578 7.12905C31.2981 7.3951 31.5827 7.71994 31.8116 8.10355C32.0406 8.48407 32.1983 8.91872 32.285 9.40752ZM33.9776 15.9413V15.106L37.1145 11.6721C37.4827 11.2699 37.7858 10.9203 38.0241 10.6233C38.2623 10.3232 38.4386 10.0417 38.5531 9.77876C38.6706 9.51271 38.7294 9.23428 38.7294 8.94347C38.7294 8.60936 38.649 8.32011 38.4881 8.07571C38.3303 7.83131 38.1138 7.6426 37.8384 7.50957C37.5631 7.37654 37.2537 7.31003 36.9103 7.31003C36.5453 7.31003 36.2266 7.38582 35.9544 7.53741C35.6853 7.68591 35.4764 7.89473 35.3279 8.16388C35.1825 8.43302 35.1098 8.74857 35.1098 9.11053H34.0147C34.0147 8.55367 34.1431 8.06488 34.3999 7.64414C34.6566 7.22341 35.0062 6.89548 35.4486 6.66036C35.8941 6.42525 36.3937 6.30769 36.9475 6.30769C37.5043 6.30769 37.9978 6.42525 38.4278 6.66036C38.8578 6.89548 39.195 7.21258 39.4394 7.61166C39.6838 8.01074 39.806 8.45468 39.806 8.94347C39.806 9.29306 39.7426 9.6349 39.6157 9.96902C39.492 10.3 39.2754 10.6697 38.9661 11.0781C38.6598 11.4834 38.2344 11.9783 37.6899 12.563L35.5553 14.8461V14.9204H39.9731V15.9413H33.9776Z" fill="white"/>
</svg>
