<svg width="79" height="37" viewBox="0 0 79 37" fill="none" xmlns="http://www.w3.org/2000/svg">
<path d="M20.3593 28.555C20.3246 28.2475 20.1817 28.0093 19.9305 27.8404C19.6793 27.6693 19.3631 27.5838 18.982 27.5838C18.7091 27.5838 18.4731 27.6271 18.2738 27.7137C18.0746 27.7982 17.9198 27.9151 17.8093 28.0645C17.701 28.2118 17.6469 28.3796 17.6469 28.568C17.6469 28.7261 17.6837 28.8625 17.7573 28.9773C17.8331 29.0921 17.9317 29.1884 18.0529 29.2664C18.1764 29.3422 18.3085 29.4061 18.4492 29.4581C18.59 29.5079 18.7253 29.549 18.8553 29.5815L19.5049 29.7504C19.7172 29.8024 19.9348 29.8728 20.1579 29.9615C20.3809 30.0503 20.5877 30.1673 20.7783 30.3124C20.9689 30.4575 21.1226 30.6372 21.2396 30.8516C21.3587 31.066 21.4182 31.3226 21.4182 31.6214C21.4182 31.9982 21.3208 32.3328 21.1259 32.6252C20.9331 32.9175 20.6527 33.1482 20.2845 33.3171C19.9186 33.486 19.4757 33.5704 18.956 33.5704C18.4579 33.5704 18.027 33.4914 17.6631 33.3333C17.2993 33.1752 17.0146 32.9511 16.8088 32.6609C16.6031 32.3686 16.4894 32.0221 16.4678 31.6214H17.4747C17.4942 31.8618 17.5722 32.0621 17.7086 32.2224C17.8472 32.3805 18.0237 32.4985 18.2381 32.5764C18.4547 32.6522 18.6918 32.6901 18.9495 32.6901C19.2332 32.6901 19.4855 32.6457 19.7063 32.557C19.9294 32.466 20.1048 32.3404 20.2326 32.1802C20.3603 32.0177 20.4242 31.8282 20.4242 31.6117C20.4242 31.4146 20.3679 31.2533 20.2553 31.1277C20.1449 31.0021 19.9944 30.8981 19.8038 30.8159C19.6154 30.7336 19.4021 30.661 19.1639 30.5982L18.3778 30.3838C17.845 30.2387 17.4228 30.0254 17.1109 29.7439C16.8013 29.4624 16.6464 29.0899 16.6464 28.6265C16.6464 28.2432 16.7504 27.9086 16.9583 27.6227C17.1661 27.3369 17.4477 27.1149 17.8028 26.9568C18.158 26.7966 18.5586 26.7165 19.0047 26.7165C19.4551 26.7165 19.8525 26.7955 20.1968 26.9536C20.5433 27.1117 20.8162 27.3293 21.0154 27.6065C21.2146 27.8815 21.3186 28.1977 21.3273 28.555H20.3593ZM23.9917 33.5704C23.6755 33.5704 23.3897 33.512 23.1341 33.395C22.8786 33.2759 22.6761 33.1038 22.5267 32.8785C22.3794 32.6533 22.3058 32.3772 22.3058 32.0502C22.3058 31.7687 22.36 31.537 22.4682 31.3551C22.5765 31.1732 22.7227 31.0292 22.9068 30.923C23.0908 30.8169 23.2966 30.7368 23.5239 30.6827C23.7513 30.6285 23.983 30.5874 24.2191 30.5592C24.5179 30.5246 24.7605 30.4964 24.9467 30.4748C25.1329 30.451 25.2683 30.4131 25.3527 30.3611C25.4372 30.3091 25.4794 30.2247 25.4794 30.1077V30.085C25.4794 29.8013 25.3993 29.5815 25.2391 29.4256C25.081 29.2696 24.8449 29.1917 24.5309 29.1917C24.2039 29.1917 23.9462 29.2642 23.7578 29.4093C23.5716 29.5523 23.4427 29.7114 23.3713 29.8868L22.4585 29.6789C22.5668 29.3758 22.7248 29.1311 22.9327 28.9448C23.1428 28.7564 23.3843 28.62 23.6571 28.5355C23.93 28.4489 24.2169 28.4056 24.5179 28.4056C24.7172 28.4056 24.9283 28.4294 25.1513 28.4771C25.3766 28.5225 25.5866 28.607 25.7815 28.7304C25.9786 28.8539 26.1399 29.0304 26.2655 29.2599C26.3911 29.4873 26.4539 29.7829 26.4539 30.1467V33.46H25.5054V32.7778H25.4664C25.4036 32.9034 25.3094 33.0269 25.1838 33.1482C25.0582 33.2694 24.8969 33.3701 24.6998 33.4502C24.5028 33.5304 24.2667 33.5704 23.9917 33.5704ZM24.2028 32.7908C24.4714 32.7908 24.7009 32.7378 24.8915 32.6317C25.0842 32.5256 25.2304 32.387 25.33 32.2159C25.4318 32.0426 25.4827 31.8575 25.4827 31.6604V31.0172C25.448 31.0519 25.3809 31.0844 25.2813 31.1147C25.1838 31.1429 25.0723 31.1678 24.9467 31.1894C24.8211 31.2089 24.6987 31.2273 24.5796 31.2446C24.4605 31.2598 24.3609 31.2728 24.2808 31.2836C24.0924 31.3074 23.9202 31.3475 23.7643 31.4038C23.6106 31.4601 23.4871 31.5413 23.394 31.6474C23.3031 31.7514 23.2576 31.89 23.2576 32.0632C23.2576 32.3036 23.3464 32.4855 23.5239 32.6089C23.7015 32.7302 23.9278 32.7908 24.2028 32.7908ZM28.7188 26.8074V33.46H27.7476V26.8074H28.7188ZM31.4775 33.5704C31.1613 33.5704 30.8754 33.512 30.6199 33.395C30.3644 33.2759 30.1619 33.1038 30.0125 32.8785C29.8652 32.6533 29.7916 32.3772 29.7916 32.0502C29.7916 31.7687 29.8457 31.537 29.954 31.3551C30.0623 31.1732 30.2085 31.0292 30.3925 30.923C30.5766 30.8169 30.7823 30.7368 31.0097 30.6827C31.2371 30.6285 31.4688 30.5874 31.7048 30.5592C32.0037 30.5246 32.2462 30.4964 32.4325 30.4748C32.6187 30.451 32.7541 30.4131 32.8385 30.3611C32.923 30.3091 32.9652 30.2247 32.9652 30.1077V30.085C32.9652 29.8013 32.8851 29.5815 32.7248 29.4256C32.5667 29.2696 32.3307 29.1917 32.0167 29.1917C31.6897 29.1917 31.432 29.2642 31.2436 29.4093C31.0574 29.5523 30.9285 29.7114 30.857 29.8868L29.9443 29.6789C30.0525 29.3758 30.2106 29.1311 30.4185 28.9448C30.6286 28.7564 30.87 28.62 31.1429 28.5355C31.4157 28.4489 31.7027 28.4056 32.0037 28.4056C32.2029 28.4056 32.4141 28.4294 32.6371 28.4771C32.8623 28.5225 33.0724 28.607 33.2673 28.7304C33.4644 28.8539 33.6257 29.0304 33.7513 29.2599C33.8769 29.4873 33.9397 29.7829 33.9397 30.1467V33.46H32.9912V32.7778H32.9522C32.8894 32.9034 32.7952 33.0269 32.6696 33.1482C32.544 33.2694 32.3827 33.3701 32.1856 33.4502C31.9885 33.5304 31.7525 33.5704 31.4775 33.5704ZM31.6886 32.7908C31.9571 32.7908 32.1867 32.7378 32.3773 32.6317C32.57 32.5256 32.7162 32.387 32.8158 32.2159C32.9176 32.0426 32.9684 31.8575 32.9684 31.6604V31.0172C32.9338 31.0519 32.8667 31.0844 32.7671 31.1147C32.6696 31.1429 32.5581 31.1678 32.4325 31.1894C32.3069 31.2089 32.1845 31.2273 32.0654 31.2446C31.9463 31.2598 31.8467 31.2728 31.7666 31.2836C31.5782 31.3074 31.406 31.3475 31.2501 31.4038C31.0963 31.4601 30.9729 31.5413 30.8798 31.6474C30.7888 31.7514 30.7433 31.89 30.7433 32.0632C30.7433 32.3036 30.8321 32.4855 31.0097 32.6089C31.1873 32.7302 31.4136 32.7908 31.6886 32.7908ZM35.2333 33.46V28.4706H36.1721V29.2632H36.2241C36.315 28.9946 36.4753 28.7835 36.7048 28.6297C36.9366 28.4738 37.1986 28.3958 37.4909 28.3958C37.5516 28.3958 37.623 28.398 37.7053 28.4023C37.7898 28.4067 37.8558 28.4121 37.9035 28.4186V29.3476C37.8645 29.3368 37.7952 29.3249 37.6956 29.3119C37.596 29.2967 37.4963 29.2891 37.3967 29.2891C37.1672 29.2891 36.9625 29.3379 36.7828 29.4353C36.6052 29.5306 36.4645 29.6638 36.3605 29.8349C36.2566 30.0038 36.2046 30.1965 36.2046 30.4131V33.46H35.2333ZM38.744 33.46V28.4706H39.7152V33.46H38.744ZM39.2345 27.7007C39.0656 27.7007 38.9205 27.6444 38.7992 27.5318C38.6801 27.417 38.6205 27.2806 38.6205 27.1225C38.6205 26.9623 38.6801 26.8258 38.7992 26.7132C38.9205 26.5984 39.0656 26.5411 39.2345 26.5411C39.4034 26.5411 39.5474 26.5984 39.6665 26.7132C39.7878 26.8258 39.8484 26.9623 39.8484 27.1225C39.8484 27.2806 39.7878 27.417 39.6665 27.5318C39.5474 27.6444 39.4034 27.7007 39.2345 27.7007ZM43.1235 33.5607C42.6558 33.5607 42.2476 33.4535 41.8989 33.2391C41.5503 33.0247 41.2796 32.7248 41.0868 32.3393C40.8941 31.9539 40.7977 31.5034 40.7977 30.988C40.7977 30.4704 40.8941 30.0178 41.0868 29.6302C41.2796 29.2426 41.5503 28.9416 41.8989 28.7272C42.2476 28.5128 42.6558 28.4056 43.1235 28.4056C43.5913 28.4056 43.9995 28.5128 44.3482 28.7272C44.6968 28.9416 44.9675 29.2426 45.1602 29.6302C45.353 30.0178 45.4493 30.4704 45.4493 30.988C45.4493 31.5034 45.353 31.9539 45.1602 32.3393C44.9675 32.7248 44.6968 33.0247 44.3482 33.2391C43.9995 33.4535 43.5913 33.5607 43.1235 33.5607ZM43.1268 32.7454C43.43 32.7454 43.6812 32.6652 43.8804 32.505C44.0796 32.3447 44.2269 32.1314 44.3222 31.8651C44.4196 31.5987 44.4683 31.3053 44.4683 30.9848C44.4683 30.6664 44.4196 30.3741 44.3222 30.1077C44.2269 29.8392 44.0796 29.6237 43.8804 29.4613C43.6812 29.2989 43.43 29.2177 43.1268 29.2177C42.8214 29.2177 42.5681 29.2989 42.3667 29.4613C42.1674 29.6237 42.0191 29.8392 41.9217 30.1077C41.8264 30.3741 41.7787 30.6664 41.7787 30.9848C41.7787 31.3053 41.8264 31.5987 41.9217 31.8651C42.0191 32.1314 42.1674 32.3447 42.3667 32.505C42.5681 32.6652 42.8214 32.7454 43.1268 32.7454ZM49.0322 33.46V26.8074H51.4685C51.9406 26.8074 52.3315 26.8854 52.6411 27.0413C52.9508 27.1951 53.1825 27.404 53.3363 27.6682C53.49 27.9303 53.5669 28.2259 53.5669 28.555C53.5669 28.8322 53.516 29.0661 53.4142 29.2567C53.3125 29.4451 53.176 29.5966 53.0049 29.7114C52.836 29.824 52.6498 29.9063 52.4462 29.9583V30.0233C52.6671 30.0341 52.8826 30.1056 53.0926 30.2377C53.3049 30.3676 53.4803 30.5527 53.6189 30.7931C53.7575 31.0335 53.8268 31.3258 53.8268 31.6702C53.8268 32.0102 53.7466 32.3155 53.5864 32.5862C53.4283 32.8547 53.1836 33.068 52.8523 33.2261C52.5209 33.382 52.0976 33.46 51.5822 33.46H49.0322ZM50.036 32.5992H51.4847C51.9655 32.5992 52.3098 32.5061 52.5177 32.3198C52.7256 32.1336 52.8295 31.9008 52.8295 31.6214C52.8295 31.4114 52.7765 31.2186 52.6704 31.0432C52.5643 30.8678 52.4127 30.7281 52.2156 30.6242C52.0207 30.5203 51.789 30.4683 51.5205 30.4683H50.036V32.5992ZM50.036 29.6854H51.3808C51.606 29.6854 51.8085 29.6421 51.9882 29.5555C52.1701 29.4689 52.3141 29.3476 52.4202 29.1917C52.5285 29.0336 52.5827 28.8474 52.5827 28.633C52.5827 28.358 52.4863 28.1273 52.2936 27.9411C52.1008 27.7548 51.8052 27.6617 51.4068 27.6617H50.036V29.6854ZM56.3913 33.5704C56.0752 33.5704 55.7893 33.512 55.5338 33.395C55.2782 33.2759 55.0758 33.1038 54.9263 32.8785C54.7791 32.6533 54.7054 32.3772 54.7054 32.0502C54.7054 31.7687 54.7596 31.537 54.8679 31.3551C54.9761 31.1732 55.1223 31.0292 55.3064 30.923C55.4905 30.8169 55.6962 30.7368 55.9236 30.6827C56.1509 30.6285 56.3827 30.5874 56.6187 30.5592C56.9176 30.5246 57.1601 30.4964 57.3463 30.4748C57.5326 30.451 57.6679 30.4131 57.7524 30.3611C57.8368 30.3091 57.8791 30.2247 57.8791 30.1077V30.085C57.8791 29.8013 57.7989 29.5815 57.6387 29.4256C57.4806 29.2696 57.2446 29.1917 56.9305 29.1917C56.6035 29.1917 56.3458 29.2642 56.1574 29.4093C55.9712 29.5523 55.8424 29.7114 55.7709 29.8868L54.8581 29.6789C54.9664 29.3758 55.1245 29.1311 55.3324 28.9448C55.5424 28.7564 55.7839 28.62 56.0567 28.5355C56.3296 28.4489 56.6165 28.4056 56.9176 28.4056C57.1168 28.4056 57.3279 28.4294 57.551 28.4771C57.7762 28.5225 57.9863 28.607 58.1812 28.7304C58.3782 28.8539 58.5396 29.0304 58.6652 29.2599C58.7908 29.4873 58.8536 29.7829 58.8536 30.1467V33.46H57.905V32.7778H57.8661C57.8033 32.9034 57.7091 33.0269 57.5835 33.1482C57.4579 33.2694 57.2965 33.3701 57.0995 33.4502C56.9024 33.5304 56.6663 33.5704 56.3913 33.5704ZM56.6025 32.7908C56.871 32.7908 57.1005 32.7378 57.2911 32.6317C57.4838 32.5256 57.63 32.387 57.7296 32.2159C57.8314 32.0426 57.8823 31.8575 57.8823 31.6604V31.0172C57.8477 31.0519 57.7805 31.0844 57.6809 31.1147C57.5835 31.1429 57.4719 31.1678 57.3463 31.1894C57.2207 31.2089 57.0984 31.2273 56.9793 31.2446C56.8602 31.2598 56.7606 31.2728 56.6804 31.2836C56.492 31.3074 56.3199 31.3475 56.1639 31.4038C56.0102 31.4601 55.8868 31.5413 55.7936 31.6474C55.7027 31.7514 55.6572 31.89 55.6572 32.0632C55.6572 32.3036 55.746 32.4855 55.9236 32.6089C56.1011 32.7302 56.3274 32.7908 56.6025 32.7908ZM63.886 29.6887L63.0057 29.8446C62.9689 29.732 62.9104 29.6248 62.8303 29.523C62.7524 29.4212 62.6462 29.3379 62.512 29.2729C62.3777 29.2079 62.2099 29.1754 62.0085 29.1754C61.7335 29.1754 61.5039 29.2372 61.3198 29.3606C61.1358 29.4819 61.0437 29.6389 61.0437 29.8316C61.0437 29.9984 61.1055 30.1326 61.2289 30.2344C61.3523 30.3362 61.5516 30.4196 61.8266 30.4845L62.6192 30.6664C63.0783 30.7725 63.4204 30.936 63.6457 31.1569C63.8709 31.3778 63.9835 31.6647 63.9835 32.0177C63.9835 32.3166 63.8969 32.5829 63.7236 32.8168C63.5525 33.0485 63.3132 33.2304 63.0057 33.3625C62.7004 33.4946 62.3463 33.5607 61.9435 33.5607C61.3848 33.5607 60.929 33.4416 60.576 33.2034C60.223 32.963 60.0064 32.6219 59.9263 32.1802L60.8651 32.0372C60.9236 32.2819 61.0437 32.4671 61.2256 32.5927C61.4076 32.7161 61.6447 32.7778 61.937 32.7778C62.2554 32.7778 62.5098 32.7118 62.7004 32.5797C62.891 32.4454 62.9862 32.2819 62.9862 32.0892C62.9862 31.9333 62.9278 31.8023 62.8108 31.6961C62.6961 31.59 62.5196 31.5099 62.2814 31.4558L61.4368 31.2706C60.9712 31.1645 60.6269 30.9956 60.4038 30.7639C60.1829 30.5322 60.0725 30.2387 60.0725 29.8836C60.0725 29.5891 60.1548 29.3314 60.3194 29.1105C60.4839 28.8896 60.7113 28.7174 61.0015 28.594C61.2917 28.4684 61.6241 28.4056 61.9987 28.4056C62.538 28.4056 62.9624 28.5225 63.2721 28.7564C63.5818 28.9881 63.7864 29.2989 63.886 29.6887ZM65.0514 33.46V28.4706H66.0226V33.46H65.0514ZM65.5419 27.7007C65.3729 27.7007 65.2279 27.6444 65.1066 27.5318C64.9875 27.417 64.9279 27.2806 64.9279 27.1225C64.9279 26.9623 64.9875 26.8258 65.1066 26.7132C65.2279 26.5984 65.3729 26.5411 65.5419 26.5411C65.7108 26.5411 65.8548 26.5984 65.9739 26.7132C66.0952 26.8258 66.1558 26.9623 66.1558 27.1225C66.1558 27.2806 66.0952 27.417 65.9739 27.5318C65.8548 27.6444 65.7108 27.7007 65.5419 27.7007ZM69.4309 33.5607C68.948 33.5607 68.5322 33.4513 68.1836 33.2326C67.8371 33.0117 67.5707 32.7075 67.3845 32.3198C67.1982 31.9322 67.1051 31.4883 67.1051 30.988C67.1051 30.4813 67.2004 30.0341 67.391 29.6465C67.5815 29.2567 67.8501 28.9524 68.1966 28.7337C68.543 28.515 68.9513 28.4056 69.4212 28.4056C69.8001 28.4056 70.138 28.476 70.4347 28.6167C70.7313 28.7553 70.9706 28.9502 71.1525 29.2014C71.3366 29.4526 71.446 29.7461 71.4806 30.0817H70.5354C70.4834 29.8479 70.3643 29.6465 70.178 29.4775C69.994 29.3086 69.7471 29.2242 69.4374 29.2242C69.1667 29.2242 68.9296 29.2956 68.726 29.4386C68.5246 29.5793 68.3676 29.7807 68.255 30.0428C68.1424 30.3026 68.0861 30.6101 68.0861 30.9653C68.0861 31.3291 68.1413 31.6431 68.2518 31.9073C68.3622 32.1715 68.5181 32.3761 68.7195 32.5212C68.9231 32.6663 69.1624 32.7389 69.4374 32.7389C69.6215 32.7389 69.7882 32.7053 69.9377 32.6382C70.0892 32.5689 70.2159 32.4703 70.3177 32.3426C70.4217 32.2148 70.4942 32.061 70.5354 31.8813H71.4806C71.446 32.204 71.3409 32.492 71.1655 32.7454C70.9901 32.9987 70.7552 33.198 70.4606 33.3431C70.1683 33.4881 69.8251 33.5607 69.4309 33.5607ZM74.6209 33.5607C74.1532 33.5607 73.745 33.4535 73.3963 33.2391C73.0477 33.0247 72.777 32.7248 72.5842 32.3393C72.3915 31.9539 72.2951 31.5034 72.2951 30.988C72.2951 30.4704 72.3915 30.0178 72.5842 29.6302C72.777 29.2426 73.0477 28.9416 73.3963 28.7272C73.745 28.5128 74.1532 28.4056 74.6209 28.4056C75.0887 28.4056 75.4969 28.5128 75.8456 28.7272C76.1942 28.9416 76.4649 29.2426 76.6576 29.6302C76.8504 30.0178 76.9467 30.4704 76.9467 30.988C76.9467 31.5034 76.8504 31.9539 76.6576 32.3393C76.4649 32.7248 76.1942 33.0247 75.8456 33.2391C75.4969 33.4535 75.0887 33.5607 74.6209 33.5607ZM74.6242 32.7454C74.9274 32.7454 75.1786 32.6652 75.3778 32.505C75.577 32.3447 75.7243 32.1314 75.8196 31.8651C75.917 31.5987 75.9657 31.3053 75.9657 30.9848C75.9657 30.6664 75.917 30.3741 75.8196 30.1077C75.7243 29.8392 75.577 29.6237 75.3778 29.4613C75.1786 29.2989 74.9274 29.2177 74.6242 29.2177C74.3188 29.2177 74.0655 29.2989 73.8641 29.4613C73.6648 29.6237 73.5165 29.8392 73.4191 30.1077C73.3238 30.3741 73.2761 30.6664 73.2761 30.9848C73.2761 31.3053 73.3238 31.5987 73.4191 31.8651C73.5165 32.1314 73.6648 32.3447 73.8641 32.505C74.0655 32.6652 74.3188 32.7454 74.6242 32.7454Z" fill="#5C5C5C"/>
<path d="M0 0H40.9781L58.5 10.0135L40.9781 20.027H12.2062V36.8919H0V0Z" fill="#447DA9"/>
<path d="M14.3482 9.0344C14.2925 8.56416 14.0666 8.19911 13.6707 7.93925C13.2747 7.67938 12.789 7.54945 12.2135 7.54945C11.7928 7.54945 11.4247 7.61751 11.1091 7.75363C10.7967 7.88975 10.5523 8.07691 10.3759 8.31512C10.2027 8.55333 10.1161 8.82403 10.1161 9.12721C10.1161 9.38088 10.1764 9.59899 10.297 9.78151C10.4208 9.96094 10.5786 10.111 10.7704 10.2316C10.9622 10.3492 11.1633 10.4466 11.3736 10.524C11.584 10.5982 11.7773 10.6586 11.9537 10.705L12.9189 10.9648C13.1664 11.0298 13.4417 11.1195 13.7449 11.234C14.0512 11.3484 14.3435 11.5047 14.6219 11.7027C14.9035 11.8976 15.1355 12.1482 15.318 12.4544C15.5005 12.7607 15.5918 13.1366 15.5918 13.5821C15.5918 14.0956 15.4572 14.5596 15.1881 14.9742C14.922 15.3887 14.5322 15.7182 14.0187 15.9626C13.5082 16.207 12.888 16.3292 12.1579 16.3292C11.4773 16.3292 10.8879 16.2194 10.3898 15.9997C9.89486 15.7801 9.50506 15.4738 9.22044 15.0809C8.93892 14.688 8.7796 14.2317 8.74247 13.712H9.93043C9.96137 14.0709 10.082 14.3678 10.2924 14.603C10.5059 14.835 10.775 15.0082 11.0998 15.1227C11.4278 15.2341 11.7804 15.2897 12.1579 15.2897C12.5972 15.2897 12.9916 15.2186 13.3412 15.0763C13.6908 14.9309 13.9676 14.7298 14.1718 14.473C14.376 14.2132 14.4781 13.91 14.4781 13.5635C14.4781 13.2479 14.3899 12.9912 14.2136 12.7932C14.0372 12.5952 13.8052 12.4343 13.5175 12.3106C13.2298 12.1868 12.9189 12.0785 12.5848 11.9857L11.4154 11.6516C10.6729 11.4382 10.0851 11.1334 9.65201 10.7374C9.2189 10.3415 9.00234 9.82328 9.00234 9.18289C9.00234 8.65078 9.1462 8.18674 9.4339 7.79075C9.72471 7.39167 10.1145 7.08231 10.6033 6.86266C11.0952 6.63992 11.6443 6.52854 12.2507 6.52854C12.8632 6.52854 13.4077 6.63837 13.8841 6.85802C14.3605 7.07457 14.738 7.37156 15.0164 7.74899C15.2979 8.12641 15.4464 8.55488 15.4619 9.0344H14.3482ZM17.8738 16.1622H16.6672L20.1569 6.65848H21.3448L24.8345 16.1622H23.6279L20.788 8.16199H20.7137L17.8738 16.1622ZM18.3192 12.4498H23.1824V13.4707H18.3192V12.4498ZM26.3148 16.1622V6.65848H27.4656V15.1413H31.8833V16.1622H26.3148ZM36.2396 6.65848V16.1622H35.0887V7.865H35.033L32.7128 9.40563V8.23624L35.0887 6.65848H36.2396Z" fill="white"/>
</svg>
