<svg width="176" height="55" viewBox="0 0 176 55" fill="none" xmlns="http://www.w3.org/2000/svg">
<path d="M0 0H55L69 14.5L55 29H18V55H0V0Z" fill="#447DA9"/>
<path d="M6.86932 11.3153V9.90909H16.6875V11.3153H12.571V23H10.9858V11.3153H6.86932ZM19.1341 23V9.90909H23.5574C24.5801 9.90909 25.4196 10.0838 26.0758 10.4332C26.7321 10.7784 27.2179 11.2536 27.5332 11.8587C27.8485 12.4638 28.0062 13.152 28.0062 13.9233C28.0062 14.6946 27.8485 15.3786 27.5332 15.9751C27.2179 16.5717 26.7342 17.0405 26.0822 17.3814C25.4302 17.718 24.5971 17.8864 23.5829 17.8864H20.0034V16.4545H23.5318C24.2306 16.4545 24.7931 16.3523 25.2193 16.1477C25.6497 15.9432 25.9608 15.6534 26.1525 15.2784C26.3485 14.8991 26.4466 14.4474 26.4466 13.9233C26.4466 13.3991 26.3485 12.9411 26.1525 12.549C25.9565 12.157 25.6433 11.8544 25.2129 11.6413C24.7825 11.424 24.2136 11.3153 23.5062 11.3153H20.7193V23H19.1341ZM25.296 17.1193L28.5176 23H26.6767L23.5062 17.1193H25.296ZM31.1847 23H29.5227L34.3295 9.90909H35.9659L40.7727 23H39.1108L35.1989 11.9801H35.0966L31.1847 23ZM31.7983 17.8864H38.4972V19.2926H31.7983V17.8864ZM46.5687 9.90909V23H44.9835V11.571H44.9068L41.7108 13.6932V12.0824L44.9835 9.90909H46.5687Z" fill="white"/>
<path d="M30.1953 40.0291C30.1461 39.5921 29.9429 39.2536 29.5859 39.0135C29.2289 38.7704 28.7796 38.6488 28.2379 38.6488C27.8501 38.6488 27.5147 38.7103 27.2315 38.8335C26.9484 38.9535 26.7283 39.1197 26.5714 39.332C26.4175 39.5413 26.3406 39.7798 26.3406 40.0476C26.3406 40.2723 26.3929 40.4661 26.4975 40.6293C26.6052 40.7924 26.7453 40.9293 26.9176 41.0401C27.093 41.1478 27.2808 41.2386 27.4808 41.3125C27.6809 41.3833 27.8732 41.4418 28.0579 41.4879L28.9812 41.728C29.2828 41.8018 29.5921 41.9019 29.9091 42.0281C30.2261 42.1542 30.52 42.3204 30.7908 42.5266C31.0617 42.7328 31.2802 42.9883 31.4464 43.293C31.6156 43.5977 31.7003 43.9624 31.7003 44.3871C31.7003 44.9226 31.5618 45.3981 31.2848 45.8136C31.0109 46.229 30.6123 46.5568 30.0891 46.7969C29.569 47.0369 28.9396 47.157 28.201 47.157C27.4931 47.157 26.8807 47.0446 26.3636 46.82C25.8466 46.5953 25.4419 46.2768 25.1495 45.8643C24.8571 45.4489 24.6955 44.9564 24.6648 44.3871H26.0959C26.1236 44.7287 26.2344 45.0134 26.4283 45.2411C26.6252 45.4658 26.8761 45.6335 27.1808 45.7443C27.4885 45.852 27.8255 45.9059 28.1918 45.9059C28.5949 45.9059 28.9535 45.8428 29.2674 45.7166C29.5844 45.5874 29.8337 45.4089 30.0153 45.1811C30.1969 44.9503 30.2876 44.681 30.2876 44.3732C30.2876 44.0932 30.2076 43.8639 30.0476 43.6854C29.8906 43.5069 29.6767 43.3591 29.4059 43.2422C29.1381 43.1252 28.835 43.0221 28.4964 42.9329L27.3793 42.6282C26.6222 42.422 26.022 42.1188 25.5788 41.7188C25.1387 41.3187 24.9187 40.7893 24.9187 40.1307C24.9187 39.5859 25.0664 39.1104 25.3619 38.7042C25.6573 38.2979 26.0574 37.9825 26.5621 37.7578C27.0669 37.5301 27.6362 37.4162 28.2702 37.4162C28.9104 37.4162 29.4751 37.5285 29.9645 37.7532C30.4569 37.9779 30.8447 38.2872 31.1278 38.6811C31.411 39.072 31.5587 39.5213 31.571 40.0291H30.1953ZM37.786 44.0593V39.9091H39.1709V47H37.8137V45.772H37.7398C37.5767 46.1506 37.3151 46.466 36.955 46.7184C36.598 46.9677 36.1533 47.0923 35.6208 47.0923C35.1653 47.0923 34.7622 46.9923 34.4113 46.7923C34.0635 46.5891 33.7896 46.2891 33.5896 45.892C33.3926 45.495 33.2941 45.0041 33.2941 44.4194V39.9091H34.6744V44.2532C34.6744 44.7364 34.8083 45.1211 35.0761 45.4073C35.3438 45.6935 35.6916 45.8366 36.1194 45.8366C36.3779 45.8366 36.6349 45.772 36.8904 45.6428C37.1489 45.5135 37.3628 45.3181 37.532 45.0565C37.7044 44.7949 37.789 44.4625 37.786 44.0593ZM41.1364 47V37.5455H42.5167V41.0586H42.5998C42.6798 40.9109 42.7952 40.7401 42.946 40.5462C43.0968 40.3523 43.3061 40.183 43.5739 40.0384C43.8416 39.8906 44.1955 39.8168 44.6357 39.8168C45.2081 39.8168 45.719 39.9614 46.1683 40.2507C46.6177 40.54 46.9701 40.957 47.2255 41.5018C47.484 42.0465 47.6133 42.7021 47.6133 43.4684C47.6133 44.2347 47.4856 44.8918 47.2301 45.4396C46.9747 45.9844 46.6238 46.4045 46.1776 46.6999C45.7313 46.9923 45.2219 47.1385 44.6495 47.1385C44.2186 47.1385 43.8662 47.0662 43.5923 46.9215C43.3215 46.7769 43.1091 46.6076 42.9553 46.4137C42.8014 46.2198 42.6829 46.0475 42.5998 45.8967H42.4844V47H41.1364ZM42.489 43.4545C42.489 43.9531 42.5613 44.3902 42.706 44.7656C42.8506 45.1411 43.0599 45.435 43.3338 45.6474C43.6077 45.8567 43.9432 45.9613 44.3402 45.9613C44.7526 45.9613 45.0973 45.852 45.3743 45.6335C45.6513 45.4119 45.8606 45.1119 46.0021 44.7333C46.1468 44.3548 46.2191 43.9285 46.2191 43.4545C46.2191 42.9867 46.1483 42.5666 46.0067 42.1942C45.8683 41.8219 45.659 41.5279 45.3789 41.3125C45.1019 41.0971 44.7557 40.9893 44.3402 40.9893C43.9401 40.9893 43.6016 41.0924 43.3246 41.2987C43.0507 41.5049 42.8429 41.7926 42.7013 42.1619C42.5598 42.5312 42.489 42.9621 42.489 43.4545ZM52.1501 47.1431C51.4638 47.1431 50.8729 46.9877 50.3774 46.6768C49.885 46.3629 49.5064 45.9305 49.2417 45.3796C48.9771 44.8287 48.8447 44.1978 48.8447 43.4869C48.8447 42.7667 48.9801 42.1312 49.251 41.5803C49.5218 41.0263 49.9034 40.5939 50.3959 40.283C50.8883 39.9722 51.4684 39.8168 52.1363 39.8168C52.6749 39.8168 53.155 39.9168 53.5766 40.1168C53.9983 40.3138 54.3383 40.5908 54.5969 40.9478C54.8585 41.3048 55.0139 41.7218 55.0631 42.1989H53.7197C53.6459 41.8665 53.4766 41.5803 53.2119 41.3402C52.9503 41.1001 52.5995 40.9801 52.1594 40.9801C51.7747 40.9801 51.4376 41.0817 51.1483 41.2848C50.8621 41.4848 50.639 41.7711 50.479 42.1435C50.3189 42.5128 50.2389 42.9498 50.2389 43.4545C50.2389 43.9716 50.3174 44.4179 50.4743 44.7933C50.6313 45.1688 50.8529 45.4596 51.1391 45.6658C51.4284 45.872 51.7685 45.9751 52.1594 45.9751C52.421 45.9751 52.6579 45.9274 52.8703 45.832C53.0857 45.7335 53.2658 45.5935 53.4104 45.4119C53.5581 45.2304 53.6613 45.0118 53.7197 44.7564H55.0631C55.0139 45.215 54.8646 45.6243 54.6153 45.9844C54.366 46.3445 54.0321 46.6276 53.6135 46.8338C53.1981 47.04 52.7103 47.1431 52.1501 47.1431ZM56.5392 47V39.9091H57.9196V47H56.5392ZM57.2363 38.815C56.9963 38.815 56.7901 38.735 56.6177 38.5749C56.4484 38.4118 56.3638 38.2179 56.3638 37.9933C56.3638 37.7655 56.4484 37.5716 56.6177 37.4116C56.7901 37.2485 56.9963 37.1669 57.2363 37.1669C57.4764 37.1669 57.681 37.2485 57.8503 37.4116C58.0227 37.5716 58.1088 37.7655 58.1088 37.9933C58.1088 38.2179 58.0227 38.4118 57.8503 38.5749C57.681 38.735 57.4764 38.815 57.2363 38.815ZM62.431 47.1385C61.8586 47.1385 61.3477 46.9923 60.8983 46.6999C60.4521 46.4045 60.1012 45.9844 59.8458 45.4396C59.5934 44.8918 59.4672 44.2347 59.4672 43.4684C59.4672 42.7021 59.595 42.0465 59.8504 41.5018C60.1089 40.957 60.4629 40.54 60.9122 40.2507C61.3615 39.9614 61.8709 39.8168 62.4403 39.8168C62.8804 39.8168 63.2343 39.8906 63.502 40.0384C63.7729 40.183 63.9822 40.3523 64.1299 40.5462C64.2807 40.7401 64.3976 40.9109 64.4807 41.0586H64.5638V37.5455H65.9442V47H64.5961V45.8967H64.4807C64.3976 46.0475 64.2776 46.2198 64.1206 46.4137C63.9668 46.6076 63.7544 46.7769 63.4836 46.9215C63.2127 47.0662 62.8619 47.1385 62.431 47.1385ZM62.7357 45.9613C63.1327 45.9613 63.4682 45.8567 63.7421 45.6474C64.0191 45.435 64.2284 45.1411 64.3699 44.7656C64.5146 44.3902 64.5869 43.9531 64.5869 43.4545C64.5869 42.9621 64.5161 42.5312 64.3746 42.1619C64.233 41.7926 64.0252 41.5049 63.7513 41.2987C63.4774 41.0924 63.1389 40.9893 62.7357 40.9893C62.3202 40.9893 61.974 41.0971 61.697 41.3125C61.42 41.5279 61.2107 41.8219 61.0692 42.1942C60.9307 42.5666 60.8614 42.9867 60.8614 43.4545C60.8614 43.9285 60.9322 44.3548 61.0738 44.7333C61.2153 45.1119 61.4246 45.4119 61.7016 45.6335C61.9817 45.852 62.3264 45.9613 62.7357 45.9613ZM67.9142 47V39.9091H69.2946V47H67.9142ZM68.6113 38.815C68.3713 38.815 68.1651 38.735 67.9927 38.5749C67.8234 38.4118 67.7388 38.2179 67.7388 37.9933C67.7388 37.7655 67.8234 37.5716 67.9927 37.4116C68.1651 37.2485 68.3713 37.1669 68.6113 37.1669C68.8514 37.1669 69.056 37.2485 69.2253 37.4116C69.3977 37.5716 69.4838 37.7655 69.4838 37.9933C69.4838 38.2179 69.3977 38.4118 69.2253 38.5749C69.056 38.735 68.8514 38.815 68.6113 38.815ZM74.1384 47.1431C73.4736 47.1431 72.8935 46.9908 72.398 46.6861C71.9025 46.3814 71.5178 45.9551 71.2439 45.4073C70.97 44.8595 70.833 44.2193 70.833 43.4869C70.833 42.7513 70.97 42.1081 71.2439 41.5572C71.5178 41.0063 71.9025 40.5785 72.398 40.2738C72.8935 39.9691 73.4736 39.8168 74.1384 39.8168C74.8032 39.8168 75.3833 39.9691 75.8788 40.2738C76.3743 40.5785 76.759 41.0063 77.0329 41.5572C77.3068 42.1081 77.4438 42.7513 77.4438 43.4869C77.4438 44.2193 77.3068 44.8595 77.0329 45.4073C76.759 45.9551 76.3743 46.3814 75.8788 46.6861C75.3833 46.9908 74.8032 47.1431 74.1384 47.1431ZM74.143 45.9844C74.5739 45.9844 74.9309 45.8705 75.214 45.6428C75.4972 45.415 75.7065 45.1119 75.8419 44.7333C75.9804 44.3548 76.0496 43.9377 76.0496 43.4822C76.0496 43.0298 75.9804 42.6143 75.8419 42.2358C75.7065 41.8542 75.4972 41.5479 75.214 41.3171C74.9309 41.0863 74.5739 40.9709 74.143 40.9709C73.7091 40.9709 73.349 41.0863 73.0628 41.3171C72.7796 41.5479 72.5688 41.8542 72.4303 42.2358C72.2949 42.6143 72.2272 43.0298 72.2272 43.4822C72.2272 43.9377 72.2949 44.3548 72.4303 44.7333C72.5688 45.1119 72.7796 45.415 73.0628 45.6428C73.349 45.8705 73.7091 45.9844 74.143 45.9844ZM85.5965 47H82.5358V37.5455H85.6934C86.6198 37.5455 87.4154 37.7347 88.0802 38.1133C88.7449 38.4888 89.2543 39.0289 89.6082 39.7337C89.9652 40.4354 90.1437 41.2771 90.1437 42.2589C90.1437 43.2437 89.9637 44.0901 89.6036 44.7979C89.2466 45.5058 88.7296 46.0505 88.0525 46.4322C87.3754 46.8107 86.5567 47 85.5965 47ZM83.9623 45.7536H85.518C86.2382 45.7536 86.8368 45.6181 87.3138 45.3473C87.7909 45.0734 88.1479 44.6779 88.3849 44.1609C88.6218 43.6407 88.7403 43.0067 88.7403 42.2589C88.7403 41.5172 88.6218 40.8878 88.3849 40.3707C88.151 39.8537 87.8016 39.4613 87.3369 39.1935C86.8722 38.9258 86.2951 38.7919 85.6057 38.7919H83.9623V45.7536ZM94.8629 47.1431C94.1643 47.1431 93.5626 46.9938 93.0579 46.6953C92.5562 46.3937 92.1684 45.9705 91.8945 45.4258C91.6237 44.878 91.4883 44.2363 91.4883 43.5007C91.4883 42.7744 91.6237 42.1342 91.8945 41.5803C92.1684 41.0263 92.5501 40.5939 93.0394 40.283C93.5318 39.9722 94.1074 39.8168 94.766 39.8168C95.1661 39.8168 95.5539 39.8829 95.9293 40.0153C96.3048 40.1476 96.6418 40.3554 96.9403 40.6385C97.2389 40.9216 97.4743 41.2894 97.6467 41.7418C97.819 42.1912 97.9052 42.7375 97.9052 43.3807V43.87H92.2685V42.8359H96.5526C96.5526 42.4728 96.4787 42.1512 96.331 41.8711C96.1832 41.5879 95.9755 41.3648 95.7077 41.2017C95.4431 41.0386 95.1322 40.957 94.7752 40.957C94.3874 40.957 94.0489 41.0524 93.7596 41.2433C93.4734 41.431 93.2518 41.6772 93.0948 41.9819C92.9409 42.2835 92.864 42.6113 92.864 42.9652V43.7731C92.864 44.247 92.9471 44.6502 93.1133 44.9826C93.2826 45.315 93.518 45.5689 93.8196 45.7443C94.1212 45.9167 94.4736 46.0028 94.8768 46.0028C95.1384 46.0028 95.3769 45.9659 95.5923 45.892C95.8078 45.8151 95.994 45.7012 96.1509 45.5504C96.3079 45.3996 96.4279 45.2134 96.511 44.9918L97.8175 45.2273C97.7128 45.612 97.5251 45.949 97.2543 46.2383C96.9865 46.5245 96.6495 46.7476 96.2433 46.9077C95.8401 47.0646 95.38 47.1431 94.8629 47.1431ZM102.522 38.7734V37.5455H109.839V38.7734H106.889V47H105.467V38.7734H102.522ZM110.609 47V39.9091H111.943V41.0355H112.017C112.146 40.6539 112.374 40.3538 112.7 40.1353C113.029 39.9137 113.402 39.8029 113.817 39.8029C113.903 39.8029 114.005 39.806 114.122 39.8121C114.242 39.8183 114.336 39.826 114.403 39.8352V41.1555C114.348 41.1402 114.249 41.1232 114.108 41.1048C113.966 41.0832 113.825 41.0724 113.683 41.0724C113.357 41.0724 113.066 41.1417 112.811 41.2802C112.558 41.4156 112.358 41.6049 112.21 41.848C112.063 42.0881 111.989 42.362 111.989 42.6697V47H110.609ZM117.598 47.157C117.149 47.157 116.742 47.0739 116.379 46.9077C116.016 46.7384 115.728 46.4937 115.516 46.1737C115.307 45.8536 115.202 45.4612 115.202 44.9964C115.202 44.5964 115.279 44.267 115.433 44.0085C115.587 43.75 115.794 43.5453 116.056 43.3945C116.318 43.2437 116.61 43.1299 116.933 43.0529C117.256 42.976 117.586 42.9175 117.921 42.8775C118.346 42.8282 118.69 42.7882 118.955 42.7575C119.22 42.7236 119.412 42.6697 119.532 42.5959C119.652 42.522 119.712 42.402 119.712 42.2358V42.2035C119.712 41.8003 119.598 41.4879 119.371 41.2663C119.146 41.0447 118.811 40.9339 118.364 40.9339C117.9 40.9339 117.533 41.037 117.266 41.2433C117.001 41.4464 116.818 41.6726 116.716 41.9219L115.419 41.6264C115.573 41.1955 115.797 40.8478 116.093 40.5831C116.391 40.3153 116.735 40.1214 117.122 40.0014C117.51 39.8783 117.918 39.8168 118.346 39.8168C118.629 39.8168 118.929 39.8506 119.246 39.9183C119.566 39.983 119.865 40.103 120.142 40.2784C120.422 40.4538 120.651 40.7047 120.829 41.0309C121.008 41.354 121.097 41.7741 121.097 42.2912V47H119.749V46.0305H119.694C119.605 46.209 119.471 46.3845 119.292 46.5568C119.114 46.7292 118.884 46.8723 118.604 46.9862C118.324 47.1 117.989 47.157 117.598 47.157ZM117.898 46.049C118.28 46.049 118.606 45.9736 118.877 45.8228C119.151 45.672 119.358 45.475 119.5 45.2319C119.645 44.9857 119.717 44.7225 119.717 44.4425V43.5284C119.668 43.5777 119.572 43.6238 119.431 43.6669C119.292 43.7069 119.134 43.7423 118.955 43.7731C118.777 43.8008 118.603 43.8269 118.434 43.8516C118.264 43.8731 118.123 43.8916 118.009 43.907C117.741 43.9408 117.496 43.9978 117.275 44.0778C117.056 44.1578 116.881 44.2732 116.748 44.424C116.619 44.5717 116.555 44.7687 116.555 45.0149C116.555 45.3565 116.681 45.6151 116.933 45.7905C117.186 45.9628 117.507 46.049 117.898 46.049ZM124.316 42.7898V47H122.936V39.9091H124.261V41.0632H124.348C124.511 40.6877 124.767 40.3861 125.115 40.1584C125.466 39.9306 125.907 39.8168 126.44 39.8168C126.923 39.8168 127.346 39.9183 127.709 40.1214C128.072 40.3215 128.354 40.62 128.554 41.017C128.754 41.4141 128.854 41.9049 128.854 42.4897V47H127.474V42.6559C127.474 42.1419 127.34 41.7403 127.072 41.451C126.804 41.1586 126.437 41.0124 125.969 41.0124C125.649 41.0124 125.364 41.0817 125.115 41.2202C124.868 41.3587 124.673 41.5618 124.528 41.8295C124.387 42.0942 124.316 42.4143 124.316 42.7898ZM136.019 41.6403L134.768 41.8619C134.715 41.7018 134.632 41.5495 134.518 41.4048C134.408 41.2602 134.257 41.1417 134.066 41.0494C133.875 40.957 133.637 40.9109 133.35 40.9109C132.96 40.9109 132.633 40.9986 132.372 41.174C132.11 41.3464 131.979 41.5695 131.979 41.8434C131.979 42.0804 132.067 42.2712 132.243 42.4158C132.418 42.5605 132.701 42.679 133.092 42.7713L134.218 43.0298C134.871 43.1806 135.357 43.413 135.677 43.7269C135.997 44.0408 136.157 44.4486 136.157 44.9503C136.157 45.375 136.034 45.7536 135.788 46.0859C135.545 46.4152 135.205 46.6738 134.768 46.8615C134.334 47.0492 133.831 47.1431 133.258 47.1431C132.464 47.1431 131.816 46.9738 131.315 46.6353C130.813 46.2937 130.505 45.8089 130.391 45.1811L131.725 44.978C131.809 45.3258 131.979 45.5889 132.238 45.7674C132.496 45.9428 132.833 46.0305 133.249 46.0305C133.701 46.0305 134.063 45.9367 134.334 45.7489C134.605 45.5581 134.74 45.3258 134.74 45.0518C134.74 44.8303 134.657 44.6441 134.491 44.4933C134.328 44.3424 134.077 44.2286 133.738 44.1516L132.538 43.8885C131.876 43.7377 131.387 43.4976 131.07 43.1683C130.756 42.839 130.599 42.422 130.599 41.9173C130.599 41.4987 130.716 41.1325 130.95 40.8185C131.184 40.5046 131.507 40.2599 131.919 40.0845C132.332 39.906 132.804 39.8168 133.337 39.8168C134.103 39.8168 134.706 39.983 135.146 40.3153C135.586 40.6446 135.877 41.0863 136.019 41.6403ZM137.675 49.6591V39.9091H139.023V41.0586H139.138C139.218 40.9109 139.334 40.7401 139.485 40.5462C139.635 40.3523 139.845 40.183 140.112 40.0384C140.38 39.8906 140.734 39.8168 141.174 39.8168C141.747 39.8168 142.258 39.9614 142.707 40.2507C143.156 40.54 143.509 40.957 143.764 41.5018C144.023 42.0465 144.152 42.7021 144.152 43.4684C144.152 44.2347 144.024 44.8918 143.769 45.4396C143.513 45.9844 143.162 46.4045 142.716 46.6999C142.27 46.9923 141.761 47.1385 141.188 47.1385C140.757 47.1385 140.405 47.0662 140.131 46.9215C139.86 46.7769 139.648 46.6076 139.494 46.4137C139.34 46.2198 139.222 46.0475 139.138 45.8967H139.055V49.6591H137.675ZM139.028 43.4545C139.028 43.9531 139.1 44.3902 139.245 44.7656C139.389 45.1411 139.599 45.435 139.872 45.6474C140.146 45.8567 140.482 45.9613 140.879 45.9613C141.291 45.9613 141.636 45.852 141.913 45.6335C142.19 45.4119 142.399 45.1119 142.541 44.7333C142.685 44.3548 142.758 43.9285 142.758 43.4545C142.758 42.9867 142.687 42.5666 142.545 42.1942C142.407 41.8219 142.198 41.5279 141.918 41.3125C141.641 41.0971 141.294 40.9893 140.879 40.9893C140.479 40.9893 140.14 41.0924 139.863 41.2987C139.589 41.5049 139.382 41.7926 139.24 42.1619C139.098 42.5312 139.028 42.9621 139.028 43.4545ZM148.685 47.1431C148.021 47.1431 147.44 46.9908 146.945 46.6861C146.449 46.3814 146.065 45.9551 145.791 45.4073C145.517 44.8595 145.38 44.2193 145.38 43.4869C145.38 42.7513 145.517 42.1081 145.791 41.5572C146.065 41.0063 146.449 40.5785 146.945 40.2738C147.44 39.9691 148.021 39.8168 148.685 39.8168C149.35 39.8168 149.93 39.9691 150.426 40.2738C150.921 40.5785 151.306 41.0063 151.58 41.5572C151.854 42.1081 151.991 42.7513 151.991 43.4869C151.991 44.2193 151.854 44.8595 151.58 45.4073C151.306 45.9551 150.921 46.3814 150.426 46.6861C149.93 46.9908 149.35 47.1431 148.685 47.1431ZM148.69 45.9844C149.121 45.9844 149.478 45.8705 149.761 45.6428C150.044 45.415 150.253 45.1119 150.389 44.7333C150.527 44.3548 150.597 43.9377 150.597 43.4822C150.597 43.0298 150.527 42.6143 150.389 42.2358C150.253 41.8542 150.044 41.5479 149.761 41.3171C149.478 41.0863 149.121 40.9709 148.69 40.9709C148.256 40.9709 147.896 41.0863 147.61 41.3171C147.326 41.5479 147.116 41.8542 146.977 42.2358C146.842 42.6143 146.774 43.0298 146.774 43.4822C146.774 43.9377 146.842 44.3548 146.977 44.7333C147.116 45.1119 147.326 45.415 147.61 45.6428C147.896 45.8705 148.256 45.9844 148.69 45.9844ZM153.531 47V39.9091H154.866V41.0355H154.939C155.069 40.6539 155.296 40.3538 155.623 40.1353C155.952 39.9137 156.324 39.8029 156.74 39.8029C156.826 39.8029 156.928 39.806 157.045 39.8121C157.165 39.8183 157.258 39.826 157.326 39.8352V41.1555C157.271 41.1402 157.172 41.1232 157.031 41.1048C156.889 41.0832 156.748 41.0724 156.606 41.0724C156.28 41.0724 155.989 41.1417 155.733 41.2802C155.481 41.4156 155.281 41.6049 155.133 41.848C154.986 42.0881 154.912 42.362 154.912 42.6697V47H153.531ZM162.25 39.9091V41.017H158.376V39.9091H162.25ZM159.415 38.2102H160.795V44.918C160.795 45.1857 160.835 45.3873 160.915 45.5227C160.996 45.6551 161.099 45.7459 161.225 45.7951C161.354 45.8413 161.494 45.8643 161.645 45.8643C161.756 45.8643 161.853 45.8567 161.936 45.8413C162.019 45.8259 162.083 45.8136 162.13 45.8043L162.379 46.9446C162.299 46.9754 162.185 47.0062 162.037 47.0369C161.89 47.0708 161.705 47.0893 161.483 47.0923C161.12 47.0985 160.782 47.0339 160.468 46.8984C160.154 46.763 159.9 46.5537 159.706 46.2706C159.512 45.9875 159.415 45.632 159.415 45.2042V38.2102ZM166.756 47.1431C166.058 47.1431 165.456 46.9938 164.951 46.6953C164.45 46.3937 164.062 45.9705 163.788 45.4258C163.517 44.878 163.382 44.2363 163.382 43.5007C163.382 42.7744 163.517 42.1342 163.788 41.5803C164.062 41.0263 164.444 40.5939 164.933 40.283C165.425 39.9722 166.001 39.8168 166.66 39.8168C167.06 39.8168 167.447 39.8829 167.823 40.0153C168.198 40.1476 168.535 40.3554 168.834 40.6385C169.132 40.9216 169.368 41.2894 169.54 41.7418C169.713 42.1912 169.799 42.7375 169.799 43.3807V43.87H164.162V42.8359H168.446C168.446 42.4728 168.372 42.1512 168.225 41.8711C168.077 41.5879 167.869 41.3648 167.601 41.2017C167.337 41.0386 167.026 40.957 166.669 40.957C166.281 40.957 165.942 41.0524 165.653 41.2433C165.367 41.431 165.145 41.6772 164.988 41.9819C164.834 42.2835 164.758 42.6113 164.758 42.9652V43.7731C164.758 44.247 164.841 44.6502 165.007 44.9826C165.176 45.315 165.412 45.5689 165.713 45.7443C166.015 45.9167 166.367 46.0028 166.77 46.0028C167.032 46.0028 167.27 45.9659 167.486 45.892C167.701 45.8151 167.888 45.7012 168.044 45.5504C168.201 45.3996 168.321 45.2134 168.405 44.9918L169.711 45.2273C169.606 45.612 169.419 45.949 169.148 46.2383C168.88 46.5245 168.543 46.7476 168.137 46.9077C167.734 47.0646 167.274 47.1431 166.756 47.1431Z" fill="#5C5C5C"/>
</svg>
