<svg width="117" height="55" viewBox="0 0 117 55" fill="none" xmlns="http://www.w3.org/2000/svg">
<path d="M0 0H55L69 14.5L55 29H18V55H0V0Z" fill="#447DA9"/>
<path d="M14.7443 13.1818C14.6676 12.5341 14.3565 12.0312 13.8111 11.6733C13.2656 11.3153 12.5966 11.1364 11.804 11.1364C11.2244 11.1364 10.7173 11.2301 10.2827 11.4176C9.85227 11.6051 9.51563 11.8629 9.27273 12.1911C9.03409 12.5192 8.91477 12.892 8.91477 13.3097C8.91477 13.6591 8.99787 13.9595 9.16406 14.2109C9.33452 14.4581 9.55185 14.6648 9.81605 14.831C10.0803 14.9929 10.3572 15.1271 10.647 15.2337C10.9368 15.3359 11.2031 15.419 11.446 15.483L12.7756 15.8409C13.1165 15.9304 13.4957 16.054 13.9134 16.2116C14.3352 16.3693 14.7379 16.5845 15.1214 16.8572C15.5092 17.1257 15.8288 17.4709 16.0803 17.8928C16.3317 18.3146 16.4574 18.8324 16.4574 19.446C16.4574 20.1534 16.272 20.7926 15.9013 21.3636C15.5348 21.9347 14.9979 22.3885 14.2905 22.7251C13.5874 23.0618 12.733 23.2301 11.7273 23.2301C10.7898 23.2301 9.97798 23.0788 9.2919 22.7763C8.61009 22.4737 8.07315 22.0518 7.68111 21.5107C7.29332 20.9695 7.07386 20.3409 7.02273 19.625H8.65909C8.7017 20.1193 8.8679 20.5284 9.15767 20.8523C9.4517 21.1719 9.82244 21.4105 10.2699 21.5682C10.7216 21.7216 11.2074 21.7983 11.7273 21.7983C12.3324 21.7983 12.8757 21.7003 13.3572 21.5043C13.8388 21.304 14.2202 21.027 14.5014 20.6733C14.7827 20.3153 14.9233 19.8977 14.9233 19.4205C14.9233 18.9858 14.8018 18.6321 14.5589 18.3594C14.3161 18.0866 13.9964 17.8651 13.6001 17.6946C13.2038 17.5241 12.7756 17.375 12.3153 17.2472L10.7045 16.7869C9.68182 16.4929 8.87216 16.0732 8.27557 15.5277C7.67898 14.9822 7.38068 14.2685 7.38068 13.3864C7.38068 12.6534 7.57884 12.0142 7.97514 11.4688C8.37571 10.919 8.91264 10.4929 9.58594 10.1903C10.2635 9.88352 11.0199 9.73011 11.8551 9.73011C12.6989 9.73011 13.4489 9.88139 14.1051 10.1839C14.7614 10.4822 15.2813 10.8913 15.6648 11.4112C16.0526 11.9311 16.2571 12.5213 16.2784 13.1818H14.7443ZM19.6007 23H17.9387L22.7456 9.90909H24.3819L29.1887 23H27.5268L23.6149 11.9801H23.5126L19.6007 23ZM20.2143 17.8864H26.9132V19.2926H20.2143V17.8864ZM31.2278 23V9.90909H32.813V21.5938H38.8983V23H31.2278ZM44.8988 9.90909V23H43.3136V11.571H43.2369L40.0408 13.6932V12.0824L43.3136 9.90909H44.8988Z" fill="white"/>
<path d="M30.1953 40.0291C30.1461 39.5921 29.9429 39.2536 29.5859 39.0135C29.2289 38.7704 28.7796 38.6488 28.2379 38.6488C27.8501 38.6488 27.5147 38.7103 27.2315 38.8335C26.9484 38.9535 26.7283 39.1197 26.5714 39.332C26.4175 39.5413 26.3406 39.7798 26.3406 40.0476C26.3406 40.2723 26.3929 40.4661 26.4975 40.6293C26.6052 40.7924 26.7453 40.9293 26.9176 41.0401C27.093 41.1478 27.2808 41.2386 27.4808 41.3125C27.6809 41.3833 27.8732 41.4418 28.0579 41.4879L28.9812 41.728C29.2828 41.8018 29.5921 41.9019 29.9091 42.0281C30.2261 42.1542 30.52 42.3204 30.7908 42.5266C31.0617 42.7328 31.2802 42.9883 31.4464 43.293C31.6156 43.5977 31.7003 43.9624 31.7003 44.3871C31.7003 44.9226 31.5618 45.3981 31.2848 45.8136C31.0109 46.229 30.6123 46.5568 30.0891 46.7969C29.569 47.0369 28.9396 47.157 28.201 47.157C27.4931 47.157 26.8807 47.0446 26.3636 46.82C25.8466 46.5953 25.4419 46.2768 25.1495 45.8643C24.8571 45.4489 24.6955 44.9564 24.6648 44.3871H26.0959C26.1236 44.7287 26.2344 45.0134 26.4283 45.2411C26.6252 45.4658 26.8761 45.6335 27.1808 45.7443C27.4885 45.852 27.8255 45.9059 28.1918 45.9059C28.5949 45.9059 28.9535 45.8428 29.2674 45.7166C29.5844 45.5874 29.8337 45.4089 30.0153 45.1811C30.1969 44.9503 30.2876 44.681 30.2876 44.3732C30.2876 44.0932 30.2076 43.8639 30.0476 43.6854C29.8906 43.5069 29.6767 43.3591 29.4059 43.2422C29.1381 43.1252 28.835 43.0221 28.4964 42.9329L27.3793 42.6282C26.6222 42.422 26.022 42.1188 25.5788 41.7188C25.1387 41.3187 24.9187 40.7893 24.9187 40.1307C24.9187 39.5859 25.0664 39.1104 25.3619 38.7042C25.6573 38.2979 26.0574 37.9825 26.5621 37.7578C27.0669 37.5301 27.6362 37.4162 28.2702 37.4162C28.9104 37.4162 29.4751 37.5285 29.9645 37.7532C30.4569 37.9779 30.8447 38.2872 31.1278 38.6811C31.411 39.072 31.5587 39.5213 31.571 40.0291H30.1953ZM35.3577 47.157C34.9084 47.157 34.5021 47.0739 34.1389 46.9077C33.7758 46.7384 33.488 46.4937 33.2757 46.1737C33.0664 45.8536 32.9617 45.4612 32.9617 44.9964C32.9617 44.5964 33.0387 44.267 33.1926 44.0085C33.3464 43.75 33.5542 43.5453 33.8158 43.3945C34.0774 43.2437 34.3698 43.1299 34.6929 43.0529C35.0161 42.976 35.3454 42.9175 35.6808 42.8775C36.1056 42.8282 36.4503 42.7882 36.7149 42.7575C36.9796 42.7236 37.172 42.6697 37.292 42.5959C37.412 42.522 37.472 42.402 37.472 42.2358V42.2035C37.472 41.8003 37.3582 41.4879 37.1304 41.2663C36.9057 41.0447 36.5703 40.9339 36.124 40.9339C35.6593 40.9339 35.2931 41.037 35.0253 41.2433C34.7606 41.4464 34.5775 41.6726 34.4759 41.9219L33.1787 41.6264C33.3326 41.1955 33.5573 40.8478 33.8527 40.5831C34.1512 40.3153 34.4944 40.1214 34.8822 40.0014C35.27 39.8783 35.6778 39.8168 36.1056 39.8168C36.3887 39.8168 36.6888 39.8506 37.0058 39.9183C37.3258 39.983 37.6244 40.103 37.9014 40.2784C38.1814 40.4538 38.4107 40.7047 38.5892 41.0309C38.7677 41.354 38.857 41.7741 38.857 42.2912V47H37.509V46.0305H37.4536C37.3643 46.209 37.2304 46.3845 37.0519 46.5568C36.8734 46.7292 36.6441 46.8723 36.3641 46.9862C36.084 47.1 35.7485 47.157 35.3577 47.157ZM35.6578 46.049C36.0394 46.049 36.3656 45.9736 36.6365 45.8228C36.9104 45.672 37.1181 45.475 37.2597 45.2319C37.4043 44.9857 37.4767 44.7225 37.4767 44.4425V43.5284C37.4274 43.5777 37.332 43.6238 37.1904 43.6669C37.0519 43.7069 36.8934 43.7423 36.7149 43.7731C36.5364 43.8008 36.3625 43.8269 36.1933 43.8516C36.024 43.8731 35.8824 43.8916 35.7686 43.907C35.5008 43.9408 35.2561 43.9978 35.0345 44.0778C34.816 44.1578 34.6406 44.2732 34.5083 44.424C34.379 44.5717 34.3144 44.7687 34.3144 45.0149C34.3144 45.3565 34.4405 45.6151 34.6929 45.7905C34.9453 45.9628 35.2669 46.049 35.6578 46.049ZM42.0758 37.5455V47H40.6955V37.5455H42.0758ZM45.9964 47.157C45.547 47.157 45.1408 47.0739 44.7776 46.9077C44.4144 46.7384 44.1267 46.4937 43.9143 46.1737C43.705 45.8536 43.6004 45.4612 43.6004 44.9964C43.6004 44.5964 43.6773 44.267 43.8312 44.0085C43.9851 43.75 44.1929 43.5453 44.4545 43.3945C44.7161 43.2437 45.0084 43.1299 45.3316 43.0529C45.6547 42.976 45.984 42.9175 46.3195 42.8775C46.7442 42.8282 47.0889 42.7882 47.3536 42.7575C47.6183 42.7236 47.8106 42.6697 47.9307 42.5959C48.0507 42.522 48.1107 42.402 48.1107 42.2358V42.2035C48.1107 41.8003 47.9968 41.4879 47.7691 41.2663C47.5444 41.0447 47.209 40.9339 46.7627 40.9339C46.298 40.9339 45.9317 41.037 45.664 41.2433C45.3993 41.4464 45.2162 41.6726 45.1146 41.9219L43.8174 41.6264C43.9713 41.1955 44.1959 40.8478 44.4914 40.5831C44.7899 40.3153 45.1331 40.1214 45.5209 40.0014C45.9086 39.8783 46.3164 39.8168 46.7442 39.8168C47.0274 39.8168 47.3274 39.8506 47.6444 39.9183C47.9645 39.983 48.2631 40.103 48.54 40.2784C48.8201 40.4538 49.0494 40.7047 49.2279 41.0309C49.4064 41.354 49.4956 41.7741 49.4956 42.2912V47H48.1476V46.0305H48.0922C48.003 46.209 47.8691 46.3845 47.6906 46.5568C47.5121 46.7292 47.2828 46.8723 47.0028 46.9862C46.7227 47.1 46.3872 47.157 45.9964 47.157ZM46.2964 46.049C46.6781 46.049 47.0043 45.9736 47.2751 45.8228C47.549 45.672 47.7568 45.475 47.8983 45.2319C48.043 44.9857 48.1153 44.7225 48.1153 44.4425V43.5284C48.0661 43.5777 47.9707 43.6238 47.8291 43.6669C47.6906 43.7069 47.5321 43.7423 47.3536 43.7731C47.1751 43.8008 47.0012 43.8269 46.8319 43.8516C46.6627 43.8731 46.5211 43.8916 46.4072 43.907C46.1395 43.9408 45.8948 43.9978 45.6732 44.0778C45.4547 44.1578 45.2793 44.2732 45.1469 44.424C45.0177 44.5717 44.953 44.7687 44.953 45.0149C44.953 45.3565 45.0792 45.6151 45.3316 45.7905C45.584 45.9628 45.9056 46.049 46.2964 46.049ZM51.3342 47V39.9091H52.6683V41.0355H52.7422C52.8714 40.6539 53.0992 40.3538 53.4254 40.1353C53.7547 39.9137 54.1271 39.8029 54.5426 39.8029C54.6288 39.8029 54.7304 39.806 54.8473 39.8121C54.9673 39.8183 55.0612 39.826 55.1289 39.8352V41.1555C55.0735 41.1402 54.975 41.1232 54.8335 41.1048C54.6919 41.0832 54.5503 41.0724 54.4087 41.0724C54.0825 41.0724 53.7917 41.1417 53.5362 41.2802C53.2839 41.4156 53.0838 41.6049 52.9361 41.848C52.7884 42.0881 52.7145 42.362 52.7145 42.6697V47H51.3342ZM56.3234 47V39.9091H57.7037V47H56.3234ZM57.0205 38.815C56.7805 38.815 56.5742 38.735 56.4019 38.5749C56.2326 38.4118 56.148 38.2179 56.148 37.9933C56.148 37.7655 56.2326 37.5716 56.4019 37.4116C56.5742 37.2485 56.7805 37.1669 57.0205 37.1669C57.2606 37.1669 57.4652 37.2485 57.6345 37.4116C57.8068 37.5716 57.893 37.7655 57.893 37.9933C57.893 38.2179 57.8068 38.4118 57.6345 38.5749C57.4652 38.735 57.2606 38.815 57.0205 38.815ZM62.5476 47.1431C61.8828 47.1431 61.3027 46.9908 60.8072 46.6861C60.3117 46.3814 59.927 45.9551 59.6531 45.4073C59.3791 44.8595 59.2422 44.2193 59.2422 43.4869C59.2422 42.7513 59.3791 42.1081 59.6531 41.5572C59.927 41.0063 60.3117 40.5785 60.8072 40.2738C61.3027 39.9691 61.8828 39.8168 62.5476 39.8168C63.2124 39.8168 63.7925 39.9691 64.288 40.2738C64.7835 40.5785 65.1682 41.0063 65.4421 41.5572C65.716 42.1081 65.853 42.7513 65.853 43.4869C65.853 44.2193 65.716 44.8595 65.4421 45.4073C65.1682 45.9551 64.7835 46.3814 64.288 46.6861C63.7925 46.9908 63.2124 47.1431 62.5476 47.1431ZM62.5522 45.9844C62.9831 45.9844 63.3401 45.8705 63.6232 45.6428C63.9064 45.415 64.1156 45.1119 64.2511 44.7333C64.3896 44.3548 64.4588 43.9377 64.4588 43.4822C64.4588 43.0298 64.3896 42.6143 64.2511 42.2358C64.1156 41.8542 63.9064 41.5479 63.6232 41.3171C63.3401 41.0863 62.9831 40.9709 62.5522 40.9709C62.1183 40.9709 61.7582 41.0863 61.4719 41.3171C61.1888 41.5479 60.978 41.8542 60.8395 42.2358C60.7041 42.6143 60.6364 43.0298 60.6364 43.4822C60.6364 43.9377 60.7041 44.3548 60.8395 44.7333C60.978 45.1119 61.1888 45.415 61.4719 45.6428C61.7582 45.8705 62.1183 45.9844 62.5522 45.9844ZM70.945 47V37.5455H74.4073C75.0782 37.5455 75.6338 37.6562 76.0739 37.8778C76.514 38.0964 76.8433 38.3933 77.0618 38.7688C77.2803 39.1412 77.3896 39.5613 77.3896 40.0291C77.3896 40.4231 77.3172 40.7554 77.1726 41.0263C77.0279 41.294 76.834 41.5095 76.5909 41.6726C76.3509 41.8326 76.0862 41.9496 75.7969 42.0234V42.1158C76.1108 42.1312 76.417 42.2327 76.7156 42.4205C77.0172 42.6051 77.2665 42.8683 77.4634 43.2099C77.6604 43.5515 77.7589 43.967 77.7589 44.4563C77.7589 44.9395 77.645 45.3735 77.4173 45.7582C77.1926 46.1398 76.8448 46.4429 76.3739 46.6676C75.9031 46.8892 75.3014 47 74.5689 47H70.945ZM72.3714 45.7766H74.4304C75.1136 45.7766 75.603 45.6443 75.8984 45.3796C76.1939 45.1149 76.3416 44.7841 76.3416 44.3871C76.3416 44.0885 76.2662 43.8146 76.1154 43.5653C75.9646 43.3161 75.7492 43.1175 75.4691 42.9698C75.1921 42.8221 74.8628 42.7482 74.4812 42.7482H72.3714V45.7766ZM72.3714 41.6357H74.2827C74.6027 41.6357 74.8905 41.5741 75.146 41.451C75.4045 41.3279 75.6091 41.1555 75.7599 40.9339C75.9138 40.7093 75.9908 40.4446 75.9908 40.1399C75.9908 39.7491 75.8538 39.4213 75.5799 39.1566C75.306 38.8919 74.8859 38.7596 74.3196 38.7596H72.3714V41.6357ZM81.4036 47.157C80.9542 47.157 80.548 47.0739 80.1848 46.9077C79.8217 46.7384 79.5339 46.4937 79.3216 46.1737C79.1123 45.8536 79.0076 45.4612 79.0076 44.9964C79.0076 44.5964 79.0846 44.267 79.2385 44.0085C79.3923 43.75 79.6001 43.5453 79.8617 43.3945C80.1233 43.2437 80.4157 43.1299 80.7388 43.0529C81.062 42.976 81.3913 42.9175 81.7267 42.8775C82.1515 42.8282 82.4962 42.7882 82.7608 42.7575C83.0255 42.7236 83.2179 42.6697 83.3379 42.5959C83.4579 42.522 83.5179 42.402 83.5179 42.2358V42.2035C83.5179 41.8003 83.4041 41.4879 83.1763 41.2663C82.9516 41.0447 82.6162 40.9339 82.1699 40.9339C81.7052 40.9339 81.339 41.037 81.0712 41.2433C80.8065 41.4464 80.6234 41.6726 80.5218 41.9219L79.2246 41.6264C79.3785 41.1955 79.6032 40.8478 79.8986 40.5831C80.1971 40.3153 80.5403 40.1214 80.9281 40.0014C81.3159 39.8783 81.7237 39.8168 82.1515 39.8168C82.4346 39.8168 82.7347 39.8506 83.0517 39.9183C83.3717 39.983 83.6703 40.103 83.9473 40.2784C84.2273 40.4538 84.4566 40.7047 84.6351 41.0309C84.8136 41.354 84.9029 41.7741 84.9029 42.2912V47H83.5549V46.0305H83.4995C83.4102 46.209 83.2763 46.3845 83.0978 46.5568C82.9193 46.7292 82.69 46.8723 82.41 46.9862C82.1299 47.1 81.7944 47.157 81.4036 47.157ZM81.7037 46.049C82.0853 46.049 82.4115 45.9736 82.6824 45.8228C82.9563 45.672 83.164 45.475 83.3056 45.2319C83.4502 44.9857 83.5225 44.7225 83.5225 44.4425V43.5284C83.4733 43.5777 83.3779 43.6238 83.2363 43.6669C83.0978 43.7069 82.9393 43.7423 82.7608 43.7731C82.5823 43.8008 82.4084 43.8269 82.2392 43.8516C82.0699 43.8731 81.9283 43.8916 81.8145 43.907C81.5467 43.9408 81.302 43.9978 81.0804 44.0778C80.8619 44.1578 80.6865 44.2732 80.5542 44.424C80.4249 44.5717 80.3603 44.7687 80.3603 45.0149C80.3603 45.3565 80.4864 45.6151 80.7388 45.7905C80.9912 45.9628 81.3128 46.049 81.7037 46.049ZM92.055 41.6403L90.8039 41.8619C90.7516 41.7018 90.6685 41.5495 90.5546 41.4048C90.4438 41.2602 90.293 41.1417 90.1022 41.0494C89.9114 40.957 89.6729 40.9109 89.3866 40.9109C88.9958 40.9109 88.6695 40.9986 88.4079 41.174C88.1463 41.3464 88.0155 41.5695 88.0155 41.8434C88.0155 42.0804 88.1032 42.2712 88.2787 42.4158C88.4541 42.5605 88.7372 42.679 89.1281 42.7713L90.2545 43.0298C90.907 43.1806 91.3933 43.413 91.7133 43.7269C92.0334 44.0408 92.1934 44.4486 92.1934 44.9503C92.1934 45.375 92.0703 45.7536 91.8241 46.0859C91.581 46.4152 91.2409 46.6738 90.8039 46.8615C90.3699 47.0492 89.8667 47.1431 89.2943 47.1431C88.5003 47.1431 87.8524 46.9738 87.3508 46.6353C86.8491 46.2937 86.5413 45.8089 86.4275 45.1811L87.7616 44.978C87.8447 45.3258 88.0155 45.5889 88.2741 45.7674C88.5326 45.9428 88.8696 46.0305 89.2851 46.0305C89.7375 46.0305 90.0991 45.9367 90.3699 45.7489C90.6408 45.5581 90.7762 45.3258 90.7762 45.0518C90.7762 44.8303 90.6931 44.6441 90.5269 44.4933C90.3638 44.3424 90.113 44.2286 89.7744 44.1516L88.5741 43.8885C87.9124 43.7377 87.4231 43.4976 87.1061 43.1683C86.7922 42.839 86.6352 42.422 86.6352 41.9173C86.6352 41.4987 86.7522 41.1325 86.9861 40.8185C87.22 40.5046 87.5431 40.2599 87.9555 40.0845C88.3679 39.906 88.8403 39.8168 89.3728 39.8168C90.1391 39.8168 90.7423 39.983 91.1824 40.3153C91.6225 40.6446 91.9134 41.0863 92.055 41.6403ZM93.7111 47V39.9091H95.0914V47H93.7111ZM94.4082 38.815C94.1681 38.815 93.9619 38.735 93.7896 38.5749C93.6203 38.4118 93.5357 38.2179 93.5357 37.9933C93.5357 37.7655 93.6203 37.5716 93.7896 37.4116C93.9619 37.2485 94.1681 37.1669 94.4082 37.1669C94.6483 37.1669 94.8529 37.2485 95.0222 37.4116C95.1945 37.5716 95.2807 37.7655 95.2807 37.9933C95.2807 38.2179 95.1945 38.4118 95.0222 38.5749C94.8529 38.735 94.6483 38.815 94.4082 38.815ZM99.9353 47.1431C99.249 47.1431 98.6581 46.9877 98.1626 46.6768C97.6701 46.3629 97.2916 45.9305 97.0269 45.3796C96.7622 44.8287 96.6299 44.1978 96.6299 43.4869C96.6299 42.7667 96.7653 42.1312 97.0361 41.5803C97.307 41.0263 97.6886 40.5939 98.181 40.283C98.6734 39.9722 99.2536 39.8168 99.9214 39.8168C100.46 39.8168 100.94 39.9168 101.362 40.1168C101.783 40.3138 102.123 40.5908 102.382 40.9478C102.644 41.3048 102.799 41.7218 102.848 42.1989H101.505C101.431 41.8665 101.262 41.5803 100.997 41.3402C100.735 41.1001 100.385 40.9801 99.9445 40.9801C99.5598 40.9801 99.2228 41.0817 98.9335 41.2848C98.6473 41.4848 98.4242 41.7711 98.2641 42.1435C98.1041 42.5128 98.0241 42.9498 98.0241 43.4545C98.0241 43.9716 98.1025 44.4179 98.2595 44.7933C98.4165 45.1688 98.6381 45.4596 98.9243 45.6658C99.2136 45.872 99.5537 45.9751 99.9445 45.9751C100.206 45.9751 100.443 45.9274 100.655 45.832C100.871 45.7335 101.051 45.5935 101.196 45.4119C101.343 45.2304 101.446 45.0118 101.505 44.7564H102.848C102.799 45.215 102.65 45.6243 102.4 45.9844C102.151 46.3445 101.817 46.6276 101.399 46.8338C100.983 47.04 100.495 47.1431 99.9353 47.1431ZM107.311 47.1431C106.646 47.1431 106.066 46.9908 105.571 46.6861C105.075 46.3814 104.691 45.9551 104.417 45.4073C104.143 44.8595 104.006 44.2193 104.006 43.4869C104.006 42.7513 104.143 42.1081 104.417 41.5572C104.691 41.0063 105.075 40.5785 105.571 40.2738C106.066 39.9691 106.646 39.8168 107.311 39.8168C107.976 39.8168 108.556 39.9691 109.052 40.2738C109.547 40.5785 109.932 41.0063 110.206 41.5572C110.48 42.1081 110.617 42.7513 110.617 43.4869C110.617 44.2193 110.48 44.8595 110.206 45.4073C109.932 45.9551 109.547 46.3814 109.052 46.6861C108.556 46.9908 107.976 47.1431 107.311 47.1431ZM107.316 45.9844C107.747 45.9844 108.104 45.8705 108.387 45.6428C108.67 45.415 108.879 45.1119 109.015 44.7333C109.153 44.3548 109.222 43.9377 109.222 43.4822C109.222 43.0298 109.153 42.6143 109.015 42.2358C108.879 41.8542 108.67 41.5479 108.387 41.3171C108.104 41.0863 107.747 40.9709 107.316 40.9709C106.882 40.9709 106.522 41.0863 106.236 41.3171C105.952 41.5479 105.742 41.8542 105.603 42.2358C105.468 42.6143 105.4 43.0298 105.4 43.4822C105.4 43.9377 105.468 44.3548 105.603 44.7333C105.742 45.1119 105.952 45.415 106.236 45.6428C106.522 45.8705 106.882 45.9844 107.316 45.9844Z" fill="#5C5C5C"/>
</svg>
