<svg width="58" height="37" viewBox="0 0 58 37" fill="none" xmlns="http://www.w3.org/2000/svg">
<path d="M20.3593 26.095C20.3246 25.7875 20.1817 25.5493 19.9305 25.3804C19.6793 25.2093 19.3631 25.1238 18.982 25.1238C18.7091 25.1238 18.4731 25.1671 18.2738 25.2537C18.0746 25.3382 17.9198 25.4551 17.8093 25.6045C17.701 25.7518 17.6469 25.9196 17.6469 26.108C17.6469 26.2661 17.6837 26.4025 17.7573 26.5173C17.8331 26.6321 17.9317 26.7284 18.0529 26.8064C18.1764 26.8822 18.3085 26.9461 18.4492 26.9981C18.59 27.0479 18.7253 27.089 18.8553 27.1215L19.5049 27.2904C19.7172 27.3424 19.9348 27.4128 20.1579 27.5016C20.3809 27.5903 20.5877 27.7073 20.7783 27.8524C20.9689 27.9975 21.1226 28.1772 21.2396 28.3916C21.3587 28.606 21.4182 28.8626 21.4182 29.1614C21.4182 29.5383 21.3208 29.8728 21.1259 30.1652C20.9331 30.4575 20.6527 30.6882 20.2845 30.8571C19.9186 31.026 19.4757 31.1104 18.956 31.1104C18.4579 31.1104 18.027 31.0314 17.6631 30.8733C17.2993 30.7152 17.0146 30.4911 16.8088 30.2009C16.6031 29.9086 16.4894 29.5621 16.4678 29.1614H17.4747C17.4942 29.4018 17.5722 29.6021 17.7086 29.7624C17.8472 29.9205 18.0237 30.0385 18.2381 30.1165C18.4547 30.1922 18.6918 30.2301 18.9495 30.2301C19.2332 30.2301 19.4855 30.1858 19.7063 30.097C19.9294 30.006 20.1048 29.8804 20.2326 29.7202C20.3603 29.5577 20.4242 29.3683 20.4242 29.1517C20.4242 28.9546 20.3679 28.7933 20.2553 28.6677C20.1449 28.5421 19.9944 28.4382 19.8038 28.3559C19.6154 28.2736 19.4021 28.201 19.1639 28.1382L18.3778 27.9238C17.845 27.7787 17.4228 27.5654 17.1109 27.2839C16.8013 27.0024 16.6464 26.6299 16.6464 26.1665C16.6464 25.7832 16.7504 25.4486 16.9583 25.1628C17.1661 24.8769 17.4477 24.6549 17.8028 24.4968C18.158 24.3366 18.5586 24.2565 19.0047 24.2565C19.4551 24.2565 19.8525 24.3355 20.1968 24.4936C20.5433 24.6517 20.8162 24.8693 21.0154 25.1465C21.2146 25.4215 21.3186 25.7377 21.3273 26.095H20.3593ZM23.126 31H22.0606L24.4546 24.3474H25.6142L28.0083 31H26.9428L25.062 25.5558H25.01L23.126 31ZM23.3047 28.3948H26.7609V29.2394H23.3047V28.3948ZM28.9689 31V24.3474H29.9727V30.1359H32.9871V31H28.9689ZM38.4102 24.3474H39.4172V28.7229C39.4172 29.1885 39.3078 29.6011 39.0891 29.9605C38.8704 30.3179 38.5629 30.5994 38.1666 30.8051C37.7703 31.0087 37.3058 31.1104 36.7731 31.1104C36.2425 31.1104 35.7791 31.0087 35.3828 30.8051C34.9865 30.5994 34.679 30.3179 34.4602 29.9605C34.2415 29.6011 34.1322 29.1885 34.1322 28.7229V24.3474H35.1359V28.6417C35.1359 28.9427 35.2019 29.2102 35.334 29.4441C35.4683 29.6779 35.6578 29.862 35.9025 29.9963C36.1472 30.1284 36.4374 30.1944 36.7731 30.1944C37.1109 30.1944 37.4021 30.1284 37.6469 29.9963C37.8937 29.862 38.0821 29.6779 38.2121 29.4441C38.3442 29.2102 38.4102 28.9427 38.4102 28.6417V24.3474ZM43.0301 31H40.8765V24.3474H43.0984C43.7502 24.3474 44.31 24.4806 44.7777 24.747C45.2455 25.0112 45.6039 25.3912 45.8529 25.8871C46.1041 26.3809 46.2297 26.9732 46.2297 27.664C46.2297 28.3569 46.1031 28.9525 45.8497 29.4505C45.5985 29.9486 45.2347 30.3319 44.7583 30.6005C44.2818 30.8668 43.7058 31 43.0301 31ZM41.8802 30.123H42.9749C43.4817 30.123 43.9029 30.0277 44.2385 29.8371C44.5742 29.6444 44.8254 29.3661 44.9921 29.0023C45.1589 28.6363 45.2423 28.1902 45.2423 27.664C45.2423 27.1421 45.1589 26.6992 44.9921 26.3354C44.8276 25.9716 44.5818 25.6955 44.2548 25.5071C43.9278 25.3187 43.5217 25.2245 43.0366 25.2245H41.8802V30.123Z" fill="#5C5C5C"/>
<path d="M0 0.585022H40.5258L57.7708 10.6115L40.5258 20.6381H12.0715V36.5134H0V0.585022Z" fill="#F14C60"/>
<path d="M13.3482 8.87224C13.2925 8.40201 13.0666 8.03696 12.6707 7.77709C12.2747 7.51723 11.789 7.38729 11.2135 7.38729C10.7928 7.38729 10.4247 7.45535 10.1091 7.59147C9.79666 7.72759 9.55226 7.91476 9.37592 8.15297C9.20268 8.39118 9.11605 8.66187 9.11605 8.96505C9.11605 9.21873 9.17638 9.43683 9.29703 9.61936C9.42078 9.79879 9.57855 9.94883 9.77036 10.0695C9.96217 10.187 10.1633 10.2845 10.3736 10.3618C10.584 10.4361 10.7773 10.4964 10.9537 10.5428L11.9189 10.8027C12.1664 10.8676 12.4417 10.9574 12.7449 11.0718C13.0512 11.1863 13.3435 11.3425 13.6219 11.5405C13.9035 11.7354 14.1355 11.986 14.318 12.2923C14.5005 12.5985 14.5918 12.9744 14.5918 13.4199C14.5918 13.9334 14.4572 14.3975 14.1881 14.812C13.922 15.2266 13.5322 15.5561 13.0187 15.8005C12.5082 16.0449 11.888 16.1671 11.1579 16.1671C10.4773 16.1671 9.88792 16.0572 9.38984 15.8376C8.89486 15.6179 8.50506 15.3117 8.22044 14.9188C7.93892 14.5259 7.7796 14.0696 7.74247 13.5498H8.93043C8.96137 13.9087 9.08202 14.2057 9.29239 14.4408C9.50585 14.6728 9.775 14.8461 10.0998 14.9605C10.4278 15.0719 10.7804 15.1276 11.1579 15.1276C11.5972 15.1276 11.9916 15.0564 12.3412 14.9141C12.6908 14.7687 12.9676 14.5676 13.1718 14.3109C13.376 14.051 13.4781 13.7478 13.4781 13.4013C13.4781 13.0858 13.3899 12.829 13.2136 12.631C13.0372 12.433 12.8052 12.2722 12.5175 12.1484C12.2298 12.0247 11.9189 11.9164 11.5848 11.8236L10.4154 11.4895C9.67291 11.276 9.08512 10.9713 8.65201 10.5753C8.2189 10.1793 8.00234 9.66112 8.00234 9.02074C8.00234 8.48863 8.1462 8.02458 8.4339 7.6286C8.72471 7.22952 9.11451 6.92015 9.6033 6.7005C10.0952 6.47776 10.6443 6.36639 11.2507 6.36639C11.8632 6.36639 12.4077 6.47621 12.8841 6.69586C13.3605 6.91242 13.738 7.20941 14.0164 7.58683C14.2979 7.96426 14.4464 8.39273 14.4619 8.87224H13.3482ZM16.484 16V6.49632H22.2196V7.51723H17.6348V10.7284H21.9226V11.7493H17.6348V14.9791H22.2938V16H16.484ZM30.7905 9.46622C30.6884 9.15376 30.5539 8.87379 30.3868 8.6263C30.2228 8.37571 30.0264 8.16225 29.7975 7.98591C29.5716 7.80957 29.3148 7.675 29.0271 7.58219C28.7394 7.48938 28.4239 7.44298 28.0805 7.44298C27.5174 7.44298 27.0054 7.58838 26.5445 7.87918C26.0835 8.16998 25.7169 8.59845 25.4447 9.16459C25.1725 9.73073 25.0363 10.4253 25.0363 11.2482C25.0363 12.0711 25.174 12.7656 25.4493 13.3317C25.7247 13.8979 26.0975 14.3263 26.5677 14.6171C27.0379 14.9079 27.5669 15.0533 28.1547 15.0533C28.6992 15.0533 29.1787 14.9373 29.5933 14.7053C30.0109 14.4702 30.3358 14.1392 30.5678 13.7122C30.8029 13.2822 30.9205 12.7764 30.9205 12.1948L31.2731 12.2691H28.4146V11.2482H32.0342V12.2691C32.0342 13.0518 31.8671 13.7324 31.533 14.3109C31.202 14.8894 30.7441 15.338 30.1594 15.6566C29.5778 15.9722 28.9096 16.1299 28.1547 16.1299C27.3133 16.1299 26.5739 15.9319 25.9366 15.536C25.3024 15.14 24.8074 14.5769 24.4516 13.8468C24.099 13.1167 23.9226 12.2505 23.9226 11.2482C23.9226 10.4964 24.0232 9.82044 24.2243 9.22028C24.4284 8.61702 24.7161 8.10347 25.0874 7.67964C25.4586 7.25581 25.8979 6.93098 26.4053 6.70514C26.9126 6.47931 27.471 6.36639 28.0805 6.36639C28.5817 6.36639 29.0488 6.44218 29.4819 6.59377C29.9181 6.74227 30.3064 6.95418 30.6467 7.22952C30.9901 7.50176 31.2762 7.82814 31.5051 8.20865C31.7341 8.58608 31.8919 9.00527 31.9785 9.46622H30.7905ZM37.1793 6.49632V16H36.0284V7.70284H35.9728L33.6525 9.24348V8.07408L36.0284 6.49632H37.1793Z" fill="white"/>
</svg>
