<svg width="183" height="55" viewBox="0 0 183 55" fill="none" xmlns="http://www.w3.org/2000/svg">
<path d="M0 0H55L69 14.5L55 29H18V55H0V0Z" fill="#F3B754"/>
<path d="M8.12216 9.90909L12.0085 20.929H12.1619L16.0483 9.90909H17.7102L12.9034 23H11.267L6.46023 9.90909H8.12216ZM19.1612 23H17.4993L22.3061 9.90909H23.9425L28.7493 23H27.0874L23.1754 11.9801H23.0732L19.1612 23ZM19.7749 17.8864H26.4737V19.2926H19.7749V17.8864ZM40.7072 14H39.122C39.0282 13.544 38.8642 13.1435 38.6298 12.7983C38.3997 12.4531 38.1184 12.1634 37.786 11.929C37.4579 11.6903 37.0936 11.5114 36.693 11.392C36.2924 11.2727 35.8748 11.2131 35.4402 11.2131C34.6475 11.2131 33.9295 11.4134 33.286 11.8139C32.6468 12.2145 32.1376 12.8047 31.7583 13.5845C31.3833 14.3643 31.1958 15.321 31.1958 16.4545C31.1958 17.5881 31.3833 18.5447 31.7583 19.3246C32.1376 20.1044 32.6468 20.6946 33.286 21.0952C33.9295 21.4957 34.6475 21.696 35.4402 21.696C35.8748 21.696 36.2924 21.6364 36.693 21.517C37.0936 21.3977 37.4579 21.2209 37.786 20.9865C38.1184 20.7479 38.3997 20.456 38.6298 20.1108C38.8642 19.7614 39.0282 19.3608 39.122 18.9091H40.7072C40.5879 19.5781 40.3706 20.1768 40.0552 20.7053C39.7399 21.2337 39.3478 21.6832 38.8791 22.054C38.4103 22.4205 37.8841 22.6996 37.3002 22.8913C36.7207 23.0831 36.1007 23.179 35.4402 23.179C34.3237 23.179 33.3308 22.9062 32.4615 22.3608C31.5922 21.8153 30.9082 21.0398 30.4096 20.0341C29.911 19.0284 29.6618 17.8352 29.6618 16.4545C29.6618 15.0739 29.911 13.8807 30.4096 12.875C30.9082 11.8693 31.5922 11.0938 32.4615 10.5483C33.3308 10.0028 34.3237 9.73011 35.4402 9.73011C36.1007 9.73011 36.7207 9.82599 37.3002 10.0178C37.8841 10.2095 38.4103 10.4908 38.8791 10.8615C39.3478 11.228 39.7399 11.6754 40.0552 12.2038C40.3706 12.728 40.5879 13.3267 40.7072 14ZM43.0387 23V21.8494L47.3597 17.1193C47.8668 16.5653 48.2844 16.0838 48.6126 15.6747C48.9407 15.2614 49.1836 14.8736 49.3413 14.5114C49.5032 14.1449 49.5842 13.7614 49.5842 13.3608C49.5842 12.9006 49.4734 12.5021 49.2518 12.1655C49.0344 11.8288 48.7362 11.5689 48.3569 11.3857C47.9776 11.2024 47.5515 11.1108 47.0785 11.1108C46.5756 11.1108 46.1367 11.2152 45.7617 11.424C45.391 11.6286 45.1033 11.9162 44.8988 12.2869C44.6985 12.6577 44.5984 13.0923 44.5984 13.5909H43.0898C43.0898 12.8239 43.2667 12.1506 43.6204 11.571C43.9741 10.9915 44.4556 10.5398 45.065 10.2159C45.6786 9.89204 46.3668 9.73011 47.1296 9.73011C47.8967 9.73011 48.5763 9.89204 49.1687 10.2159C49.761 10.5398 50.2255 10.9766 50.5621 11.5263C50.8988 12.076 51.0671 12.6875 51.0671 13.3608C51.0671 13.8423 50.9798 14.3132 50.805 14.7734C50.6346 15.2294 50.3363 15.7386 49.9102 16.3011C49.4883 16.8594 48.9023 17.5412 48.1523 18.3466L45.212 21.4915V21.5938H51.2972V23H43.0387Z" fill="white"/>
<path d="M25.8651 37.5455L28.4964 45.2457H28.6026L31.234 37.5455H32.7759L29.3736 47H27.7255L24.3232 37.5455H25.8651ZM35.3958 47.157C34.9464 47.157 34.5402 47.0739 34.177 46.9077C33.8139 46.7384 33.5261 46.4937 33.3137 46.1737C33.1045 45.8536 32.9998 45.4612 32.9998 44.9964C32.9998 44.5964 33.0768 44.267 33.2306 44.0085C33.3845 43.75 33.5923 43.5453 33.8539 43.3945C34.1155 43.2437 34.4078 43.1299 34.731 43.0529C35.0542 42.976 35.3835 42.9175 35.7189 42.8775C36.1436 42.8282 36.4883 42.7882 36.753 42.7575C37.0177 42.7236 37.21 42.6697 37.3301 42.5959C37.4501 42.522 37.5101 42.402 37.5101 42.2358V42.2035C37.5101 41.8003 37.3962 41.4879 37.1685 41.2663C36.9438 41.0447 36.6084 40.9339 36.1621 40.9339C35.6974 40.9339 35.3311 41.037 35.0634 41.2433C34.7987 41.4464 34.6156 41.6726 34.514 41.9219L33.2168 41.6264C33.3707 41.1955 33.5953 40.8478 33.8908 40.5831C34.1893 40.3153 34.5325 40.1214 34.9203 40.0014C35.3081 39.8783 35.7158 39.8168 36.1436 39.8168C36.4268 39.8168 36.7269 39.8506 37.0439 39.9183C37.3639 39.983 37.6625 40.103 37.9395 40.2784C38.2195 40.4538 38.4488 40.7047 38.6273 41.0309C38.8058 41.354 38.8951 41.7741 38.8951 42.2912V47H37.5471V46.0305H37.4917C37.4024 46.209 37.2685 46.3845 37.09 46.5568C36.9115 46.7292 36.6822 46.8723 36.4022 46.9862C36.1221 47.1 35.7866 47.157 35.3958 47.157ZM35.6958 46.049C36.0775 46.049 36.4037 45.9736 36.6745 45.8228C36.9484 45.672 37.1562 45.475 37.2978 45.2319C37.4424 44.9857 37.5147 44.7225 37.5147 44.4425V43.5284C37.4655 43.5777 37.3701 43.6238 37.2285 43.6669C37.09 43.7069 36.9315 43.7423 36.753 43.7731C36.5745 43.8008 36.4006 43.8269 36.2314 43.8516C36.0621 43.8731 35.9205 43.8916 35.8066 43.907C35.5389 43.9408 35.2942 43.9978 35.0726 44.0778C34.8541 44.1578 34.6787 44.2732 34.5463 44.424C34.4171 44.5717 34.3525 44.7687 34.3525 45.0149C34.3525 45.3565 34.4786 45.6151 34.731 45.7905C34.9834 45.9628 35.305 46.049 35.6958 46.049ZM43.7204 47.1431C43.0341 47.1431 42.4432 46.9877 41.9477 46.6768C41.4553 46.3629 41.0767 45.9305 40.8121 45.3796C40.5474 44.8287 40.415 44.1978 40.415 43.4869C40.415 42.7667 40.5505 42.1312 40.8213 41.5803C41.0921 41.0263 41.4738 40.5939 41.9662 40.283C42.4586 39.9722 43.0387 39.8168 43.7066 39.8168C44.2452 39.8168 44.7253 39.9168 45.1469 40.1168C45.5686 40.3138 45.9086 40.5908 46.1672 40.9478C46.4288 41.3048 46.5842 41.7218 46.6334 42.1989H45.29C45.2162 41.8665 45.0469 41.5803 44.7822 41.3402C44.5206 41.1001 44.1698 40.9801 43.7297 40.9801C43.345 40.9801 43.008 41.0817 42.7187 41.2848C42.4324 41.4848 42.2093 41.7711 42.0493 42.1435C41.8892 42.5128 41.8092 42.9498 41.8092 43.4545C41.8092 43.9716 41.8877 44.4179 42.0447 44.7933C42.2016 45.1688 42.4232 45.4596 42.7094 45.6658C42.9987 45.872 43.3388 45.9751 43.7297 45.9751C43.9913 45.9751 44.2282 45.9274 44.4406 45.832C44.656 45.7335 44.8361 45.5935 44.9807 45.4119C45.1285 45.2304 45.2316 45.0118 45.29 44.7564H46.6334C46.5842 45.215 46.4349 45.6243 46.1856 45.9844C45.9363 46.3445 45.6024 46.6276 45.1839 46.8338C44.7684 47.04 44.2806 47.1431 43.7204 47.1431ZM50.1731 47.157C49.7238 47.157 49.3175 47.0739 48.9544 46.9077C48.5912 46.7384 48.3034 46.4937 48.0911 46.1737C47.8818 45.8536 47.7772 45.4612 47.7772 44.9964C47.7772 44.5964 47.8541 44.267 48.008 44.0085C48.1619 43.75 48.3696 43.5453 48.6312 43.3945C48.8928 43.2437 49.1852 43.1299 49.5083 43.0529C49.8315 42.976 50.1608 42.9175 50.4963 42.8775C50.921 42.8282 51.2657 42.7882 51.5304 42.7575C51.795 42.7236 51.9874 42.6697 52.1074 42.5959C52.2275 42.522 52.2875 42.402 52.2875 42.2358V42.2035C52.2875 41.8003 52.1736 41.4879 51.9458 41.2663C51.7212 41.0447 51.3857 40.9339 50.9395 40.9339C50.4747 40.9339 50.1085 41.037 49.8407 41.2433C49.5761 41.4464 49.3929 41.6726 49.2914 41.9219L47.9941 41.6264C48.148 41.1955 48.3727 40.8478 48.6681 40.5831C48.9667 40.3153 49.3098 40.1214 49.6976 40.0014C50.0854 39.8783 50.4932 39.8168 50.921 39.8168C51.2041 39.8168 51.5042 39.8506 51.8212 39.9183C52.1413 39.983 52.4398 40.103 52.7168 40.2784C52.9969 40.4538 53.2261 40.7047 53.4047 41.0309C53.5832 41.354 53.6724 41.7741 53.6724 42.2912V47H52.3244V46.0305H52.269C52.1797 46.209 52.0459 46.3845 51.8674 46.5568C51.6889 46.7292 51.4596 46.8723 51.1795 46.9862C50.8994 47.1 50.564 47.157 50.1731 47.157ZM50.4732 46.049C50.8548 46.049 51.181 45.9736 51.4519 45.8228C51.7258 45.672 51.9335 45.475 52.0751 45.2319C52.2198 44.9857 52.2921 44.7225 52.2921 44.4425V43.5284C52.2428 43.5777 52.1474 43.6238 52.0059 43.6669C51.8674 43.7069 51.7089 43.7423 51.5304 43.7731C51.3519 43.8008 51.178 43.8269 51.0087 43.8516C50.8394 43.8731 50.6979 43.8916 50.584 43.907C50.3162 43.9408 50.0716 43.9978 49.85 44.0778C49.6315 44.1578 49.456 44.2732 49.3237 44.424C49.1944 44.5717 49.1298 44.7687 49.1298 45.0149C49.1298 45.3565 49.256 45.6151 49.5083 45.7905C49.7607 45.9628 50.0823 46.049 50.4732 46.049ZM58.4978 47.1431C57.8115 47.1431 57.2206 46.9877 56.7251 46.6768C56.2326 46.3629 55.8541 45.9305 55.5894 45.3796C55.3247 44.8287 55.1924 44.1978 55.1924 43.4869C55.1924 42.7667 55.3278 42.1312 55.5986 41.5803C55.8695 41.0263 56.2511 40.5939 56.7435 40.283C57.2359 39.9722 57.8161 39.8168 58.4839 39.8168C59.0225 39.8168 59.5026 39.9168 59.9243 40.1168C60.3459 40.3138 60.686 40.5908 60.9445 40.9478C61.2061 41.3048 61.3615 41.7218 61.4108 42.1989H60.0674C59.9935 41.8665 59.8242 41.5803 59.5596 41.3402C59.298 41.1001 58.9471 40.9801 58.507 40.9801C58.1223 40.9801 57.7853 41.0817 57.496 41.2848C57.2098 41.4848 56.9867 41.7711 56.8266 42.1435C56.6666 42.5128 56.5866 42.9498 56.5866 43.4545C56.5866 43.9716 56.665 44.4179 56.822 44.7933C56.979 45.1688 57.2006 45.4596 57.4868 45.6658C57.7761 45.872 58.1162 45.9751 58.507 45.9751C58.7686 45.9751 59.0056 45.9274 59.218 45.832C59.4334 45.7335 59.6134 45.5935 59.7581 45.4119C59.9058 45.2304 60.0089 45.0118 60.0674 44.7564H61.4108C61.3615 45.215 61.2123 45.6243 60.963 45.9844C60.7137 46.3445 60.3798 46.6276 59.9612 46.8338C59.5457 47.04 59.0579 47.1431 58.4978 47.1431ZM62.8869 47V39.9091H64.2672V47H62.8869ZM63.584 38.815C63.3439 38.815 63.1377 38.735 62.9654 38.5749C62.7961 38.4118 62.7115 38.2179 62.7115 37.9933C62.7115 37.7655 62.7961 37.5716 62.9654 37.4116C63.1377 37.2485 63.3439 37.1669 63.584 37.1669C63.824 37.1669 64.0287 37.2485 64.198 37.4116C64.3703 37.5716 64.4565 37.7655 64.4565 37.9933C64.4565 38.2179 64.3703 38.4118 64.198 38.5749C64.0287 38.735 63.824 38.815 63.584 38.815ZM69.1111 47.1431C68.4463 47.1431 67.8662 46.9908 67.3706 46.6861C66.8751 46.3814 66.4904 45.9551 66.2165 45.4073C65.9426 44.8595 65.8057 44.2193 65.8057 43.4869C65.8057 42.7513 65.9426 42.1081 66.2165 41.5572C66.4904 41.0063 66.8751 40.5785 67.3706 40.2738C67.8662 39.9691 68.4463 39.8168 69.1111 39.8168C69.7758 39.8168 70.356 39.9691 70.8515 40.2738C71.347 40.5785 71.7317 41.0063 72.0056 41.5572C72.2795 42.1081 72.4165 42.7513 72.4165 43.4869C72.4165 44.2193 72.2795 44.8595 72.0056 45.4073C71.7317 45.9551 71.347 46.3814 70.8515 46.6861C70.356 46.9908 69.7758 47.1431 69.1111 47.1431ZM69.1157 45.9844C69.5465 45.9844 69.9036 45.8705 70.1867 45.6428C70.4698 45.415 70.6791 45.1119 70.8145 44.7333C70.953 44.3548 71.0223 43.9377 71.0223 43.4822C71.0223 43.0298 70.953 42.6143 70.8145 42.2358C70.6791 41.8542 70.4698 41.5479 70.1867 41.3171C69.9036 41.0863 69.5465 40.9709 69.1157 40.9709C68.6817 40.9709 68.3216 41.0863 68.0354 41.3171C67.7523 41.5479 67.5415 41.8542 67.403 42.2358C67.2675 42.6143 67.1998 43.0298 67.1998 43.4822C67.1998 43.9377 67.2675 44.3548 67.403 44.7333C67.5415 45.1119 67.7523 45.415 68.0354 45.6428C68.3216 45.8705 68.6817 45.9844 69.1157 45.9844ZM75.3375 42.7898V47H73.9572V39.9091H75.2821V41.0632H75.3699C75.533 40.6877 75.7884 40.3861 76.1362 40.1584C76.487 39.9306 76.9287 39.8168 77.4611 39.8168C77.9443 39.8168 78.3675 39.9183 78.7306 40.1214C79.0938 40.3215 79.3754 40.62 79.5755 41.017C79.7755 41.4141 79.8755 41.9049 79.8755 42.4897V47H78.4952V42.6559C78.4952 42.1419 78.3613 41.7403 78.0936 41.451C77.8258 41.1586 77.458 41.0124 76.9902 41.0124C76.6702 41.0124 76.3855 41.0817 76.1362 41.2202C75.89 41.3587 75.6945 41.5618 75.5499 41.8295C75.4083 42.0942 75.3375 42.4143 75.3375 42.7898ZM84.7828 47.1431C84.0842 47.1431 83.4825 46.9938 82.9778 46.6953C82.4761 46.3937 82.0884 45.9705 81.8145 45.4258C81.5436 44.878 81.4082 44.2363 81.4082 43.5007C81.4082 42.7744 81.5436 42.1342 81.8145 41.5803C82.0884 41.0263 82.47 40.5939 82.9593 40.283C83.4518 39.9722 84.0273 39.8168 84.6859 39.8168C85.086 39.8168 85.4738 39.8829 85.8493 40.0153C86.2247 40.1476 86.5617 40.3554 86.8603 40.6385C87.1588 40.9216 87.3942 41.2894 87.5666 41.7418C87.7389 42.1912 87.8251 42.7375 87.8251 43.3807V43.87H82.1884V42.8359H86.4725C86.4725 42.4728 86.3986 42.1512 86.2509 41.8711C86.1032 41.5879 85.8954 41.3648 85.6277 41.2017C85.363 41.0386 85.0521 40.957 84.6951 40.957C84.3074 40.957 83.9688 41.0524 83.6795 41.2433C83.3933 41.431 83.1717 41.6772 83.0147 41.9819C82.8609 42.2835 82.7839 42.6113 82.7839 42.9652V43.7731C82.7839 44.247 82.867 44.6502 83.0332 44.9826C83.2025 45.315 83.4379 45.5689 83.7395 45.7443C84.0411 45.9167 84.3935 46.0028 84.7967 46.0028C85.0583 46.0028 85.2968 45.9659 85.5123 45.892C85.7277 45.8151 85.9139 45.7012 86.0708 45.5504C86.2278 45.3996 86.3478 45.2134 86.4309 44.9918L87.7374 45.2273C87.6328 45.612 87.445 45.949 87.1742 46.2383C86.9064 46.5245 86.5694 46.7476 86.1632 46.9077C85.76 47.0646 85.2999 47.1431 84.7828 47.1431ZM94.6702 41.6403L93.4191 41.8619C93.3668 41.7018 93.2837 41.5495 93.1698 41.4048C93.059 41.2602 92.9082 41.1417 92.7174 41.0494C92.5266 40.957 92.2881 40.9109 92.0019 40.9109C91.611 40.9109 91.2848 40.9986 91.0232 41.174C90.7616 41.3464 90.6308 41.5695 90.6308 41.8434C90.6308 42.0804 90.7185 42.2712 90.8939 42.4158C91.0693 42.5605 91.3525 42.679 91.7433 42.7713L92.8698 43.0298C93.5222 43.1806 94.0085 43.413 94.3286 43.7269C94.6486 44.0408 94.8087 44.4486 94.8087 44.9503C94.8087 45.375 94.6856 45.7536 94.4394 46.0859C94.1962 46.4152 93.8561 46.6738 93.4191 46.8615C92.9852 47.0492 92.482 47.1431 91.9095 47.1431C91.1155 47.1431 90.4677 46.9738 89.966 46.6353C89.4643 46.2937 89.1566 45.8089 89.0427 45.1811L90.3769 44.978C90.46 45.3258 90.6308 45.5889 90.8893 45.7674C91.1478 45.9428 91.4848 46.0305 91.9003 46.0305C92.3527 46.0305 92.7143 45.9367 92.9852 45.7489C93.256 45.5581 93.3914 45.3258 93.3914 45.0518C93.3914 44.8303 93.3083 44.6441 93.1421 44.4933C92.979 44.3424 92.7282 44.2286 92.3896 44.1516L91.1894 43.8885C90.5277 43.7377 90.0383 43.4976 89.7213 43.1683C89.4074 42.839 89.2504 42.422 89.2504 41.9173C89.2504 41.4987 89.3674 41.1325 89.6013 40.8185C89.8352 40.5046 90.1584 40.2599 90.5708 40.0845C90.9832 39.906 91.4556 39.8168 91.988 39.8168C92.7544 39.8168 93.3576 39.983 93.7977 40.3153C94.2378 40.6446 94.5286 41.0863 94.6702 41.6403ZM102.938 47H99.8776V37.5455H103.035C103.962 37.5455 104.757 37.7347 105.422 38.1133C106.087 38.4888 106.596 39.0289 106.95 39.7337C107.307 40.4354 107.486 41.2771 107.486 42.2589C107.486 43.2437 107.305 44.0901 106.945 44.7979C106.588 45.5058 106.071 46.0505 105.394 46.4322C104.717 46.8107 103.899 47 102.938 47ZM101.304 45.7536H102.86C103.58 45.7536 104.179 45.6181 104.656 45.3473C105.133 45.0734 105.49 44.6779 105.727 44.1609C105.964 43.6407 106.082 43.0067 106.082 42.2589C106.082 41.5172 105.964 40.8878 105.727 40.3707C105.493 39.8537 105.143 39.4613 104.679 39.1935C104.214 38.9258 103.637 38.7919 102.948 38.7919H101.304V45.7536ZM109.149 47V39.9091H110.529V47H109.149ZM109.846 38.815C109.606 38.815 109.399 38.735 109.227 38.5749C109.058 38.4118 108.973 38.2179 108.973 37.9933C108.973 37.7655 109.058 37.5716 109.227 37.4116C109.399 37.2485 109.606 37.1669 109.846 37.1669C110.086 37.1669 110.29 37.2485 110.46 37.4116C110.632 37.5716 110.718 37.7655 110.718 37.9933C110.718 38.2179 110.632 38.4118 110.46 38.5749C110.29 38.735 110.086 38.815 109.846 38.815ZM114.449 47.157C114 47.157 113.594 47.0739 113.231 46.9077C112.868 46.7384 112.58 46.4937 112.367 46.1737C112.158 45.8536 112.054 45.4612 112.054 44.9964C112.054 44.5964 112.13 44.267 112.284 44.0085C112.438 43.75 112.646 43.5453 112.908 43.3945C113.169 43.2437 113.462 43.1299 113.785 43.0529C114.108 42.976 114.437 42.9175 114.773 42.8775C115.197 42.8282 115.542 42.7882 115.807 42.7575C116.071 42.7236 116.264 42.6697 116.384 42.5959C116.504 42.522 116.564 42.402 116.564 42.2358V42.2035C116.564 41.8003 116.45 41.4879 116.222 41.2663C115.998 41.0447 115.662 40.9339 115.216 40.9339C114.751 40.9339 114.385 41.037 114.117 41.2433C113.852 41.4464 113.669 41.6726 113.568 41.9219L112.271 41.6264C112.424 41.1955 112.649 40.8478 112.945 40.5831C113.243 40.3153 113.586 40.1214 113.974 40.0014C114.362 39.8783 114.77 39.8168 115.197 39.8168C115.48 39.8168 115.781 39.8506 116.098 39.9183C116.418 39.983 116.716 40.103 116.993 40.2784C117.273 40.4538 117.503 40.7047 117.681 41.0309C117.86 41.354 117.949 41.7741 117.949 42.2912V47H116.601V46.0305H116.545C116.456 46.209 116.322 46.3845 116.144 46.5568C115.965 46.7292 115.736 46.8723 115.456 46.9862C115.176 47.1 114.84 47.157 114.449 47.157ZM114.75 46.049C115.131 46.049 115.457 45.9736 115.728 45.8228C116.002 45.672 116.21 45.475 116.351 45.2319C116.496 44.9857 116.568 44.7225 116.568 44.4425V43.5284C116.519 43.5777 116.424 43.6238 116.282 43.6669C116.144 43.7069 115.985 43.7423 115.807 43.7731C115.628 43.8008 115.454 43.8269 115.285 43.8516C115.116 43.8731 114.974 43.8916 114.86 43.907C114.593 43.9408 114.348 43.9978 114.126 44.0778C113.908 44.1578 113.732 44.2732 113.6 44.424C113.471 44.5717 113.406 44.7687 113.406 45.0149C113.406 45.3565 113.532 45.6151 113.785 45.7905C114.037 45.9628 114.359 46.049 114.75 46.049ZM125.101 41.6403L123.85 41.8619C123.797 41.7018 123.714 41.5495 123.6 41.4048C123.49 41.2602 123.339 41.1417 123.148 41.0494C122.957 40.957 122.719 40.9109 122.433 40.9109C122.042 40.9109 121.715 40.9986 121.454 41.174C121.192 41.3464 121.061 41.5695 121.061 41.8434C121.061 42.0804 121.149 42.2712 121.325 42.4158C121.5 42.5605 121.783 42.679 122.174 42.7713L123.3 43.0298C123.953 43.1806 124.439 43.413 124.759 43.7269C125.079 44.0408 125.239 44.4486 125.239 44.9503C125.239 45.375 125.116 45.7536 124.87 46.0859C124.627 46.4152 124.287 46.6738 123.85 46.8615C123.416 47.0492 122.913 47.1431 122.34 47.1431C121.546 47.1431 120.898 46.9738 120.397 46.6353C119.895 46.2937 119.587 45.8089 119.473 45.1811L120.808 44.978C120.891 45.3258 121.061 45.5889 121.32 45.7674C121.578 45.9428 121.915 46.0305 122.331 46.0305C122.783 46.0305 123.145 45.9367 123.416 45.7489C123.687 45.5581 123.822 45.3258 123.822 45.0518C123.822 44.8303 123.739 44.6441 123.573 44.4933C123.41 44.3424 123.159 44.2286 122.82 44.1516L121.62 43.8885C120.958 43.7377 120.469 43.4976 120.152 43.1683C119.838 42.839 119.681 42.422 119.681 41.9173C119.681 41.4987 119.798 41.1325 120.032 40.8185C120.266 40.5046 120.589 40.2599 121.001 40.0845C121.414 39.906 121.886 39.8168 122.419 39.8168C123.185 39.8168 123.788 39.983 124.228 40.3153C124.668 40.6446 124.959 41.0863 125.101 41.6403ZM130.308 47V37.5455H136.171V38.7734H131.735V41.6541H135.751V42.8775H131.735V47H130.308ZM140.35 47.1431C139.652 47.1431 139.05 46.9938 138.545 46.6953C138.044 46.3937 137.656 45.9705 137.382 45.4258C137.111 44.878 136.976 44.2363 136.976 43.5007C136.976 42.7744 137.111 42.1342 137.382 41.5803C137.656 41.0263 138.037 40.5939 138.527 40.283C139.019 39.9722 139.595 39.8168 140.253 39.8168C140.653 39.8168 141.041 39.8829 141.417 40.0153C141.792 40.1476 142.129 40.3554 142.428 40.6385C142.726 40.9216 142.962 41.2894 143.134 41.7418C143.306 42.1912 143.392 42.7375 143.392 43.3807V43.87H137.756V42.8359H142.04C142.04 42.4728 141.966 42.1512 141.818 41.8711C141.671 41.5879 141.463 41.3648 141.195 41.2017C140.93 41.0386 140.62 40.957 140.263 40.957C139.875 40.957 139.536 41.0524 139.247 41.2433C138.961 41.431 138.739 41.6772 138.582 41.9819C138.428 42.2835 138.351 42.6113 138.351 42.9652V43.7731C138.351 44.247 138.434 44.6502 138.601 44.9826C138.77 45.315 139.005 45.5689 139.307 45.7443C139.609 45.9167 139.961 46.0028 140.364 46.0028C140.626 46.0028 140.864 45.9659 141.08 45.892C141.295 45.8151 141.481 45.7012 141.638 45.5504C141.795 45.3996 141.915 45.2134 141.998 44.9918L143.305 45.2273C143.2 45.612 143.012 45.949 142.742 46.2383C142.474 46.5245 142.137 46.7476 141.731 46.9077C141.327 47.0646 140.867 47.1431 140.35 47.1431ZM150.238 41.6403L148.987 41.8619C148.934 41.7018 148.851 41.5495 148.737 41.4048C148.626 41.2602 148.476 41.1417 148.285 41.0494C148.094 40.957 147.855 40.9109 147.569 40.9109C147.178 40.9109 146.852 40.9986 146.591 41.174C146.329 41.3464 146.198 41.5695 146.198 41.8434C146.198 42.0804 146.286 42.2712 146.461 42.4158C146.637 42.5605 146.92 42.679 147.311 42.7713L148.437 43.0298C149.09 43.1806 149.576 43.413 149.896 43.7269C150.216 44.0408 150.376 44.4486 150.376 44.9503C150.376 45.375 150.253 45.7536 150.007 46.0859C149.764 46.4152 149.424 46.6738 148.987 46.8615C148.553 47.0492 148.049 47.1431 147.477 47.1431C146.683 47.1431 146.035 46.9738 145.533 46.6353C145.032 46.2937 144.724 45.8089 144.61 45.1811L145.944 44.978C146.027 45.3258 146.198 45.5889 146.457 45.7674C146.715 45.9428 147.052 46.0305 147.468 46.0305C147.92 46.0305 148.282 45.9367 148.553 45.7489C148.823 45.5581 148.959 45.3258 148.959 45.0518C148.959 44.8303 148.876 44.6441 148.71 44.4933C148.546 44.3424 148.296 44.2286 147.957 44.1516L146.757 43.8885C146.095 43.7377 145.606 43.4976 145.289 43.1683C144.975 42.839 144.818 42.422 144.818 41.9173C144.818 41.4987 144.935 41.1325 145.169 40.8185C145.403 40.5046 145.726 40.2599 146.138 40.0845C146.551 39.906 147.023 39.8168 147.555 39.8168C148.322 39.8168 148.925 39.983 149.365 40.3153C149.805 40.6446 150.096 41.0863 150.238 41.6403ZM155.204 39.9091V41.017H151.331V39.9091H155.204ZM152.369 38.2102H153.75V44.918C153.75 45.1857 153.79 45.3873 153.87 45.5227C153.95 45.6551 154.053 45.7459 154.179 45.7951C154.308 45.8413 154.448 45.8643 154.599 45.8643C154.71 45.8643 154.807 45.8567 154.89 45.8413C154.973 45.8259 155.038 45.8136 155.084 45.8043L155.333 46.9446C155.253 46.9754 155.139 47.0062 154.991 47.0369C154.844 47.0708 154.659 47.0893 154.437 47.0923C154.074 47.0985 153.736 47.0339 153.422 46.8984C153.108 46.763 152.854 46.5537 152.66 46.2706C152.466 45.9875 152.369 45.632 152.369 45.2042V38.2102ZM156.731 47V39.9091H158.111V47H156.731ZM157.428 38.815C157.188 38.815 156.981 38.735 156.809 38.5749C156.64 38.4118 156.555 38.2179 156.555 37.9933C156.555 37.7655 156.64 37.5716 156.809 37.4116C156.981 37.2485 157.188 37.1669 157.428 37.1669C157.668 37.1669 157.872 37.2485 158.042 37.4116C158.214 37.5716 158.3 37.7655 158.3 37.9933C158.3 38.2179 158.214 38.4118 158.042 38.5749C157.872 38.735 157.668 38.815 157.428 38.815ZM166.034 39.9091L163.463 47H161.985L159.409 39.9091H160.891L162.687 45.3658H162.761L164.552 39.9091H166.034ZM170.077 47.1431C169.412 47.1431 168.832 46.9908 168.336 46.6861C167.841 46.3814 167.456 45.9551 167.182 45.4073C166.908 44.8595 166.771 44.2193 166.771 43.4869C166.771 42.7513 166.908 42.1081 167.182 41.5572C167.456 41.0063 167.841 40.5785 168.336 40.2738C168.832 39.9691 169.412 39.8168 170.077 39.8168C170.742 39.8168 171.322 39.9691 171.817 40.2738C172.313 40.5785 172.698 41.0063 172.971 41.5572C173.245 42.1081 173.382 42.7513 173.382 43.4869C173.382 44.2193 173.245 44.8595 172.971 45.4073C172.698 45.9551 172.313 46.3814 171.817 46.6861C171.322 46.9908 170.742 47.1431 170.077 47.1431ZM170.081 45.9844C170.512 45.9844 170.869 45.8705 171.153 45.6428C171.436 45.415 171.645 45.1119 171.78 44.7333C171.919 44.3548 171.988 43.9377 171.988 43.4822C171.988 43.0298 171.919 42.6143 171.78 42.2358C171.645 41.8542 171.436 41.5479 171.153 41.3171C170.869 41.0863 170.512 40.9709 170.081 40.9709C169.648 40.9709 169.287 41.0863 169.001 41.3171C168.718 41.5479 168.507 41.8542 168.369 42.2358C168.233 42.6143 168.166 43.0298 168.166 43.4822C168.166 43.9377 168.233 44.3548 168.369 44.7333C168.507 45.1119 168.718 45.415 169.001 45.6428C169.287 45.8705 169.648 45.9844 170.081 45.9844ZM180.237 41.6403L178.986 41.8619C178.933 41.7018 178.85 41.5495 178.736 41.4048C178.625 41.2602 178.475 41.1417 178.284 41.0494C178.093 40.957 177.854 40.9109 177.568 40.9109C177.177 40.9109 176.851 40.9986 176.59 41.174C176.328 41.3464 176.197 41.5695 176.197 41.8434C176.197 42.0804 176.285 42.2712 176.46 42.4158C176.636 42.5605 176.919 42.679 177.31 42.7713L178.436 43.0298C179.089 43.1806 179.575 43.413 179.895 43.7269C180.215 44.0408 180.375 44.4486 180.375 44.9503C180.375 45.375 180.252 45.7536 180.006 46.0859C179.763 46.4152 179.423 46.6738 178.986 46.8615C178.552 47.0492 178.048 47.1431 177.476 47.1431C176.682 47.1431 176.034 46.9738 175.532 46.6353C175.031 46.2937 174.723 45.8089 174.609 45.1811L175.943 44.978C176.026 45.3258 176.197 45.5889 176.456 45.7674C176.714 45.9428 177.051 46.0305 177.467 46.0305C177.919 46.0305 178.281 45.9367 178.552 45.7489C178.822 45.5581 178.958 45.3258 178.958 45.0518C178.958 44.8303 178.875 44.6441 178.709 44.4933C178.545 44.3424 178.295 44.2286 177.956 44.1516L176.756 43.8885C176.094 43.7377 175.605 43.4976 175.288 43.1683C174.974 42.839 174.817 42.422 174.817 41.9173C174.817 41.4987 174.934 41.1325 175.168 40.8185C175.402 40.5046 175.725 40.2599 176.137 40.0845C176.55 39.906 177.022 39.8168 177.554 39.8168C178.321 39.8168 178.924 39.983 179.364 40.3153C179.804 40.6446 180.095 41.0863 180.237 41.6403Z" fill="#5C5C5C"/>
</svg>
