<svg width="69" height="55" viewBox="0 0 69 55" fill="none" xmlns="http://www.w3.org/2000/svg">
<path d="M0 0H55L69 14.5L55 29H18V55H0V0Z" fill="#F14C60"/>
<path d="M14.7443 13.1818C14.6676 12.5341 14.3565 12.0312 13.8111 11.6733C13.2656 11.3153 12.5966 11.1364 11.804 11.1364C11.2244 11.1364 10.7173 11.2301 10.2827 11.4176C9.85227 11.6051 9.51563 11.8629 9.27273 12.1911C9.03409 12.5192 8.91477 12.892 8.91477 13.3097C8.91477 13.6591 8.99787 13.9595 9.16406 14.2109C9.33452 14.4581 9.55185 14.6648 9.81605 14.831C10.0803 14.9929 10.3572 15.1271 10.647 15.2337C10.9368 15.3359 11.2031 15.419 11.446 15.483L12.7756 15.8409C13.1165 15.9304 13.4957 16.054 13.9134 16.2116C14.3352 16.3693 14.7379 16.5845 15.1214 16.8572C15.5092 17.1257 15.8288 17.4709 16.0803 17.8928C16.3317 18.3146 16.4574 18.8324 16.4574 19.446C16.4574 20.1534 16.272 20.7926 15.9013 21.3636C15.5348 21.9347 14.9979 22.3885 14.2905 22.7251C13.5874 23.0618 12.733 23.2301 11.7273 23.2301C10.7898 23.2301 9.97798 23.0788 9.2919 22.7763C8.61009 22.4737 8.07315 22.0518 7.68111 21.5107C7.29332 20.9695 7.07386 20.3409 7.02273 19.625H8.65909C8.7017 20.1193 8.8679 20.5284 9.15767 20.8523C9.4517 21.1719 9.82244 21.4105 10.2699 21.5682C10.7216 21.7216 11.2074 21.7983 11.7273 21.7983C12.3324 21.7983 12.8757 21.7003 13.3572 21.5043C13.8388 21.304 14.2202 21.027 14.5014 20.6733C14.7827 20.3153 14.9233 19.8977 14.9233 19.4205C14.9233 18.9858 14.8018 18.6321 14.5589 18.3594C14.3161 18.0866 13.9964 17.8651 13.6001 17.6946C13.2038 17.5241 12.7756 17.375 12.3153 17.2472L10.7045 16.7869C9.68182 16.4929 8.87216 16.0732 8.27557 15.5277C7.67898 14.9822 7.38068 14.2685 7.38068 13.3864C7.38068 12.6534 7.57884 12.0142 7.97514 11.4688C8.37571 10.919 8.91264 10.4929 9.58594 10.1903C10.2635 9.88352 11.0199 9.73011 11.8551 9.73011C12.6989 9.73011 13.4489 9.88139 14.1051 10.1839C14.7614 10.4822 15.2813 10.8913 15.6648 11.4112C16.0526 11.9311 16.2571 12.5213 16.2784 13.1818H14.7443ZM19.0637 23V9.90909H26.9643V11.3153H20.649V15.7386H26.5552V17.1449H20.649V21.5938H27.0666V23H19.0637ZM38.7704 14C38.6298 13.5696 38.4444 13.1839 38.2143 12.843C37.9885 12.4979 37.7179 12.2038 37.4025 11.9609C37.0914 11.718 36.7377 11.5327 36.3414 11.4048C35.9451 11.277 35.5105 11.2131 35.0375 11.2131C34.2619 11.2131 33.5566 11.4134 32.9217 11.8139C32.2868 12.2145 31.7818 12.8047 31.4068 13.5845C31.0318 14.3643 30.8443 15.321 30.8443 16.4545C30.8443 17.5881 31.0339 18.5447 31.4132 19.3246C31.7924 20.1044 32.3059 20.6946 32.9537 21.0952C33.6014 21.4957 34.3301 21.696 35.1397 21.696C35.8897 21.696 36.5502 21.5362 37.1213 21.2166C37.6966 20.8928 38.144 20.4368 38.4636 19.8487C38.7875 19.2564 38.9494 18.5597 38.9494 17.7585L39.4352 17.8608H35.4977V16.4545H40.4835V17.8608C40.4835 18.9389 40.2534 19.8764 39.7931 20.6733C39.3372 21.4702 38.7065 22.0881 37.9011 22.527C37.1 22.9616 36.1795 23.179 35.1397 23.179C33.9806 23.179 32.9622 22.9062 32.0843 22.3608C31.2108 21.8153 30.5289 21.0398 30.0389 20.0341C29.5531 19.0284 29.3102 17.8352 29.3102 16.4545C29.3102 15.419 29.4487 14.4879 29.7257 13.6612C30.0069 12.8303 30.4032 12.1229 30.9146 11.5391C31.426 10.9553 32.0311 10.5078 32.7299 10.1967C33.4288 9.88565 34.198 9.73011 35.0375 9.73011C35.7278 9.73011 36.3713 9.83452 36.9679 10.0433C37.5687 10.2479 38.1035 10.5398 38.5723 10.919C39.0453 11.294 39.4395 11.7436 39.7548 12.2678C40.0701 12.7876 40.2875 13.3651 40.4068 14H38.7704ZM47.5707 9.90909V23H45.9854V11.571H45.9087L42.7127 13.6932V12.0824L45.9854 9.90909H47.5707Z" fill="white"/>
<path d="M30.1953 40.0291C30.1461 39.5921 29.9429 39.2536 29.5859 39.0135C29.2289 38.7704 28.7796 38.6488 28.2379 38.6488C27.8501 38.6488 27.5147 38.7103 27.2315 38.8335C26.9484 38.9535 26.7283 39.1197 26.5714 39.332C26.4175 39.5413 26.3406 39.7798 26.3406 40.0476C26.3406 40.2723 26.3929 40.4661 26.4975 40.6293C26.6052 40.7924 26.7453 40.9293 26.9176 41.0401C27.093 41.1478 27.2808 41.2386 27.4808 41.3125C27.6809 41.3833 27.8732 41.4418 28.0579 41.4879L28.9812 41.728C29.2828 41.8018 29.5921 41.9019 29.9091 42.0281C30.2261 42.1542 30.52 42.3204 30.7908 42.5266C31.0617 42.7328 31.2802 42.9883 31.4464 43.293C31.6156 43.5977 31.7003 43.9624 31.7003 44.3871C31.7003 44.9226 31.5618 45.3981 31.2848 45.8136C31.0109 46.229 30.6123 46.5568 30.0891 46.7969C29.569 47.0369 28.9396 47.157 28.201 47.157C27.4931 47.157 26.8807 47.0446 26.3636 46.82C25.8466 46.5953 25.4419 46.2768 25.1495 45.8643C24.8571 45.4489 24.6955 44.9564 24.6648 44.3871H26.0959C26.1236 44.7287 26.2344 45.0134 26.4283 45.2411C26.6252 45.4658 26.8761 45.6335 27.1808 45.7443C27.4885 45.852 27.8255 45.9059 28.1918 45.9059C28.5949 45.9059 28.9535 45.8428 29.2674 45.7166C29.5844 45.5874 29.8337 45.4089 30.0153 45.1811C30.1969 44.9503 30.2876 44.681 30.2876 44.3732C30.2876 44.0932 30.2076 43.8639 30.0476 43.6854C29.8906 43.5069 29.6767 43.3591 29.4059 43.2422C29.1381 43.1252 28.835 43.0221 28.4964 42.9329L27.3793 42.6282C26.6222 42.422 26.022 42.1188 25.5788 41.7188C25.1387 41.3187 24.9187 40.7893 24.9187 40.1307C24.9187 39.5859 25.0664 39.1104 25.3619 38.7042C25.6573 38.2979 26.0574 37.9825 26.5621 37.7578C27.0669 37.5301 27.6362 37.4162 28.2702 37.4162C28.9104 37.4162 29.4751 37.5285 29.9645 37.7532C30.4569 37.9779 30.8447 38.2872 31.1278 38.6811C31.411 39.072 31.5587 39.5213 31.571 40.0291H30.1953ZM35.3577 47.157C34.9084 47.157 34.5021 47.0739 34.1389 46.9077C33.7758 46.7384 33.488 46.4937 33.2757 46.1737C33.0664 45.8536 32.9617 45.4612 32.9617 44.9964C32.9617 44.5964 33.0387 44.267 33.1926 44.0085C33.3464 43.75 33.5542 43.5453 33.8158 43.3945C34.0774 43.2437 34.3698 43.1299 34.6929 43.0529C35.0161 42.976 35.3454 42.9175 35.6808 42.8775C36.1056 42.8282 36.4503 42.7882 36.7149 42.7575C36.9796 42.7236 37.172 42.6697 37.292 42.5959C37.412 42.522 37.472 42.402 37.472 42.2358V42.2035C37.472 41.8003 37.3582 41.4879 37.1304 41.2663C36.9057 41.0447 36.5703 40.9339 36.124 40.9339C35.6593 40.9339 35.2931 41.037 35.0253 41.2433C34.7606 41.4464 34.5775 41.6726 34.4759 41.9219L33.1787 41.6264C33.3326 41.1955 33.5573 40.8478 33.8527 40.5831C34.1512 40.3153 34.4944 40.1214 34.8822 40.0014C35.27 39.8783 35.6778 39.8168 36.1056 39.8168C36.3887 39.8168 36.6888 39.8506 37.0058 39.9183C37.3258 39.983 37.6244 40.103 37.9014 40.2784C38.1814 40.4538 38.4107 40.7047 38.5892 41.0309C38.7677 41.354 38.857 41.7741 38.857 42.2912V47H37.509V46.0305H37.4536C37.3643 46.209 37.2304 46.3845 37.0519 46.5568C36.8734 46.7292 36.6441 46.8723 36.3641 46.9862C36.084 47.1 35.7485 47.157 35.3577 47.157ZM35.6578 46.049C36.0394 46.049 36.3656 45.9736 36.6365 45.8228C36.9104 45.672 37.1181 45.475 37.2597 45.2319C37.4043 44.9857 37.4767 44.7225 37.4767 44.4425V43.5284C37.4274 43.5777 37.332 43.6238 37.1904 43.6669C37.0519 43.7069 36.8934 43.7423 36.7149 43.7731C36.5364 43.8008 36.3625 43.8269 36.1933 43.8516C36.024 43.8731 35.8824 43.8916 35.7686 43.907C35.5008 43.9408 35.2561 43.9978 35.0345 44.0778C34.816 44.1578 34.6406 44.2732 34.5083 44.424C34.379 44.5717 34.3144 44.7687 34.3144 45.0149C34.3144 45.3565 34.4405 45.6151 34.6929 45.7905C34.9453 45.9628 35.2669 46.049 35.6578 46.049ZM42.0758 37.5455V47H40.6955V37.5455H42.0758ZM48.4246 44.0593V39.9091H49.8096V47H48.4523V45.772H48.3785C48.2153 46.1506 47.9537 46.466 47.5937 46.7184C47.2367 46.9677 46.7919 47.0923 46.2595 47.0923C45.804 47.0923 45.4008 46.9923 45.05 46.7923C44.7022 46.5891 44.4283 46.2891 44.2282 45.892C44.0313 45.495 43.9328 45.0041 43.9328 44.4194V39.9091H45.3131V44.2532C45.3131 44.7364 45.447 45.1211 45.7148 45.4073C45.9825 45.6935 46.3303 45.8366 46.7581 45.8366C47.0166 45.8366 47.2736 45.772 47.529 45.6428C47.7876 45.5135 48.0015 45.3181 48.1707 45.0565C48.3431 44.7949 48.4277 44.4625 48.4246 44.0593ZM54.3187 47.1385C53.7463 47.1385 53.2354 46.9923 52.786 46.6999C52.3398 46.4045 51.9889 45.9844 51.7335 45.4396C51.4811 44.8918 51.3549 44.2347 51.3549 43.4684C51.3549 42.7021 51.4827 42.0465 51.7381 41.5018C51.9966 40.957 52.3506 40.54 52.7999 40.2507C53.2492 39.9614 53.7586 39.8168 54.3279 39.8168C54.7681 39.8168 55.122 39.8906 55.3897 40.0384C55.6606 40.183 55.8699 40.3523 56.0176 40.5462C56.1684 40.7401 56.2853 40.9109 56.3684 41.0586H56.4515V37.5455H57.8319V47H56.4838V45.8967H56.3684C56.2853 46.0475 56.1653 46.2198 56.0083 46.4137C55.8545 46.6076 55.6421 46.7769 55.3713 46.9215C55.1004 47.0662 54.7496 47.1385 54.3187 47.1385ZM54.6234 45.9613C55.0204 45.9613 55.3559 45.8567 55.6298 45.6474C55.9068 45.435 56.1161 45.1411 56.2576 44.7656C56.4023 44.3902 56.4746 43.9531 56.4746 43.4545C56.4746 42.9621 56.4038 42.5312 56.2623 42.1619C56.1207 41.7926 55.9129 41.5049 55.639 41.2987C55.3651 41.0924 55.0266 40.9893 54.6234 40.9893C54.2079 40.9893 53.8617 41.0971 53.5847 41.3125C53.3077 41.5279 53.0984 41.8219 52.9569 42.1942C52.8184 42.5666 52.7491 42.9867 52.7491 43.4545C52.7491 43.9285 52.8199 44.3548 52.9615 44.7333C53.103 45.1119 53.3123 45.4119 53.5893 45.6335C53.8694 45.852 54.2141 45.9613 54.6234 45.9613Z" fill="#5C5C5C"/>
</svg>
