<svg width="125" height="36" viewBox="0 0 125 36" fill="none" xmlns="http://www.w3.org/2000/svg">
<path d="M17.3123 25.3474L19.1639 30.7656H19.2386L21.0901 25.3474H22.1751L19.7811 32H18.6214L16.2274 25.3474H17.3123ZM24.0185 32.1104C23.7023 32.1104 23.4165 32.052 23.1609 31.935C22.9054 31.8159 22.7029 31.6438 22.5535 31.4185C22.4062 31.1933 22.3326 30.9172 22.3326 30.5902C22.3326 30.3087 22.3868 30.077 22.495 29.8951C22.6033 29.7132 22.7495 29.5692 22.9336 29.4631C23.1176 29.3569 23.3234 29.2768 23.5507 29.2227C23.7781 29.1685 24.0098 29.1274 24.2459 29.0992C24.5447 29.0646 24.7873 29.0364 24.9735 29.0148C25.1597 28.991 25.2951 28.9531 25.3795 28.9011C25.464 28.8491 25.5062 28.7647 25.5062 28.6477V28.625C25.5062 28.3413 25.4261 28.1215 25.2659 27.9656C25.1078 27.8097 24.8717 27.7317 24.5577 27.7317C24.2307 27.7317 23.973 27.8042 23.7846 27.9493C23.5984 28.0923 23.4695 28.2514 23.3981 28.4268L22.4853 28.2189C22.5936 27.9158 22.7516 27.6711 22.9595 27.4848C23.1696 27.2964 23.4111 27.16 23.6839 27.0755C23.9568 26.9889 24.2437 26.9456 24.5447 26.9456C24.744 26.9456 24.9551 26.9694 25.1781 27.0171C25.4034 27.0625 25.6134 27.147 25.8083 27.2704C26.0054 27.3939 26.1667 27.5704 26.2923 27.7999C26.4179 28.0273 26.4807 28.3229 26.4807 28.6867V32H25.5322V31.3179H25.4932C25.4304 31.4435 25.3362 31.5669 25.2106 31.6882C25.085 31.8094 24.9237 31.9101 24.7266 31.9903C24.5296 32.0704 24.2935 32.1104 24.0185 32.1104ZM24.2296 31.3308C24.4982 31.3308 24.7277 31.2778 24.9183 31.1717C25.111 31.0656 25.2572 30.927 25.3568 30.7559C25.4586 30.5826 25.5095 30.3975 25.5095 30.2004V29.5573C25.4748 29.5919 25.4077 29.6244 25.3081 29.6547C25.2106 29.6829 25.0991 29.7078 24.9735 29.7294C24.8479 29.7489 24.7255 29.7673 24.6064 29.7846C24.4873 29.7998 24.3877 29.8128 24.3076 29.8236C24.1192 29.8474 23.947 29.8875 23.7911 29.9438C23.6374 30.0001 23.5139 30.0813 23.4208 30.1874C23.3299 30.2914 23.2844 30.43 23.2844 30.6032C23.2844 30.8436 23.3732 31.0255 23.5507 31.1489C23.7283 31.2702 23.9546 31.3308 24.2296 31.3308ZM29.876 32.1007C29.3931 32.1007 28.9773 31.9913 28.6287 31.7726C28.2822 31.5517 28.0158 31.2475 27.8296 30.8598C27.6434 30.4722 27.5502 30.0283 27.5502 29.528C27.5502 29.0213 27.6455 28.5741 27.8361 28.1865C28.0267 27.7967 28.2952 27.4924 28.6417 27.2737C28.9882 27.055 29.3964 26.9456 29.8663 26.9456C30.2453 26.9456 30.5831 27.016 30.8798 27.1567C31.1765 27.2953 31.4157 27.4902 31.5977 27.7414C31.7817 27.9926 31.8911 28.2861 31.9257 28.6217H30.9805C30.9285 28.3879 30.8094 28.1865 30.6232 28.0176C30.4391 27.8486 30.1922 27.7642 29.8825 27.7642C29.6118 27.7642 29.3747 27.8356 29.1712 27.9786C28.9698 28.1193 28.8128 28.3207 28.7001 28.5828C28.5875 28.8426 28.5312 29.1501 28.5312 29.5053C28.5312 29.8691 28.5865 30.1831 28.6969 30.4473C28.8073 30.7115 28.9633 30.9161 29.1647 31.0612C29.3682 31.2063 29.6075 31.2789 29.8825 31.2789C30.0666 31.2789 30.2334 31.2453 30.3828 31.1782C30.5344 31.1089 30.6611 31.0103 30.7628 30.8826C30.8668 30.7548 30.9393 30.6011 30.9805 30.4213H31.9257C31.8911 30.744 31.7861 31.032 31.6106 31.2854C31.4352 31.5387 31.2003 31.738 30.9058 31.8831C30.6134 32.0282 30.2702 32.1007 29.876 32.1007ZM34.4164 32.1104C34.1002 32.1104 33.8144 32.052 33.5588 31.935C33.3033 31.8159 33.1008 31.6438 32.9514 31.4185C32.8041 31.1933 32.7305 30.9172 32.7305 30.5902C32.7305 30.3087 32.7846 30.077 32.8929 29.8951C33.0012 29.7132 33.1474 29.5692 33.3314 29.4631C33.5155 29.3569 33.7212 29.2768 33.9486 29.2227C34.176 29.1685 34.4077 29.1274 34.6438 29.0992C34.9426 29.0646 35.1852 29.0364 35.3714 29.0148C35.5576 28.991 35.693 28.9531 35.7774 28.9011C35.8619 28.8491 35.9041 28.7647 35.9041 28.6477V28.625C35.9041 28.3413 35.824 28.1215 35.6637 27.9656C35.5057 27.8097 35.2696 27.7317 34.9556 27.7317C34.6286 27.7317 34.3709 27.8042 34.1825 27.9493C33.9963 28.0923 33.8674 28.2514 33.796 28.4268L32.8832 28.2189C32.9915 27.9158 33.1495 27.6711 33.3574 27.4848C33.5675 27.2964 33.809 27.16 34.0818 27.0755C34.3547 26.9889 34.6416 26.9456 34.9426 26.9456C35.1418 26.9456 35.353 26.9694 35.576 27.0171C35.8013 27.0625 36.0113 27.147 36.2062 27.2704C36.4033 27.3939 36.5646 27.5704 36.6902 27.7999C36.8158 28.0273 36.8786 28.3229 36.8786 28.6867V32H35.9301V31.3179H35.8911C35.8283 31.4435 35.7341 31.5669 35.6085 31.6882C35.4829 31.8094 35.3216 31.9101 35.1245 31.9903C34.9275 32.0704 34.6914 32.1104 34.4164 32.1104ZM34.6275 31.3308C34.8961 31.3308 35.1256 31.2778 35.3162 31.1717C35.5089 31.0656 35.6551 30.927 35.7547 30.7559C35.8565 30.5826 35.9074 30.3975 35.9074 30.2004V29.5573C35.8727 29.5919 35.8056 29.6244 35.706 29.6547C35.6085 29.6829 35.497 29.7078 35.3714 29.7294C35.2458 29.7489 35.1234 29.7673 35.0043 29.7846C34.8852 29.7998 34.7856 29.8128 34.7055 29.8236C34.5171 29.8474 34.3449 29.8875 34.189 29.9438C34.0353 30.0001 33.9118 30.0813 33.8187 30.1874C33.7277 30.2914 33.6823 30.43 33.6823 30.6032C33.6823 30.8436 33.7711 31.0255 33.9486 31.1489C34.1262 31.2702 34.3525 31.3308 34.6275 31.3308ZM40.2739 32.1007C39.791 32.1007 39.3752 31.9913 39.0266 31.7726C38.6801 31.5517 38.4137 31.2475 38.2275 30.8598C38.0413 30.4722 37.9481 30.0283 37.9481 29.528C37.9481 29.0213 38.0434 28.5741 38.234 28.1865C38.4246 27.7967 38.6931 27.4924 39.0396 27.2737C39.3861 27.055 39.7943 26.9456 40.2642 26.9456C40.6432 26.9456 40.981 27.016 41.2777 27.1567C41.5744 27.2953 41.8136 27.4902 41.9956 27.7414C42.1796 27.9926 42.289 28.2861 42.3236 28.6217H41.3784C41.3264 28.3879 41.2073 28.1865 41.0211 28.0176C40.837 27.8486 40.5901 27.7642 40.2804 27.7642C40.0097 27.7642 39.7726 27.8356 39.5691 27.9786C39.3677 28.1193 39.2107 28.3207 39.098 28.5828C38.9854 28.8426 38.9291 29.1501 38.9291 29.5053C38.9291 29.8691 38.9844 30.1831 39.0948 30.4473C39.2052 30.7115 39.3612 30.9161 39.5626 31.0612C39.7661 31.2063 40.0054 31.2789 40.2804 31.2789C40.4645 31.2789 40.6313 31.2453 40.7807 31.1782C40.9323 31.1089 41.0589 31.0103 41.1607 30.8826C41.2647 30.7548 41.3372 30.6011 41.3784 30.4213H42.3236C42.289 30.744 42.184 31.032 42.0085 31.2854C41.8331 31.5387 41.5982 31.738 41.3037 31.8831C41.0113 32.0282 40.6681 32.1007 40.2739 32.1007ZM43.3623 32V27.0106H44.3335V32H43.3623ZM43.8528 26.2407C43.6839 26.2407 43.5388 26.1844 43.4175 26.0718C43.2984 25.957 43.2388 25.8206 43.2388 25.6625C43.2388 25.5023 43.2984 25.3658 43.4175 25.2532C43.5388 25.1385 43.6839 25.0811 43.8528 25.0811C44.0217 25.0811 44.1657 25.1385 44.2848 25.2532C44.4061 25.3658 44.4667 25.5023 44.4667 25.6625C44.4667 25.8206 44.4061 25.957 44.2848 26.0718C44.1657 26.1844 44.0217 26.2407 43.8528 26.2407ZM47.7418 32.1007C47.2741 32.1007 46.8659 31.9935 46.5172 31.7791C46.1686 31.5647 45.8979 31.2648 45.7051 30.8793C45.5124 30.4939 45.416 30.0434 45.416 29.528C45.416 29.0105 45.5124 28.5579 45.7051 28.1702C45.8979 27.7826 46.1686 27.4816 46.5172 27.2672C46.8659 27.0528 47.2741 26.9456 47.7418 26.9456C48.2096 26.9456 48.6178 27.0528 48.9665 27.2672C49.3151 27.4816 49.5858 27.7826 49.7785 28.1702C49.9713 28.5579 50.0676 29.0105 50.0676 29.528C50.0676 30.0434 49.9713 30.4939 49.7785 30.8793C49.5858 31.2648 49.3151 31.5647 48.9665 31.7791C48.6178 31.9935 48.2096 32.1007 47.7418 32.1007ZM47.7451 31.2854C48.0483 31.2854 48.2995 31.2052 48.4987 31.045C48.6979 30.8847 48.8452 30.6714 48.9405 30.4051C49.0379 30.1387 49.0866 29.8453 49.0866 29.5248C49.0866 29.2064 49.0379 28.9141 48.9405 28.6477C48.8452 28.3792 48.6979 28.1637 48.4987 28.0013C48.2995 27.8389 48.0483 27.7577 47.7451 27.7577C47.4397 27.7577 47.1864 27.8389 46.985 28.0013C46.7857 28.1637 46.6374 28.3792 46.54 28.6477C46.4447 28.9141 46.397 29.2064 46.397 29.5248C46.397 29.8453 46.4447 30.1387 46.54 30.4051C46.6374 30.6714 46.7857 30.8847 46.985 31.045C47.1864 31.2052 47.4397 31.2854 47.7451 31.2854ZM52.123 29.0375V32H51.1518V27.0106H52.084V27.8227H52.1458C52.2605 27.5585 52.4403 27.3462 52.685 27.186C52.9319 27.0257 53.2426 26.9456 53.6173 26.9456C53.9572 26.9456 54.255 27.0171 54.5105 27.16C54.7661 27.3008 54.9642 27.5108 55.105 27.7902C55.2457 28.0695 55.3161 28.4149 55.3161 28.8264V32H54.3449V28.9433C54.3449 28.5817 54.2507 28.2991 54.0623 28.0955C53.8739 27.8898 53.6151 27.7869 53.2859 27.7869C53.0607 27.7869 52.8604 27.8356 52.685 27.9331C52.5117 28.0305 52.3742 28.1735 52.2724 28.3619C52.1728 28.5481 52.123 28.7733 52.123 29.0375ZM58.7691 32.1007C58.2775 32.1007 57.8542 31.9957 57.499 31.7856C57.146 31.5734 56.8732 31.2756 56.6804 30.8923C56.4899 30.5069 56.3946 30.0553 56.3946 29.5378C56.3946 29.0267 56.4899 28.5763 56.6804 28.1865C56.8732 27.7967 57.1417 27.4924 57.486 27.2737C57.8325 27.055 58.2375 26.9456 58.7009 26.9456C58.9824 26.9456 59.2553 26.9922 59.5195 27.0853C59.7837 27.1784 60.0208 27.3246 60.2308 27.5238C60.4409 27.723 60.6066 27.9818 60.7278 28.3002C60.8491 28.6163 60.9097 29.0007 60.9097 29.4533V29.7976H56.9435V29.07H59.958C59.958 28.8145 59.906 28.5882 59.8021 28.3911C59.6981 28.1919 59.5519 28.0349 59.3635 27.9201C59.1773 27.8053 58.9586 27.7479 58.7074 27.7479C58.4345 27.7479 58.1963 27.8151 57.9927 27.9493C57.7914 28.0814 57.6354 28.2547 57.525 28.4691C57.4167 28.6813 57.3626 28.9119 57.3626 29.161V29.7294C57.3626 30.0629 57.421 30.3466 57.538 30.5805C57.6571 30.8144 57.8228 30.993 58.035 31.1165C58.2472 31.2377 58.4952 31.2984 58.7788 31.2984C58.9629 31.2984 59.1307 31.2724 59.2823 31.2204C59.4339 31.1663 59.5649 31.0861 59.6754 30.98C59.7858 30.8739 59.8703 30.7429 59.9288 30.587L60.848 30.7526C60.7744 31.0233 60.6423 31.2605 60.4517 31.464C60.2633 31.6654 60.0262 31.8224 59.7403 31.935C59.4567 32.0455 59.1329 32.1007 58.7691 32.1007ZM65.7262 28.2287L64.8459 28.3846C64.8091 28.272 64.7506 28.1648 64.6705 28.063C64.5925 27.9612 64.4864 27.8779 64.3522 27.8129C64.2179 27.7479 64.0501 27.7155 63.8487 27.7155C63.5736 27.7155 63.3441 27.7772 63.16 27.9006C62.976 28.0219 62.8839 28.1789 62.8839 28.3716C62.8839 28.5384 62.9456 28.6726 63.0691 28.7744C63.1925 28.8762 63.3917 28.9596 63.6668 29.0245L64.4594 29.2064C64.9185 29.3126 65.2606 29.476 65.4858 29.6969C65.711 29.9178 65.8237 30.2048 65.8237 30.5577C65.8237 30.8566 65.737 31.123 65.5638 31.3568C65.3927 31.5885 65.1534 31.7705 64.8459 31.9026C64.5406 32.0346 64.1865 32.1007 63.7837 32.1007C63.225 32.1007 62.7691 31.9816 62.4162 31.7434C62.0632 31.503 61.8466 31.1619 61.7665 30.7202L62.7053 30.5772C62.7637 30.8219 62.8839 31.0071 63.0658 31.1327C63.2477 31.2561 63.4849 31.3179 63.7772 31.3179C64.0955 31.3179 64.35 31.2518 64.5406 31.1197C64.7311 30.9854 64.8264 30.8219 64.8264 30.6292C64.8264 30.4733 64.7679 30.3423 64.651 30.2362C64.5362 30.13 64.3597 30.0499 64.1215 29.9958L63.277 29.8106C62.8114 29.7045 62.467 29.5356 62.244 29.3039C62.0231 29.0722 61.9127 28.7787 61.9127 28.4236C61.9127 28.1291 61.995 27.8714 62.1595 27.6505C62.3241 27.4296 62.5515 27.2574 62.8417 27.134C63.1319 27.0084 63.4643 26.9456 63.8389 26.9456C64.3781 26.9456 64.8026 27.0625 65.1123 27.2964C65.4219 27.5281 65.6266 27.8389 65.7262 28.2287ZM71.544 32H69.3903V25.3474H71.6122C72.264 25.3474 72.8238 25.4806 73.2916 25.747C73.7593 26.0112 74.1177 26.3912 74.3668 26.8871C74.618 27.3809 74.7436 27.9732 74.7436 28.664C74.7436 29.3569 74.6169 29.9525 74.3635 30.4505C74.1123 30.9486 73.7485 31.3319 73.2721 31.6005C72.7956 31.8668 72.2196 32 71.544 32ZM70.394 31.123H71.4887C71.9955 31.123 72.4167 31.0277 72.7523 30.8371C73.088 30.6444 73.3392 30.3661 73.5059 30.0023C73.6727 29.6363 73.7561 29.1902 73.7561 28.664C73.7561 28.1421 73.6727 27.6992 73.5059 27.3354C73.3414 26.9716 73.0956 26.6955 72.7686 26.5071C72.4416 26.3187 72.0355 26.2245 71.5505 26.2245H70.394V31.123ZM75.9138 32V27.0106H76.885V32H75.9138ZM76.4043 26.2407C76.2354 26.2407 76.0903 26.1844 75.969 26.0718C75.8499 25.957 75.7903 25.8206 75.7903 25.6625C75.7903 25.5023 75.8499 25.3658 75.969 25.2532C76.0903 25.1385 76.2354 25.0811 76.4043 25.0811C76.5732 25.0811 76.7172 25.1385 76.8363 25.2532C76.9576 25.3658 77.0182 25.5023 77.0182 25.6625C77.0182 25.8206 76.9576 25.957 76.8363 26.0718C76.7172 26.1844 76.5732 26.2407 76.4043 26.2407ZM79.6437 32.1104C79.3275 32.1104 79.0416 32.052 78.7861 31.935C78.5306 31.8159 78.3281 31.6438 78.1787 31.4185C78.0314 31.1933 77.9578 30.9172 77.9578 30.5902C77.9578 30.3087 78.0119 30.077 78.1202 29.8951C78.2285 29.7132 78.3746 29.5692 78.5587 29.4631C78.7428 29.3569 78.9485 29.2768 79.1759 29.2227C79.4033 29.1685 79.635 29.1274 79.871 29.0992C80.1699 29.0646 80.4124 29.0364 80.5987 29.0148C80.7849 28.991 80.9203 28.9531 81.0047 28.9011C81.0892 28.8491 81.1314 28.7647 81.1314 28.6477V28.625C81.1314 28.3413 81.0513 28.1215 80.891 27.9656C80.7329 27.8097 80.4969 27.7317 80.1829 27.7317C79.8559 27.7317 79.5982 27.8042 79.4098 27.9493C79.2235 28.0923 79.0947 28.2514 79.0232 28.4268L78.1105 28.2189C78.2187 27.9158 78.3768 27.6711 78.5847 27.4848C78.7948 27.2964 79.0362 27.16 79.3091 27.0755C79.5819 26.9889 79.8689 26.9456 80.1699 26.9456C80.3691 26.9456 80.5803 26.9694 80.8033 27.0171C81.0285 27.0625 81.2386 27.147 81.4335 27.2704C81.6306 27.3939 81.7919 27.5704 81.9175 27.7999C82.0431 28.0273 82.1059 28.3229 82.1059 28.6867V32H81.1574V31.3179H81.1184C81.0556 31.4435 80.9614 31.5669 80.8358 31.6882C80.7102 31.8094 80.5489 31.9101 80.3518 31.9903C80.1547 32.0704 79.9187 32.1104 79.6437 32.1104ZM79.8548 31.3308C80.1233 31.3308 80.3529 31.2778 80.5434 31.1717C80.7362 31.0656 80.8824 30.927 80.982 30.7559C81.0838 30.5826 81.1346 30.3975 81.1346 30.2004V29.5573C81.1 29.5919 81.0329 29.6244 80.9332 29.6547C80.8358 29.6829 80.7243 29.7078 80.5987 29.7294C80.4731 29.7489 80.3507 29.7673 80.2316 29.7846C80.1125 29.7998 80.0129 29.8128 79.9328 29.8236C79.7444 29.8474 79.5722 29.8875 79.4163 29.9438C79.2625 30.0001 79.1391 30.0813 79.046 30.1874C78.955 30.2914 78.9095 30.43 78.9095 30.6032C78.9095 30.8436 78.9983 31.0255 79.1759 31.1489C79.3535 31.2702 79.5798 31.3308 79.8548 31.3308ZM87.1384 28.2287L86.2581 28.3846C86.2213 28.272 86.1628 28.1648 86.0827 28.063C86.0047 27.9612 85.8986 27.8779 85.7643 27.8129C85.6301 27.7479 85.4622 27.7155 85.2608 27.7155C84.9858 27.7155 84.7563 27.7772 84.5722 27.9006C84.3881 28.0219 84.2961 28.1789 84.2961 28.3716C84.2961 28.5384 84.3578 28.6726 84.4812 28.7744C84.6047 28.8762 84.8039 28.9596 85.0789 29.0245L85.8715 29.2064C86.3306 29.3126 86.6728 29.476 86.898 29.6969C87.1232 29.9178 87.2358 30.2048 87.2358 30.5577C87.2358 30.8566 87.1492 31.123 86.9759 31.3568C86.8049 31.5885 86.5656 31.7705 86.2581 31.9026C85.9527 32.0346 85.5987 32.1007 85.1959 32.1007C84.6372 32.1007 84.1813 31.9816 83.8283 31.7434C83.4753 31.503 83.2588 31.1619 83.1787 30.7202L84.1174 30.5772C84.1759 30.8219 84.2961 31.0071 84.478 31.1327C84.6599 31.2561 84.897 31.3179 85.1894 31.3179C85.5077 31.3179 85.7622 31.2518 85.9527 31.1197C86.1433 30.9854 86.2386 30.8219 86.2386 30.6292C86.2386 30.4733 86.1801 30.3423 86.0632 30.2362C85.9484 30.13 85.7719 30.0499 85.5337 29.9958L84.6891 29.8106C84.2235 29.7045 83.8792 29.5356 83.6562 29.3039C83.4353 29.0722 83.3248 28.7787 83.3248 28.4236C83.3248 28.1291 83.4071 27.8714 83.5717 27.6505C83.7363 27.4296 83.9637 27.2574 84.2539 27.134C84.544 27.0084 84.8764 26.9456 85.2511 26.9456C85.7903 26.9456 86.2148 27.0625 86.5244 27.2964C86.8341 27.5281 87.0388 27.8389 87.1384 28.2287ZM90.8025 32V25.3474H91.8062V28.2384H95.1228V25.3474H96.1297V32H95.1228V29.0992H91.8062V32H90.8025ZM98.9655 32.1104C98.6494 32.1104 98.3635 32.052 98.108 31.935C97.8524 31.8159 97.65 31.6438 97.5005 31.4185C97.3533 31.1933 97.2796 30.9172 97.2796 30.5902C97.2796 30.3087 97.3338 30.077 97.4421 29.8951C97.5503 29.7132 97.6965 29.5692 97.8806 29.4631C98.0647 29.3569 98.2704 29.2768 98.4978 29.2227C98.7252 29.1685 98.9569 29.1274 99.1929 29.0992C99.4918 29.0646 99.7343 29.0364 99.9205 29.0148C100.107 28.991 100.242 28.9531 100.327 28.9011C100.411 28.8491 100.453 28.7647 100.453 28.6477V28.625C100.453 28.3413 100.373 28.1215 100.213 27.9656C100.055 27.8097 99.8188 27.7317 99.5047 27.7317C99.1778 27.7317 98.9201 27.8042 98.7316 27.9493C98.5454 28.0923 98.4166 28.2514 98.3451 28.4268L97.4323 28.2189C97.5406 27.9158 97.6987 27.6711 97.9066 27.4848C98.1166 27.2964 98.3581 27.16 98.6309 27.0755C98.9038 26.9889 99.1907 26.9456 99.4918 26.9456C99.691 26.9456 99.9021 26.9694 100.125 27.0171C100.35 27.0625 100.56 27.147 100.755 27.2704C100.952 27.3939 101.114 27.5704 101.239 27.7999C101.365 28.0273 101.428 28.3229 101.428 28.6867V32H100.479V31.3179H100.44C100.377 31.4435 100.283 31.5669 100.158 31.6882C100.032 31.8094 99.8707 31.9101 99.6737 31.9903C99.4766 32.0704 99.2406 32.1104 98.9655 32.1104ZM99.1767 31.3308C99.4452 31.3308 99.6747 31.2778 99.8653 31.1717C100.058 31.0656 100.204 30.927 100.304 30.7559C100.406 30.5826 100.457 30.3975 100.457 30.2004V29.5573C100.422 29.5919 100.355 29.6244 100.255 29.6547C100.158 29.6829 100.046 29.7078 99.9205 29.7294C99.7949 29.7489 99.6726 29.7673 99.5535 29.7846C99.4344 29.7998 99.3348 29.8128 99.2546 29.8236C99.0662 29.8474 98.8941 29.8875 98.7381 29.9438C98.5844 30.0001 98.461 30.0813 98.3678 30.1874C98.2769 30.2914 98.2314 30.43 98.2314 30.6032C98.2314 30.8436 98.3202 31.0255 98.4978 31.1489C98.6753 31.2702 98.9016 31.3308 99.1767 31.3308ZM102.799 32V25.3474H103.771V27.8194H103.829C103.885 27.7155 103.967 27.5953 104.073 27.4588C104.179 27.3224 104.326 27.2033 104.514 27.1015C104.703 26.9976 104.952 26.9456 105.262 26.9456C105.664 26.9456 106.024 27.0474 106.34 27.2509C106.656 27.4545 106.904 27.7479 107.084 28.1312C107.266 28.5145 107.357 28.9758 107.357 29.515C107.357 30.0543 107.267 30.5166 107.087 30.9021C106.907 31.2854 106.661 31.581 106.347 31.7889C106.033 31.9946 105.674 32.0974 105.271 32.0974C104.968 32.0974 104.72 32.0466 104.527 31.9448C104.337 31.843 104.187 31.7239 104.079 31.5875C103.971 31.451 103.888 31.3298 103.829 31.2236H103.748V32H102.799ZM103.751 29.5053C103.751 29.8561 103.802 30.1636 103.904 30.4278C104.006 30.692 104.153 30.8988 104.346 31.0482C104.538 31.1955 104.774 31.2691 105.054 31.2691C105.344 31.2691 105.586 31.1922 105.781 31.0385C105.976 30.8826 106.123 30.6714 106.223 30.4051C106.325 30.1387 106.376 29.8388 106.376 29.5053C106.376 29.1761 106.326 28.8805 106.226 28.6185C106.129 28.3565 105.982 28.1496 105.785 27.9981C105.59 27.8465 105.346 27.7707 105.054 27.7707C104.772 27.7707 104.534 27.8432 104.339 27.9883C104.146 28.1334 104 28.3359 103.901 28.5958C103.801 28.8556 103.751 29.1588 103.751 29.5053ZM108.447 32V27.0106H109.419V32H108.447ZM108.938 26.2407C108.769 26.2407 108.624 26.1844 108.503 26.0718C108.384 25.957 108.324 25.8206 108.324 25.6625C108.324 25.5023 108.384 25.3658 108.503 25.2532C108.624 25.1385 108.769 25.0811 108.938 25.0811C109.107 25.0811 109.251 25.1385 109.37 25.2532C109.491 25.3658 109.552 25.5023 109.552 25.6625C109.552 25.8206 109.491 25.957 109.37 26.0718C109.251 26.1844 109.107 26.2407 108.938 26.2407ZM111.697 25.3474V32H110.725V25.3474H111.697ZM115.154 32.1007C114.662 32.1007 114.239 31.9957 113.883 31.7856C113.53 31.5734 113.258 31.2756 113.065 30.8923C112.874 30.5069 112.779 30.0553 112.779 29.5378C112.779 29.0267 112.874 28.5763 113.065 28.1865C113.258 27.7967 113.526 27.4924 113.87 27.2737C114.217 27.055 114.622 26.9456 115.085 26.9456C115.367 26.9456 115.64 26.9922 115.904 27.0853C116.168 27.1784 116.405 27.3246 116.615 27.5238C116.825 27.723 116.991 27.9818 117.112 28.3002C117.234 28.6163 117.294 29.0007 117.294 29.4533V29.7976H113.328V29.07H116.342C116.342 28.8145 116.29 28.5882 116.187 28.3911C116.083 28.1919 115.936 28.0349 115.748 27.9201C115.562 27.8053 115.343 27.7479 115.092 27.7479C114.819 27.7479 114.581 27.8151 114.377 27.9493C114.176 28.0814 114.02 28.2547 113.909 28.4691C113.801 28.6813 113.747 28.9119 113.747 29.161V29.7294C113.747 30.0629 113.806 30.3466 113.922 30.5805C114.042 30.8144 114.207 30.993 114.419 31.1165C114.632 31.2377 114.88 31.2984 115.163 31.2984C115.347 31.2984 115.515 31.2724 115.667 31.2204C115.818 31.1663 115.949 31.0861 116.06 30.98C116.17 30.8739 116.255 30.7429 116.313 30.587L117.232 30.7526C117.159 31.0233 117.027 31.2605 116.836 31.464C116.648 31.6654 116.411 31.8224 116.125 31.935C115.841 32.0455 115.517 32.1007 115.154 32.1007ZM122.111 28.2287L121.23 28.3846C121.194 28.272 121.135 28.1648 121.055 28.063C120.977 27.9612 120.871 27.8779 120.737 27.8129C120.602 27.7479 120.435 27.7155 120.233 27.7155C119.958 27.7155 119.729 27.7772 119.544 27.9006C119.36 28.0219 119.268 28.1789 119.268 28.3716C119.268 28.5384 119.33 28.6726 119.454 28.7744C119.577 28.8762 119.776 28.9596 120.051 29.0245L120.844 29.2064C121.303 29.3126 121.645 29.476 121.87 29.6969C122.096 29.9178 122.208 30.2048 122.208 30.5577C122.208 30.8566 122.121 31.123 121.948 31.3568C121.777 31.5885 121.538 31.7705 121.23 31.9026C120.925 32.0346 120.571 32.1007 120.168 32.1007C119.609 32.1007 119.154 31.9816 118.801 31.7434C118.448 31.503 118.231 31.1619 118.151 30.7202L119.09 30.5772C119.148 30.8219 119.268 31.0071 119.45 31.1327C119.632 31.2561 119.869 31.3179 120.162 31.3179C120.48 31.3179 120.734 31.2518 120.925 31.1197C121.116 30.9854 121.211 30.8219 121.211 30.6292C121.211 30.4733 121.152 30.3423 121.035 30.2362C120.921 30.13 120.744 30.0499 120.506 29.9958L119.661 29.8106C119.196 29.7045 118.852 29.5356 118.628 29.3039C118.408 29.0722 118.297 28.7787 118.297 28.4236C118.297 28.1291 118.379 27.8714 118.544 27.6505C118.709 27.4296 118.936 27.2574 119.226 27.134C119.516 27.0084 119.849 26.9456 120.223 26.9456C120.763 26.9456 121.187 27.0625 121.497 27.2964C121.806 27.5281 122.011 27.8389 122.111 28.2287Z" fill="#5C5C5C"/>
<path d="M0 0.799988H41.0373L58.5 10.5674L41.0373 20.3349H12.2239V35.8H0V0.799988Z" fill="#F3B754"/>
<path d="M8.54064 6.49632L11.362 14.4965H11.4734L14.2948 6.49632H15.5013L12.0117 16H10.8237L7.33411 6.49632H8.54064ZM16.5547 16H15.3482L18.8378 6.49632H20.0258L23.5154 16H22.3089L19.4689 7.99983H19.3947L16.5547 16ZM17.0002 12.2876H21.8634V13.3085H17.0002V12.2876ZM32.1966 9.46622H31.0457C30.9777 9.1352 30.8586 8.8444 30.6884 8.59381C30.5214 8.34323 30.3172 8.13286 30.0759 7.96271C29.8377 7.78947 29.5732 7.65953 29.2824 7.57291C28.9916 7.48629 28.6884 7.44298 28.3728 7.44298C27.7974 7.44298 27.2761 7.58838 26.809 7.87918C26.3449 8.16998 25.9753 8.59845 25.6999 9.16459C25.4277 9.73073 25.2916 10.4253 25.2916 11.2482C25.2916 12.0711 25.4277 12.7656 25.6999 13.3317C25.9753 13.8979 26.3449 14.3263 26.809 14.6171C27.2761 14.9079 27.7974 15.0533 28.3728 15.0533C28.6884 15.0533 28.9916 15.01 29.2824 14.9234C29.5732 14.8368 29.8377 14.7084 30.0759 14.5383C30.3172 14.365 30.5214 14.1531 30.6884 13.9025C30.8586 13.6488 30.9777 13.358 31.0457 13.0301H32.1966C32.11 13.5158 31.9522 13.9505 31.7233 14.3341C31.4943 14.7177 31.2097 15.0441 30.8694 15.3132C30.5291 15.5793 30.147 15.7819 29.7232 15.9211C29.3025 16.0603 28.8523 16.1299 28.3728 16.1299C27.5623 16.1299 26.8415 15.9319 26.2104 15.536C25.5793 15.14 25.0827 14.5769 24.7208 13.8468C24.3588 13.1167 24.1779 12.2505 24.1779 11.2482C24.1779 10.2458 24.3588 9.3796 24.7208 8.6495C25.0827 7.9194 25.5793 7.35636 26.2104 6.96037C26.8415 6.56438 27.5623 6.36639 28.3728 6.36639C28.8523 6.36639 29.3025 6.436 29.7232 6.57521C30.147 6.71442 30.5291 6.91861 30.8694 7.18775C31.2097 7.45381 31.4943 7.77864 31.7233 8.16225C31.9522 8.54277 32.11 8.97743 32.1966 9.46622ZM37.2303 6.49632V16H36.0795V7.70284H36.0238L33.7036 9.24348V8.07408L36.0795 6.49632H37.2303Z" fill="white"/>
</svg>
