<svg width="59" height="36" viewBox="0 0 59 36" fill="none" xmlns="http://www.w3.org/2000/svg">
<path d="M16.7309 31V24.3474H19.1022C19.6197 24.3474 20.0485 24.4416 20.3885 24.63C20.7285 24.8184 20.9829 25.0761 21.1518 25.4031C21.3208 25.728 21.4052 26.0939 21.4052 26.5011C21.4052 26.9104 21.3197 27.2785 21.1486 27.6055C20.9797 27.9303 20.7242 28.188 20.382 28.3786C20.042 28.567 19.6143 28.6612 19.0989 28.6612H17.4682V27.8101H19.008C19.3349 27.8101 19.6002 27.7538 19.8038 27.6412C20.0074 27.5265 20.1568 27.3705 20.2521 27.1735C20.3473 26.9764 20.395 26.7523 20.395 26.5011C20.395 26.2499 20.3473 26.0268 20.2521 25.8319C20.1568 25.637 20.0063 25.4843 19.8005 25.3739C19.597 25.2635 19.3285 25.2082 18.995 25.2082H17.7346V31H16.7309ZM22.5819 31V24.3474H26.7528V25.2115H23.5857V27.2384H26.5351V28.0992H23.5857V30.1359H26.7918V31H22.5819ZM33.463 24.3474V31H32.5405L29.159 26.121H29.0973V31H28.0935V24.3474H29.0225L32.4073 29.2329H32.469V24.3474H33.463ZM38.5556 26.095C38.5209 25.7875 38.378 25.5493 38.1268 25.3804C37.8756 25.2093 37.5594 25.1238 37.1783 25.1238C36.9054 25.1238 36.6694 25.1671 36.4701 25.2537C36.2709 25.3382 36.1161 25.4551 36.0056 25.6045C35.8974 25.7518 35.8432 25.9196 35.8432 26.108C35.8432 26.2661 35.88 26.4025 35.9537 26.5173C36.0295 26.6321 36.128 26.7284 36.2493 26.8064C36.3727 26.8822 36.5048 26.9461 36.6456 26.9981C36.7863 27.0479 36.9217 27.089 37.0516 27.1215L37.7013 27.2904C37.9135 27.3424 38.1311 27.4128 38.3542 27.5016C38.5772 27.5903 38.784 27.7073 38.9746 27.8524C39.1652 27.9975 39.3189 28.1772 39.4359 28.3916C39.555 28.606 39.6145 28.8626 39.6145 29.1614C39.6145 29.5383 39.5171 29.8728 39.3222 30.1652C39.1294 30.4575 38.849 30.6882 38.4809 30.8571C38.1149 31.026 37.672 31.1104 37.1523 31.1104C36.6542 31.1104 36.2233 31.0314 35.8595 30.8733C35.4956 30.7152 35.2109 30.4911 35.0051 30.2009C34.7994 29.9086 34.6857 29.5621 34.6641 29.1614H35.6711C35.6905 29.4018 35.7685 29.6021 35.9049 29.7624C36.0435 29.9205 36.22 30.0385 36.4344 30.1165C36.651 30.1922 36.8881 30.2301 37.1458 30.2301C37.4295 30.2301 37.6818 30.1858 37.9027 30.097C38.1257 30.006 38.3011 29.8804 38.4289 29.7202C38.5567 29.5577 38.6205 29.3683 38.6205 29.1517C38.6205 28.9546 38.5642 28.7933 38.4516 28.6677C38.3412 28.5421 38.1907 28.4382 38.0001 28.3559C37.8117 28.2736 37.5984 28.201 37.3602 28.1382L36.5741 27.9238C36.0414 27.7787 35.6191 27.5654 35.3072 27.2839C34.9976 27.0024 34.8427 26.6299 34.8427 26.1665C34.8427 25.7832 34.9467 25.4486 35.1546 25.1628C35.3625 24.8769 35.644 24.6549 35.9991 24.4968C36.3543 24.3366 36.7549 24.2565 37.201 24.2565C37.6515 24.2565 38.0488 24.3355 38.3932 24.4936C38.7396 24.6517 39.0125 24.8693 39.2117 25.1465C39.411 25.4215 39.5149 25.7377 39.5236 26.095H38.5556ZM41.8177 24.3474V31H40.814V24.3474H41.8177ZM49.0582 27.6737C49.0582 28.384 48.9283 28.9947 48.6684 29.5058C48.4086 30.0147 48.0523 30.4066 47.5997 30.6817C47.1493 30.9545 46.6371 31.091 46.0633 31.091C45.4872 31.091 44.9729 30.9545 44.5203 30.6817C44.0699 30.4066 43.7147 30.0136 43.4549 29.5025C43.195 28.9915 43.0651 28.3818 43.0651 27.6737C43.0651 26.9634 43.195 26.3538 43.4549 25.8449C43.7147 25.3338 44.0699 24.9419 44.5203 24.669C44.9729 24.394 45.4872 24.2565 46.0633 24.2565C46.6371 24.2565 47.1493 24.394 47.5997 24.669C48.0523 24.9419 48.4086 25.3338 48.6684 25.8449C48.9283 26.3538 49.0582 26.9634 49.0582 27.6737ZM48.0642 27.6737C48.0642 27.1323 47.9765 26.6765 47.8011 26.3062C47.6279 25.9337 47.3897 25.6522 47.0865 25.4616C46.7855 25.2689 46.4444 25.1725 46.0633 25.1725C45.68 25.1725 45.3378 25.2689 45.0368 25.4616C44.7358 25.6522 44.4976 25.9337 44.3222 26.3062C44.1489 26.6765 44.0623 27.1323 44.0623 27.6737C44.0623 28.2151 44.1489 28.672 44.3222 29.0445C44.4976 29.4148 44.7358 29.6963 45.0368 29.8891C45.3378 30.0796 45.68 30.1749 46.0633 30.1749C46.4444 30.1749 46.7855 30.0796 47.0865 29.8891C47.3897 29.6963 47.6279 29.4148 47.8011 29.0445C47.9765 28.672 48.0642 28.2151 48.0642 27.6737ZM55.6791 24.3474V31H54.7566L51.3751 26.121H51.3134V31H50.3096V24.3474H51.2387L54.6234 29.2329H54.6851V24.3474H55.6791Z" fill="#5C5C5C"/>
<path d="M0 0.441742H41.0373L58.5 10.2092L41.0373 19.9766H12.2239V35.4417H0V0.441742Z" fill="#F14C60"/>
<path d="M13.3482 8.87224C13.2925 8.40201 13.0666 8.03696 12.6707 7.77709C12.2747 7.51723 11.789 7.38729 11.2135 7.38729C10.7928 7.38729 10.4247 7.45535 10.1091 7.59147C9.79666 7.72759 9.55226 7.91476 9.37592 8.15297C9.20268 8.39118 9.11605 8.66187 9.11605 8.96505C9.11605 9.21873 9.17638 9.43683 9.29703 9.61936C9.42078 9.79879 9.57855 9.94883 9.77036 10.0695C9.96217 10.187 10.1633 10.2845 10.3736 10.3618C10.584 10.4361 10.7773 10.4964 10.9537 10.5428L11.9189 10.8027C12.1664 10.8676 12.4417 10.9574 12.7449 11.0718C13.0512 11.1863 13.3435 11.3425 13.6219 11.5405C13.9035 11.7354 14.1355 11.986 14.318 12.2923C14.5005 12.5985 14.5918 12.9744 14.5918 13.4199C14.5918 13.9334 14.4572 14.3975 14.1881 14.812C13.922 15.2266 13.5322 15.5561 13.0187 15.8005C12.5082 16.0449 11.888 16.1671 11.1579 16.1671C10.4773 16.1671 9.88792 16.0572 9.38984 15.8376C8.89486 15.6179 8.50506 15.3117 8.22044 14.9188C7.93892 14.5259 7.7796 14.0696 7.74247 13.5498H8.93043C8.96137 13.9087 9.08202 14.2057 9.29239 14.4408C9.50585 14.6728 9.775 14.8461 10.0998 14.9605C10.4278 15.0719 10.7804 15.1276 11.1579 15.1276C11.5972 15.1276 11.9916 15.0564 12.3412 14.9141C12.6908 14.7687 12.9676 14.5676 13.1718 14.3109C13.376 14.051 13.4781 13.7478 13.4781 13.4013C13.4781 13.0858 13.3899 12.829 13.2136 12.631C13.0372 12.433 12.8052 12.2722 12.5175 12.1484C12.2298 12.0247 11.9189 11.9164 11.5848 11.8236L10.4154 11.4895C9.67291 11.276 9.08512 10.9713 8.65201 10.5753C8.2189 10.1793 8.00234 9.66112 8.00234 9.02074C8.00234 8.48863 8.1462 8.02458 8.4339 7.6286C8.72471 7.22952 9.11451 6.92015 9.6033 6.7005C10.0952 6.47776 10.6443 6.36639 11.2507 6.36639C11.8632 6.36639 12.4077 6.47621 12.8841 6.69586C13.3605 6.91242 13.738 7.20941 14.0164 7.58683C14.2979 7.96426 14.4464 8.39273 14.4619 8.87224H13.3482ZM16.484 16V6.49632H22.2196V7.51723H17.6348V10.7284H21.9226V11.7493H17.6348V14.9791H22.2938V16H16.484ZM30.7905 9.46622C30.6884 9.15376 30.5539 8.87379 30.3868 8.6263C30.2228 8.37571 30.0264 8.16225 29.7975 7.98591C29.5716 7.80957 29.3148 7.675 29.0271 7.58219C28.7394 7.48938 28.4239 7.44298 28.0805 7.44298C27.5174 7.44298 27.0054 7.58838 26.5445 7.87918C26.0835 8.16998 25.7169 8.59845 25.4447 9.16459C25.1725 9.73073 25.0363 10.4253 25.0363 11.2482C25.0363 12.0711 25.174 12.7656 25.4493 13.3317C25.7247 13.8979 26.0975 14.3263 26.5677 14.6171C27.0379 14.9079 27.5669 15.0533 28.1547 15.0533C28.6992 15.0533 29.1787 14.9373 29.5933 14.7053C30.0109 14.4702 30.3358 14.1392 30.5678 13.7122C30.8029 13.2822 30.9205 12.7764 30.9205 12.1948L31.2731 12.2691H28.4146V11.2482H32.0342V12.2691C32.0342 13.0518 31.8671 13.7324 31.533 14.3109C31.202 14.8894 30.7441 15.338 30.1594 15.6566C29.5778 15.9722 28.9096 16.1299 28.1547 16.1299C27.3133 16.1299 26.5739 15.9319 25.9366 15.536C25.3024 15.14 24.8074 14.5769 24.4516 13.8468C24.099 13.1167 23.9226 12.2505 23.9226 11.2482C23.9226 10.4964 24.0232 9.82044 24.2243 9.22028C24.4284 8.61702 24.7161 8.10347 25.0874 7.67964C25.4586 7.25581 25.8979 6.93098 26.4053 6.70514C26.9126 6.47931 27.471 6.36639 28.0805 6.36639C28.5817 6.36639 29.0488 6.44218 29.4819 6.59377C29.9181 6.74227 30.3064 6.95418 30.6467 7.22952C30.9901 7.50176 31.2762 7.82814 31.5051 8.20865C31.7341 8.58608 31.8919 9.00527 31.9785 9.46622H30.7905ZM33.8381 16V15.1647L36.9751 11.7308C37.3432 11.3286 37.6464 10.979 37.8846 10.682C38.1228 10.3819 38.2992 10.1004 38.4136 9.83746C38.5312 9.57141 38.59 9.29298 38.59 9.00217C38.59 8.66806 38.5095 8.37881 38.3487 8.13441C38.1909 7.89001 37.9743 7.7013 37.699 7.56827C37.4237 7.43524 37.1143 7.36873 36.7709 7.36873C36.4059 7.36873 36.0872 7.44452 35.815 7.59611C35.5458 7.74461 35.337 7.95343 35.1885 8.22258C35.0431 8.49172 34.9704 8.80728 34.9704 9.16923H33.8753C33.8753 8.61238 34.0037 8.12358 34.2604 7.70284C34.5172 7.28211 34.8668 6.95418 35.3092 6.71906C35.7547 6.48395 36.2543 6.36639 36.808 6.36639C37.3649 6.36639 37.8583 6.48395 38.2884 6.71906C38.7184 6.95418 39.0556 7.27128 39.3 7.67036C39.5444 8.06944 39.6666 8.51338 39.6666 9.00217C39.6666 9.35176 39.6032 9.6936 39.4763 10.0277C39.3526 10.3587 39.136 10.7284 38.8266 11.1368C38.5204 11.5421 38.095 12.037 37.5505 12.6217L35.4159 14.9048V14.9791H39.8336V16H33.8381Z" fill="white"/>
</svg>
