<svg width="120" height="36" viewBox="0 0 120 36" fill="none" xmlns="http://www.w3.org/2000/svg">
<path d="M20.3593 26.9427C20.3246 26.6352 20.1817 26.397 19.9305 26.2281C19.6793 26.057 19.3631 25.9715 18.982 25.9715C18.7091 25.9715 18.4731 26.0148 18.2738 26.1014C18.0746 26.1859 17.9198 26.3028 17.8093 26.4522C17.701 26.5995 17.6469 26.7673 17.6469 26.9557C17.6469 27.1138 17.6837 27.2503 17.7573 27.365C17.8331 27.4798 17.9317 27.5762 18.0529 27.6541C18.1764 27.7299 18.3085 27.7938 18.4492 27.8458C18.59 27.8956 18.7253 27.9367 18.8553 27.9692L19.5049 28.1381C19.7172 28.1901 19.9348 28.2605 20.1579 28.3493C20.3809 28.4381 20.5877 28.555 20.7783 28.7001C20.9689 28.8452 21.1226 29.0249 21.2396 29.2393C21.3587 29.4537 21.4182 29.7103 21.4182 30.0092C21.4182 30.386 21.3208 30.7205 21.1259 31.0129C20.9331 31.3052 20.6527 31.5359 20.2845 31.7048C19.9186 31.8737 19.4757 31.9582 18.956 31.9582C18.4579 31.9582 18.027 31.8791 17.6631 31.721C17.2993 31.5629 17.0146 31.3388 16.8088 31.0486C16.6031 30.7563 16.4894 30.4098 16.4678 30.0092H17.4747C17.4942 30.2495 17.5722 30.4499 17.7086 30.6101C17.8472 30.7682 18.0237 30.8862 18.2381 30.9642C18.4547 31.04 18.6918 31.0779 18.9495 31.0779C19.2332 31.0779 19.4855 31.0335 19.7063 30.9447C19.9294 30.8537 20.1048 30.7281 20.2326 30.5679C20.3603 30.4055 20.4242 30.216 20.4242 29.9994C20.4242 29.8024 20.3679 29.641 20.2553 29.5154C20.1449 29.3898 19.9944 29.2859 19.8038 29.2036C19.6154 29.1213 19.4021 29.0487 19.1639 28.9859L18.3778 28.7716C17.845 28.6265 17.4228 28.4132 17.1109 28.1316C16.8013 27.8501 16.6464 27.4776 16.6464 27.0142C16.6464 26.6309 16.7504 26.2963 16.9583 26.0105C17.1661 25.7246 17.4477 25.5027 17.8028 25.3446C18.158 25.1843 18.5586 25.1042 19.0047 25.1042C19.4551 25.1042 19.8525 25.1832 20.1968 25.3413C20.5433 25.4994 20.8162 25.717 21.0154 25.9942C21.2146 26.2693 21.3186 26.5854 21.3273 26.9427H20.3593ZM25.7003 29.7785V26.8583H26.6748V31.8477H25.7198V30.9837H25.6678C25.5531 31.25 25.369 31.472 25.1156 31.6496C24.8644 31.825 24.5515 31.9127 24.1769 31.9127C23.8563 31.9127 23.5727 31.8423 23.3258 31.7015C23.0811 31.5586 22.8883 31.3475 22.7476 31.0681C22.609 30.7888 22.5397 30.4434 22.5397 30.0319V26.8583H23.5109V29.915C23.5109 30.255 23.6051 30.5256 23.7935 30.727C23.982 30.9284 24.2267 31.0291 24.5277 31.0291C24.7096 31.0291 24.8904 30.9837 25.0701 30.8927C25.252 30.8018 25.4026 30.6642 25.5217 30.4802C25.6429 30.2961 25.7025 30.0622 25.7003 29.7785ZM28.0578 31.8477V25.1951H29.029V27.6671H29.0875C29.1438 27.5632 29.225 27.443 29.3311 27.3066C29.4372 27.1701 29.5845 27.051 29.7729 26.9492C29.9613 26.8453 30.2103 26.7933 30.52 26.7933C30.9228 26.7933 31.2823 26.8951 31.5985 27.0987C31.9146 27.3022 32.1626 27.5957 32.3423 27.979C32.5242 28.3623 32.6152 28.8235 32.6152 29.3627C32.6152 29.902 32.5253 30.3643 32.3456 30.7498C32.1658 31.1331 31.919 31.4287 31.605 31.6366C31.291 31.8423 30.9326 31.9452 30.5298 31.9452C30.2266 31.9452 29.9786 31.8943 29.7859 31.7925C29.5953 31.6907 29.4459 31.5716 29.3376 31.4352C29.2294 31.2987 29.146 31.1775 29.0875 31.0714H29.0063V31.8477H28.0578ZM29.0096 29.353C29.0096 29.7038 29.0604 30.0113 29.1622 30.2755C29.264 30.5397 29.4113 30.7465 29.604 30.896C29.7967 31.0432 30.0328 31.1168 30.3121 31.1168C30.6023 31.1168 30.8449 31.04 31.0398 30.8862C31.2347 30.7303 31.3819 30.5192 31.4815 30.2528C31.5833 29.9864 31.6342 29.6865 31.6342 29.353C31.6342 29.0238 31.5844 28.7282 31.4848 28.4662C31.3873 28.2042 31.2401 27.9974 31.043 27.8458C30.8481 27.6942 30.6045 27.6184 30.3121 27.6184C30.0306 27.6184 29.7924 27.6909 29.5975 27.836C29.4048 27.9811 29.2586 28.1836 29.159 28.4435C29.0594 28.7033 29.0096 29.0065 29.0096 29.353ZM35.8075 31.9484C35.3246 31.9484 34.9088 31.8391 34.5601 31.6203C34.2136 31.3994 33.9473 31.0952 33.761 30.7076C33.5748 30.3199 33.4817 29.876 33.4817 29.3757C33.4817 28.869 33.577 28.4218 33.7675 28.0342C33.9581 27.6444 34.2266 27.3401 34.5731 27.1214C34.9196 26.9027 35.3278 26.7933 35.7977 26.7933C36.1767 26.7933 36.5145 26.8637 36.8112 27.0045C37.1079 27.1431 37.3472 27.338 37.5291 27.5892C37.7132 27.8404 37.8225 28.1338 37.8572 28.4695H36.9119C36.8599 28.2356 36.7408 28.0342 36.5546 27.8653C36.3705 27.6964 36.1237 27.6119 35.814 27.6119C35.5433 27.6119 35.3062 27.6834 35.1026 27.8263C34.9012 27.967 34.7442 28.1684 34.6316 28.4305C34.519 28.6903 34.4627 28.9979 34.4627 29.353C34.4627 29.7168 34.5179 30.0308 34.6283 30.295C34.7388 30.5592 34.8947 30.7639 35.0961 30.909C35.2997 31.054 35.539 31.1266 35.814 31.1266C35.9981 31.1266 36.1648 31.093 36.3142 31.0259C36.4658 30.9566 36.5925 30.8581 36.6943 30.7303C36.7982 30.6025 36.8708 30.4488 36.9119 30.269H37.8572C37.8225 30.5917 37.7175 30.8797 37.5421 31.1331C37.3667 31.3865 37.1317 31.5857 36.8372 31.7308C36.5449 31.8759 36.2016 31.9484 35.8075 31.9484ZM38.8958 31.8477V26.8583H39.8671V31.8477H38.8958ZM39.3863 26.0884C39.2174 26.0884 39.0723 26.0321 38.9511 25.9195C38.8319 25.8047 38.7724 25.6683 38.7724 25.5102C38.7724 25.35 38.8319 25.2136 38.9511 25.1009C39.0723 24.9862 39.2174 24.9288 39.3863 24.9288C39.5552 24.9288 39.6993 24.9862 39.8184 25.1009C39.9396 25.2136 40.0003 25.35 40.0003 25.5102C40.0003 25.6683 39.9396 25.8047 39.8184 25.9195C39.6993 26.0321 39.5552 26.0884 39.3863 26.0884ZM43.0415 31.9452C42.6387 31.9452 42.2792 31.8423 41.9631 31.6366C41.6491 31.4287 41.4022 31.1331 41.2224 30.7498C41.0449 30.3643 40.9561 29.902 40.9561 29.3627C40.9561 28.8235 41.046 28.3623 41.2257 27.979C41.4076 27.5957 41.6566 27.3022 41.9728 27.0987C42.289 26.8951 42.6474 26.7933 43.048 26.7933C43.3577 26.7933 43.6067 26.8453 43.7951 26.9492C43.9857 27.051 44.1329 27.1701 44.2369 27.3066C44.343 27.443 44.4253 27.5632 44.4838 27.6671H44.5422V25.1951H45.5135V31.8477H44.565V31.0714H44.4838C44.4253 31.1775 44.3408 31.2987 44.2304 31.4352C44.1221 31.5716 43.9727 31.6907 43.7821 31.7925C43.5916 31.8943 43.3447 31.9452 43.0415 31.9452ZM43.2559 31.1168C43.5353 31.1168 43.7713 31.0432 43.964 30.896C44.1589 30.7465 44.3062 30.5397 44.4058 30.2755C44.5076 30.0113 44.5585 29.7038 44.5585 29.353C44.5585 29.0065 44.5087 28.7033 44.4091 28.4435C44.3094 28.1836 44.1633 27.9811 43.9705 27.836C43.7778 27.6909 43.5396 27.6184 43.2559 27.6184C42.9636 27.6184 42.7199 27.6942 42.525 27.8458C42.3301 27.9974 42.1829 28.2042 42.0833 28.4662C41.9858 28.7282 41.9371 29.0238 41.9371 29.353C41.9371 29.6865 41.9869 29.9864 42.0865 30.2528C42.1861 30.5192 42.3334 30.7303 42.5283 30.8862C42.7253 31.04 42.9679 31.1168 43.2559 31.1168ZM46.8997 31.8477V26.8583H47.871V31.8477H46.8997ZM47.3902 26.0884C47.2213 26.0884 47.0762 26.0321 46.9549 25.9195C46.8358 25.8047 46.7763 25.6683 46.7763 25.5102C46.7763 25.35 46.8358 25.2136 46.9549 25.1009C47.0762 24.9862 47.2213 24.9288 47.3902 24.9288C47.5591 24.9288 47.7031 24.9862 47.8222 25.1009C47.9435 25.2136 48.0041 25.35 48.0041 25.5102C48.0041 25.6683 47.9435 25.8047 47.8222 25.9195C47.7031 26.0321 47.5591 26.0884 47.3902 26.0884ZM51.2793 31.9484C50.8115 31.9484 50.4033 31.8412 50.0547 31.6268C49.706 31.4124 49.4353 31.1125 49.2426 30.727C49.0498 30.3416 48.9535 29.8911 48.9535 29.3757C48.9535 28.8582 49.0498 28.4056 49.2426 28.0179C49.4353 27.6303 49.706 27.3293 50.0547 27.1149C50.4033 26.9005 50.8115 26.7933 51.2793 26.7933C51.747 26.7933 52.1552 26.9005 52.5039 27.1149C52.8525 27.3293 53.1232 27.6303 53.316 28.0179C53.5087 28.4056 53.6051 28.8582 53.6051 29.3757C53.6051 29.8911 53.5087 30.3416 53.316 30.727C53.1232 31.1125 52.8525 31.4124 52.5039 31.6268C52.1552 31.8412 51.747 31.9484 51.2793 31.9484ZM51.2825 31.1331C51.5857 31.1331 51.8369 31.053 52.0361 30.8927C52.2354 30.7325 52.3826 30.5192 52.4779 30.2528C52.5754 29.9864 52.6241 29.693 52.6241 29.3725C52.6241 29.0542 52.5754 28.7618 52.4779 28.4954C52.3826 28.2269 52.2354 28.0114 52.0361 27.849C51.8369 27.6866 51.5857 27.6054 51.2825 27.6054C50.9772 27.6054 50.7238 27.6866 50.5224 27.849C50.3232 28.0114 50.1748 28.2269 50.0774 28.4954C49.9821 28.7618 49.9345 29.0542 49.9345 29.3725C49.9345 29.693 49.9821 29.9864 50.0774 30.2528C50.1748 30.5192 50.3232 30.7325 50.5224 30.8927C50.7238 31.053 50.9772 31.1331 51.2825 31.1331ZM59.3416 31.8477H57.188V25.1951H59.4098C60.0617 25.1951 60.6215 25.3283 61.0892 25.5947C61.557 25.8589 61.9154 26.2389 62.1644 26.7349C62.4156 27.2286 62.5412 27.8209 62.5412 28.5117C62.5412 29.2047 62.4145 29.8002 62.1612 30.2983C61.91 30.7963 61.5461 31.1796 61.0697 31.4482C60.5933 31.7145 60.0173 31.8477 59.3416 31.8477ZM58.1917 30.9707H59.2864C59.7931 30.9707 60.2143 30.8754 60.55 30.6848C60.8857 30.4921 61.1369 30.2138 61.3036 29.85C61.4704 29.484 61.5537 29.0379 61.5537 28.5117C61.5537 27.9898 61.4704 27.5469 61.3036 27.1831C61.139 26.8193 60.8932 26.5432 60.5662 26.3548C60.2392 26.1664 59.8332 26.0722 59.3481 26.0722H58.1917V30.9707ZM65.8618 31.9484C65.3702 31.9484 64.9469 31.8434 64.5917 31.6333C64.2387 31.4211 63.9659 31.1233 63.7731 30.74C63.5826 30.3546 63.4873 29.9031 63.4873 29.3855C63.4873 28.8744 63.5826 28.424 63.7731 28.0342C63.9659 27.6444 64.2344 27.3401 64.5787 27.1214C64.9252 26.9027 65.3302 26.7933 65.7936 26.7933C66.0751 26.7933 66.348 26.8399 66.6122 26.933C66.8764 27.0261 67.1135 27.1723 67.3236 27.3715C67.5336 27.5708 67.6993 27.8295 67.8206 28.1479C67.9418 28.464 68.0025 28.8484 68.0025 29.301V29.6454H64.0363V28.9177H67.0507C67.0507 28.6622 66.9987 28.4359 66.8948 28.2388C66.7908 28.0396 66.6447 27.8826 66.4563 27.7678C66.27 27.653 66.0513 27.5957 65.8001 27.5957C65.5272 27.5957 65.289 27.6628 65.0855 27.7971C64.8841 27.9292 64.7282 28.1024 64.6177 28.3168C64.5094 28.529 64.4553 28.7596 64.4553 29.0087V29.5771C64.4553 29.9106 64.5138 30.1943 64.6307 30.4282C64.7498 30.6621 64.9155 30.8407 65.1277 30.9642C65.3399 31.0854 65.5879 31.1461 65.8716 31.1461C66.0556 31.1461 66.2235 31.1201 66.3751 31.0681C66.5266 31.014 66.6577 30.9339 66.7681 30.8277C66.8786 30.7216 66.963 30.5906 67.0215 30.4347L67.9408 30.6004C67.8671 30.8711 67.735 31.1082 67.5445 31.3117C67.3561 31.5131 67.1189 31.6701 66.8331 31.7828C66.5494 31.8932 66.2256 31.9484 65.8618 31.9484ZM71.2508 26.0592V25.1951H76.3994V26.0592H74.3237V31.8477H73.3232V26.0592H71.2508ZM76.9411 31.8477V26.8583H77.8798V27.6509H77.9318C78.0227 27.3823 78.183 27.1712 78.4125 27.0175C78.6443 26.8615 78.9063 26.7836 79.1986 26.7836C79.2593 26.7836 79.3307 26.7857 79.413 26.7901C79.4975 26.7944 79.5635 26.7998 79.6112 26.8063V27.7353C79.5722 27.7245 79.5029 27.7126 79.4033 27.6996C79.3037 27.6844 79.2041 27.6769 79.1044 27.6769C78.8749 27.6769 78.6702 27.7256 78.4905 27.823C78.3129 27.9183 78.1722 28.0515 78.0682 28.2226C77.9643 28.3915 77.9123 28.5842 77.9123 28.8008V31.8477H76.9411ZM81.859 31.9582C81.5429 31.9582 81.257 31.8997 81.0015 31.7828C80.7459 31.6636 80.5434 31.4915 80.394 31.2663C80.2468 31.041 80.1731 30.7649 80.1731 30.4379C80.1731 30.1564 80.2273 29.9247 80.3356 29.7428C80.4438 29.5609 80.59 29.4169 80.7741 29.3108C80.9582 29.2047 81.1639 29.1245 81.3913 29.0704C81.6186 29.0163 81.8504 28.9751 82.0864 28.947C82.3852 28.9123 82.6278 28.8842 82.814 28.8625C83.0003 28.8387 83.1356 28.8008 83.2201 28.7488C83.3045 28.6968 83.3468 28.6124 83.3468 28.4954V28.4727C83.3468 28.189 83.2666 27.9692 83.1064 27.8133C82.9483 27.6574 82.7122 27.5794 82.3982 27.5794C82.0712 27.5794 81.8135 27.652 81.6251 27.7971C81.4389 27.94 81.3101 28.0991 81.2386 28.2746L80.3258 28.0667C80.4341 27.7635 80.5922 27.5188 80.8001 27.3325C81.0101 27.1441 81.2516 27.0077 81.5244 26.9233C81.7973 26.8366 82.0842 26.7933 82.3852 26.7933C82.5845 26.7933 82.7956 26.8171 83.0187 26.8648C83.2439 26.9103 83.4539 26.9947 83.6488 27.1182C83.8459 27.2416 84.0072 27.4181 84.1328 27.6476C84.2585 27.875 84.3213 28.1706 84.3213 28.5344V31.8477H83.3727V31.1656H83.3338C83.271 31.2912 83.1768 31.4146 83.0512 31.5359C82.9256 31.6571 82.7642 31.7578 82.5672 31.838C82.3701 31.9181 82.134 31.9582 81.859 31.9582ZM82.0702 31.1786C82.3387 31.1786 82.5682 31.1255 82.7588 31.0194C82.9515 30.9133 83.0977 30.7747 83.1973 30.6036C83.2991 30.4304 83.35 30.2452 83.35 30.0481V29.405C83.3154 29.4396 83.2482 29.4721 83.1486 29.5024C83.0512 29.5306 82.9396 29.5555 82.814 29.5771C82.6884 29.5966 82.5661 29.615 82.447 29.6324C82.3279 29.6475 82.2282 29.6605 82.1481 29.6713C81.9597 29.6952 81.7876 29.7352 81.6316 29.7915C81.4779 29.8478 81.3544 29.929 81.2613 30.0352C81.1704 30.1391 81.1249 30.2777 81.1249 30.4509C81.1249 30.6913 81.2137 30.8732 81.3913 30.9967C81.5688 31.1179 81.7951 31.1786 82.0702 31.1786ZM86.5861 28.8852V31.8477H85.6149V26.8583H86.5472V27.6704H86.6089C86.7237 27.4062 86.9034 27.1939 87.1481 27.0337C87.395 26.8734 87.7057 26.7933 88.0804 26.7933C88.4204 26.7933 88.7181 26.8648 88.9737 27.0077C89.2292 27.1485 89.4273 27.3585 89.5681 27.6379C89.7089 27.9172 89.7793 28.2626 89.7793 28.6741V31.8477H88.808V28.791C88.808 28.4294 88.7138 28.1468 88.5254 27.9432C88.337 27.7375 88.0782 27.6346 87.749 27.6346C87.5238 27.6346 87.3235 27.6834 87.1481 27.7808C86.9749 27.8783 86.8374 28.0212 86.7356 28.2096C86.636 28.3958 86.5861 28.621 86.5861 28.8852ZM94.8207 28.0764L93.9404 28.2323C93.9035 28.1197 93.8451 28.0125 93.7649 27.9107C93.687 27.809 93.5809 27.7256 93.4466 27.6606C93.3123 27.5957 93.1445 27.5632 92.9431 27.5632C92.6681 27.5632 92.4385 27.6249 92.2545 27.7483C92.0704 27.8696 91.9784 28.0266 91.9784 28.2193C91.9784 28.3861 92.0401 28.5203 92.1635 28.6221C92.287 28.7239 92.4862 28.8073 92.7612 28.8722L93.5538 29.0542C94.0129 29.1603 94.3551 29.3238 94.5803 29.5447C94.8055 29.7655 94.9181 30.0525 94.9181 30.4055C94.9181 30.7043 94.8315 30.9707 94.6582 31.2045C94.4872 31.4363 94.2479 31.6182 93.9404 31.7503C93.635 31.8824 93.2809 31.9484 92.8782 31.9484C92.3194 31.9484 91.8636 31.8293 91.5106 31.5911C91.1576 31.3507 90.9411 31.0096 90.8609 30.5679L91.7997 30.4249C91.8582 30.6697 91.9784 30.8548 92.1603 30.9804C92.3422 31.1039 92.5793 31.1656 92.8717 31.1656C93.19 31.1656 93.4444 31.0995 93.635 30.9674C93.8256 30.8332 93.9209 30.6697 93.9209 30.4769C93.9209 30.321 93.8624 30.19 93.7455 30.0839C93.6307 29.9778 93.4542 29.8976 93.216 29.8435L92.3714 29.6583C91.9058 29.5522 91.5615 29.3833 91.3384 29.1516C91.1176 28.9199 91.0071 28.6265 91.0071 28.2713C91.0071 27.9768 91.0894 27.7191 91.254 27.4982C91.4186 27.2773 91.646 27.1052 91.9361 26.9817C92.2263 26.8561 92.5587 26.7933 92.9334 26.7933C93.4726 26.7933 93.897 26.9103 94.2067 27.1441C94.5164 27.3759 94.721 27.6866 94.8207 28.0764ZM95.986 33.7188V26.8583H96.9345V27.6671H97.0157C97.072 27.5632 97.1532 27.443 97.2593 27.3066C97.3655 27.1701 97.5127 27.051 97.7011 26.9492C97.8895 26.8453 98.1386 26.7933 98.4482 26.7933C98.851 26.7933 99.2105 26.8951 99.5267 27.0987C99.8428 27.3022 100.091 27.5957 100.271 27.979C100.452 28.3623 100.543 28.8235 100.543 29.3627C100.543 29.902 100.454 30.3643 100.274 30.7498C100.094 31.1331 99.8472 31.4287 99.5332 31.6366C99.2192 31.8423 98.8608 31.9452 98.458 31.9452C98.1548 31.9452 97.9068 31.8943 97.7141 31.7925C97.5235 31.6907 97.3741 31.5716 97.2658 31.4352C97.1576 31.2987 97.0742 31.1775 97.0157 31.0714H96.9572V33.7188H95.986ZM96.9378 29.353C96.9378 29.7038 96.9886 30.0113 97.0904 30.2755C97.1922 30.5397 97.3395 30.7465 97.5322 30.896C97.7249 31.0432 97.961 31.1168 98.2403 31.1168C98.5305 31.1168 98.7731 31.04 98.968 30.8862C99.1629 30.7303 99.3101 30.5192 99.4097 30.2528C99.5115 29.9864 99.5624 29.6865 99.5624 29.353C99.5624 29.0238 99.5126 28.7282 99.413 28.4662C99.3155 28.2042 99.1683 27.9974 98.9712 27.8458C98.7763 27.6942 98.5327 27.6184 98.2403 27.6184C97.9588 27.6184 97.7206 27.6909 97.5257 27.836C97.333 27.9811 97.1868 28.1836 97.0872 28.4435C96.9876 28.7033 96.9378 29.0065 96.9378 29.353ZM103.733 31.9484C103.265 31.9484 102.857 31.8412 102.509 31.6268C102.16 31.4124 101.889 31.1125 101.697 30.727C101.504 30.3416 101.407 29.8911 101.407 29.3757C101.407 28.8582 101.504 28.4056 101.697 28.0179C101.889 27.6303 102.16 27.3293 102.509 27.1149C102.857 26.9005 103.265 26.7933 103.733 26.7933C104.201 26.7933 104.609 26.9005 104.958 27.1149C105.307 27.3293 105.577 27.6303 105.77 28.0179C105.963 28.4056 106.059 28.8582 106.059 29.3757C106.059 29.8911 105.963 30.3416 105.77 30.727C105.577 31.1125 105.307 31.4124 104.958 31.6268C104.609 31.8412 104.201 31.9484 103.733 31.9484ZM103.737 31.1331C104.04 31.1331 104.291 31.053 104.49 30.8927C104.689 30.7325 104.837 30.5192 104.932 30.2528C105.029 29.9864 105.078 29.693 105.078 29.3725C105.078 29.0542 105.029 28.7618 104.932 28.4954C104.837 28.2269 104.689 28.0114 104.49 27.849C104.291 27.6866 104.04 27.6054 103.737 27.6054C103.431 27.6054 103.178 27.6866 102.976 27.849C102.777 28.0114 102.629 28.2269 102.531 28.4954C102.436 28.7618 102.388 29.0542 102.388 29.3725C102.388 29.693 102.436 29.9864 102.531 30.2528C102.629 30.5192 102.777 30.7325 102.976 30.8927C103.178 31.053 103.431 31.1331 103.737 31.1331ZM107.143 31.8477V26.8583H108.082V27.6509H108.134C108.225 27.3823 108.385 27.1712 108.615 27.0175C108.846 26.8615 109.108 26.7836 109.401 26.7836C109.461 26.7836 109.533 26.7857 109.615 26.7901C109.7 26.7944 109.766 26.7998 109.813 26.8063V27.7353C109.774 27.7245 109.705 27.7126 109.605 27.6996C109.506 27.6844 109.406 27.6769 109.307 27.6769C109.077 27.6769 108.872 27.7256 108.693 27.823C108.515 27.9183 108.374 28.0515 108.27 28.2226C108.166 28.3915 108.114 28.5842 108.114 28.8008V31.8477H107.143ZM113.278 26.8583V27.6379H110.552V26.8583H113.278ZM111.283 25.6629H112.254V30.3827C112.254 30.5711 112.283 30.713 112.339 30.8083C112.395 30.9014 112.468 30.9653 112.557 30.9999C112.647 31.0324 112.746 31.0486 112.852 31.0486C112.93 31.0486 112.998 31.0432 113.057 31.0324C113.115 31.0216 113.161 31.0129 113.193 31.0064L113.369 31.8087C113.312 31.8304 113.232 31.852 113.128 31.8737C113.024 31.8975 112.894 31.9105 112.738 31.9127C112.483 31.917 112.245 31.8715 112.024 31.7763C111.803 31.681 111.624 31.5337 111.488 31.3345C111.351 31.1353 111.283 30.8851 111.283 30.5841V25.6629ZM116.449 31.9484C115.957 31.9484 115.534 31.8434 115.179 31.6333C114.826 31.4211 114.553 31.1233 114.36 30.74C114.17 30.3546 114.074 29.9031 114.074 29.3855C114.074 28.8744 114.17 28.424 114.36 28.0342C114.553 27.6444 114.821 27.3401 115.166 27.1214C115.512 26.9027 115.917 26.7933 116.381 26.7933C116.662 26.7933 116.935 26.8399 117.199 26.933C117.463 27.0261 117.701 27.1723 117.911 27.3715C118.121 27.5708 118.286 27.8295 118.408 28.1479C118.529 28.464 118.589 28.8484 118.589 29.301V29.6454H114.623V28.9177H117.638C117.638 28.6622 117.586 28.4359 117.482 28.2388C117.378 28.0396 117.232 27.8826 117.043 27.7678C116.857 27.653 116.638 27.5957 116.387 27.5957C116.114 27.5957 115.876 27.6628 115.672 27.7971C115.471 27.9292 115.315 28.1024 115.205 28.3168C115.096 28.529 115.042 28.7596 115.042 29.0087V29.5771C115.042 29.9106 115.101 30.1943 115.218 30.4282C115.337 30.6621 115.502 30.8407 115.715 30.9642C115.927 31.0854 116.175 31.1461 116.459 31.1461C116.643 31.1461 116.81 31.1201 116.962 31.0681C117.114 31.014 117.245 30.9339 117.355 30.8277C117.466 30.7216 117.55 30.5906 117.608 30.4347L118.528 30.6004C118.454 30.8711 118.322 31.1082 118.131 31.3117C117.943 31.5131 117.706 31.6701 117.42 31.7828C117.136 31.8932 116.813 31.9484 116.449 31.9484Z" fill="#5C5C5C"/>
<path d="M0 0.656677H41.0373L58.5 10.4241L41.0373 20.1916H12.2239V35.6567H0V0.656677Z" fill="#447DA9"/>
<path d="M8.6311 7.51723V6.49632H15.7589V7.51723H12.7704V16H11.6196V7.51723H8.6311ZM17.535 16V6.49632H20.7462C21.4887 6.49632 22.0981 6.62316 22.5745 6.87684C23.051 7.12743 23.4036 7.47237 23.6326 7.91167C23.8615 8.35096 23.976 8.85059 23.976 9.41054C23.976 9.97049 23.8615 10.467 23.6326 10.9001C23.4036 11.3332 23.0525 11.6735 22.5792 11.921C22.1059 12.1654 21.5011 12.2876 20.7648 12.2876H18.1661V11.2482H20.7276C21.235 11.2482 21.6434 11.1739 21.9527 11.0254C22.2652 10.8769 22.491 10.6666 22.6302 10.3943C22.7725 10.119 22.8437 9.79105 22.8437 9.41054C22.8437 9.03002 22.7725 8.69745 22.6302 8.41284C22.4879 8.12822 22.2605 7.90857 21.9481 7.75389C21.6356 7.59611 21.2226 7.51723 20.7091 7.51723H18.6858V16H17.535ZM22.0084 11.7308L24.3472 16H23.0108L20.7091 11.7308H22.0084ZM26.2834 16H25.0769L28.5666 6.49632H29.7545L33.2441 16H32.0376L29.1977 7.99983H29.1234L26.2834 16ZM26.7289 12.2876H31.5921V13.3085H26.7289V12.2876ZM37.4519 6.49632V16H36.3011V7.70284H36.2454L33.9251 9.24348V8.07408L36.3011 6.49632H37.4519Z" fill="white"/>
</svg>
