<?xml version="1.0" standalone="no"?>
<!DOCTYPE svg PUBLIC "-//W3C//DTD SVG 20010904//EN"
 "http://www.w3.org/TR/2001/REC-SVG-20010904/DTD/svg10.dtd">
<svg version="1.0" xmlns="http://www.w3.org/2000/svg"
 width="20px" height="20px" viewBox="0 0 75.000000 68.000000"
 preserveAspectRatio="xMidYMid meet">
<metadata>
Created by potrace 1.10, written by Peter Selinger 2001-2011
</metadata>
<g transform="translate(0.000000,68.000000) scale(0.100000,-0.100000)"
fill="#000000" stroke="none">
<path d="M535 591 c-11 -5 -28 -17 -37 -28 -17 -18 -15 -21 45 -81 l63 -62 21
28 c39 52 31 112 -17 137 -32 17 -45 18 -75 6z m56 -41 c20 -11 27 -60 8 -60
-12 0 -49 38 -49 50 0 7 11 20 17 20 3 0 13 -5 24 -10z"/>
<path d="M293 357 l-161 -162 -17 -73 c-10 -40 -15 -75 -12 -78 2 -3 36 3 76
13 l71 18 160 159 c88 88 160 162 160 166 0 3 -26 31 -58 63 l-57 57 -162
-163z m188 57 c11 -13 -5 -33 -113 -141 -120 -120 -127 -125 -144 -109 -16 17
-11 24 107 142 68 68 127 124 130 124 4 0 12 -7 20 -16z m-271 -269 c27 -28
25 -32 -19 -45 -36 -10 -43 -3 -35 39 8 38 23 39 54 6z"/>
</g>
</svg>
