<?xml version="1.0" standalone="no"?>
<!DOCTYPE svg PUBLIC "-//W3C//DTD SVG 20010904//EN"
 "http://www.w3.org/TR/2001/REC-SVG-20010904/DTD/svg10.dtd">
<svg version="1.0" xmlns="http://www.w3.org/2000/svg"
 width="20px" height="20px" viewBox="0 0 70.000000 75.000000"
 preserveAspectRatio="xMidYMid meet">
<metadata>
Created by potrace 1.10, written by Peter Selinger 2001-2011
</metadata>
<g transform="translate(0.000000,75.000000) scale(0.100000,-0.100000)"
fill="#000000" stroke="none">
<path d="M267 654 c-4 -4 -7 -21 -7 -38 l0 -31 -67 0 -68 0 -3 -32 -3 -33 226
0 226 0 -3 33 -3 32 -67 0 -67 0 -3 35 -3 35 -75 3 c-42 1 -79 0 -83 -4z m133
-46 c0 -21 -5 -23 -55 -23 -50 0 -55 2 -55 23 0 20 5 22 55 22 50 0 55 -2 55
-22z m-81 -54 c2 -2 -10 -4 -27 -4 -18 0 -32 5 -32 10 0 9 47 4 59 -6z m140 0
c2 -2 -20 -4 -50 -3 -41 1 -48 3 -29 9 22 7 68 3 79 -6z"/>
<path d="M150 305 c0 -128 4 -185 12 -193 15 -15 354 -17 363 -2 3 5 6 91 6
190 l0 181 -190 2 -191 2 0 -180z m358 -8 c2 -135 0 -158 -13 -163 -21 -8 -33
5 -15 16 11 7 13 35 11 137 -1 70 -7 133 -12 139 -6 7 -54 11 -139 10 -104 -1
-133 -4 -140 -16 -5 -8 -10 -67 -10 -131 0 -92 3 -119 15 -129 21 -17 19 -30
-5 -30 -19 0 -20 7 -20 158 0 87 2 161 4 163 2 2 76 4 163 4 l158 0 3 -158z
m-248 -7 c0 -123 -1 -130 -20 -130 -19 0 -20 7 -20 130 0 123 1 130 20 130 19
0 20 -7 20 -130z m70 0 c0 -123 -1 -130 -20 -130 -19 0 -20 7 -20 130 0 123 1
130 20 130 19 0 20 -7 20 -130z m70 0 c0 -123 -1 -130 -20 -130 -19 0 -20 7
-20 130 0 123 1 130 20 130 19 0 20 -7 20 -130z m70 0 c0 -123 -1 -130 -20
-130 -19 0 -20 7 -20 130 0 123 1 130 20 130 19 0 20 -7 20 -130z m-185 -150
c3 -5 -3 -10 -15 -10 -12 0 -18 5 -15 10 3 6 10 10 15 10 5 0 12 -4 15 -10z
m75 0 c0 -5 -7 -10 -15 -10 -8 0 -15 5 -15 10 0 6 7 10 15 10 8 0 15 -4 15
-10z m70 0 c0 -5 -9 -10 -21 -10 -11 0 -17 5 -14 10 3 6 13 10 21 10 8 0 14
-4 14 -10z"/>
</g>
</svg>
