<svg width="66" height="66" viewBox="0 0 66 66" fill="none" xmlns="http://www.w3.org/2000/svg">
<path d="M31.8653 8.82318C27.1164 9.01912 22.3727 10.7207 18.5416 13.5979C16.706 14.9746 14.9271 16.7638 13.5864 18.5633C8.90972 24.8643 7.57941 33.006 10.008 40.4774C10.6628 42.4832 11.7044 44.623 12.9007 46.4019C17.9899 53.9971 26.936 58.1015 35.9388 56.9722C40.9197 56.3483 45.3799 54.3168 49.1336 50.9652C57.2341 43.731 59.4977 31.9386 54.6508 22.2243C52.4955 17.9136 49.2058 14.4126 45.0138 11.9891C41.8788 10.1741 37.9136 8.98818 34.495 8.84381C33.0358 8.78193 32.7935 8.78193 31.8653 8.82318ZM34.7271 12.5305C41.5694 13.1183 47.6022 17.0216 50.9486 23.0235C53.4443 27.5094 54.1558 32.9235 52.8977 37.9508C51.9953 41.5705 50.1649 44.8087 47.5403 47.4383C45.8439 49.1399 43.998 50.4547 41.8943 51.4654C39.0841 52.8112 36.1502 53.4711 32.9997 53.4711C29.6946 53.4711 26.673 52.7544 23.7443 51.2797C19.8255 49.3049 16.6441 46.1183 14.6693 42.1893C11.6374 36.1513 11.7818 28.8758 15.0508 23.0235C18.3921 17.0422 24.4094 13.1338 31.195 12.5357C31.9118 12.4738 34.0103 12.4738 34.7271 12.5305Z" fill="#F44336"/>
<path d="M23.765 21.0441C23.6309 21.0647 23.4711 21.1111 23.404 21.1421C23.1978 21.2504 21.2951 23.1633 21.1765 23.385C21.027 23.6583 21.0218 24.2771 21.1611 24.5452C21.2126 24.6432 23.1101 26.5819 25.3737 28.8507L29.4936 32.9757L25.3892 37.0749C23.007 39.4571 21.2436 41.2618 21.1765 41.3804C21.0064 41.7 21.0167 42.2827 21.2023 42.5921C21.4034 42.9324 23.2339 44.7268 23.4814 44.8299C23.734 44.933 24.2651 44.9382 24.5229 44.8299C24.6725 44.7732 25.8378 43.6388 28.8645 40.6172L32.9998 36.4819L37.1403 40.6172C40.1618 43.6388 41.3272 44.7732 41.4767 44.8299C41.7345 44.9382 42.2656 44.933 42.5183 44.8299C42.7658 44.7268 44.5962 42.9324 44.7973 42.5921C44.9829 42.2827 44.9933 41.7 44.8231 41.3804C44.7561 41.2618 42.9926 39.4571 40.6104 37.0749L36.5061 32.9757L40.6259 28.8507C42.8895 26.5819 44.787 24.6432 44.8386 24.5452C44.9778 24.2771 44.9726 23.6583 44.8231 23.385C44.6581 23.0808 42.7658 21.2194 42.5131 21.1111C42.2501 21.0029 41.75 21.0029 41.4818 21.1163C41.3272 21.1782 40.1979 22.2765 37.1403 25.3341L32.9998 29.4694L28.8645 25.3341C26.472 22.9416 24.657 21.173 24.5693 21.1369C24.327 21.039 24.0228 21.008 23.765 21.0441Z" fill="#F44336"/>
</svg>
