<svg width="40" height="40" viewBox="0 0 40 40" fill="none" xmlns="http://www.w3.org/2000/svg">
<rect x="0.5" y="0.5" width="39" height="39" rx="2.54143" fill="#425C77" fill-opacity="0.5" stroke="black"/>
<path d="M30.5 27.4677H30.493V27.9677C30.493 28.3415 30.2537 28.5 30.1116 28.5H7.88138C7.74396 28.5 7.5 28.3388 7.5 27.9677V12.0323C7.5 11.6585 7.73931 11.5 7.88138 11.5H30.1186C30.256 11.5 30.5 11.6612 30.5 12.0323V27.4677Z" fill="white" stroke="black"/>
<path d="M16.0085 26.9483C16.0085 27.2744 15.8035 27.3918 15.7041 27.3918H8.69506C8.60005 27.3918 8.39062 27.2714 8.39062 26.9483V14.1096C8.39062 13.7834 8.59563 13.666 8.69506 13.666H15.7041C15.7991 13.666 16.0085 13.7864 16.0085 14.1096V26.9483Z" fill="#4F4F4F" stroke="black"/>
<path d="M8.69506 13.6572H15.7111C15.7614 13.6572 15.8278 13.6805 15.8926 13.7575C15.9582 13.8354 16.0085 13.9562 16.0085 14.1008V20.0443H8.39062V14.1008C8.39062 13.7776 8.60005 13.6572 8.69506 13.6572Z" fill="#606060" stroke="black"/>
<mask id="path-5-inside-1_620_2" fill="white">
<path d="M16.5144 20.3428H7.89648V20.7541H16.5144V20.3428Z"/>
</mask>
<path d="M16.5144 20.3428H7.89648V20.7541H16.5144V20.3428Z" fill="#646464"/>
<path d="M7.89648 20.3428V19.3428H6.89648V20.3428H7.89648ZM16.5144 20.3428H17.5144V19.3428H16.5144V20.3428ZM16.5144 20.7541V21.7541H17.5144V20.7541H16.5144ZM7.89648 20.7541H6.89648V21.7541H7.89648V20.7541ZM7.89648 21.3428H16.5144V19.3428H7.89648V21.3428ZM15.5144 20.3428V20.7541H17.5144V20.3428H15.5144ZM16.5144 19.7541H7.89648V21.7541H16.5144V19.7541ZM8.89648 20.7541V20.3428H6.89648V20.7541H8.89648Z" fill="black" mask="url(#path-5-inside-1_620_2)"/>
<path d="M28.7038 26.8421C28.7038 27.1682 28.4988 27.2856 28.3994 27.2856H21.3904C21.2954 27.2856 21.0859 27.1652 21.0859 26.8421V13.9953C21.0859 13.6691 21.2909 13.5518 21.3904 13.5518H28.3994C28.4944 13.5518 28.7038 13.6722 28.7038 13.9953V26.8421Z" fill="#4F4F4F" stroke="black"/>
<path d="M21.3904 13.5518H28.3994C28.4988 13.5518 28.7038 13.6691 28.7038 13.9953V20.0518H21.0859V13.9953C21.0859 13.6722 21.2954 13.5518 21.3904 13.5518Z" fill="#606060" stroke="black"/>
<path d="M26.3905 24.5691H26.7628C26.7556 24.5783 26.7481 24.5874 26.7403 24.5963C26.6306 24.7228 26.5265 24.7627 26.4115 24.7627H23.1868C23.0628 24.7627 22.9593 24.7211 22.851 24.5963C22.8433 24.5874 22.8358 24.5783 22.8285 24.5691H23.2218H26.3905ZM26.9118 24.1094C26.9118 24.1797 26.9046 24.2444 26.8905 24.3042V24.0691V17.0046V16.7534C26.9046 16.8132 26.9118 16.8779 26.9118 16.9481V24.1094ZM26.7752 16.5046H26.3905H23.2218H22.8247C22.8368 16.4878 22.8498 16.4712 22.8636 16.4547C22.9656 16.3329 23.0637 16.2949 23.1868 16.2949H26.4255C26.5274 16.2949 26.6262 16.3297 26.7403 16.4613C26.7526 16.4754 26.7642 16.4898 26.7752 16.5046ZM22.6865 16.9481C22.6865 16.8591 22.6981 16.7792 22.7218 16.7052V17.0046V24.0691V24.3679C22.6985 24.2936 22.6865 24.2091 22.6865 24.1094V16.9481Z" fill="black" stroke="black"/>
<path d="M14.2509 24.6844H14.6232C14.6159 24.6936 14.6084 24.7026 14.6007 24.7116C14.491 24.838 14.3869 24.8779 14.2719 24.8779H11.0472C10.9232 24.8779 10.8196 24.8364 10.7114 24.7116C10.7036 24.7026 10.6961 24.6935 10.6889 24.6844H11.0821H14.2509ZM14.7722 24.2247C14.7722 24.295 14.765 24.3596 14.7509 24.4194V24.1844V17.1198V16.8687C14.765 16.9285 14.7722 16.9931 14.7722 17.0634V24.2247ZM14.6355 16.6198H14.2509H11.0821H10.685C10.6972 16.603 10.7102 16.5864 10.724 16.5699C10.8259 16.4482 10.924 16.4102 11.0472 16.4102H14.2859C14.3877 16.4102 14.4866 16.4449 14.6007 16.5765C14.6129 16.5906 14.6245 16.605 14.6355 16.6198ZM10.5469 17.0634C10.5469 16.9743 10.5584 16.8944 10.5821 16.8205V17.1198V24.1844V24.4831C10.5588 24.4089 10.5469 24.3243 10.5469 24.2247V17.0634Z" fill="black" stroke="black"/>
<mask id="path-11-inside-2_620_2" fill="white">
<path d="M29.2038 20.3428H20.5859V20.7541H29.2038V20.3428Z"/>
</mask>
<path d="M29.2038 20.3428H20.5859V20.7541H29.2038V20.3428Z" fill="#646464"/>
<path d="M20.5859 20.3428V19.3428H19.5859V20.3428H20.5859ZM29.2038 20.3428H30.2038V19.3428H29.2038V20.3428ZM29.2038 20.7541V21.7541H30.2038V20.7541H29.2038ZM20.5859 20.7541H19.5859V21.7541H20.5859V20.7541ZM20.5859 21.3428H29.2038V19.3428H20.5859V21.3428ZM28.2038 20.3428V20.7541H30.2038V20.3428H28.2038ZM29.2038 19.7541H20.5859V21.7541H29.2038V19.7541ZM21.5859 20.7541V20.3428H19.5859V20.7541H21.5859Z" fill="black" mask="url(#path-11-inside-2_620_2)"/>
<path d="M18.8305 16.6299V17.5331H18.1797V16.6299H18.8305Z" fill="black" stroke="black"/>
<path d="M18.8305 21.9854V22.8886H18.1797V21.9854H18.8305Z" fill="black" stroke="black"/>
</svg>
